G04 This is an RS-274x file exported by *
G04 gerbv version 2.6.1 *
G04 More information is available about gerbv at *
G04 http://gerbv.geda-project.org/ *
G04 --End of header info--*
%MOIN*%
%FSLAX34Y34*%
%IPPOS*%
G04 --Define apertures--*
%ADD10C,0.0110*%
%ADD11C,0.0080*%
%ADD12C,0.0040*%
%ADD13C,0.0050*%
G04 --Start main section--*
G54D10*
G01X0004452Y0003888D02*
G01X0004452Y0004322D01*
G01X0004235Y0004105D02*
G01X0004669Y0004105D01*
G01X0004935Y0004105D02*
G01X0004935Y0004431D01*
G01X0004935Y0004431D02*
G01X0005369Y0004431D01*
G01X0005260Y0004214D02*
G01X0005369Y0004105D01*
G01X0005369Y0004105D02*
G01X0005369Y0003888D01*
G01X0005369Y0003888D02*
G01X0005260Y0003780D01*
G01X0005260Y0003780D02*
G01X0005043Y0003780D01*
G01X0005043Y0003780D02*
G01X0004935Y0003888D01*
G01X0004935Y0004105D02*
G01X0005152Y0004214D01*
G01X0005152Y0004214D02*
G01X0005260Y0004214D01*
G01X0005635Y0004431D02*
G01X0005635Y0003997D01*
G01X0005635Y0003997D02*
G01X0005851Y0003780D01*
G01X0005851Y0003780D02*
G01X0006068Y0003997D01*
G01X0006068Y0003997D02*
G01X0006068Y0004431D01*
G01X0007034Y0004431D02*
G01X0007359Y0004431D01*
G01X0007359Y0004431D02*
G01X0007468Y0004322D01*
G01X0007468Y0004322D02*
G01X0007468Y0004105D01*
G01X0007468Y0004105D02*
G01X0007359Y0003997D01*
G01X0007359Y0003997D02*
G01X0007034Y0003997D01*
G01X0007034Y0003780D02*
G01X0007034Y0004431D01*
G01X0007734Y0004431D02*
G01X0007734Y0003780D01*
G01X0007734Y0003780D02*
G01X0008168Y0003780D01*
G01X0008434Y0003780D02*
G01X0008434Y0004214D01*
G01X0008434Y0004214D02*
G01X0008651Y0004431D01*
G01X0008651Y0004431D02*
G01X0008867Y0004214D01*
G01X0008867Y0004214D02*
G01X0008867Y0003780D01*
G01X0009134Y0003780D02*
G01X0009134Y0004431D01*
G01X0009134Y0004431D02*
G01X0009567Y0003780D01*
G01X0009567Y0003780D02*
G01X0009567Y0004431D01*
G01X0009833Y0004431D02*
G01X0009833Y0003780D01*
G01X0009833Y0003780D02*
G01X0010267Y0003780D01*
G01X0010050Y0004105D02*
G01X0009833Y0004105D01*
G01X0009833Y0004431D02*
G01X0010267Y0004431D01*
G01X0008867Y0004105D02*
G01X0008434Y0004105D01*
G01X0014235Y0004105D02*
G01X0014669Y0004105D01*
G01X0014935Y0004105D02*
G01X0015152Y0004214D01*
G01X0015152Y0004214D02*
G01X0015260Y0004214D01*
G01X0015260Y0004214D02*
G01X0015369Y0004105D01*
G01X0015369Y0004105D02*
G01X0015369Y0003888D01*
G01X0015369Y0003888D02*
G01X0015260Y0003780D01*
G01X0015260Y0003780D02*
G01X0015043Y0003780D01*
G01X0015043Y0003780D02*
G01X0014935Y0003888D01*
G01X0014935Y0004105D02*
G01X0014935Y0004431D01*
G01X0014935Y0004431D02*
G01X0015369Y0004431D01*
G01X0015635Y0004431D02*
G01X0015635Y0003997D01*
G01X0015635Y0003997D02*
G01X0015851Y0003780D01*
G01X0015851Y0003780D02*
G01X0016068Y0003997D01*
G01X0016068Y0003997D02*
G01X0016068Y0004431D01*
G01X0017034Y0004431D02*
G01X0017034Y0003780D01*
G01X0017034Y0003997D02*
G01X0017359Y0003997D01*
G01X0017359Y0003997D02*
G01X0017468Y0004105D01*
G01X0017468Y0004105D02*
G01X0017468Y0004322D01*
G01X0017468Y0004322D02*
G01X0017359Y0004431D01*
G01X0017359Y0004431D02*
G01X0017034Y0004431D01*
G01X0017734Y0004431D02*
G01X0017734Y0003780D01*
G01X0017734Y0003780D02*
G01X0018168Y0003780D01*
G01X0018434Y0003780D02*
G01X0018434Y0004214D01*
G01X0018434Y0004214D02*
G01X0018651Y0004431D01*
G01X0018651Y0004431D02*
G01X0018867Y0004214D01*
G01X0018867Y0004214D02*
G01X0018867Y0003780D01*
G01X0019134Y0003780D02*
G01X0019134Y0004431D01*
G01X0019134Y0004431D02*
G01X0019567Y0003780D01*
G01X0019567Y0003780D02*
G01X0019567Y0004431D01*
G01X0019833Y0004431D02*
G01X0019833Y0003780D01*
G01X0019833Y0003780D02*
G01X0020267Y0003780D01*
G01X0020050Y0004105D02*
G01X0019833Y0004105D01*
G01X0019833Y0004431D02*
G01X0020267Y0004431D01*
G01X0018867Y0004105D02*
G01X0018434Y0004105D01*
G01X0014452Y0004322D02*
G01X0014452Y0003888D01*
G01X0024235Y0004105D02*
G01X0024669Y0004105D01*
G01X0024935Y0004105D02*
G01X0024935Y0004431D01*
G01X0024935Y0004431D02*
G01X0025369Y0004431D01*
G01X0025260Y0004214D02*
G01X0025369Y0004105D01*
G01X0025369Y0004105D02*
G01X0025369Y0003888D01*
G01X0025369Y0003888D02*
G01X0025260Y0003780D01*
G01X0025260Y0003780D02*
G01X0025043Y0003780D01*
G01X0025043Y0003780D02*
G01X0024935Y0003888D01*
G01X0024935Y0004105D02*
G01X0025152Y0004214D01*
G01X0025152Y0004214D02*
G01X0025260Y0004214D01*
G01X0025635Y0004431D02*
G01X0025635Y0003997D01*
G01X0025635Y0003997D02*
G01X0025851Y0003780D01*
G01X0025851Y0003780D02*
G01X0026068Y0003997D01*
G01X0026068Y0003997D02*
G01X0026068Y0004431D01*
G01X0027034Y0004431D02*
G01X0027359Y0004431D01*
G01X0027359Y0004431D02*
G01X0027468Y0004322D01*
G01X0027468Y0004322D02*
G01X0027468Y0004105D01*
G01X0027468Y0004105D02*
G01X0027359Y0003997D01*
G01X0027359Y0003997D02*
G01X0027034Y0003997D01*
G01X0027034Y0003780D02*
G01X0027034Y0004431D01*
G01X0027734Y0004431D02*
G01X0027734Y0003780D01*
G01X0027734Y0003780D02*
G01X0028168Y0003780D01*
G01X0028434Y0003780D02*
G01X0028434Y0004214D01*
G01X0028434Y0004214D02*
G01X0028651Y0004431D01*
G01X0028651Y0004431D02*
G01X0028867Y0004214D01*
G01X0028867Y0004214D02*
G01X0028867Y0003780D01*
G01X0029134Y0003780D02*
G01X0029134Y0004431D01*
G01X0029134Y0004431D02*
G01X0029567Y0003780D01*
G01X0029567Y0003780D02*
G01X0029567Y0004431D01*
G01X0029833Y0004431D02*
G01X0029833Y0003780D01*
G01X0029833Y0003780D02*
G01X0030267Y0003780D01*
G01X0030050Y0004105D02*
G01X0029833Y0004105D01*
G01X0029833Y0004431D02*
G01X0030267Y0004431D01*
G01X0028867Y0004105D02*
G01X0028434Y0004105D01*
G01X0024452Y0004322D02*
G01X0024452Y0003888D01*
G01X0034235Y0004105D02*
G01X0034669Y0004105D01*
G01X0034935Y0004105D02*
G01X0035152Y0004214D01*
G01X0035152Y0004214D02*
G01X0035260Y0004214D01*
G01X0035260Y0004214D02*
G01X0035369Y0004105D01*
G01X0035369Y0004105D02*
G01X0035369Y0003888D01*
G01X0035369Y0003888D02*
G01X0035260Y0003780D01*
G01X0035260Y0003780D02*
G01X0035043Y0003780D01*
G01X0035043Y0003780D02*
G01X0034935Y0003888D01*
G01X0034935Y0004105D02*
G01X0034935Y0004431D01*
G01X0034935Y0004431D02*
G01X0035369Y0004431D01*
G01X0035635Y0004431D02*
G01X0035635Y0003997D01*
G01X0035635Y0003997D02*
G01X0035851Y0003780D01*
G01X0035851Y0003780D02*
G01X0036068Y0003997D01*
G01X0036068Y0003997D02*
G01X0036068Y0004431D01*
G01X0037034Y0004431D02*
G01X0037034Y0003780D01*
G01X0037034Y0003997D02*
G01X0037359Y0003997D01*
G01X0037359Y0003997D02*
G01X0037468Y0004105D01*
G01X0037468Y0004105D02*
G01X0037468Y0004322D01*
G01X0037468Y0004322D02*
G01X0037359Y0004431D01*
G01X0037359Y0004431D02*
G01X0037034Y0004431D01*
G01X0037734Y0004431D02*
G01X0037734Y0003780D01*
G01X0037734Y0003780D02*
G01X0038168Y0003780D01*
G01X0038434Y0003780D02*
G01X0038434Y0004214D01*
G01X0038434Y0004214D02*
G01X0038651Y0004431D01*
G01X0038651Y0004431D02*
G01X0038867Y0004214D01*
G01X0038867Y0004214D02*
G01X0038867Y0003780D01*
G01X0039134Y0003780D02*
G01X0039134Y0004431D01*
G01X0039134Y0004431D02*
G01X0039567Y0003780D01*
G01X0039567Y0003780D02*
G01X0039567Y0004431D01*
G01X0039833Y0004431D02*
G01X0039833Y0003780D01*
G01X0039833Y0003780D02*
G01X0040267Y0003780D01*
G01X0040050Y0004105D02*
G01X0039833Y0004105D01*
G01X0039833Y0004431D02*
G01X0040267Y0004431D01*
G01X0038867Y0004105D02*
G01X0038434Y0004105D01*
G01X0034452Y0004322D02*
G01X0034452Y0003888D01*
G54D11*
G01X0017763Y0041265D02*
G01X0017482Y0041265D01*
G01X0017482Y0041265D02*
G01X0017763Y0041545D01*
G01X0017763Y0041545D02*
G01X0017763Y0041615D01*
G01X0017763Y0041615D02*
G01X0017693Y0041685D01*
G01X0017693Y0041685D02*
G01X0017552Y0041685D01*
G01X0017552Y0041685D02*
G01X0017482Y0041615D01*
G01X0017162Y0041685D02*
G01X0017162Y0041265D01*
G01X0017022Y0041265D02*
G01X0017302Y0041265D01*
G01X0017022Y0041545D02*
G01X0017162Y0041685D01*
G01X0016842Y0041615D02*
G01X0016842Y0041335D01*
G01X0016842Y0041335D02*
G01X0016772Y0041265D01*
G01X0016772Y0041265D02*
G01X0016632Y0041265D01*
G01X0016632Y0041265D02*
G01X0016562Y0041335D01*
G01X0016632Y0041475D02*
G01X0016842Y0041475D01*
G01X0016842Y0041615D02*
G01X0016772Y0041685D01*
G01X0016772Y0041685D02*
G01X0016632Y0041685D01*
G01X0016632Y0041685D02*
G01X0016562Y0041615D01*
G01X0016562Y0041615D02*
G01X0016562Y0041545D01*
G01X0016562Y0041545D02*
G01X0016632Y0041475D01*
G01X0016381Y0041265D02*
G01X0016101Y0041265D01*
G01X0016241Y0041265D02*
G01X0016241Y0041685D01*
G01X0016241Y0041685D02*
G01X0016101Y0041545D01*
G01X0015461Y0041265D02*
G01X0015180Y0041265D01*
G01X0015321Y0041265D02*
G01X0015321Y0041685D01*
G01X0015321Y0041685D02*
G01X0015180Y0041545D01*
G01X0015000Y0041405D02*
G01X0015000Y0041685D01*
G01X0015000Y0041405D02*
G01X0014860Y0041265D01*
G01X0014860Y0041265D02*
G01X0014720Y0041405D01*
G01X0014720Y0041405D02*
G01X0014720Y0041685D01*
G01X0014970Y0042015D02*
G01X0015250Y0042435D01*
G01X0015430Y0042435D02*
G01X0015571Y0042295D01*
G01X0015571Y0042295D02*
G01X0015711Y0042435D01*
G01X0015711Y0042435D02*
G01X0015711Y0042015D01*
G01X0015891Y0042015D02*
G01X0016031Y0042015D01*
G01X0015961Y0042015D02*
G01X0015961Y0042435D01*
G01X0015891Y0042435D02*
G01X0016031Y0042435D01*
G01X0016198Y0042365D02*
G01X0016198Y0042085D01*
G01X0016198Y0042085D02*
G01X0016268Y0042015D01*
G01X0016268Y0042015D02*
G01X0016408Y0042015D01*
G01X0016408Y0042015D02*
G01X0016478Y0042085D01*
G01X0016658Y0042015D02*
G01X0016658Y0042435D01*
G01X0016658Y0042435D02*
G01X0016868Y0042435D01*
G01X0016868Y0042435D02*
G01X0016938Y0042365D01*
G01X0016938Y0042365D02*
G01X0016938Y0042225D01*
G01X0016938Y0042225D02*
G01X0016868Y0042155D01*
G01X0016868Y0042155D02*
G01X0016658Y0042155D01*
G01X0016798Y0042155D02*
G01X0016938Y0042015D01*
G01X0017118Y0042085D02*
G01X0017189Y0042015D01*
G01X0017189Y0042015D02*
G01X0017329Y0042015D01*
G01X0017329Y0042015D02*
G01X0017399Y0042085D01*
G01X0017399Y0042085D02*
G01X0017399Y0042365D01*
G01X0017399Y0042365D02*
G01X0017329Y0042435D01*
G01X0017329Y0042435D02*
G01X0017189Y0042435D01*
G01X0017189Y0042435D02*
G01X0017118Y0042365D01*
G01X0017118Y0042365D02*
G01X0017118Y0042085D01*
G01X0017579Y0042225D02*
G01X0017859Y0042225D01*
G01X0018039Y0042155D02*
G01X0018249Y0042155D01*
G01X0018249Y0042155D02*
G01X0018320Y0042225D01*
G01X0018320Y0042225D02*
G01X0018320Y0042365D01*
G01X0018320Y0042365D02*
G01X0018249Y0042435D01*
G01X0018249Y0042435D02*
G01X0018039Y0042435D01*
G01X0018039Y0042435D02*
G01X0018039Y0042015D01*
G01X0018500Y0042015D02*
G01X0018500Y0042435D01*
G01X0018500Y0042435D02*
G01X0018710Y0042435D01*
G01X0018710Y0042435D02*
G01X0018780Y0042365D01*
G01X0018780Y0042365D02*
G01X0018780Y0042225D01*
G01X0018780Y0042225D02*
G01X0018710Y0042155D01*
G01X0018710Y0042155D02*
G01X0018500Y0042155D01*
G01X0018640Y0042155D02*
G01X0018780Y0042015D01*
G01X0018960Y0042085D02*
G01X0019030Y0042015D01*
G01X0019030Y0042015D02*
G01X0019170Y0042015D01*
G01X0019170Y0042015D02*
G01X0019240Y0042085D01*
G01X0019240Y0042085D02*
G01X0019240Y0042365D01*
G01X0019240Y0042365D02*
G01X0019170Y0042435D01*
G01X0019170Y0042435D02*
G01X0019030Y0042435D01*
G01X0019030Y0042435D02*
G01X0018960Y0042365D01*
G01X0018960Y0042365D02*
G01X0018960Y0042085D01*
G01X0019420Y0042435D02*
G01X0019701Y0042435D01*
G01X0019561Y0042435D02*
G01X0019561Y0042015D01*
G01X0019881Y0042085D02*
G01X0019951Y0042015D01*
G01X0019951Y0042015D02*
G01X0020091Y0042015D01*
G01X0020091Y0042015D02*
G01X0020161Y0042085D01*
G01X0020161Y0042085D02*
G01X0020161Y0042365D01*
G01X0020161Y0042365D02*
G01X0020091Y0042435D01*
G01X0020091Y0042435D02*
G01X0019951Y0042435D01*
G01X0019951Y0042435D02*
G01X0019881Y0042365D01*
G01X0019881Y0042365D02*
G01X0019881Y0042085D01*
G01X0016478Y0042365D02*
G01X0016408Y0042435D01*
G01X0016408Y0042435D02*
G01X0016268Y0042435D01*
G01X0016268Y0042435D02*
G01X0016198Y0042365D01*
G01X0015430Y0042435D02*
G01X0015430Y0042015D01*
G01X0015250Y0042015D02*
G01X0014970Y0042435D01*
G54D12*
G01X0049460Y0006573D02*
G01X0049460Y0005100D01*
G01X0049540Y0005120D02*
G01X0049540Y0005260D01*
G01X0049540Y0005260D02*
G01X0049586Y0005307D01*
G01X0049586Y0005307D02*
G01X0049633Y0005307D01*
G01X0049633Y0005307D02*
G01X0049680Y0005260D01*
G01X0049680Y0005260D02*
G01X0049680Y0005120D01*
G01X0049820Y0005120D02*
G01X0049820Y0005260D01*
G01X0049820Y0005260D02*
G01X0049773Y0005307D01*
G01X0049773Y0005307D02*
G01X0049727Y0005307D01*
G01X0049727Y0005307D02*
G01X0049680Y0005260D01*
G01X0049773Y0005415D02*
G01X0049820Y0005461D01*
G01X0049820Y0005461D02*
G01X0049820Y0005555D01*
G01X0049820Y0005555D02*
G01X0049773Y0005601D01*
G01X0049773Y0005601D02*
G01X0049540Y0005601D01*
G01X0049586Y0005709D02*
G01X0049633Y0005709D01*
G01X0049633Y0005709D02*
G01X0049680Y0005756D01*
G01X0049680Y0005756D02*
G01X0049680Y0005849D01*
G01X0049680Y0005849D02*
G01X0049727Y0005896D01*
G01X0049727Y0005896D02*
G01X0049773Y0005896D01*
G01X0049773Y0005896D02*
G01X0049820Y0005849D01*
G01X0049820Y0005849D02*
G01X0049820Y0005756D01*
G01X0049820Y0005756D02*
G01X0049773Y0005709D01*
G01X0049586Y0005709D02*
G01X0049540Y0005756D01*
G01X0049540Y0005756D02*
G01X0049540Y0005849D01*
G01X0049540Y0005849D02*
G01X0049586Y0005896D01*
G01X0049540Y0006004D02*
G01X0049540Y0006144D01*
G01X0049540Y0006144D02*
G01X0049586Y0006191D01*
G01X0049586Y0006191D02*
G01X0049680Y0006191D01*
G01X0049680Y0006191D02*
G01X0049727Y0006144D01*
G01X0049727Y0006144D02*
G01X0049727Y0006004D01*
G01X0049820Y0006004D02*
G01X0049540Y0006004D01*
G01X0049727Y0006097D02*
G01X0049820Y0006191D01*
G01X0049773Y0006299D02*
G01X0049820Y0006345D01*
G01X0049820Y0006345D02*
G01X0049820Y0006439D01*
G01X0049820Y0006439D02*
G01X0049773Y0006485D01*
G01X0049773Y0006485D02*
G01X0049586Y0006485D01*
G01X0049586Y0006485D02*
G01X0049540Y0006439D01*
G01X0049540Y0006439D02*
G01X0049540Y0006345D01*
G01X0049540Y0006345D02*
G01X0049586Y0006299D01*
G01X0049586Y0006299D02*
G01X0049773Y0006299D01*
G01X0049727Y0006392D02*
G01X0049820Y0006485D01*
G01X0049960Y0005886D02*
G01X0049960Y0005100D01*
G01X0050040Y0005120D02*
G01X0050040Y0005213D01*
G01X0050040Y0005167D02*
G01X0050320Y0005167D01*
G01X0050320Y0005213D02*
G01X0050320Y0005120D01*
G01X0050460Y0005100D02*
G01X0050460Y0005984D01*
G01X0050586Y0005896D02*
G01X0050680Y0005896D01*
G01X0050680Y0005896D02*
G01X0050727Y0005849D01*
G01X0050727Y0005849D02*
G01X0050727Y0005709D01*
G01X0050820Y0005709D02*
G01X0050540Y0005709D01*
G01X0050540Y0005709D02*
G01X0050540Y0005849D01*
G01X0050540Y0005849D02*
G01X0050586Y0005896D01*
G01X0050727Y0005803D02*
G01X0050820Y0005896D01*
G01X0051040Y0005906D02*
G01X0051320Y0005906D01*
G01X0051320Y0005798D02*
G01X0051040Y0005798D01*
G01X0051180Y0005906D02*
G01X0051180Y0006093D01*
G01X0051040Y0006093D02*
G01X0051320Y0006093D01*
G01X0051460Y0005984D02*
G01X0051460Y0005100D01*
G01X0051540Y0005120D02*
G01X0051540Y0005260D01*
G01X0051540Y0005260D02*
G01X0051586Y0005307D01*
G01X0051586Y0005307D02*
G01X0051680Y0005307D01*
G01X0051680Y0005307D02*
G01X0051727Y0005260D01*
G01X0051727Y0005260D02*
G01X0051727Y0005120D01*
G01X0051820Y0005120D02*
G01X0051540Y0005120D01*
G01X0051727Y0005213D02*
G01X0051820Y0005307D01*
G01X0051773Y0005415D02*
G01X0051820Y0005461D01*
G01X0051820Y0005461D02*
G01X0051820Y0005555D01*
G01X0051820Y0005555D02*
G01X0051773Y0005601D01*
G01X0051773Y0005601D02*
G01X0051727Y0005601D01*
G01X0051727Y0005601D02*
G01X0051680Y0005555D01*
G01X0051680Y0005555D02*
G01X0051680Y0005461D01*
G01X0051680Y0005461D02*
G01X0051633Y0005415D01*
G01X0051633Y0005415D02*
G01X0051586Y0005415D01*
G01X0051586Y0005415D02*
G01X0051540Y0005461D01*
G01X0051540Y0005461D02*
G01X0051540Y0005555D01*
G01X0051540Y0005555D02*
G01X0051586Y0005601D01*
G01X0051540Y0005709D02*
G01X0051540Y0005896D01*
G01X0051540Y0005803D02*
G01X0051820Y0005803D01*
G01X0052040Y0005896D02*
G01X0052227Y0005709D01*
G01X0052180Y0005756D02*
G01X0052320Y0005896D01*
G01X0052320Y0005709D02*
G01X0052040Y0005709D01*
G01X0052040Y0005415D02*
G01X0052320Y0005415D01*
G01X0052320Y0005415D02*
G01X0052320Y0005601D01*
G01X0052540Y0005658D02*
G01X0052586Y0005611D01*
G01X0052586Y0005611D02*
G01X0052633Y0005611D01*
G01X0052633Y0005611D02*
G01X0052680Y0005658D01*
G01X0052680Y0005658D02*
G01X0052680Y0005751D01*
G01X0052680Y0005751D02*
G01X0052727Y0005798D01*
G01X0052727Y0005798D02*
G01X0052773Y0005798D01*
G01X0052773Y0005798D02*
G01X0052820Y0005751D01*
G01X0052820Y0005751D02*
G01X0052820Y0005658D01*
G01X0052820Y0005658D02*
G01X0052773Y0005611D01*
G01X0052773Y0005503D02*
G01X0052586Y0005503D01*
G01X0052586Y0005503D02*
G01X0052540Y0005457D01*
G01X0052540Y0005457D02*
G01X0052540Y0005363D01*
G01X0052540Y0005363D02*
G01X0052586Y0005316D01*
G01X0052586Y0005316D02*
G01X0052773Y0005316D01*
G01X0052773Y0005316D02*
G01X0052820Y0005363D01*
G01X0052820Y0005363D02*
G01X0052820Y0005457D01*
G01X0052820Y0005457D02*
G01X0052773Y0005503D01*
G01X0053040Y0005508D02*
G01X0053133Y0005601D01*
G01X0053133Y0005601D02*
G01X0053320Y0005601D01*
G01X0053320Y0005709D02*
G01X0053320Y0005896D01*
G01X0053320Y0005709D02*
G01X0053040Y0005709D01*
G01X0053180Y0005601D02*
G01X0053180Y0005415D01*
G01X0053133Y0005415D02*
G01X0053040Y0005508D01*
G01X0053133Y0005415D02*
G01X0053320Y0005415D01*
G01X0053320Y0005307D02*
G01X0053040Y0005307D01*
G01X0053180Y0005307D02*
G01X0053180Y0005120D01*
G01X0053320Y0005120D02*
G01X0053040Y0005120D01*
G01X0052960Y0005100D02*
G01X0052960Y0006279D01*
G01X0053040Y0006191D02*
G01X0053040Y0006004D01*
G01X0053040Y0006097D02*
G01X0053320Y0006097D01*
G01X0053460Y0006180D02*
G01X0053460Y0005100D01*
G01X0053540Y0005120D02*
G01X0053820Y0005120D01*
G01X0053820Y0005120D02*
G01X0053727Y0005213D01*
G01X0053727Y0005213D02*
G01X0053820Y0005307D01*
G01X0053820Y0005307D02*
G01X0053540Y0005307D01*
G01X0053633Y0005415D02*
G01X0053540Y0005508D01*
G01X0053540Y0005508D02*
G01X0053633Y0005601D01*
G01X0053633Y0005601D02*
G01X0053820Y0005601D01*
G01X0053820Y0005709D02*
G01X0053820Y0005803D01*
G01X0053820Y0005756D02*
G01X0053540Y0005756D01*
G01X0053540Y0005709D02*
G01X0053540Y0005803D01*
G01X0053540Y0005906D02*
G01X0053540Y0006093D01*
G01X0053540Y0005999D02*
G01X0053820Y0005999D01*
G01X0054040Y0006051D02*
G01X0054040Y0006144D01*
G01X0054040Y0006144D02*
G01X0054086Y0006191D01*
G01X0054040Y0006299D02*
G01X0054320Y0006299D01*
G01X0054273Y0006191D02*
G01X0054320Y0006144D01*
G01X0054320Y0006144D02*
G01X0054320Y0006051D01*
G01X0054320Y0006051D02*
G01X0054273Y0006004D01*
G01X0054273Y0006004D02*
G01X0054086Y0006004D01*
G01X0054086Y0006004D02*
G01X0054040Y0006051D01*
G01X0054040Y0005896D02*
G01X0054040Y0005709D01*
G01X0054040Y0005803D02*
G01X0054320Y0005803D01*
G01X0054320Y0005601D02*
G01X0054320Y0005415D01*
G01X0054320Y0005415D02*
G01X0054040Y0005415D01*
G01X0054040Y0005415D02*
G01X0054040Y0005601D01*
G01X0054180Y0005508D02*
G01X0054180Y0005415D01*
G01X0054040Y0005307D02*
G01X0054040Y0005120D01*
G01X0054040Y0005120D02*
G01X0054320Y0005120D01*
G01X0054180Y0005120D02*
G01X0054180Y0005213D01*
G01X0053960Y0005100D02*
G01X0053960Y0006573D01*
G01X0054040Y0006485D02*
G01X0054320Y0006485D01*
G01X0054180Y0006485D02*
G01X0054180Y0006299D01*
G01X0054540Y0006345D02*
G01X0054586Y0006299D01*
G01X0054586Y0006299D02*
G01X0054773Y0006299D01*
G01X0054773Y0006299D02*
G01X0054820Y0006345D01*
G01X0054820Y0006345D02*
G01X0054820Y0006439D01*
G01X0054820Y0006439D02*
G01X0054773Y0006485D01*
G01X0054727Y0006593D02*
G01X0054540Y0006780D01*
G01X0054460Y0006868D02*
G01X0054460Y0005100D01*
G01X0054540Y0005120D02*
G01X0054540Y0005260D01*
G01X0054540Y0005260D02*
G01X0054586Y0005307D01*
G01X0054586Y0005307D02*
G01X0054633Y0005307D01*
G01X0054633Y0005307D02*
G01X0054680Y0005260D01*
G01X0054680Y0005260D02*
G01X0054680Y0005120D01*
G01X0054820Y0005120D02*
G01X0054820Y0005260D01*
G01X0054820Y0005260D02*
G01X0054773Y0005307D01*
G01X0054773Y0005307D02*
G01X0054727Y0005307D01*
G01X0054727Y0005307D02*
G01X0054680Y0005260D01*
G01X0054773Y0005415D02*
G01X0054820Y0005461D01*
G01X0054820Y0005461D02*
G01X0054820Y0005555D01*
G01X0054820Y0005555D02*
G01X0054773Y0005601D01*
G01X0054773Y0005601D02*
G01X0054540Y0005601D01*
G01X0054586Y0005709D02*
G01X0054633Y0005709D01*
G01X0054633Y0005709D02*
G01X0054680Y0005756D01*
G01X0054680Y0005756D02*
G01X0054680Y0005849D01*
G01X0054680Y0005849D02*
G01X0054727Y0005896D01*
G01X0054727Y0005896D02*
G01X0054773Y0005896D01*
G01X0054773Y0005896D02*
G01X0054820Y0005849D01*
G01X0054820Y0005849D02*
G01X0054820Y0005756D01*
G01X0054820Y0005756D02*
G01X0054773Y0005709D01*
G01X0054586Y0005709D02*
G01X0054540Y0005756D01*
G01X0054540Y0005756D02*
G01X0054540Y0005849D01*
G01X0054540Y0005849D02*
G01X0054586Y0005896D01*
G01X0054633Y0006004D02*
G01X0054540Y0006097D01*
G01X0054540Y0006097D02*
G01X0054633Y0006191D01*
G01X0054633Y0006191D02*
G01X0054820Y0006191D01*
G01X0054680Y0006191D02*
G01X0054680Y0006004D01*
G01X0054633Y0006004D02*
G01X0054820Y0006004D01*
G01X0054960Y0005689D02*
G01X0054960Y0005100D01*
G01X0055040Y0005120D02*
G01X0055040Y0005260D01*
G01X0055040Y0005260D02*
G01X0055086Y0005307D01*
G01X0055086Y0005307D02*
G01X0055180Y0005307D01*
G01X0055180Y0005307D02*
G01X0055227Y0005260D01*
G01X0055227Y0005260D02*
G01X0055227Y0005120D01*
G01X0055320Y0005120D02*
G01X0055040Y0005120D01*
G01X0055227Y0005213D02*
G01X0055320Y0005307D01*
G01X0055320Y0005415D02*
G01X0055320Y0005555D01*
G01X0055320Y0005555D02*
G01X0055273Y0005601D01*
G01X0055273Y0005601D02*
G01X0055086Y0005601D01*
G01X0055086Y0005601D02*
G01X0055040Y0005555D01*
G01X0055040Y0005555D02*
G01X0055040Y0005415D01*
G01X0055040Y0005415D02*
G01X0055320Y0005415D01*
G01X0055540Y0005415D02*
G01X0055540Y0005555D01*
G01X0055540Y0005555D02*
G01X0055586Y0005601D01*
G01X0055586Y0005601D02*
G01X0055680Y0005601D01*
G01X0055680Y0005601D02*
G01X0055727Y0005555D01*
G01X0055727Y0005555D02*
G01X0055727Y0005415D01*
G01X0055820Y0005415D02*
G01X0055540Y0005415D01*
G01X0055540Y0005307D02*
G01X0055820Y0005307D01*
G01X0055820Y0005307D02*
G01X0055727Y0005213D01*
G01X0055727Y0005213D02*
G01X0055820Y0005120D01*
G01X0055820Y0005120D02*
G01X0055540Y0005120D01*
G01X0055460Y0005100D02*
G01X0055460Y0005689D01*
G01X0055727Y0005508D02*
G01X0055820Y0005601D01*
G01X0056040Y0005555D02*
G01X0056086Y0005601D01*
G01X0056086Y0005601D02*
G01X0056273Y0005415D01*
G01X0056273Y0005415D02*
G01X0056320Y0005461D01*
G01X0056320Y0005461D02*
G01X0056320Y0005555D01*
G01X0056320Y0005555D02*
G01X0056273Y0005601D01*
G01X0056273Y0005601D02*
G01X0056086Y0005601D01*
G01X0056040Y0005555D02*
G01X0056040Y0005461D01*
G01X0056040Y0005461D02*
G01X0056086Y0005415D01*
G01X0056086Y0005415D02*
G01X0056273Y0005415D01*
G01X0056320Y0005307D02*
G01X0056133Y0005307D01*
G01X0056133Y0005307D02*
G01X0056040Y0005213D01*
G01X0056040Y0005213D02*
G01X0056133Y0005120D01*
G01X0056133Y0005120D02*
G01X0056320Y0005120D01*
G01X0056180Y0005120D02*
G01X0056180Y0005307D01*
G01X0056540Y0005213D02*
G01X0056633Y0005120D01*
G01X0056633Y0005120D02*
G01X0056820Y0005120D01*
G01X0056680Y0005120D02*
G01X0056680Y0005307D01*
G01X0056633Y0005307D02*
G01X0056820Y0005307D01*
G01X0056820Y0005415D02*
G01X0056820Y0005601D01*
G01X0056820Y0005508D02*
G01X0056540Y0005508D01*
G01X0056540Y0005508D02*
G01X0056633Y0005415D01*
G01X0056633Y0005307D02*
G01X0056540Y0005213D01*
G01X0057040Y0005213D02*
G01X0057133Y0005307D01*
G01X0057133Y0005307D02*
G01X0057320Y0005307D01*
G01X0057320Y0005415D02*
G01X0057133Y0005601D01*
G01X0057133Y0005601D02*
G01X0057086Y0005601D01*
G01X0057086Y0005601D02*
G01X0057040Y0005555D01*
G01X0057040Y0005555D02*
G01X0057040Y0005461D01*
G01X0057040Y0005461D02*
G01X0057086Y0005415D01*
G01X0057180Y0005307D02*
G01X0057180Y0005120D01*
G01X0057133Y0005120D02*
G01X0057040Y0005213D01*
G01X0057133Y0005120D02*
G01X0057320Y0005120D01*
G01X0057540Y0005213D02*
G01X0057633Y0005120D01*
G01X0057633Y0005120D02*
G01X0057820Y0005120D01*
G01X0057680Y0005120D02*
G01X0057680Y0005307D01*
G01X0057633Y0005307D02*
G01X0057820Y0005307D01*
G01X0057773Y0005415D02*
G01X0057820Y0005461D01*
G01X0057820Y0005461D02*
G01X0057820Y0005555D01*
G01X0057820Y0005555D02*
G01X0057773Y0005601D01*
G01X0057773Y0005601D02*
G01X0057727Y0005601D01*
G01X0057727Y0005601D02*
G01X0057680Y0005555D01*
G01X0057680Y0005555D02*
G01X0057680Y0005508D01*
G01X0057680Y0005555D02*
G01X0057633Y0005601D01*
G01X0057633Y0005601D02*
G01X0057586Y0005601D01*
G01X0057586Y0005601D02*
G01X0057540Y0005555D01*
G01X0057540Y0005555D02*
G01X0057540Y0005461D01*
G01X0057540Y0005461D02*
G01X0057586Y0005415D01*
G01X0057633Y0005307D02*
G01X0057540Y0005213D01*
G01X0057320Y0005415D02*
G01X0057320Y0005601D01*
G01X0058040Y0005555D02*
G01X0058180Y0005415D01*
G01X0058180Y0005415D02*
G01X0058180Y0005601D01*
G01X0058320Y0005555D02*
G01X0058040Y0005555D01*
G01X0058133Y0005307D02*
G01X0058320Y0005307D01*
G01X0058180Y0005307D02*
G01X0058180Y0005120D01*
G01X0058133Y0005120D02*
G01X0058040Y0005213D01*
G01X0058040Y0005213D02*
G01X0058133Y0005307D01*
G01X0058133Y0005120D02*
G01X0058320Y0005120D01*
G01X0058540Y0005213D02*
G01X0058633Y0005120D01*
G01X0058633Y0005120D02*
G01X0058820Y0005120D01*
G01X0058680Y0005120D02*
G01X0058680Y0005307D01*
G01X0058633Y0005307D02*
G01X0058820Y0005307D01*
G01X0058773Y0005415D02*
G01X0058820Y0005461D01*
G01X0058820Y0005461D02*
G01X0058820Y0005555D01*
G01X0058820Y0005555D02*
G01X0058773Y0005601D01*
G01X0058773Y0005601D02*
G01X0058680Y0005601D01*
G01X0058680Y0005601D02*
G01X0058633Y0005555D01*
G01X0058633Y0005555D02*
G01X0058633Y0005508D01*
G01X0058633Y0005508D02*
G01X0058680Y0005415D01*
G01X0058680Y0005415D02*
G01X0058540Y0005415D01*
G01X0058540Y0005415D02*
G01X0058540Y0005601D01*
G01X0058633Y0005307D02*
G01X0058540Y0005213D01*
G01X0059040Y0005213D02*
G01X0059133Y0005120D01*
G01X0059133Y0005120D02*
G01X0059320Y0005120D01*
G01X0059180Y0005120D02*
G01X0059180Y0005307D01*
G01X0059133Y0005307D02*
G01X0059320Y0005307D01*
G01X0059273Y0005415D02*
G01X0059320Y0005461D01*
G01X0059320Y0005461D02*
G01X0059320Y0005555D01*
G01X0059320Y0005555D02*
G01X0059273Y0005601D01*
G01X0059273Y0005601D02*
G01X0059227Y0005601D01*
G01X0059227Y0005601D02*
G01X0059180Y0005555D01*
G01X0059180Y0005555D02*
G01X0059180Y0005415D01*
G01X0059180Y0005415D02*
G01X0059273Y0005415D01*
G01X0059180Y0005415D02*
G01X0059086Y0005508D01*
G01X0059086Y0005508D02*
G01X0059040Y0005601D01*
G01X0059133Y0005307D02*
G01X0059040Y0005213D01*
G01X0059540Y0005213D02*
G01X0059633Y0005120D01*
G01X0059633Y0005120D02*
G01X0059820Y0005120D01*
G01X0059680Y0005120D02*
G01X0059680Y0005307D01*
G01X0059633Y0005307D02*
G01X0059820Y0005307D01*
G01X0059820Y0005415D02*
G01X0059773Y0005415D01*
G01X0059773Y0005415D02*
G01X0059586Y0005601D01*
G01X0059586Y0005601D02*
G01X0059540Y0005601D01*
G01X0059540Y0005601D02*
G01X0059540Y0005415D01*
G01X0059633Y0005307D02*
G01X0059540Y0005213D01*
G01X0060040Y0005213D02*
G01X0060133Y0005307D01*
G01X0060133Y0005307D02*
G01X0060320Y0005307D01*
G01X0060273Y0005415D02*
G01X0060227Y0005415D01*
G01X0060227Y0005415D02*
G01X0060180Y0005461D01*
G01X0060180Y0005461D02*
G01X0060180Y0005555D01*
G01X0060180Y0005555D02*
G01X0060227Y0005601D01*
G01X0060227Y0005601D02*
G01X0060273Y0005601D01*
G01X0060273Y0005601D02*
G01X0060320Y0005555D01*
G01X0060320Y0005555D02*
G01X0060320Y0005461D01*
G01X0060320Y0005461D02*
G01X0060273Y0005415D01*
G01X0060180Y0005461D02*
G01X0060133Y0005415D01*
G01X0060133Y0005415D02*
G01X0060086Y0005415D01*
G01X0060086Y0005415D02*
G01X0060040Y0005461D01*
G01X0060040Y0005461D02*
G01X0060040Y0005555D01*
G01X0060040Y0005555D02*
G01X0060086Y0005601D01*
G01X0060086Y0005601D02*
G01X0060133Y0005601D01*
G01X0060133Y0005601D02*
G01X0060180Y0005555D01*
G01X0060180Y0005307D02*
G01X0060180Y0005120D01*
G01X0060133Y0005120D02*
G01X0060040Y0005213D01*
G01X0060133Y0005120D02*
G01X0060320Y0005120D01*
G01X0060540Y0005213D02*
G01X0060633Y0005120D01*
G01X0060633Y0005120D02*
G01X0060820Y0005120D01*
G01X0060680Y0005120D02*
G01X0060680Y0005307D01*
G01X0060633Y0005307D02*
G01X0060820Y0005307D01*
G01X0060773Y0005415D02*
G01X0060820Y0005461D01*
G01X0060820Y0005461D02*
G01X0060820Y0005555D01*
G01X0060820Y0005555D02*
G01X0060773Y0005601D01*
G01X0060773Y0005601D02*
G01X0060586Y0005601D01*
G01X0060586Y0005601D02*
G01X0060540Y0005555D01*
G01X0060540Y0005555D02*
G01X0060540Y0005461D01*
G01X0060540Y0005461D02*
G01X0060586Y0005415D01*
G01X0060586Y0005415D02*
G01X0060633Y0005415D01*
G01X0060633Y0005415D02*
G01X0060680Y0005461D01*
G01X0060680Y0005461D02*
G01X0060680Y0005601D01*
G01X0060633Y0005307D02*
G01X0060540Y0005213D01*
G01X0061040Y0005213D02*
G01X0061133Y0005307D01*
G01X0061133Y0005307D02*
G01X0061320Y0005307D01*
G01X0061320Y0005415D02*
G01X0061320Y0005601D01*
G01X0061320Y0005508D02*
G01X0061040Y0005508D01*
G01X0061040Y0005508D02*
G01X0061133Y0005415D01*
G01X0061180Y0005307D02*
G01X0061180Y0005120D01*
G01X0061133Y0005120D02*
G01X0061040Y0005213D01*
G01X0061133Y0005120D02*
G01X0061320Y0005120D01*
G01X0061540Y0005213D02*
G01X0061633Y0005120D01*
G01X0061633Y0005120D02*
G01X0061820Y0005120D01*
G01X0061680Y0005120D02*
G01X0061680Y0005307D01*
G01X0061633Y0005307D02*
G01X0061820Y0005307D01*
G01X0061820Y0005415D02*
G01X0061820Y0005601D01*
G01X0061820Y0005508D02*
G01X0061540Y0005508D01*
G01X0061540Y0005508D02*
G01X0061633Y0005415D01*
G01X0061633Y0005307D02*
G01X0061540Y0005213D01*
G01X0062040Y0005213D02*
G01X0062133Y0005120D01*
G01X0062133Y0005120D02*
G01X0062320Y0005120D01*
G01X0062180Y0005120D02*
G01X0062180Y0005307D01*
G01X0062133Y0005307D02*
G01X0062320Y0005307D01*
G01X0062320Y0005415D02*
G01X0062320Y0005601D01*
G01X0062320Y0005508D02*
G01X0062040Y0005508D01*
G01X0062040Y0005508D02*
G01X0062133Y0005415D01*
G01X0062133Y0005307D02*
G01X0062040Y0005213D01*
G01X0062086Y0005709D02*
G01X0062040Y0005756D01*
G01X0062040Y0005756D02*
G01X0062040Y0005849D01*
G01X0062040Y0005849D02*
G01X0062086Y0005896D01*
G01X0062086Y0005896D02*
G01X0062133Y0005896D01*
G01X0062133Y0005896D02*
G01X0062320Y0005709D01*
G01X0062320Y0005709D02*
G01X0062320Y0005896D01*
G01X0062540Y0005849D02*
G01X0062586Y0005896D01*
G01X0062586Y0005896D02*
G01X0062633Y0005896D01*
G01X0062633Y0005896D02*
G01X0062680Y0005849D01*
G01X0062680Y0005849D02*
G01X0062727Y0005896D01*
G01X0062727Y0005896D02*
G01X0062773Y0005896D01*
G01X0062773Y0005896D02*
G01X0062820Y0005849D01*
G01X0062820Y0005849D02*
G01X0062820Y0005756D01*
G01X0062820Y0005756D02*
G01X0062773Y0005709D01*
G01X0062820Y0005601D02*
G01X0062820Y0005415D01*
G01X0062820Y0005508D02*
G01X0062540Y0005508D01*
G01X0062540Y0005508D02*
G01X0062633Y0005415D01*
G01X0062633Y0005307D02*
G01X0062820Y0005307D01*
G01X0062680Y0005307D02*
G01X0062680Y0005120D01*
G01X0062633Y0005120D02*
G01X0062540Y0005213D01*
G01X0062540Y0005213D02*
G01X0062633Y0005307D01*
G01X0062633Y0005120D02*
G01X0062820Y0005120D01*
G01X0063040Y0005213D02*
G01X0063133Y0005120D01*
G01X0063133Y0005120D02*
G01X0063320Y0005120D01*
G01X0063180Y0005120D02*
G01X0063180Y0005307D01*
G01X0063133Y0005307D02*
G01X0063320Y0005307D01*
G01X0063320Y0005415D02*
G01X0063320Y0005601D01*
G01X0063320Y0005508D02*
G01X0063040Y0005508D01*
G01X0063040Y0005508D02*
G01X0063133Y0005415D01*
G01X0063133Y0005307D02*
G01X0063040Y0005213D01*
G01X0063540Y0005213D02*
G01X0063633Y0005120D01*
G01X0063633Y0005120D02*
G01X0063820Y0005120D01*
G01X0063680Y0005120D02*
G01X0063680Y0005307D01*
G01X0063633Y0005307D02*
G01X0063820Y0005307D01*
G01X0063820Y0005415D02*
G01X0063820Y0005601D01*
G01X0063820Y0005508D02*
G01X0063540Y0005508D01*
G01X0063540Y0005508D02*
G01X0063633Y0005415D01*
G01X0063633Y0005307D02*
G01X0063540Y0005213D01*
G01X0063540Y0005709D02*
G01X0063680Y0005709D01*
G01X0063680Y0005709D02*
G01X0063633Y0005803D01*
G01X0063633Y0005803D02*
G01X0063633Y0005849D01*
G01X0063633Y0005849D02*
G01X0063680Y0005896D01*
G01X0063680Y0005896D02*
G01X0063773Y0005896D01*
G01X0063773Y0005896D02*
G01X0063820Y0005849D01*
G01X0063820Y0005849D02*
G01X0063820Y0005756D01*
G01X0063820Y0005756D02*
G01X0063773Y0005709D01*
G01X0063540Y0005709D02*
G01X0063540Y0005896D01*
G01X0063320Y0005849D02*
G01X0063040Y0005849D01*
G01X0063040Y0005849D02*
G01X0063180Y0005709D01*
G01X0063180Y0005709D02*
G01X0063180Y0005896D01*
G01X0062680Y0005849D02*
G01X0062680Y0005803D01*
G01X0062586Y0005709D02*
G01X0062540Y0005756D01*
G01X0062540Y0005756D02*
G01X0062540Y0005849D01*
G01X0061820Y0005803D02*
G01X0061540Y0005803D01*
G01X0061540Y0005803D02*
G01X0061633Y0005709D01*
G01X0061820Y0005709D02*
G01X0061820Y0005896D01*
G01X0061320Y0005849D02*
G01X0061320Y0005756D01*
G01X0061320Y0005756D02*
G01X0061273Y0005709D01*
G01X0061273Y0005709D02*
G01X0061086Y0005896D01*
G01X0061086Y0005896D02*
G01X0061273Y0005896D01*
G01X0061273Y0005896D02*
G01X0061320Y0005849D01*
G01X0061273Y0005709D02*
G01X0061086Y0005709D01*
G01X0061086Y0005709D02*
G01X0061040Y0005756D01*
G01X0061040Y0005756D02*
G01X0061040Y0005849D01*
G01X0061040Y0005849D02*
G01X0061086Y0005896D01*
G01X0064040Y0005896D02*
G01X0064086Y0005803D01*
G01X0064086Y0005803D02*
G01X0064180Y0005709D01*
G01X0064180Y0005709D02*
G01X0064180Y0005849D01*
G01X0064180Y0005849D02*
G01X0064227Y0005896D01*
G01X0064227Y0005896D02*
G01X0064273Y0005896D01*
G01X0064273Y0005896D02*
G01X0064320Y0005849D01*
G01X0064320Y0005849D02*
G01X0064320Y0005756D01*
G01X0064320Y0005756D02*
G01X0064273Y0005709D01*
G01X0064273Y0005709D02*
G01X0064180Y0005709D01*
G01X0064320Y0005601D02*
G01X0064320Y0005415D01*
G01X0064320Y0005508D02*
G01X0064040Y0005508D01*
G01X0064040Y0005508D02*
G01X0064133Y0005415D01*
G01X0064133Y0005307D02*
G01X0064320Y0005307D01*
G01X0064180Y0005307D02*
G01X0064180Y0005120D01*
G01X0064133Y0005120D02*
G01X0064040Y0005213D01*
G01X0064040Y0005213D02*
G01X0064133Y0005307D01*
G01X0064133Y0005120D02*
G01X0064320Y0005120D01*
G01X0064540Y0005213D02*
G01X0064633Y0005120D01*
G01X0064633Y0005120D02*
G01X0064820Y0005120D01*
G01X0064680Y0005120D02*
G01X0064680Y0005307D01*
G01X0064633Y0005307D02*
G01X0064820Y0005307D01*
G01X0064820Y0005415D02*
G01X0064820Y0005601D01*
G01X0064820Y0005508D02*
G01X0064540Y0005508D01*
G01X0064540Y0005508D02*
G01X0064633Y0005415D01*
G01X0064633Y0005307D02*
G01X0064540Y0005213D01*
G01X0064540Y0005709D02*
G01X0064540Y0005896D01*
G01X0064540Y0005896D02*
G01X0064586Y0005896D01*
G01X0064586Y0005896D02*
G01X0064773Y0005709D01*
G01X0064773Y0005709D02*
G01X0064820Y0005709D01*
G01X0065040Y0005756D02*
G01X0065040Y0005849D01*
G01X0065040Y0005849D02*
G01X0065086Y0005896D01*
G01X0065086Y0005896D02*
G01X0065133Y0005896D01*
G01X0065133Y0005896D02*
G01X0065180Y0005849D01*
G01X0065180Y0005849D02*
G01X0065180Y0005756D01*
G01X0065180Y0005756D02*
G01X0065133Y0005709D01*
G01X0065133Y0005709D02*
G01X0065086Y0005709D01*
G01X0065086Y0005709D02*
G01X0065040Y0005756D01*
G01X0065180Y0005756D02*
G01X0065227Y0005709D01*
G01X0065227Y0005709D02*
G01X0065273Y0005709D01*
G01X0065273Y0005709D02*
G01X0065320Y0005756D01*
G01X0065320Y0005756D02*
G01X0065320Y0005849D01*
G01X0065320Y0005849D02*
G01X0065273Y0005896D01*
G01X0065273Y0005896D02*
G01X0065227Y0005896D01*
G01X0065227Y0005896D02*
G01X0065180Y0005849D01*
G01X0065320Y0005601D02*
G01X0065320Y0005415D01*
G01X0065320Y0005508D02*
G01X0065040Y0005508D01*
G01X0065040Y0005508D02*
G01X0065133Y0005415D01*
G01X0065133Y0005307D02*
G01X0065320Y0005307D01*
G01X0065180Y0005307D02*
G01X0065180Y0005120D01*
G01X0065133Y0005120D02*
G01X0065040Y0005213D01*
G01X0065040Y0005213D02*
G01X0065133Y0005307D01*
G01X0065133Y0005120D02*
G01X0065320Y0005120D01*
G01X0065540Y0005213D02*
G01X0065633Y0005120D01*
G01X0065633Y0005120D02*
G01X0065820Y0005120D01*
G01X0065680Y0005120D02*
G01X0065680Y0005307D01*
G01X0065633Y0005307D02*
G01X0065820Y0005307D01*
G01X0065820Y0005415D02*
G01X0065820Y0005601D01*
G01X0065820Y0005508D02*
G01X0065540Y0005508D01*
G01X0065540Y0005508D02*
G01X0065633Y0005415D01*
G01X0065633Y0005307D02*
G01X0065540Y0005213D01*
G01X0065586Y0005709D02*
G01X0065633Y0005709D01*
G01X0065633Y0005709D02*
G01X0065680Y0005756D01*
G01X0065680Y0005756D02*
G01X0065680Y0005896D01*
G01X0065773Y0005896D02*
G01X0065586Y0005896D01*
G01X0065586Y0005896D02*
G01X0065540Y0005849D01*
G01X0065540Y0005849D02*
G01X0065540Y0005756D01*
G01X0065540Y0005756D02*
G01X0065586Y0005709D01*
G01X0065773Y0005709D02*
G01X0065820Y0005756D01*
G01X0065820Y0005756D02*
G01X0065820Y0005849D01*
G01X0065820Y0005849D02*
G01X0065773Y0005896D01*
G01X0066086Y0005601D02*
G01X0066273Y0005415D01*
G01X0066273Y0005415D02*
G01X0066320Y0005461D01*
G01X0066320Y0005461D02*
G01X0066320Y0005555D01*
G01X0066320Y0005555D02*
G01X0066273Y0005601D01*
G01X0066273Y0005601D02*
G01X0066086Y0005601D01*
G01X0066086Y0005601D02*
G01X0066040Y0005555D01*
G01X0066040Y0005555D02*
G01X0066040Y0005461D01*
G01X0066040Y0005461D02*
G01X0066086Y0005415D01*
G01X0066086Y0005415D02*
G01X0066273Y0005415D01*
G01X0066273Y0005307D02*
G01X0066086Y0005307D01*
G01X0066086Y0005307D02*
G01X0066040Y0005260D01*
G01X0066040Y0005260D02*
G01X0066040Y0005120D01*
G01X0066040Y0005120D02*
G01X0066320Y0005120D01*
G01X0066320Y0005120D02*
G01X0066320Y0005260D01*
G01X0066320Y0005260D02*
G01X0066273Y0005307D01*
G01X0066540Y0005260D02*
G01X0066540Y0005120D01*
G01X0066540Y0005120D02*
G01X0066820Y0005120D01*
G01X0066820Y0005120D02*
G01X0066820Y0005260D01*
G01X0066820Y0005260D02*
G01X0066773Y0005307D01*
G01X0066773Y0005307D02*
G01X0066586Y0005307D01*
G01X0066586Y0005307D02*
G01X0066540Y0005260D01*
G01X0066633Y0005415D02*
G01X0066540Y0005508D01*
G01X0066540Y0005508D02*
G01X0066820Y0005508D01*
G01X0066820Y0005415D02*
G01X0066820Y0005601D01*
G01X0067040Y0005555D02*
G01X0067040Y0005461D01*
G01X0067040Y0005461D02*
G01X0067086Y0005415D01*
G01X0067086Y0005307D02*
G01X0067040Y0005260D01*
G01X0067040Y0005260D02*
G01X0067040Y0005120D01*
G01X0067040Y0005120D02*
G01X0067320Y0005120D01*
G01X0067320Y0005120D02*
G01X0067320Y0005260D01*
G01X0067320Y0005260D02*
G01X0067273Y0005307D01*
G01X0067273Y0005307D02*
G01X0067086Y0005307D01*
G01X0067040Y0005555D02*
G01X0067086Y0005601D01*
G01X0067086Y0005601D02*
G01X0067133Y0005601D01*
G01X0067133Y0005601D02*
G01X0067320Y0005415D01*
G01X0067320Y0005415D02*
G01X0067320Y0005601D01*
G01X0067540Y0005555D02*
G01X0067586Y0005601D01*
G01X0067586Y0005601D02*
G01X0067633Y0005601D01*
G01X0067633Y0005601D02*
G01X0067680Y0005555D01*
G01X0067680Y0005555D02*
G01X0067727Y0005601D01*
G01X0067727Y0005601D02*
G01X0067773Y0005601D01*
G01X0067773Y0005601D02*
G01X0067820Y0005555D01*
G01X0067820Y0005555D02*
G01X0067820Y0005461D01*
G01X0067820Y0005461D02*
G01X0067773Y0005415D01*
G01X0067773Y0005307D02*
G01X0067586Y0005307D01*
G01X0067586Y0005307D02*
G01X0067540Y0005260D01*
G01X0067540Y0005260D02*
G01X0067540Y0005120D01*
G01X0067540Y0005120D02*
G01X0067820Y0005120D01*
G01X0067820Y0005120D02*
G01X0067820Y0005260D01*
G01X0067820Y0005260D02*
G01X0067773Y0005307D01*
G01X0067586Y0005415D02*
G01X0067540Y0005461D01*
G01X0067540Y0005461D02*
G01X0067540Y0005555D01*
G01X0067680Y0005555D02*
G01X0067680Y0005508D01*
G01X0068040Y0005555D02*
G01X0068180Y0005415D01*
G01X0068180Y0005415D02*
G01X0068180Y0005601D01*
G01X0068320Y0005555D02*
G01X0068040Y0005555D01*
G01X0068086Y0005307D02*
G01X0068040Y0005260D01*
G01X0068040Y0005260D02*
G01X0068040Y0005120D01*
G01X0068040Y0005120D02*
G01X0068320Y0005120D01*
G01X0068320Y0005120D02*
G01X0068320Y0005260D01*
G01X0068320Y0005260D02*
G01X0068273Y0005307D01*
G01X0068273Y0005307D02*
G01X0068086Y0005307D01*
G01X0068540Y0005260D02*
G01X0068540Y0005120D01*
G01X0068540Y0005120D02*
G01X0068820Y0005120D01*
G01X0068820Y0005120D02*
G01X0068820Y0005260D01*
G01X0068820Y0005260D02*
G01X0068773Y0005307D01*
G01X0068773Y0005307D02*
G01X0068586Y0005307D01*
G01X0068586Y0005307D02*
G01X0068540Y0005260D01*
G01X0068540Y0005415D02*
G01X0068680Y0005415D01*
G01X0068680Y0005415D02*
G01X0068633Y0005508D01*
G01X0068633Y0005508D02*
G01X0068633Y0005555D01*
G01X0068633Y0005555D02*
G01X0068680Y0005601D01*
G01X0068680Y0005601D02*
G01X0068773Y0005601D01*
G01X0068773Y0005601D02*
G01X0068820Y0005555D01*
G01X0068820Y0005555D02*
G01X0068820Y0005461D01*
G01X0068820Y0005461D02*
G01X0068773Y0005415D01*
G01X0068540Y0005415D02*
G01X0068540Y0005601D01*
G01X0069040Y0005601D02*
G01X0069086Y0005508D01*
G01X0069086Y0005508D02*
G01X0069180Y0005415D01*
G01X0069180Y0005415D02*
G01X0069180Y0005555D01*
G01X0069180Y0005555D02*
G01X0069227Y0005601D01*
G01X0069227Y0005601D02*
G01X0069273Y0005601D01*
G01X0069273Y0005601D02*
G01X0069320Y0005555D01*
G01X0069320Y0005555D02*
G01X0069320Y0005461D01*
G01X0069320Y0005461D02*
G01X0069273Y0005415D01*
G01X0069273Y0005415D02*
G01X0069180Y0005415D01*
G01X0069273Y0005307D02*
G01X0069086Y0005307D01*
G01X0069086Y0005307D02*
G01X0069040Y0005260D01*
G01X0069040Y0005260D02*
G01X0069040Y0005120D01*
G01X0069040Y0005120D02*
G01X0069320Y0005120D01*
G01X0069320Y0005120D02*
G01X0069320Y0005260D01*
G01X0069320Y0005260D02*
G01X0069273Y0005307D01*
G01X0069540Y0005260D02*
G01X0069540Y0005120D01*
G01X0069540Y0005120D02*
G01X0069820Y0005120D01*
G01X0069820Y0005120D02*
G01X0069820Y0005260D01*
G01X0069820Y0005260D02*
G01X0069773Y0005307D01*
G01X0069773Y0005307D02*
G01X0069586Y0005307D01*
G01X0069586Y0005307D02*
G01X0069540Y0005260D01*
G01X0069540Y0005415D02*
G01X0069540Y0005601D01*
G01X0069540Y0005601D02*
G01X0069586Y0005601D01*
G01X0069586Y0005601D02*
G01X0069773Y0005415D01*
G01X0069773Y0005415D02*
G01X0069820Y0005415D01*
G01X0070040Y0005503D02*
G01X0070320Y0005503D01*
G01X0070320Y0005503D02*
G01X0070040Y0005316D01*
G01X0070040Y0005316D02*
G01X0070320Y0005316D01*
G01X0070320Y0005213D02*
G01X0070320Y0005120D01*
G01X0070320Y0005167D02*
G01X0070040Y0005167D01*
G01X0070040Y0005213D02*
G01X0070040Y0005120D01*
G01X0069960Y0005100D02*
G01X0069960Y0005886D01*
G01X0070040Y0005798D02*
G01X0070040Y0005611D01*
G01X0070040Y0005704D02*
G01X0070320Y0005704D01*
G01X0070540Y0005658D02*
G01X0070540Y0005751D01*
G01X0070540Y0005751D02*
G01X0070586Y0005798D01*
G01X0070586Y0005798D02*
G01X0070773Y0005798D01*
G01X0070773Y0005798D02*
G01X0070820Y0005751D01*
G01X0070820Y0005751D02*
G01X0070820Y0005658D01*
G01X0070820Y0005658D02*
G01X0070773Y0005611D01*
G01X0070773Y0005611D02*
G01X0070586Y0005611D01*
G01X0070586Y0005611D02*
G01X0070540Y0005658D01*
G01X0070586Y0005503D02*
G01X0070680Y0005503D01*
G01X0070680Y0005503D02*
G01X0070727Y0005457D01*
G01X0070727Y0005457D02*
G01X0070727Y0005316D01*
G01X0070820Y0005316D02*
G01X0070540Y0005316D01*
G01X0070540Y0005316D02*
G01X0070540Y0005457D01*
G01X0070540Y0005457D02*
G01X0070586Y0005503D01*
G01X0070727Y0005410D02*
G01X0070820Y0005503D01*
G01X0070727Y0005704D02*
G01X0070820Y0005798D01*
G01X0070820Y0005906D02*
G01X0070540Y0006093D01*
G01X0070460Y0006180D02*
G01X0070460Y0005100D01*
G01X0070540Y0005120D02*
G01X0070540Y0005213D01*
G01X0070540Y0005167D02*
G01X0070820Y0005167D01*
G01X0070820Y0005213D02*
G01X0070820Y0005120D01*
G01X0070960Y0005100D02*
G01X0070960Y0006180D01*
G01X0071086Y0006093D02*
G01X0071273Y0005906D01*
G01X0071273Y0005906D02*
G01X0071320Y0005952D01*
G01X0071320Y0005952D02*
G01X0071320Y0006046D01*
G01X0071320Y0006046D02*
G01X0071273Y0006093D01*
G01X0071273Y0006093D02*
G01X0071086Y0006093D01*
G01X0071086Y0006093D02*
G01X0071040Y0006046D01*
G01X0071040Y0006046D02*
G01X0071040Y0005952D01*
G01X0071040Y0005952D02*
G01X0071086Y0005906D01*
G01X0071086Y0005906D02*
G01X0071273Y0005906D01*
G01X0071273Y0005798D02*
G01X0071320Y0005751D01*
G01X0071320Y0005751D02*
G01X0071320Y0005658D01*
G01X0071320Y0005658D02*
G01X0071273Y0005611D01*
G01X0071273Y0005611D02*
G01X0071086Y0005611D01*
G01X0071086Y0005611D02*
G01X0071040Y0005658D01*
G01X0071040Y0005658D02*
G01X0071040Y0005751D01*
G01X0071040Y0005751D02*
G01X0071086Y0005798D01*
G01X0071086Y0005798D02*
G01X0071273Y0005798D01*
G01X0071320Y0005798D02*
G01X0071227Y0005704D01*
G01X0071180Y0005503D02*
G01X0071227Y0005457D01*
G01X0071227Y0005457D02*
G01X0071227Y0005316D01*
G01X0071320Y0005316D02*
G01X0071040Y0005316D01*
G01X0071040Y0005316D02*
G01X0071040Y0005457D01*
G01X0071040Y0005457D02*
G01X0071086Y0005503D01*
G01X0071086Y0005503D02*
G01X0071180Y0005503D01*
G01X0071227Y0005410D02*
G01X0071320Y0005503D01*
G01X0071540Y0005457D02*
G01X0071586Y0005503D01*
G01X0071586Y0005503D02*
G01X0071680Y0005503D01*
G01X0071680Y0005503D02*
G01X0071727Y0005457D01*
G01X0071727Y0005457D02*
G01X0071727Y0005316D01*
G01X0071820Y0005316D02*
G01X0071540Y0005316D01*
G01X0071540Y0005316D02*
G01X0071540Y0005457D01*
G01X0071586Y0005611D02*
G01X0071540Y0005658D01*
G01X0071540Y0005658D02*
G01X0071540Y0005751D01*
G01X0071540Y0005751D02*
G01X0071586Y0005798D01*
G01X0071586Y0005798D02*
G01X0071773Y0005798D01*
G01X0071773Y0005798D02*
G01X0071820Y0005751D01*
G01X0071820Y0005751D02*
G01X0071820Y0005658D01*
G01X0071820Y0005658D02*
G01X0071773Y0005611D01*
G01X0071773Y0005611D02*
G01X0071586Y0005611D01*
G01X0071727Y0005704D02*
G01X0071820Y0005798D01*
G01X0071820Y0005906D02*
G01X0071820Y0006093D01*
G01X0071820Y0005999D02*
G01X0071540Y0005999D01*
G01X0071540Y0005999D02*
G01X0071633Y0005906D01*
G01X0071460Y0006180D02*
G01X0071460Y0005100D01*
G01X0071540Y0005120D02*
G01X0071540Y0005213D01*
G01X0071540Y0005167D02*
G01X0071820Y0005167D01*
G01X0071820Y0005213D02*
G01X0071820Y0005120D01*
G01X0071960Y0005100D02*
G01X0071960Y0006180D01*
G01X0072086Y0006093D02*
G01X0072040Y0006046D01*
G01X0072040Y0006046D02*
G01X0072040Y0005952D01*
G01X0072040Y0005952D02*
G01X0072086Y0005906D01*
G01X0072086Y0005798D02*
G01X0072273Y0005798D01*
G01X0072273Y0005798D02*
G01X0072320Y0005751D01*
G01X0072320Y0005751D02*
G01X0072320Y0005658D01*
G01X0072320Y0005658D02*
G01X0072273Y0005611D01*
G01X0072273Y0005611D02*
G01X0072086Y0005611D01*
G01X0072086Y0005611D02*
G01X0072040Y0005658D01*
G01X0072040Y0005658D02*
G01X0072040Y0005751D01*
G01X0072040Y0005751D02*
G01X0072086Y0005798D01*
G01X0072227Y0005704D02*
G01X0072320Y0005798D01*
G01X0072320Y0005906D02*
G01X0072133Y0006093D01*
G01X0072133Y0006093D02*
G01X0072086Y0006093D01*
G01X0072320Y0006093D02*
G01X0072320Y0005906D01*
G01X0072540Y0005952D02*
G01X0072540Y0006046D01*
G01X0072540Y0006046D02*
G01X0072586Y0006093D01*
G01X0072586Y0006093D02*
G01X0072633Y0006093D01*
G01X0072633Y0006093D02*
G01X0072680Y0006046D01*
G01X0072680Y0006046D02*
G01X0072727Y0006093D01*
G01X0072727Y0006093D02*
G01X0072773Y0006093D01*
G01X0072773Y0006093D02*
G01X0072820Y0006046D01*
G01X0072820Y0006046D02*
G01X0072820Y0005952D01*
G01X0072820Y0005952D02*
G01X0072773Y0005906D01*
G01X0072773Y0005798D02*
G01X0072820Y0005751D01*
G01X0072820Y0005751D02*
G01X0072820Y0005658D01*
G01X0072820Y0005658D02*
G01X0072773Y0005611D01*
G01X0072773Y0005611D02*
G01X0072586Y0005611D01*
G01X0072586Y0005611D02*
G01X0072540Y0005658D01*
G01X0072540Y0005658D02*
G01X0072540Y0005751D01*
G01X0072540Y0005751D02*
G01X0072586Y0005798D01*
G01X0072586Y0005798D02*
G01X0072773Y0005798D01*
G01X0072820Y0005798D02*
G01X0072727Y0005704D01*
G01X0072680Y0005503D02*
G01X0072727Y0005457D01*
G01X0072727Y0005457D02*
G01X0072727Y0005316D01*
G01X0072820Y0005316D02*
G01X0072540Y0005316D01*
G01X0072540Y0005316D02*
G01X0072540Y0005457D01*
G01X0072540Y0005457D02*
G01X0072586Y0005503D01*
G01X0072586Y0005503D02*
G01X0072680Y0005503D01*
G01X0072727Y0005410D02*
G01X0072820Y0005503D01*
G01X0073040Y0005457D02*
G01X0073086Y0005503D01*
G01X0073086Y0005503D02*
G01X0073180Y0005503D01*
G01X0073180Y0005503D02*
G01X0073227Y0005457D01*
G01X0073227Y0005457D02*
G01X0073227Y0005316D01*
G01X0073320Y0005316D02*
G01X0073040Y0005316D01*
G01X0073040Y0005316D02*
G01X0073040Y0005457D01*
G01X0073086Y0005611D02*
G01X0073040Y0005658D01*
G01X0073040Y0005658D02*
G01X0073040Y0005751D01*
G01X0073040Y0005751D02*
G01X0073086Y0005798D01*
G01X0073086Y0005798D02*
G01X0073273Y0005798D01*
G01X0073273Y0005798D02*
G01X0073320Y0005751D01*
G01X0073320Y0005751D02*
G01X0073320Y0005658D01*
G01X0073320Y0005658D02*
G01X0073273Y0005611D01*
G01X0073273Y0005611D02*
G01X0073086Y0005611D01*
G01X0073227Y0005704D02*
G01X0073320Y0005798D01*
G01X0073180Y0005906D02*
G01X0073180Y0006093D01*
G01X0073320Y0006046D02*
G01X0073040Y0006046D01*
G01X0073040Y0006046D02*
G01X0073180Y0005906D01*
G01X0072960Y0006180D02*
G01X0072960Y0005100D01*
G01X0073040Y0005120D02*
G01X0073040Y0005213D01*
G01X0073040Y0005167D02*
G01X0073320Y0005167D01*
G01X0073320Y0005213D02*
G01X0073320Y0005120D01*
G01X0073460Y0005100D02*
G01X0073460Y0006180D01*
G01X0073540Y0006093D02*
G01X0073540Y0005906D01*
G01X0073540Y0005906D02*
G01X0073680Y0005906D01*
G01X0073680Y0005906D02*
G01X0073633Y0005999D01*
G01X0073633Y0005999D02*
G01X0073633Y0006046D01*
G01X0073633Y0006046D02*
G01X0073680Y0006093D01*
G01X0073680Y0006093D02*
G01X0073773Y0006093D01*
G01X0073773Y0006093D02*
G01X0073820Y0006046D01*
G01X0073820Y0006046D02*
G01X0073820Y0005952D01*
G01X0073820Y0005952D02*
G01X0073773Y0005906D01*
G01X0073773Y0005798D02*
G01X0073820Y0005751D01*
G01X0073820Y0005751D02*
G01X0073820Y0005658D01*
G01X0073820Y0005658D02*
G01X0073773Y0005611D01*
G01X0073773Y0005611D02*
G01X0073586Y0005611D01*
G01X0073586Y0005611D02*
G01X0073540Y0005658D01*
G01X0073540Y0005658D02*
G01X0073540Y0005751D01*
G01X0073540Y0005751D02*
G01X0073586Y0005798D01*
G01X0073586Y0005798D02*
G01X0073773Y0005798D01*
G01X0073820Y0005798D02*
G01X0073727Y0005704D01*
G01X0073680Y0005503D02*
G01X0073727Y0005457D01*
G01X0073727Y0005457D02*
G01X0073727Y0005316D01*
G01X0073820Y0005316D02*
G01X0073540Y0005316D01*
G01X0073540Y0005316D02*
G01X0073540Y0005457D01*
G01X0073540Y0005457D02*
G01X0073586Y0005503D01*
G01X0073586Y0005503D02*
G01X0073680Y0005503D01*
G01X0073727Y0005410D02*
G01X0073820Y0005503D01*
G01X0074040Y0005457D02*
G01X0074086Y0005503D01*
G01X0074086Y0005503D02*
G01X0074180Y0005503D01*
G01X0074180Y0005503D02*
G01X0074227Y0005457D01*
G01X0074227Y0005457D02*
G01X0074227Y0005316D01*
G01X0074320Y0005316D02*
G01X0074040Y0005316D01*
G01X0074040Y0005316D02*
G01X0074040Y0005457D01*
G01X0074086Y0005611D02*
G01X0074040Y0005658D01*
G01X0074040Y0005658D02*
G01X0074040Y0005751D01*
G01X0074040Y0005751D02*
G01X0074086Y0005798D01*
G01X0074086Y0005798D02*
G01X0074273Y0005798D01*
G01X0074273Y0005798D02*
G01X0074320Y0005751D01*
G01X0074320Y0005751D02*
G01X0074320Y0005658D01*
G01X0074320Y0005658D02*
G01X0074273Y0005611D01*
G01X0074273Y0005611D02*
G01X0074086Y0005611D01*
G01X0074227Y0005704D02*
G01X0074320Y0005798D01*
G01X0074273Y0005906D02*
G01X0074320Y0005952D01*
G01X0074320Y0005952D02*
G01X0074320Y0006046D01*
G01X0074320Y0006046D02*
G01X0074273Y0006093D01*
G01X0074273Y0006093D02*
G01X0074227Y0006093D01*
G01X0074227Y0006093D02*
G01X0074180Y0006046D01*
G01X0074180Y0006046D02*
G01X0074180Y0005906D01*
G01X0074180Y0005906D02*
G01X0074273Y0005906D01*
G01X0074180Y0005906D02*
G01X0074086Y0005999D01*
G01X0074086Y0005999D02*
G01X0074040Y0006093D01*
G01X0073960Y0006180D02*
G01X0073960Y0005100D01*
G01X0074040Y0005120D02*
G01X0074040Y0005213D01*
G01X0074040Y0005167D02*
G01X0074320Y0005167D01*
G01X0074320Y0005213D02*
G01X0074320Y0005120D01*
G01X0074460Y0005100D02*
G01X0074460Y0006180D01*
G01X0074540Y0006093D02*
G01X0074586Y0006093D01*
G01X0074586Y0006093D02*
G01X0074773Y0005906D01*
G01X0074773Y0005906D02*
G01X0074820Y0005906D01*
G01X0074820Y0005798D02*
G01X0074727Y0005704D01*
G01X0074773Y0005611D02*
G01X0074586Y0005611D01*
G01X0074586Y0005611D02*
G01X0074540Y0005658D01*
G01X0074540Y0005658D02*
G01X0074540Y0005751D01*
G01X0074540Y0005751D02*
G01X0074586Y0005798D01*
G01X0074586Y0005798D02*
G01X0074773Y0005798D01*
G01X0074773Y0005798D02*
G01X0074820Y0005751D01*
G01X0074820Y0005751D02*
G01X0074820Y0005658D01*
G01X0074820Y0005658D02*
G01X0074773Y0005611D01*
G01X0074820Y0005503D02*
G01X0074727Y0005410D01*
G01X0074727Y0005457D02*
G01X0074727Y0005316D01*
G01X0074820Y0005316D02*
G01X0074540Y0005316D01*
G01X0074540Y0005316D02*
G01X0074540Y0005457D01*
G01X0074540Y0005457D02*
G01X0074586Y0005503D01*
G01X0074586Y0005503D02*
G01X0074680Y0005503D01*
G01X0074680Y0005503D02*
G01X0074727Y0005457D01*
G01X0074820Y0005213D02*
G01X0074820Y0005120D01*
G01X0074820Y0005167D02*
G01X0074540Y0005167D01*
G01X0074540Y0005213D02*
G01X0074540Y0005120D01*
G01X0074960Y0005100D02*
G01X0074960Y0005886D01*
G01X0075040Y0005803D02*
G01X0075040Y0005709D01*
G01X0075040Y0005756D02*
G01X0075320Y0005756D01*
G01X0075320Y0005709D02*
G01X0075320Y0005803D01*
G01X0075320Y0005601D02*
G01X0075040Y0005601D01*
G01X0075040Y0005601D02*
G01X0075133Y0005508D01*
G01X0075133Y0005508D02*
G01X0075040Y0005415D01*
G01X0075040Y0005415D02*
G01X0075320Y0005415D01*
G01X0075320Y0005307D02*
G01X0075040Y0005307D01*
G01X0075040Y0005120D02*
G01X0075320Y0005307D01*
G01X0075320Y0005120D02*
G01X0075040Y0005120D01*
G01X0075540Y0005167D02*
G01X0075540Y0005260D01*
G01X0075540Y0005260D02*
G01X0075586Y0005307D01*
G01X0075680Y0005307D02*
G01X0075680Y0005213D01*
G01X0075680Y0005307D02*
G01X0075773Y0005307D01*
G01X0075773Y0005307D02*
G01X0075820Y0005260D01*
G01X0075820Y0005260D02*
G01X0075820Y0005167D01*
G01X0075820Y0005167D02*
G01X0075773Y0005120D01*
G01X0075773Y0005120D02*
G01X0075586Y0005120D01*
G01X0075586Y0005120D02*
G01X0075540Y0005167D01*
G01X0075540Y0005415D02*
G01X0075820Y0005601D01*
G01X0075820Y0005601D02*
G01X0075540Y0005601D01*
G01X0075540Y0005709D02*
G01X0075540Y0005849D01*
G01X0075540Y0005849D02*
G01X0075586Y0005896D01*
G01X0075586Y0005896D02*
G01X0075773Y0005896D01*
G01X0075773Y0005896D02*
G01X0075820Y0005849D01*
G01X0075820Y0005849D02*
G01X0075820Y0005709D01*
G01X0075820Y0005709D02*
G01X0075540Y0005709D01*
G01X0075540Y0005415D02*
G01X0075820Y0005415D01*
G01X0074320Y0005503D02*
G01X0074227Y0005410D01*
G01X0073820Y0005213D02*
G01X0073820Y0005120D01*
G01X0073820Y0005167D02*
G01X0073540Y0005167D01*
G01X0073540Y0005213D02*
G01X0073540Y0005120D01*
G01X0073227Y0005410D02*
G01X0073320Y0005503D01*
G01X0072820Y0005213D02*
G01X0072820Y0005120D01*
G01X0072820Y0005167D02*
G01X0072540Y0005167D01*
G01X0072540Y0005213D02*
G01X0072540Y0005120D01*
G01X0072460Y0005100D02*
G01X0072460Y0006180D01*
G01X0072540Y0005952D02*
G01X0072586Y0005906D01*
G01X0072680Y0005999D02*
G01X0072680Y0006046D01*
G01X0072320Y0005503D02*
G01X0072227Y0005410D01*
G01X0072227Y0005457D02*
G01X0072227Y0005316D01*
G01X0072320Y0005316D02*
G01X0072040Y0005316D01*
G01X0072040Y0005316D02*
G01X0072040Y0005457D01*
G01X0072040Y0005457D02*
G01X0072086Y0005503D01*
G01X0072086Y0005503D02*
G01X0072180Y0005503D01*
G01X0072180Y0005503D02*
G01X0072227Y0005457D01*
G01X0072320Y0005213D02*
G01X0072320Y0005120D01*
G01X0072320Y0005167D02*
G01X0072040Y0005167D01*
G01X0072040Y0005213D02*
G01X0072040Y0005120D01*
G01X0071727Y0005410D02*
G01X0071820Y0005503D01*
G01X0071320Y0005213D02*
G01X0071320Y0005120D01*
G01X0071320Y0005167D02*
G01X0071040Y0005167D01*
G01X0071040Y0005213D02*
G01X0071040Y0005120D01*
G01X0070540Y0005906D02*
G01X0070820Y0006093D01*
G01X0074540Y0006093D02*
G01X0074540Y0005906D01*
G01X0054820Y0006593D02*
G01X0054540Y0006593D01*
G01X0054586Y0006485D02*
G01X0054540Y0006439D01*
G01X0054540Y0006439D02*
G01X0054540Y0006345D01*
G01X0054680Y0006640D02*
G01X0054820Y0006780D01*
G01X0054773Y0005415D02*
G01X0054540Y0005415D01*
G01X0054540Y0005120D02*
G01X0054820Y0005120D01*
G01X0053820Y0005415D02*
G01X0053633Y0005415D01*
G01X0053680Y0005415D02*
G01X0053680Y0005601D01*
G01X0052820Y0005906D02*
G01X0052820Y0006093D01*
G01X0052820Y0006200D02*
G01X0052820Y0006387D01*
G01X0052820Y0006200D02*
G01X0052540Y0006200D01*
G01X0052540Y0006093D02*
G01X0052540Y0005906D01*
G01X0052540Y0005906D02*
G01X0052820Y0005906D01*
G01X0052680Y0005906D02*
G01X0052680Y0005999D01*
G01X0052586Y0005798D02*
G01X0052540Y0005751D01*
G01X0052540Y0005751D02*
G01X0052540Y0005658D01*
G01X0052273Y0005307D02*
G01X0052320Y0005260D01*
G01X0052320Y0005260D02*
G01X0052320Y0005167D01*
G01X0052320Y0005167D02*
G01X0052273Y0005120D01*
G01X0052273Y0005120D02*
G01X0052086Y0005120D01*
G01X0052086Y0005120D02*
G01X0052040Y0005167D01*
G01X0052040Y0005167D02*
G01X0052040Y0005260D01*
G01X0052040Y0005260D02*
G01X0052086Y0005307D01*
G01X0052460Y0005100D02*
G01X0052460Y0006475D01*
G01X0052540Y0005213D02*
G01X0052540Y0005120D01*
G01X0052540Y0005167D02*
G01X0052820Y0005167D01*
G01X0052820Y0005213D02*
G01X0052820Y0005120D01*
G01X0051320Y0005167D02*
G01X0051320Y0005260D01*
G01X0051320Y0005260D02*
G01X0051273Y0005307D01*
G01X0051320Y0005415D02*
G01X0051320Y0005508D01*
G01X0051320Y0005461D02*
G01X0051040Y0005461D01*
G01X0051040Y0005415D02*
G01X0051040Y0005508D01*
G01X0051040Y0005611D02*
G01X0051320Y0005798D01*
G01X0051320Y0005611D02*
G01X0051040Y0005611D01*
G01X0050820Y0005555D02*
G01X0050820Y0005415D01*
G01X0050820Y0005415D02*
G01X0050540Y0005415D01*
G01X0050540Y0005415D02*
G01X0050540Y0005555D01*
G01X0050540Y0005555D02*
G01X0050586Y0005601D01*
G01X0050586Y0005601D02*
G01X0050633Y0005601D01*
G01X0050633Y0005601D02*
G01X0050680Y0005555D01*
G01X0050680Y0005555D02*
G01X0050680Y0005415D01*
G01X0050680Y0005555D02*
G01X0050727Y0005601D01*
G01X0050727Y0005601D02*
G01X0050773Y0005601D01*
G01X0050773Y0005601D02*
G01X0050820Y0005555D01*
G01X0050773Y0005307D02*
G01X0050820Y0005260D01*
G01X0050820Y0005260D02*
G01X0050820Y0005167D01*
G01X0050820Y0005167D02*
G01X0050773Y0005120D01*
G01X0050773Y0005120D02*
G01X0050586Y0005120D01*
G01X0050586Y0005120D02*
G01X0050540Y0005167D01*
G01X0050540Y0005167D02*
G01X0050540Y0005260D01*
G01X0050540Y0005260D02*
G01X0050586Y0005307D01*
G01X0050320Y0005316D02*
G01X0050040Y0005316D01*
G01X0050040Y0005316D02*
G01X0050320Y0005503D01*
G01X0050320Y0005503D02*
G01X0050040Y0005503D01*
G01X0050040Y0005611D02*
G01X0050320Y0005611D01*
G01X0050180Y0005611D02*
G01X0050180Y0005798D01*
G01X0050040Y0005798D02*
G01X0050320Y0005798D01*
G01X0049773Y0005415D02*
G01X0049540Y0005415D01*
G01X0049320Y0005461D02*
G01X0049273Y0005415D01*
G01X0049320Y0005461D02*
G01X0049320Y0005555D01*
G01X0049320Y0005555D02*
G01X0049273Y0005601D01*
G01X0049273Y0005601D02*
G01X0049227Y0005601D01*
G01X0049227Y0005601D02*
G01X0049180Y0005555D01*
G01X0049180Y0005555D02*
G01X0049180Y0005461D01*
G01X0049180Y0005461D02*
G01X0049133Y0005415D01*
G01X0049133Y0005415D02*
G01X0049086Y0005415D01*
G01X0049086Y0005415D02*
G01X0049040Y0005461D01*
G01X0049040Y0005461D02*
G01X0049040Y0005555D01*
G01X0049040Y0005555D02*
G01X0049086Y0005601D01*
G01X0049040Y0005709D02*
G01X0049320Y0005896D01*
G01X0049320Y0005709D02*
G01X0049040Y0005896D01*
G01X0048960Y0005984D02*
G01X0048960Y0005100D01*
G01X0049040Y0005167D02*
G01X0049040Y0005260D01*
G01X0049040Y0005260D02*
G01X0049086Y0005307D01*
G01X0049040Y0005167D02*
G01X0049086Y0005120D01*
G01X0049086Y0005120D02*
G01X0049273Y0005120D01*
G01X0049273Y0005120D02*
G01X0049320Y0005167D01*
G01X0049320Y0005167D02*
G01X0049320Y0005260D01*
G01X0049320Y0005260D02*
G01X0049273Y0005307D01*
G01X0049540Y0005120D02*
G01X0049820Y0005120D01*
G01X0048773Y0005213D02*
G01X0048586Y0005213D01*
G01X0048680Y0005120D02*
G01X0048680Y0005307D01*
G01X0048680Y0005415D02*
G01X0048633Y0005508D01*
G01X0048633Y0005508D02*
G01X0048633Y0005555D01*
G01X0048633Y0005555D02*
G01X0048680Y0005601D01*
G01X0048680Y0005601D02*
G01X0048773Y0005601D01*
G01X0048773Y0005601D02*
G01X0048820Y0005555D01*
G01X0048820Y0005555D02*
G01X0048820Y0005461D01*
G01X0048820Y0005461D02*
G01X0048773Y0005415D01*
G01X0048680Y0005415D02*
G01X0048540Y0005415D01*
G01X0048540Y0005415D02*
G01X0048540Y0005601D01*
G01X0048540Y0005709D02*
G01X0048727Y0005709D01*
G01X0048727Y0005709D02*
G01X0048820Y0005803D01*
G01X0048820Y0005803D02*
G01X0048727Y0005896D01*
G01X0048727Y0005896D02*
G01X0048540Y0005896D01*
G01X0048586Y0006004D02*
G01X0048633Y0006004D01*
G01X0048633Y0006004D02*
G01X0048680Y0006051D01*
G01X0048680Y0006051D02*
G01X0048680Y0006144D01*
G01X0048680Y0006144D02*
G01X0048727Y0006191D01*
G01X0048727Y0006191D02*
G01X0048773Y0006191D01*
G01X0048773Y0006191D02*
G01X0048820Y0006144D01*
G01X0048820Y0006144D02*
G01X0048820Y0006051D01*
G01X0048820Y0006051D02*
G01X0048773Y0006004D01*
G01X0048586Y0006004D02*
G01X0048540Y0006051D01*
G01X0048540Y0006051D02*
G01X0048540Y0006144D01*
G01X0048540Y0006144D02*
G01X0048586Y0006191D01*
G01X0048540Y0006299D02*
G01X0048540Y0006439D01*
G01X0048540Y0006439D02*
G01X0048586Y0006485D01*
G01X0048586Y0006485D02*
G01X0048633Y0006485D01*
G01X0048633Y0006485D02*
G01X0048680Y0006439D01*
G01X0048680Y0006439D02*
G01X0048680Y0006299D01*
G01X0048680Y0006439D02*
G01X0048727Y0006485D01*
G01X0048727Y0006485D02*
G01X0048773Y0006485D01*
G01X0048773Y0006485D02*
G01X0048820Y0006439D01*
G01X0048820Y0006439D02*
G01X0048820Y0006299D01*
G01X0048820Y0006299D02*
G01X0048540Y0006299D01*
G01X0048320Y0006097D02*
G01X0048227Y0006191D01*
G01X0048227Y0006191D02*
G01X0048040Y0006191D01*
G01X0048040Y0006004D02*
G01X0048227Y0006004D01*
G01X0048227Y0006004D02*
G01X0048320Y0006097D01*
G01X0048320Y0005896D02*
G01X0048320Y0005709D01*
G01X0048320Y0005709D02*
G01X0048133Y0005896D01*
G01X0048133Y0005896D02*
G01X0048086Y0005896D01*
G01X0048086Y0005896D02*
G01X0048040Y0005849D01*
G01X0048040Y0005849D02*
G01X0048040Y0005756D01*
G01X0048040Y0005756D02*
G01X0048086Y0005709D01*
G01X0048040Y0005508D02*
G01X0048320Y0005508D01*
G01X0048320Y0005415D02*
G01X0048320Y0005601D01*
G01X0048133Y0005415D02*
G01X0048040Y0005508D01*
G01X0048180Y0005307D02*
G01X0048180Y0005120D01*
G01X0047180Y0005620D02*
G01X0047180Y0005807D01*
G01X0047180Y0005915D02*
G01X0047133Y0006008D01*
G01X0047133Y0006008D02*
G01X0047133Y0006055D01*
G01X0047133Y0006055D02*
G01X0047180Y0006101D01*
G01X0047180Y0006101D02*
G01X0047273Y0006101D01*
G01X0047273Y0006101D02*
G01X0047320Y0006055D01*
G01X0047320Y0006055D02*
G01X0047320Y0005961D01*
G01X0047320Y0005961D02*
G01X0047273Y0005915D01*
G01X0047180Y0005915D02*
G01X0047040Y0005915D01*
G01X0047040Y0005915D02*
G01X0047040Y0006101D01*
G01X0047040Y0006209D02*
G01X0047227Y0006209D01*
G01X0047227Y0006209D02*
G01X0047320Y0006303D01*
G01X0047320Y0006303D02*
G01X0047227Y0006396D01*
G01X0047227Y0006396D02*
G01X0047040Y0006396D01*
G01X0047086Y0005713D02*
G01X0047273Y0005713D01*
G01X0046320Y0005667D02*
G01X0046273Y0005620D01*
G01X0046273Y0005620D02*
G01X0046086Y0005620D01*
G01X0046086Y0005620D02*
G01X0046040Y0005667D01*
G01X0046040Y0005667D02*
G01X0046040Y0005760D01*
G01X0046040Y0005760D02*
G01X0046086Y0005807D01*
G01X0046180Y0005807D02*
G01X0046180Y0005713D01*
G01X0046180Y0005807D02*
G01X0046273Y0005807D01*
G01X0046273Y0005807D02*
G01X0046320Y0005760D01*
G01X0046320Y0005760D02*
G01X0046320Y0005667D01*
G01X0046320Y0005915D02*
G01X0046040Y0005915D01*
G01X0046040Y0005915D02*
G01X0046320Y0006101D01*
G01X0046320Y0006101D02*
G01X0046040Y0006101D01*
G01X0046040Y0006209D02*
G01X0046040Y0006349D01*
G01X0046040Y0006349D02*
G01X0046086Y0006396D01*
G01X0046086Y0006396D02*
G01X0046273Y0006396D01*
G01X0046273Y0006396D02*
G01X0046320Y0006349D01*
G01X0046320Y0006349D02*
G01X0046320Y0006209D01*
G01X0046320Y0006209D02*
G01X0046040Y0006209D01*
G01X0045320Y0006245D02*
G01X0045227Y0006338D01*
G01X0045227Y0006338D02*
G01X0045040Y0006338D01*
G01X0045040Y0006151D02*
G01X0045227Y0006151D01*
G01X0045227Y0006151D02*
G01X0045320Y0006245D01*
G01X0045273Y0006043D02*
G01X0045320Y0005997D01*
G01X0045320Y0005997D02*
G01X0045320Y0005903D01*
G01X0045320Y0005903D02*
G01X0045273Y0005857D01*
G01X0045273Y0005756D02*
G01X0045320Y0005756D01*
G01X0045320Y0005756D02*
G01X0045320Y0005709D01*
G01X0045320Y0005709D02*
G01X0045273Y0005709D01*
G01X0045273Y0005709D02*
G01X0045273Y0005756D01*
G01X0045273Y0005601D02*
G01X0045320Y0005555D01*
G01X0045320Y0005555D02*
G01X0045320Y0005461D01*
G01X0045320Y0005461D02*
G01X0045273Y0005415D01*
G01X0045180Y0005508D02*
G01X0045180Y0005555D01*
G01X0045180Y0005555D02*
G01X0045227Y0005601D01*
G01X0045227Y0005601D02*
G01X0045273Y0005601D01*
G01X0045180Y0005555D02*
G01X0045133Y0005601D01*
G01X0045133Y0005601D02*
G01X0045086Y0005601D01*
G01X0045086Y0005601D02*
G01X0045040Y0005555D01*
G01X0045040Y0005555D02*
G01X0045040Y0005461D01*
G01X0045040Y0005461D02*
G01X0045086Y0005415D01*
G01X0045180Y0005307D02*
G01X0045180Y0005120D01*
G01X0045273Y0005213D02*
G01X0045086Y0005213D01*
G01X0044570Y0005415D02*
G01X0044570Y0005601D01*
G01X0044570Y0005508D02*
G01X0044290Y0005508D01*
G01X0044290Y0005508D02*
G01X0044383Y0005415D01*
G01X0044430Y0005307D02*
G01X0044430Y0005120D01*
G01X0044523Y0005213D02*
G01X0044336Y0005213D01*
G01X0044336Y0005709D02*
G01X0044290Y0005756D01*
G01X0044290Y0005756D02*
G01X0044290Y0005849D01*
G01X0044290Y0005849D02*
G01X0044336Y0005896D01*
G01X0044336Y0005896D02*
G01X0044383Y0005896D01*
G01X0044383Y0005896D02*
G01X0044570Y0005709D01*
G01X0044570Y0005709D02*
G01X0044570Y0005896D01*
G01X0044477Y0006004D02*
G01X0044570Y0006097D01*
G01X0044570Y0006097D02*
G01X0044477Y0006191D01*
G01X0044477Y0006191D02*
G01X0044290Y0006191D01*
G01X0044290Y0006004D02*
G01X0044477Y0006004D01*
G01X0045040Y0005997D02*
G01X0045086Y0006043D01*
G01X0045086Y0006043D02*
G01X0045133Y0006043D01*
G01X0045133Y0006043D02*
G01X0045180Y0005997D01*
G01X0045180Y0005997D02*
G01X0045227Y0006043D01*
G01X0045227Y0006043D02*
G01X0045273Y0006043D01*
G01X0045180Y0005997D02*
G01X0045180Y0005950D01*
G01X0045086Y0005857D02*
G01X0045040Y0005903D01*
G01X0045040Y0005903D02*
G01X0045040Y0005997D01*
G01X0050960Y0005100D02*
G01X0050960Y0006180D01*
G01X0051086Y0005307D02*
G01X0051040Y0005260D01*
G01X0051040Y0005260D02*
G01X0051040Y0005167D01*
G01X0051040Y0005167D02*
G01X0051086Y0005120D01*
G01X0051086Y0005120D02*
G01X0051273Y0005120D01*
G01X0051273Y0005120D02*
G01X0051320Y0005167D01*
G54D13*
G01X0043786Y0004313D02*
G01X0043074Y0004313D01*
G01X0043049Y0004361D02*
G01X0043811Y0004361D01*
G01X0043835Y0004410D02*
G01X0043025Y0004410D01*
G01X0043001Y0004458D02*
G01X0043859Y0004458D01*
G01X0043883Y0004507D02*
G01X0042977Y0004507D01*
G01X0042952Y0004555D02*
G01X0043908Y0004555D01*
G01X0043930Y0004600D02*
G01X0042930Y0004600D01*
G01X0042930Y0004600D02*
G01X0043430Y0003600D01*
G01X0043430Y0003600D02*
G01X0043930Y0004600D01*
G01X0043762Y0004264D02*
G01X0043098Y0004264D01*
G01X0043122Y0004216D02*
G01X0043738Y0004216D01*
G01X0043714Y0004167D02*
G01X0043146Y0004167D01*
G01X0043171Y0004119D02*
G01X0043689Y0004119D01*
G01X0043665Y0004070D02*
G01X0043195Y0004070D01*
G01X0043219Y0004022D02*
G01X0043641Y0004022D01*
G01X0043617Y0003973D02*
G01X0043243Y0003973D01*
G01X0043268Y0003925D02*
G01X0043592Y0003925D01*
G01X0043568Y0003876D02*
G01X0043292Y0003876D01*
G01X0043316Y0003828D02*
G01X0043544Y0003828D01*
G01X0043520Y0003779D02*
G01X0043340Y0003779D01*
G01X0043365Y0003731D02*
G01X0043495Y0003731D01*
G01X0043471Y0003682D02*
G01X0043389Y0003682D01*
G01X0043413Y0003634D02*
G01X0043447Y0003634D01*
G01X0042939Y0003925D02*
G01X0042705Y0003925D01*
G01X0042822Y0003925D02*
G01X0042822Y0004275D01*
G01X0042822Y0004275D02*
G01X0042705Y0004159D01*
M02*
