G04 This is an RS-274x file exported by *
G04 gerbv version 2.6.1 *
G04 More information is available about gerbv at *
G04 http://gerbv.geda-project.org/ *
G04 --End of header info--*
%MOIN*%
%FSLAX34Y34*%
%IPPOS*%
G04 --Define apertures--*
%ADD10C,0.0110*%
%ADD11C,0.0040*%
G04 --Start main section--*
G54D10*
G01X0004391Y0003780D02*
G01X0004825Y0003780D01*
G01X0004825Y0003780D02*
G01X0004825Y0004431D01*
G01X0004825Y0004431D02*
G01X0004391Y0004431D01*
G01X0004608Y0004105D02*
G01X0004825Y0004105D01*
G01X0005091Y0003780D02*
G01X0005091Y0004431D01*
G01X0005525Y0004431D02*
G01X0005091Y0003780D01*
G01X0005525Y0003780D02*
G01X0005525Y0004431D01*
G01X0005791Y0004214D02*
G01X0005791Y0003780D01*
G01X0005791Y0004105D02*
G01X0006224Y0004105D01*
G01X0006224Y0004214D02*
G01X0006008Y0004431D01*
G01X0006008Y0004431D02*
G01X0005791Y0004214D01*
G01X0006224Y0004214D02*
G01X0006224Y0003780D01*
G01X0006490Y0003780D02*
G01X0006924Y0003780D01*
G01X0006924Y0003780D02*
G01X0006924Y0004431D01*
G01X0007190Y0004322D02*
G01X0007190Y0004105D01*
G01X0007190Y0004105D02*
G01X0007299Y0003997D01*
G01X0007299Y0003997D02*
G01X0007624Y0003997D01*
G01X0007624Y0003780D02*
G01X0007624Y0004431D01*
G01X0007624Y0004431D02*
G01X0007299Y0004431D01*
G01X0007299Y0004431D02*
G01X0007190Y0004322D01*
G01X0008590Y0004322D02*
G01X0008590Y0003888D01*
G01X0008590Y0003888D02*
G01X0008698Y0003780D01*
G01X0008698Y0003780D02*
G01X0009024Y0003780D01*
G01X0009024Y0003780D02*
G01X0009024Y0004431D01*
G01X0009024Y0004431D02*
G01X0008698Y0004431D01*
G01X0008698Y0004431D02*
G01X0008590Y0004322D01*
G01X0009290Y0004431D02*
G01X0009290Y0003780D01*
G01X0009290Y0003780D02*
G01X0009723Y0004431D01*
G01X0009723Y0004431D02*
G01X0009723Y0003780D01*
G01X0009989Y0003888D02*
G01X0009989Y0004105D01*
G01X0009989Y0004105D02*
G01X0010206Y0004105D01*
G01X0009989Y0003888D02*
G01X0010098Y0003780D01*
G01X0010098Y0003780D02*
G01X0010315Y0003780D01*
G01X0010315Y0003780D02*
G01X0010423Y0003888D01*
G01X0010423Y0003888D02*
G01X0010423Y0004322D01*
G01X0010423Y0004322D02*
G01X0010315Y0004431D01*
G01X0010315Y0004431D02*
G01X0010098Y0004431D01*
G01X0010098Y0004431D02*
G01X0009989Y0004322D01*
G01X0014391Y0004431D02*
G01X0014825Y0004431D01*
G01X0014825Y0004431D02*
G01X0014825Y0003780D01*
G01X0014825Y0003780D02*
G01X0014391Y0003780D01*
G01X0014608Y0004105D02*
G01X0014825Y0004105D01*
G01X0015091Y0003780D02*
G01X0015091Y0004431D01*
G01X0015525Y0004431D02*
G01X0015091Y0003780D01*
G01X0015525Y0003780D02*
G01X0015525Y0004431D01*
G01X0015791Y0004214D02*
G01X0016008Y0004431D01*
G01X0016008Y0004431D02*
G01X0016224Y0004214D01*
G01X0016224Y0004214D02*
G01X0016224Y0003780D01*
G01X0016490Y0003780D02*
G01X0016924Y0003780D01*
G01X0016924Y0003780D02*
G01X0016924Y0004431D01*
G01X0017190Y0004322D02*
G01X0017299Y0004431D01*
G01X0017299Y0004431D02*
G01X0017624Y0004431D01*
G01X0017624Y0004431D02*
G01X0017624Y0003780D01*
G01X0017624Y0003997D02*
G01X0017299Y0003997D01*
G01X0017299Y0003997D02*
G01X0017190Y0004105D01*
G01X0017190Y0004105D02*
G01X0017190Y0004322D01*
G01X0016224Y0004105D02*
G01X0015791Y0004105D01*
G01X0015791Y0004214D02*
G01X0015791Y0003780D01*
G01X0018590Y0003888D02*
G01X0018590Y0004322D01*
G01X0018590Y0004322D02*
G01X0018698Y0004431D01*
G01X0018698Y0004431D02*
G01X0019024Y0004431D01*
G01X0019024Y0004431D02*
G01X0019024Y0003780D01*
G01X0019024Y0003780D02*
G01X0018698Y0003780D01*
G01X0018698Y0003780D02*
G01X0018590Y0003888D01*
G01X0019290Y0003780D02*
G01X0019290Y0004431D01*
G01X0019723Y0004431D02*
G01X0019290Y0003780D01*
G01X0019723Y0003780D02*
G01X0019723Y0004431D01*
G01X0019989Y0004322D02*
G01X0020098Y0004431D01*
G01X0020098Y0004431D02*
G01X0020315Y0004431D01*
G01X0020315Y0004431D02*
G01X0020423Y0004322D01*
G01X0020423Y0004322D02*
G01X0020423Y0003888D01*
G01X0020423Y0003888D02*
G01X0020315Y0003780D01*
G01X0020315Y0003780D02*
G01X0020098Y0003780D01*
G01X0020098Y0003780D02*
G01X0019989Y0003888D01*
G01X0019989Y0003888D02*
G01X0019989Y0004105D01*
G01X0019989Y0004105D02*
G01X0020206Y0004105D01*
G01X0024391Y0003780D02*
G01X0024825Y0003780D01*
G01X0024825Y0003780D02*
G01X0024825Y0004431D01*
G01X0024825Y0004431D02*
G01X0024391Y0004431D01*
G01X0024608Y0004105D02*
G01X0024825Y0004105D01*
G01X0025091Y0003780D02*
G01X0025091Y0004431D01*
G01X0025525Y0004431D02*
G01X0025091Y0003780D01*
G01X0025525Y0003780D02*
G01X0025525Y0004431D01*
G01X0025791Y0004214D02*
G01X0025791Y0003780D01*
G01X0025791Y0004105D02*
G01X0026224Y0004105D01*
G01X0026224Y0004214D02*
G01X0026008Y0004431D01*
G01X0026008Y0004431D02*
G01X0025791Y0004214D01*
G01X0026224Y0004214D02*
G01X0026224Y0003780D01*
G01X0026490Y0003780D02*
G01X0026924Y0003780D01*
G01X0026924Y0003780D02*
G01X0026924Y0004431D01*
G01X0027190Y0004322D02*
G01X0027299Y0004431D01*
G01X0027299Y0004431D02*
G01X0027624Y0004431D01*
G01X0027624Y0004431D02*
G01X0027624Y0003780D01*
G01X0027624Y0003997D02*
G01X0027299Y0003997D01*
G01X0027299Y0003997D02*
G01X0027190Y0004105D01*
G01X0027190Y0004105D02*
G01X0027190Y0004322D01*
G01X0028590Y0004322D02*
G01X0028590Y0003888D01*
G01X0028590Y0003888D02*
G01X0028698Y0003780D01*
G01X0028698Y0003780D02*
G01X0029024Y0003780D01*
G01X0029024Y0003780D02*
G01X0029024Y0004431D01*
G01X0029024Y0004431D02*
G01X0028698Y0004431D01*
G01X0028698Y0004431D02*
G01X0028590Y0004322D01*
G01X0029290Y0004431D02*
G01X0029290Y0003780D01*
G01X0029290Y0003780D02*
G01X0029723Y0004431D01*
G01X0029723Y0004431D02*
G01X0029723Y0003780D01*
G01X0029989Y0003888D02*
G01X0029989Y0004105D01*
G01X0029989Y0004105D02*
G01X0030206Y0004105D01*
G01X0029989Y0003888D02*
G01X0030098Y0003780D01*
G01X0030098Y0003780D02*
G01X0030315Y0003780D01*
G01X0030315Y0003780D02*
G01X0030423Y0003888D01*
G01X0030423Y0003888D02*
G01X0030423Y0004322D01*
G01X0030423Y0004322D02*
G01X0030315Y0004431D01*
G01X0030315Y0004431D02*
G01X0030098Y0004431D01*
G01X0030098Y0004431D02*
G01X0029989Y0004322D01*
G01X0034391Y0004431D02*
G01X0034825Y0004431D01*
G01X0034825Y0004431D02*
G01X0034825Y0003780D01*
G01X0034825Y0003780D02*
G01X0034391Y0003780D01*
G01X0034608Y0004105D02*
G01X0034825Y0004105D01*
G01X0035091Y0003780D02*
G01X0035091Y0004431D01*
G01X0035525Y0004431D02*
G01X0035091Y0003780D01*
G01X0035525Y0003780D02*
G01X0035525Y0004431D01*
G01X0035791Y0004214D02*
G01X0036008Y0004431D01*
G01X0036008Y0004431D02*
G01X0036224Y0004214D01*
G01X0036224Y0004214D02*
G01X0036224Y0003780D01*
G01X0036490Y0003780D02*
G01X0036924Y0003780D01*
G01X0036924Y0003780D02*
G01X0036924Y0004431D01*
G01X0037190Y0004322D02*
G01X0037190Y0004105D01*
G01X0037190Y0004105D02*
G01X0037299Y0003997D01*
G01X0037299Y0003997D02*
G01X0037624Y0003997D01*
G01X0037624Y0003780D02*
G01X0037624Y0004431D01*
G01X0037624Y0004431D02*
G01X0037299Y0004431D01*
G01X0037299Y0004431D02*
G01X0037190Y0004322D01*
G01X0036224Y0004105D02*
G01X0035791Y0004105D01*
G01X0035791Y0004214D02*
G01X0035791Y0003780D01*
G01X0038590Y0003888D02*
G01X0038590Y0004322D01*
G01X0038590Y0004322D02*
G01X0038698Y0004431D01*
G01X0038698Y0004431D02*
G01X0039024Y0004431D01*
G01X0039024Y0004431D02*
G01X0039024Y0003780D01*
G01X0039024Y0003780D02*
G01X0038698Y0003780D01*
G01X0038698Y0003780D02*
G01X0038590Y0003888D01*
G01X0039290Y0003780D02*
G01X0039290Y0004431D01*
G01X0039723Y0004431D02*
G01X0039290Y0003780D01*
G01X0039723Y0003780D02*
G01X0039723Y0004431D01*
G01X0039989Y0004322D02*
G01X0040098Y0004431D01*
G01X0040098Y0004431D02*
G01X0040315Y0004431D01*
G01X0040315Y0004431D02*
G01X0040423Y0004322D01*
G01X0040423Y0004322D02*
G01X0040423Y0003888D01*
G01X0040423Y0003888D02*
G01X0040315Y0003780D01*
G01X0040315Y0003780D02*
G01X0040098Y0003780D01*
G01X0040098Y0003780D02*
G01X0039989Y0003888D01*
G01X0039989Y0003888D02*
G01X0039989Y0004105D01*
G01X0039989Y0004105D02*
G01X0040206Y0004105D01*
G54D11*
G01X0044477Y0005188D02*
G01X0044290Y0005188D01*
G01X0044477Y0005188D02*
G01X0044570Y0005281D01*
G01X0044570Y0005281D02*
G01X0044477Y0005375D01*
G01X0044477Y0005375D02*
G01X0044290Y0005375D01*
G01X0044336Y0005482D02*
G01X0044290Y0005529D01*
G01X0044290Y0005529D02*
G01X0044290Y0005623D01*
G01X0044290Y0005623D02*
G01X0044336Y0005669D01*
G01X0044336Y0005482D02*
G01X0044383Y0005482D01*
G01X0044383Y0005482D02*
G01X0044570Y0005669D01*
G01X0044570Y0005669D02*
G01X0044570Y0005482D01*
G01X0044570Y0005777D02*
G01X0044570Y0005964D01*
G01X0044570Y0005871D02*
G01X0044290Y0005871D01*
G01X0044290Y0005871D02*
G01X0044383Y0005964D01*
G01X0044430Y0006072D02*
G01X0044430Y0006259D01*
G01X0044336Y0006165D02*
G01X0044523Y0006165D01*
G01X0045040Y0006065D02*
G01X0045040Y0005971D01*
G01X0045040Y0005971D02*
G01X0045086Y0005924D01*
G01X0045086Y0005924D02*
G01X0045133Y0005924D01*
G01X0045133Y0005924D02*
G01X0045180Y0005971D01*
G01X0045180Y0005971D02*
G01X0045227Y0005924D01*
G01X0045227Y0005924D02*
G01X0045273Y0005924D01*
G01X0045273Y0005924D02*
G01X0045320Y0005971D01*
G01X0045320Y0005971D02*
G01X0045320Y0006065D01*
G01X0045320Y0006065D02*
G01X0045273Y0006111D01*
G01X0045180Y0006018D02*
G01X0045180Y0005971D01*
G01X0045086Y0006111D02*
G01X0045040Y0006065D01*
G01X0045180Y0006219D02*
G01X0045180Y0006406D01*
G01X0045273Y0006313D02*
G01X0045086Y0006313D01*
G01X0045273Y0005817D02*
G01X0045273Y0005770D01*
G01X0045273Y0005770D02*
G01X0045320Y0005770D01*
G01X0045320Y0005770D02*
G01X0045320Y0005817D01*
G01X0045320Y0005817D02*
G01X0045273Y0005817D01*
G01X0045273Y0005669D02*
G01X0045320Y0005623D01*
G01X0045320Y0005623D02*
G01X0045320Y0005529D01*
G01X0045320Y0005529D02*
G01X0045273Y0005482D01*
G01X0045273Y0005482D02*
G01X0045227Y0005482D01*
G01X0045227Y0005482D02*
G01X0045180Y0005529D01*
G01X0045180Y0005529D02*
G01X0045180Y0005576D01*
G01X0045180Y0005529D02*
G01X0045133Y0005482D01*
G01X0045133Y0005482D02*
G01X0045086Y0005482D01*
G01X0045086Y0005482D02*
G01X0045040Y0005529D01*
G01X0045040Y0005529D02*
G01X0045040Y0005623D01*
G01X0045040Y0005623D02*
G01X0045086Y0005669D01*
G01X0045040Y0005375D02*
G01X0045227Y0005375D01*
G01X0045227Y0005375D02*
G01X0045320Y0005281D01*
G01X0045320Y0005281D02*
G01X0045227Y0005188D01*
G01X0045227Y0005188D02*
G01X0045040Y0005188D01*
G01X0046040Y0005735D02*
G01X0046040Y0005875D01*
G01X0046040Y0005875D02*
G01X0046320Y0005875D01*
G01X0046320Y0005875D02*
G01X0046320Y0005735D01*
G01X0046320Y0005735D02*
G01X0046273Y0005688D01*
G01X0046273Y0005688D02*
G01X0046086Y0005688D01*
G01X0046086Y0005688D02*
G01X0046040Y0005735D01*
G01X0046040Y0005982D02*
G01X0046320Y0005982D01*
G01X0046320Y0005982D02*
G01X0046040Y0006169D01*
G01X0046040Y0006169D02*
G01X0046320Y0006169D01*
G01X0046273Y0006277D02*
G01X0046180Y0006277D01*
G01X0046180Y0006277D02*
G01X0046180Y0006371D01*
G01X0046273Y0006464D02*
G01X0046320Y0006417D01*
G01X0046320Y0006417D02*
G01X0046320Y0006324D01*
G01X0046320Y0006324D02*
G01X0046273Y0006277D01*
G01X0046086Y0006277D02*
G01X0046040Y0006324D01*
G01X0046040Y0006324D02*
G01X0046040Y0006417D01*
G01X0046040Y0006417D02*
G01X0046086Y0006464D01*
G01X0046086Y0006464D02*
G01X0046273Y0006464D01*
G01X0047086Y0006371D02*
G01X0047273Y0006371D01*
G01X0047180Y0006464D02*
G01X0047180Y0006277D01*
G01X0047180Y0006169D02*
G01X0047133Y0006076D01*
G01X0047133Y0006076D02*
G01X0047133Y0006029D01*
G01X0047133Y0006029D02*
G01X0047180Y0005982D01*
G01X0047180Y0005982D02*
G01X0047273Y0005982D01*
G01X0047273Y0005982D02*
G01X0047320Y0006029D01*
G01X0047320Y0006029D02*
G01X0047320Y0006123D01*
G01X0047320Y0006123D02*
G01X0047273Y0006169D01*
G01X0047180Y0006169D02*
G01X0047040Y0006169D01*
G01X0047040Y0006169D02*
G01X0047040Y0005982D01*
G01X0047040Y0005875D02*
G01X0047227Y0005875D01*
G01X0047227Y0005875D02*
G01X0047320Y0005781D01*
G01X0047320Y0005781D02*
G01X0047227Y0005688D01*
G01X0047227Y0005688D02*
G01X0047040Y0005688D01*
G01X0048040Y0005623D02*
G01X0048086Y0005669D01*
G01X0048040Y0005623D02*
G01X0048040Y0005529D01*
G01X0048040Y0005529D02*
G01X0048086Y0005482D01*
G01X0048086Y0005482D02*
G01X0048133Y0005482D01*
G01X0048133Y0005482D02*
G01X0048320Y0005669D01*
G01X0048320Y0005669D02*
G01X0048320Y0005482D01*
G01X0048227Y0005375D02*
G01X0048320Y0005281D01*
G01X0048320Y0005281D02*
G01X0048227Y0005188D01*
G01X0048227Y0005188D02*
G01X0048040Y0005188D01*
G01X0048040Y0005375D02*
G01X0048227Y0005375D01*
G01X0048540Y0005375D02*
G01X0048540Y0005235D01*
G01X0048540Y0005235D02*
G01X0048586Y0005188D01*
G01X0048586Y0005188D02*
G01X0048633Y0005188D01*
G01X0048633Y0005188D02*
G01X0048680Y0005235D01*
G01X0048680Y0005235D02*
G01X0048680Y0005375D01*
G01X0048727Y0005482D02*
G01X0048773Y0005482D01*
G01X0048773Y0005482D02*
G01X0048820Y0005529D01*
G01X0048820Y0005529D02*
G01X0048820Y0005623D01*
G01X0048820Y0005623D02*
G01X0048773Y0005669D01*
G01X0048680Y0005623D02*
G01X0048633Y0005669D01*
G01X0048633Y0005669D02*
G01X0048586Y0005669D01*
G01X0048586Y0005669D02*
G01X0048540Y0005623D01*
G01X0048540Y0005623D02*
G01X0048540Y0005529D01*
G01X0048540Y0005529D02*
G01X0048586Y0005482D01*
G01X0048680Y0005529D02*
G01X0048727Y0005482D01*
G01X0048680Y0005529D02*
G01X0048680Y0005623D01*
G01X0048727Y0005777D02*
G01X0048540Y0005777D01*
G01X0048727Y0005777D02*
G01X0048820Y0005871D01*
G01X0048820Y0005871D02*
G01X0048727Y0005964D01*
G01X0048727Y0005964D02*
G01X0048540Y0005964D01*
G01X0048540Y0006072D02*
G01X0048540Y0006259D01*
G01X0048540Y0006259D02*
G01X0048680Y0006259D01*
G01X0048680Y0006259D02*
G01X0048633Y0006165D01*
G01X0048633Y0006165D02*
G01X0048633Y0006118D01*
G01X0048633Y0006118D02*
G01X0048680Y0006072D01*
G01X0048680Y0006072D02*
G01X0048773Y0006072D01*
G01X0048773Y0006072D02*
G01X0048820Y0006118D01*
G01X0048820Y0006118D02*
G01X0048820Y0006212D01*
G01X0048820Y0006212D02*
G01X0048773Y0006259D01*
G01X0048680Y0006366D02*
G01X0048680Y0006553D01*
G01X0048773Y0006460D02*
G01X0048586Y0006460D01*
G01X0048180Y0006259D02*
G01X0048180Y0006072D01*
G01X0048133Y0005964D02*
G01X0048040Y0005871D01*
G01X0048040Y0005871D02*
G01X0048320Y0005871D01*
G01X0048320Y0005964D02*
G01X0048320Y0005777D01*
G01X0048540Y0005375D02*
G01X0048820Y0005375D01*
G01X0048820Y0005375D02*
G01X0048820Y0005235D01*
G01X0048820Y0005235D02*
G01X0048773Y0005188D01*
G01X0048773Y0005188D02*
G01X0048727Y0005188D01*
G01X0048727Y0005188D02*
G01X0048680Y0005235D01*
G01X0048960Y0005100D02*
G01X0048960Y0005984D01*
G01X0049040Y0005917D02*
G01X0049086Y0005964D01*
G01X0049086Y0005964D02*
G01X0049273Y0005964D01*
G01X0049273Y0005964D02*
G01X0049320Y0005917D01*
G01X0049320Y0005917D02*
G01X0049320Y0005824D01*
G01X0049320Y0005824D02*
G01X0049273Y0005777D01*
G01X0049273Y0005669D02*
G01X0049320Y0005623D01*
G01X0049320Y0005623D02*
G01X0049320Y0005529D01*
G01X0049320Y0005529D02*
G01X0049273Y0005482D01*
G01X0049273Y0005482D02*
G01X0049227Y0005482D01*
G01X0049227Y0005482D02*
G01X0049180Y0005529D01*
G01X0049180Y0005529D02*
G01X0049180Y0005623D01*
G01X0049180Y0005623D02*
G01X0049133Y0005669D01*
G01X0049133Y0005669D02*
G01X0049086Y0005669D01*
G01X0049086Y0005669D02*
G01X0049040Y0005623D01*
G01X0049040Y0005623D02*
G01X0049040Y0005529D01*
G01X0049040Y0005529D02*
G01X0049086Y0005482D01*
G01X0049040Y0005375D02*
G01X0049320Y0005188D01*
G01X0049460Y0005100D02*
G01X0049460Y0006573D01*
G01X0049540Y0006553D02*
G01X0049540Y0006413D01*
G01X0049540Y0006413D02*
G01X0049586Y0006366D01*
G01X0049586Y0006366D02*
G01X0049633Y0006366D01*
G01X0049633Y0006366D02*
G01X0049680Y0006413D01*
G01X0049680Y0006413D02*
G01X0049680Y0006553D01*
G01X0049680Y0006413D02*
G01X0049727Y0006366D01*
G01X0049727Y0006366D02*
G01X0049773Y0006366D01*
G01X0049773Y0006366D02*
G01X0049820Y0006413D01*
G01X0049820Y0006413D02*
G01X0049820Y0006553D01*
G01X0049820Y0006553D02*
G01X0049540Y0006553D01*
G01X0049540Y0006259D02*
G01X0049773Y0006259D01*
G01X0049773Y0006259D02*
G01X0049820Y0006212D01*
G01X0049820Y0006212D02*
G01X0049820Y0006118D01*
G01X0049820Y0006118D02*
G01X0049773Y0006072D01*
G01X0049773Y0006072D02*
G01X0049540Y0006072D01*
G01X0049586Y0005964D02*
G01X0049633Y0005964D01*
G01X0049633Y0005964D02*
G01X0049680Y0005917D01*
G01X0049680Y0005917D02*
G01X0049680Y0005824D01*
G01X0049680Y0005824D02*
G01X0049727Y0005777D01*
G01X0049727Y0005777D02*
G01X0049773Y0005777D01*
G01X0049773Y0005777D02*
G01X0049820Y0005824D01*
G01X0049820Y0005824D02*
G01X0049820Y0005917D01*
G01X0049820Y0005917D02*
G01X0049773Y0005964D01*
G01X0049586Y0005964D02*
G01X0049540Y0005917D01*
G01X0049540Y0005917D02*
G01X0049540Y0005824D01*
G01X0049540Y0005824D02*
G01X0049586Y0005777D01*
G01X0049540Y0005669D02*
G01X0049540Y0005529D01*
G01X0049540Y0005529D02*
G01X0049586Y0005482D01*
G01X0049586Y0005482D02*
G01X0049680Y0005482D01*
G01X0049680Y0005482D02*
G01X0049727Y0005529D01*
G01X0049727Y0005529D02*
G01X0049727Y0005669D01*
G01X0049820Y0005669D02*
G01X0049540Y0005669D01*
G01X0049727Y0005576D02*
G01X0049820Y0005482D01*
G01X0049773Y0005375D02*
G01X0049820Y0005328D01*
G01X0049820Y0005328D02*
G01X0049820Y0005235D01*
G01X0049820Y0005235D02*
G01X0049773Y0005188D01*
G01X0049773Y0005188D02*
G01X0049586Y0005188D01*
G01X0049586Y0005188D02*
G01X0049540Y0005235D01*
G01X0049540Y0005235D02*
G01X0049540Y0005328D01*
G01X0049540Y0005328D02*
G01X0049586Y0005375D01*
G01X0049586Y0005375D02*
G01X0049773Y0005375D01*
G01X0049727Y0005281D02*
G01X0049820Y0005188D01*
G01X0049960Y0005100D02*
G01X0049960Y0005886D01*
G01X0050040Y0005866D02*
G01X0050040Y0005772D01*
G01X0050040Y0005819D02*
G01X0050320Y0005819D01*
G01X0050320Y0005866D02*
G01X0050320Y0005772D01*
G01X0050320Y0005669D02*
G01X0050040Y0005669D01*
G01X0050040Y0005669D02*
G01X0050320Y0005482D01*
G01X0050320Y0005482D02*
G01X0050040Y0005482D01*
G01X0050040Y0005375D02*
G01X0050320Y0005375D01*
G01X0050180Y0005375D02*
G01X0050180Y0005188D01*
G01X0050040Y0005188D02*
G01X0050320Y0005188D01*
G01X0050460Y0005100D02*
G01X0050460Y0005984D01*
G01X0050540Y0005917D02*
G01X0050586Y0005964D01*
G01X0050586Y0005964D02*
G01X0050773Y0005964D01*
G01X0050773Y0005964D02*
G01X0050820Y0005917D01*
G01X0050820Y0005917D02*
G01X0050820Y0005824D01*
G01X0050820Y0005824D02*
G01X0050773Y0005777D01*
G01X0050820Y0005669D02*
G01X0050820Y0005529D01*
G01X0050820Y0005529D02*
G01X0050773Y0005482D01*
G01X0050773Y0005482D02*
G01X0050727Y0005482D01*
G01X0050727Y0005482D02*
G01X0050680Y0005529D01*
G01X0050680Y0005529D02*
G01X0050680Y0005669D01*
G01X0050680Y0005529D02*
G01X0050633Y0005482D01*
G01X0050633Y0005482D02*
G01X0050586Y0005482D01*
G01X0050586Y0005482D02*
G01X0050540Y0005529D01*
G01X0050540Y0005529D02*
G01X0050540Y0005669D01*
G01X0050540Y0005669D02*
G01X0050820Y0005669D01*
G01X0051040Y0005669D02*
G01X0051320Y0005482D01*
G01X0051320Y0005482D02*
G01X0051040Y0005482D01*
G01X0051040Y0005375D02*
G01X0051320Y0005375D01*
G01X0051180Y0005375D02*
G01X0051180Y0005188D01*
G01X0051040Y0005188D02*
G01X0051320Y0005188D01*
G01X0051460Y0005100D02*
G01X0051460Y0005984D01*
G01X0051540Y0005964D02*
G01X0051540Y0005824D01*
G01X0051540Y0005824D02*
G01X0051586Y0005777D01*
G01X0051586Y0005777D02*
G01X0051680Y0005777D01*
G01X0051680Y0005777D02*
G01X0051727Y0005824D01*
G01X0051727Y0005824D02*
G01X0051727Y0005964D01*
G01X0051820Y0005964D02*
G01X0051540Y0005964D01*
G01X0051727Y0005871D02*
G01X0051820Y0005777D01*
G01X0051773Y0005669D02*
G01X0051820Y0005623D01*
G01X0051820Y0005623D02*
G01X0051820Y0005529D01*
G01X0051820Y0005529D02*
G01X0051773Y0005482D01*
G01X0051773Y0005482D02*
G01X0051727Y0005482D01*
G01X0051727Y0005482D02*
G01X0051680Y0005529D01*
G01X0051680Y0005529D02*
G01X0051680Y0005623D01*
G01X0051680Y0005623D02*
G01X0051633Y0005669D01*
G01X0051633Y0005669D02*
G01X0051586Y0005669D01*
G01X0051586Y0005669D02*
G01X0051540Y0005623D01*
G01X0051540Y0005623D02*
G01X0051540Y0005529D01*
G01X0051540Y0005529D02*
G01X0051586Y0005482D01*
G01X0051540Y0005375D02*
G01X0051540Y0005188D01*
G01X0051540Y0005281D02*
G01X0051820Y0005281D01*
G01X0052040Y0005188D02*
G01X0052227Y0005375D01*
G01X0052180Y0005328D02*
G01X0052320Y0005188D01*
G01X0052460Y0005100D02*
G01X0052460Y0006475D01*
G01X0052540Y0006455D02*
G01X0052540Y0006362D01*
G01X0052540Y0006408D02*
G01X0052820Y0006408D01*
G01X0052820Y0006362D02*
G01X0052820Y0006455D01*
G01X0052773Y0006259D02*
G01X0052820Y0006212D01*
G01X0052820Y0006212D02*
G01X0052820Y0006118D01*
G01X0052820Y0006118D02*
G01X0052773Y0006072D01*
G01X0052773Y0006072D02*
G01X0052586Y0006072D01*
G01X0052586Y0006072D02*
G01X0052540Y0006118D01*
G01X0052540Y0006118D02*
G01X0052540Y0006212D01*
G01X0052540Y0006212D02*
G01X0052586Y0006259D01*
G01X0052586Y0006259D02*
G01X0052773Y0006259D01*
G01X0052960Y0006279D02*
G01X0052960Y0005100D01*
G01X0053040Y0005188D02*
G01X0053040Y0005375D01*
G01X0053040Y0005281D02*
G01X0053320Y0005281D01*
G01X0053320Y0005482D02*
G01X0053320Y0005669D01*
G01X0053320Y0005669D02*
G01X0053040Y0005669D01*
G01X0053133Y0005777D02*
G01X0053320Y0005777D01*
G01X0053180Y0005777D02*
G01X0053180Y0005964D01*
G01X0053133Y0005964D02*
G01X0053040Y0005871D01*
G01X0053040Y0005871D02*
G01X0053133Y0005777D01*
G01X0053133Y0005964D02*
G01X0053320Y0005964D01*
G01X0053320Y0006072D02*
G01X0053040Y0006072D01*
G01X0053180Y0006072D02*
G01X0053180Y0006259D01*
G01X0053320Y0006259D02*
G01X0053040Y0006259D01*
G01X0052773Y0005964D02*
G01X0052820Y0005917D01*
G01X0052820Y0005917D02*
G01X0052820Y0005824D01*
G01X0052820Y0005824D02*
G01X0052773Y0005777D01*
G01X0052773Y0005777D02*
G01X0052727Y0005777D01*
G01X0052727Y0005777D02*
G01X0052680Y0005824D01*
G01X0052680Y0005824D02*
G01X0052680Y0005917D01*
G01X0052680Y0005917D02*
G01X0052633Y0005964D01*
G01X0052633Y0005964D02*
G01X0052586Y0005964D01*
G01X0052586Y0005964D02*
G01X0052540Y0005917D01*
G01X0052540Y0005917D02*
G01X0052540Y0005824D01*
G01X0052540Y0005824D02*
G01X0052586Y0005777D01*
G01X0052540Y0005669D02*
G01X0052820Y0005669D01*
G01X0052820Y0005669D02*
G01X0052820Y0005482D01*
G01X0052820Y0005375D02*
G01X0052820Y0005188D01*
G01X0052820Y0005375D02*
G01X0052540Y0005375D01*
G01X0052540Y0005482D02*
G01X0052540Y0005669D01*
G01X0052680Y0005669D02*
G01X0052680Y0005576D01*
G01X0052320Y0005669D02*
G01X0052320Y0005482D01*
G01X0052320Y0005375D02*
G01X0052040Y0005375D01*
G01X0052040Y0005669D02*
G01X0052320Y0005669D01*
G01X0052273Y0005777D02*
G01X0052320Y0005824D01*
G01X0052320Y0005824D02*
G01X0052320Y0005917D01*
G01X0052320Y0005917D02*
G01X0052273Y0005964D01*
G01X0052273Y0005964D02*
G01X0052086Y0005964D01*
G01X0052086Y0005964D02*
G01X0052040Y0005917D01*
G01X0052040Y0005917D02*
G01X0052040Y0005824D01*
G01X0052040Y0005824D02*
G01X0052086Y0005777D01*
G01X0051320Y0005772D02*
G01X0051320Y0005866D01*
G01X0051320Y0005819D02*
G01X0051040Y0005819D01*
G01X0051040Y0005866D02*
G01X0051040Y0005772D01*
G01X0051040Y0005669D02*
G01X0051320Y0005669D01*
G01X0051273Y0005974D02*
G01X0051320Y0006020D01*
G01X0051320Y0006020D02*
G01X0051320Y0006114D01*
G01X0051320Y0006114D02*
G01X0051273Y0006160D01*
G01X0051273Y0006160D02*
G01X0051086Y0006160D01*
G01X0051086Y0006160D02*
G01X0051040Y0006114D01*
G01X0051040Y0006114D02*
G01X0051040Y0006020D01*
G01X0051040Y0006020D02*
G01X0051086Y0005974D01*
G01X0050960Y0006180D02*
G01X0050960Y0005100D01*
G01X0050820Y0005188D02*
G01X0050727Y0005281D01*
G01X0050727Y0005235D02*
G01X0050727Y0005375D01*
G01X0050820Y0005375D02*
G01X0050540Y0005375D01*
G01X0050540Y0005375D02*
G01X0050540Y0005235D01*
G01X0050540Y0005235D02*
G01X0050586Y0005188D01*
G01X0050586Y0005188D02*
G01X0050680Y0005188D01*
G01X0050680Y0005188D02*
G01X0050727Y0005235D01*
G01X0050586Y0005777D02*
G01X0050540Y0005824D01*
G01X0050540Y0005824D02*
G01X0050540Y0005917D01*
G01X0049320Y0005375D02*
G01X0049040Y0005188D01*
G01X0049086Y0005777D02*
G01X0049040Y0005824D01*
G01X0049040Y0005824D02*
G01X0049040Y0005917D01*
G01X0053460Y0006180D02*
G01X0053460Y0005100D01*
G01X0053540Y0005188D02*
G01X0053540Y0005375D01*
G01X0053540Y0005281D02*
G01X0053820Y0005281D01*
G01X0053820Y0005478D02*
G01X0053820Y0005571D01*
G01X0053820Y0005524D02*
G01X0053540Y0005524D01*
G01X0053540Y0005478D02*
G01X0053540Y0005571D01*
G01X0053633Y0005679D02*
G01X0053820Y0005679D01*
G01X0053680Y0005679D02*
G01X0053680Y0005866D01*
G01X0053633Y0005866D02*
G01X0053540Y0005772D01*
G01X0053540Y0005772D02*
G01X0053633Y0005679D01*
G01X0053633Y0005866D02*
G01X0053820Y0005866D01*
G01X0053820Y0005974D02*
G01X0053540Y0005974D01*
G01X0053540Y0006160D02*
G01X0053820Y0006160D01*
G01X0053820Y0006160D02*
G01X0053727Y0006067D01*
G01X0053727Y0006067D02*
G01X0053820Y0005974D01*
G01X0054040Y0005964D02*
G01X0054040Y0005777D01*
G01X0054040Y0005871D02*
G01X0054320Y0005871D01*
G01X0054320Y0006072D02*
G01X0054320Y0006259D01*
G01X0054320Y0006259D02*
G01X0054040Y0006259D01*
G01X0054040Y0006259D02*
G01X0054040Y0006072D01*
G01X0054180Y0006165D02*
G01X0054180Y0006259D01*
G01X0054040Y0006366D02*
G01X0054040Y0006553D01*
G01X0054040Y0006553D02*
G01X0054320Y0006553D01*
G01X0054180Y0006553D02*
G01X0054180Y0006460D01*
G01X0053960Y0006573D02*
G01X0053960Y0005100D01*
G01X0054040Y0005188D02*
G01X0054320Y0005188D01*
G01X0054180Y0005188D02*
G01X0054180Y0005375D01*
G01X0054320Y0005375D02*
G01X0054040Y0005375D01*
G01X0054086Y0005482D02*
G01X0054040Y0005529D01*
G01X0054040Y0005529D02*
G01X0054040Y0005623D01*
G01X0054040Y0005623D02*
G01X0054086Y0005669D01*
G01X0054086Y0005669D02*
G01X0054273Y0005669D01*
G01X0054273Y0005669D02*
G01X0054320Y0005623D01*
G01X0054320Y0005623D02*
G01X0054320Y0005529D01*
G01X0054320Y0005529D02*
G01X0054273Y0005482D01*
G01X0054540Y0005529D02*
G01X0054540Y0005623D01*
G01X0054540Y0005623D02*
G01X0054586Y0005669D01*
G01X0054586Y0005669D02*
G01X0054773Y0005669D01*
G01X0054773Y0005669D02*
G01X0054820Y0005623D01*
G01X0054820Y0005623D02*
G01X0054820Y0005529D01*
G01X0054820Y0005529D02*
G01X0054773Y0005482D01*
G01X0054727Y0005375D02*
G01X0054540Y0005188D01*
G01X0054460Y0005100D02*
G01X0054460Y0006868D01*
G01X0054540Y0006848D02*
G01X0054540Y0006708D01*
G01X0054540Y0006708D02*
G01X0054586Y0006661D01*
G01X0054586Y0006661D02*
G01X0054633Y0006661D01*
G01X0054633Y0006661D02*
G01X0054680Y0006708D01*
G01X0054680Y0006708D02*
G01X0054680Y0006848D01*
G01X0054820Y0006848D02*
G01X0054820Y0006708D01*
G01X0054820Y0006708D02*
G01X0054773Y0006661D01*
G01X0054773Y0006661D02*
G01X0054727Y0006661D01*
G01X0054727Y0006661D02*
G01X0054680Y0006708D01*
G01X0054773Y0006553D02*
G01X0054820Y0006507D01*
G01X0054820Y0006507D02*
G01X0054820Y0006413D01*
G01X0054820Y0006413D02*
G01X0054773Y0006366D01*
G01X0054773Y0006366D02*
G01X0054540Y0006366D01*
G01X0054586Y0006259D02*
G01X0054633Y0006259D01*
G01X0054633Y0006259D02*
G01X0054680Y0006212D01*
G01X0054680Y0006212D02*
G01X0054680Y0006118D01*
G01X0054680Y0006118D02*
G01X0054727Y0006072D01*
G01X0054727Y0006072D02*
G01X0054773Y0006072D01*
G01X0054773Y0006072D02*
G01X0054820Y0006118D01*
G01X0054820Y0006118D02*
G01X0054820Y0006212D01*
G01X0054820Y0006212D02*
G01X0054773Y0006259D01*
G01X0054586Y0006259D02*
G01X0054540Y0006212D01*
G01X0054540Y0006212D02*
G01X0054540Y0006118D01*
G01X0054540Y0006118D02*
G01X0054586Y0006072D01*
G01X0054633Y0005964D02*
G01X0054540Y0005871D01*
G01X0054540Y0005871D02*
G01X0054633Y0005777D01*
G01X0054633Y0005777D02*
G01X0054820Y0005777D01*
G01X0054680Y0005777D02*
G01X0054680Y0005964D01*
G01X0054633Y0005964D02*
G01X0054820Y0005964D01*
G01X0054960Y0005689D02*
G01X0054960Y0005100D01*
G01X0055086Y0005188D02*
G01X0055040Y0005235D01*
G01X0055040Y0005235D02*
G01X0055040Y0005375D01*
G01X0055040Y0005375D02*
G01X0055320Y0005375D01*
G01X0055320Y0005375D02*
G01X0055320Y0005235D01*
G01X0055320Y0005235D02*
G01X0055273Y0005188D01*
G01X0055273Y0005188D02*
G01X0055086Y0005188D01*
G01X0054820Y0005188D02*
G01X0054680Y0005328D01*
G01X0054540Y0005375D02*
G01X0054820Y0005375D01*
G01X0054586Y0005482D02*
G01X0054540Y0005529D01*
G01X0055040Y0005529D02*
G01X0055040Y0005669D01*
G01X0055040Y0005669D02*
G01X0055320Y0005669D01*
G01X0055227Y0005669D02*
G01X0055227Y0005529D01*
G01X0055227Y0005529D02*
G01X0055180Y0005482D01*
G01X0055180Y0005482D02*
G01X0055086Y0005482D01*
G01X0055086Y0005482D02*
G01X0055040Y0005529D01*
G01X0055227Y0005576D02*
G01X0055320Y0005482D01*
G01X0055540Y0005482D02*
G01X0055820Y0005482D01*
G01X0055820Y0005482D02*
G01X0055727Y0005576D01*
G01X0055727Y0005576D02*
G01X0055820Y0005669D01*
G01X0055820Y0005669D02*
G01X0055540Y0005669D01*
G01X0055460Y0005689D02*
G01X0055460Y0005100D01*
G01X0055586Y0005188D02*
G01X0055680Y0005188D01*
G01X0055680Y0005188D02*
G01X0055727Y0005235D01*
G01X0055727Y0005235D02*
G01X0055727Y0005375D01*
G01X0055820Y0005375D02*
G01X0055540Y0005375D01*
G01X0055540Y0005375D02*
G01X0055540Y0005235D01*
G01X0055540Y0005235D02*
G01X0055586Y0005188D01*
G01X0055727Y0005281D02*
G01X0055820Y0005188D01*
G01X0056040Y0005235D02*
G01X0056086Y0005188D01*
G01X0056086Y0005188D02*
G01X0056273Y0005375D01*
G01X0056273Y0005375D02*
G01X0056320Y0005328D01*
G01X0056320Y0005328D02*
G01X0056320Y0005235D01*
G01X0056320Y0005235D02*
G01X0056273Y0005188D01*
G01X0056273Y0005188D02*
G01X0056086Y0005188D01*
G01X0056040Y0005235D02*
G01X0056040Y0005328D01*
G01X0056040Y0005328D02*
G01X0056086Y0005375D01*
G01X0056086Y0005375D02*
G01X0056273Y0005375D01*
G01X0056320Y0005482D02*
G01X0056133Y0005482D01*
G01X0056133Y0005482D02*
G01X0056040Y0005576D01*
G01X0056040Y0005576D02*
G01X0056133Y0005669D01*
G01X0056133Y0005669D02*
G01X0056320Y0005669D01*
G01X0056180Y0005669D02*
G01X0056180Y0005482D01*
G01X0056540Y0005576D02*
G01X0056633Y0005669D01*
G01X0056633Y0005669D02*
G01X0056820Y0005669D01*
G01X0056680Y0005669D02*
G01X0056680Y0005482D01*
G01X0056633Y0005482D02*
G01X0056820Y0005482D01*
G01X0056820Y0005375D02*
G01X0056820Y0005188D01*
G01X0056820Y0005281D02*
G01X0056540Y0005281D01*
G01X0056540Y0005281D02*
G01X0056633Y0005375D01*
G01X0056633Y0005482D02*
G01X0056540Y0005576D01*
G01X0057040Y0005576D02*
G01X0057133Y0005482D01*
G01X0057133Y0005482D02*
G01X0057320Y0005482D01*
G01X0057320Y0005375D02*
G01X0057133Y0005188D01*
G01X0057133Y0005188D02*
G01X0057086Y0005188D01*
G01X0057086Y0005188D02*
G01X0057040Y0005235D01*
G01X0057040Y0005235D02*
G01X0057040Y0005328D01*
G01X0057040Y0005328D02*
G01X0057086Y0005375D01*
G01X0057180Y0005482D02*
G01X0057180Y0005669D01*
G01X0057133Y0005669D02*
G01X0057040Y0005576D01*
G01X0057133Y0005669D02*
G01X0057320Y0005669D01*
G01X0057540Y0005576D02*
G01X0057633Y0005669D01*
G01X0057633Y0005669D02*
G01X0057820Y0005669D01*
G01X0057680Y0005669D02*
G01X0057680Y0005482D01*
G01X0057633Y0005482D02*
G01X0057820Y0005482D01*
G01X0057773Y0005375D02*
G01X0057820Y0005328D01*
G01X0057820Y0005328D02*
G01X0057820Y0005235D01*
G01X0057820Y0005235D02*
G01X0057773Y0005188D01*
G01X0057773Y0005188D02*
G01X0057727Y0005188D01*
G01X0057727Y0005188D02*
G01X0057680Y0005235D01*
G01X0057680Y0005235D02*
G01X0057680Y0005281D01*
G01X0057680Y0005235D02*
G01X0057633Y0005188D01*
G01X0057633Y0005188D02*
G01X0057586Y0005188D01*
G01X0057586Y0005188D02*
G01X0057540Y0005235D01*
G01X0057540Y0005235D02*
G01X0057540Y0005328D01*
G01X0057540Y0005328D02*
G01X0057586Y0005375D01*
G01X0057633Y0005482D02*
G01X0057540Y0005576D01*
G01X0057320Y0005375D02*
G01X0057320Y0005188D01*
G01X0058040Y0005235D02*
G01X0058180Y0005375D01*
G01X0058180Y0005375D02*
G01X0058180Y0005188D01*
G01X0058320Y0005235D02*
G01X0058040Y0005235D01*
G01X0058133Y0005482D02*
G01X0058320Y0005482D01*
G01X0058180Y0005482D02*
G01X0058180Y0005669D01*
G01X0058133Y0005669D02*
G01X0058040Y0005576D01*
G01X0058040Y0005576D02*
G01X0058133Y0005482D01*
G01X0058133Y0005669D02*
G01X0058320Y0005669D01*
G01X0058540Y0005576D02*
G01X0058633Y0005669D01*
G01X0058633Y0005669D02*
G01X0058820Y0005669D01*
G01X0058680Y0005669D02*
G01X0058680Y0005482D01*
G01X0058633Y0005482D02*
G01X0058820Y0005482D01*
G01X0058773Y0005375D02*
G01X0058820Y0005328D01*
G01X0058820Y0005328D02*
G01X0058820Y0005235D01*
G01X0058820Y0005235D02*
G01X0058773Y0005188D01*
G01X0058773Y0005188D02*
G01X0058680Y0005188D01*
G01X0058680Y0005188D02*
G01X0058633Y0005235D01*
G01X0058633Y0005235D02*
G01X0058633Y0005281D01*
G01X0058633Y0005281D02*
G01X0058680Y0005375D01*
G01X0058680Y0005375D02*
G01X0058540Y0005375D01*
G01X0058540Y0005375D02*
G01X0058540Y0005188D01*
G01X0058633Y0005482D02*
G01X0058540Y0005576D01*
G01X0059040Y0005576D02*
G01X0059133Y0005669D01*
G01X0059133Y0005669D02*
G01X0059320Y0005669D01*
G01X0059180Y0005669D02*
G01X0059180Y0005482D01*
G01X0059133Y0005482D02*
G01X0059320Y0005482D01*
G01X0059273Y0005375D02*
G01X0059320Y0005328D01*
G01X0059320Y0005328D02*
G01X0059320Y0005235D01*
G01X0059320Y0005235D02*
G01X0059273Y0005188D01*
G01X0059273Y0005188D02*
G01X0059227Y0005188D01*
G01X0059227Y0005188D02*
G01X0059180Y0005235D01*
G01X0059180Y0005235D02*
G01X0059180Y0005375D01*
G01X0059180Y0005375D02*
G01X0059273Y0005375D01*
G01X0059180Y0005375D02*
G01X0059086Y0005281D01*
G01X0059086Y0005281D02*
G01X0059040Y0005188D01*
G01X0059133Y0005482D02*
G01X0059040Y0005576D01*
G01X0059540Y0005576D02*
G01X0059633Y0005669D01*
G01X0059633Y0005669D02*
G01X0059820Y0005669D01*
G01X0059680Y0005669D02*
G01X0059680Y0005482D01*
G01X0059633Y0005482D02*
G01X0059820Y0005482D01*
G01X0059820Y0005375D02*
G01X0059773Y0005375D01*
G01X0059773Y0005375D02*
G01X0059586Y0005188D01*
G01X0059586Y0005188D02*
G01X0059540Y0005188D01*
G01X0059540Y0005188D02*
G01X0059540Y0005375D01*
G01X0059633Y0005482D02*
G01X0059540Y0005576D01*
G01X0060040Y0005576D02*
G01X0060133Y0005482D01*
G01X0060133Y0005482D02*
G01X0060320Y0005482D01*
G01X0060273Y0005375D02*
G01X0060227Y0005375D01*
G01X0060227Y0005375D02*
G01X0060180Y0005328D01*
G01X0060180Y0005328D02*
G01X0060180Y0005235D01*
G01X0060180Y0005235D02*
G01X0060227Y0005188D01*
G01X0060227Y0005188D02*
G01X0060273Y0005188D01*
G01X0060273Y0005188D02*
G01X0060320Y0005235D01*
G01X0060320Y0005235D02*
G01X0060320Y0005328D01*
G01X0060320Y0005328D02*
G01X0060273Y0005375D01*
G01X0060180Y0005328D02*
G01X0060133Y0005375D01*
G01X0060133Y0005375D02*
G01X0060086Y0005375D01*
G01X0060086Y0005375D02*
G01X0060040Y0005328D01*
G01X0060040Y0005328D02*
G01X0060040Y0005235D01*
G01X0060040Y0005235D02*
G01X0060086Y0005188D01*
G01X0060086Y0005188D02*
G01X0060133Y0005188D01*
G01X0060133Y0005188D02*
G01X0060180Y0005235D01*
G01X0060180Y0005482D02*
G01X0060180Y0005669D01*
G01X0060133Y0005669D02*
G01X0060040Y0005576D01*
G01X0060133Y0005669D02*
G01X0060320Y0005669D01*
G01X0060540Y0005576D02*
G01X0060633Y0005669D01*
G01X0060633Y0005669D02*
G01X0060820Y0005669D01*
G01X0060680Y0005669D02*
G01X0060680Y0005482D01*
G01X0060633Y0005482D02*
G01X0060820Y0005482D01*
G01X0060773Y0005375D02*
G01X0060820Y0005328D01*
G01X0060820Y0005328D02*
G01X0060820Y0005235D01*
G01X0060820Y0005235D02*
G01X0060773Y0005188D01*
G01X0060773Y0005188D02*
G01X0060586Y0005188D01*
G01X0060586Y0005188D02*
G01X0060540Y0005235D01*
G01X0060540Y0005235D02*
G01X0060540Y0005328D01*
G01X0060540Y0005328D02*
G01X0060586Y0005375D01*
G01X0060586Y0005375D02*
G01X0060633Y0005375D01*
G01X0060633Y0005375D02*
G01X0060680Y0005328D01*
G01X0060680Y0005328D02*
G01X0060680Y0005188D01*
G01X0060633Y0005482D02*
G01X0060540Y0005576D01*
G01X0061040Y0005576D02*
G01X0061320Y0005576D01*
G01X0061320Y0005669D02*
G01X0061320Y0005482D01*
G01X0061273Y0005375D02*
G01X0061086Y0005188D01*
G01X0061086Y0005188D02*
G01X0061273Y0005188D01*
G01X0061273Y0005188D02*
G01X0061320Y0005235D01*
G01X0061320Y0005235D02*
G01X0061320Y0005328D01*
G01X0061320Y0005328D02*
G01X0061273Y0005375D01*
G01X0061273Y0005375D02*
G01X0061086Y0005375D01*
G01X0061086Y0005375D02*
G01X0061040Y0005328D01*
G01X0061040Y0005328D02*
G01X0061040Y0005235D01*
G01X0061040Y0005235D02*
G01X0061086Y0005188D01*
G01X0061040Y0005576D02*
G01X0061133Y0005669D01*
G01X0061133Y0005777D02*
G01X0061320Y0005777D01*
G01X0061180Y0005777D02*
G01X0061180Y0005964D01*
G01X0061133Y0005964D02*
G01X0061040Y0005871D01*
G01X0061040Y0005871D02*
G01X0061133Y0005777D01*
G01X0061133Y0005964D02*
G01X0061320Y0005964D01*
G01X0061540Y0005871D02*
G01X0061633Y0005777D01*
G01X0061633Y0005777D02*
G01X0061820Y0005777D01*
G01X0061820Y0005669D02*
G01X0061820Y0005482D01*
G01X0061820Y0005576D02*
G01X0061540Y0005576D01*
G01X0061540Y0005576D02*
G01X0061633Y0005669D01*
G01X0061680Y0005777D02*
G01X0061680Y0005964D01*
G01X0061633Y0005964D02*
G01X0061540Y0005871D01*
G01X0061633Y0005964D02*
G01X0061820Y0005964D01*
G01X0062040Y0005871D02*
G01X0062133Y0005777D01*
G01X0062133Y0005777D02*
G01X0062320Y0005777D01*
G01X0062320Y0005669D02*
G01X0062320Y0005482D01*
G01X0062320Y0005576D02*
G01X0062040Y0005576D01*
G01X0062040Y0005576D02*
G01X0062133Y0005669D01*
G01X0062180Y0005777D02*
G01X0062180Y0005964D01*
G01X0062133Y0005964D02*
G01X0062040Y0005871D01*
G01X0062133Y0005964D02*
G01X0062320Y0005964D01*
G01X0062540Y0005871D02*
G01X0062633Y0005777D01*
G01X0062633Y0005777D02*
G01X0062820Y0005777D01*
G01X0062820Y0005669D02*
G01X0062820Y0005482D01*
G01X0062820Y0005576D02*
G01X0062540Y0005576D01*
G01X0062540Y0005576D02*
G01X0062633Y0005669D01*
G01X0062680Y0005777D02*
G01X0062680Y0005964D01*
G01X0062633Y0005964D02*
G01X0062540Y0005871D01*
G01X0062633Y0005964D02*
G01X0062820Y0005964D01*
G01X0063040Y0005871D02*
G01X0063133Y0005777D01*
G01X0063133Y0005777D02*
G01X0063320Y0005777D01*
G01X0063320Y0005669D02*
G01X0063320Y0005482D01*
G01X0063320Y0005576D02*
G01X0063040Y0005576D01*
G01X0063040Y0005576D02*
G01X0063133Y0005669D01*
G01X0063180Y0005777D02*
G01X0063180Y0005964D01*
G01X0063133Y0005964D02*
G01X0063040Y0005871D01*
G01X0063133Y0005964D02*
G01X0063320Y0005964D01*
G01X0063540Y0005871D02*
G01X0063633Y0005777D01*
G01X0063633Y0005777D02*
G01X0063820Y0005777D01*
G01X0063820Y0005669D02*
G01X0063820Y0005482D01*
G01X0063820Y0005576D02*
G01X0063540Y0005576D01*
G01X0063540Y0005576D02*
G01X0063633Y0005669D01*
G01X0063680Y0005777D02*
G01X0063680Y0005964D01*
G01X0063633Y0005964D02*
G01X0063540Y0005871D01*
G01X0063633Y0005964D02*
G01X0063820Y0005964D01*
G01X0064040Y0005871D02*
G01X0064133Y0005777D01*
G01X0064133Y0005777D02*
G01X0064320Y0005777D01*
G01X0064320Y0005669D02*
G01X0064320Y0005482D01*
G01X0064320Y0005576D02*
G01X0064040Y0005576D01*
G01X0064040Y0005576D02*
G01X0064133Y0005669D01*
G01X0064180Y0005777D02*
G01X0064180Y0005964D01*
G01X0064133Y0005964D02*
G01X0064040Y0005871D01*
G01X0064133Y0005964D02*
G01X0064320Y0005964D01*
G01X0064540Y0005871D02*
G01X0064633Y0005777D01*
G01X0064633Y0005777D02*
G01X0064820Y0005777D01*
G01X0064820Y0005669D02*
G01X0064820Y0005482D01*
G01X0064820Y0005576D02*
G01X0064540Y0005576D01*
G01X0064540Y0005576D02*
G01X0064633Y0005669D01*
G01X0064680Y0005777D02*
G01X0064680Y0005964D01*
G01X0064633Y0005964D02*
G01X0064540Y0005871D01*
G01X0064633Y0005964D02*
G01X0064820Y0005964D01*
G01X0065040Y0005871D02*
G01X0065133Y0005777D01*
G01X0065133Y0005777D02*
G01X0065320Y0005777D01*
G01X0065320Y0005669D02*
G01X0065320Y0005482D01*
G01X0065320Y0005576D02*
G01X0065040Y0005576D01*
G01X0065040Y0005576D02*
G01X0065133Y0005669D01*
G01X0065180Y0005777D02*
G01X0065180Y0005964D01*
G01X0065133Y0005964D02*
G01X0065040Y0005871D01*
G01X0065133Y0005964D02*
G01X0065320Y0005964D01*
G01X0065540Y0005871D02*
G01X0065633Y0005777D01*
G01X0065633Y0005777D02*
G01X0065820Y0005777D01*
G01X0065820Y0005669D02*
G01X0065820Y0005482D01*
G01X0065820Y0005576D02*
G01X0065540Y0005576D01*
G01X0065540Y0005576D02*
G01X0065633Y0005669D01*
G01X0065680Y0005777D02*
G01X0065680Y0005964D01*
G01X0065633Y0005964D02*
G01X0065540Y0005871D01*
G01X0065633Y0005964D02*
G01X0065820Y0005964D01*
G01X0066040Y0005669D02*
G01X0066040Y0005529D01*
G01X0066040Y0005529D02*
G01X0066086Y0005482D01*
G01X0066086Y0005482D02*
G01X0066273Y0005482D01*
G01X0066273Y0005482D02*
G01X0066320Y0005529D01*
G01X0066320Y0005529D02*
G01X0066320Y0005669D01*
G01X0066320Y0005669D02*
G01X0066040Y0005669D01*
G01X0066086Y0005375D02*
G01X0066040Y0005328D01*
G01X0066040Y0005328D02*
G01X0066040Y0005235D01*
G01X0066040Y0005235D02*
G01X0066086Y0005188D01*
G01X0066086Y0005188D02*
G01X0066273Y0005375D01*
G01X0066273Y0005375D02*
G01X0066320Y0005328D01*
G01X0066320Y0005328D02*
G01X0066320Y0005235D01*
G01X0066320Y0005235D02*
G01X0066273Y0005188D01*
G01X0066273Y0005188D02*
G01X0066086Y0005188D01*
G01X0066086Y0005375D02*
G01X0066273Y0005375D01*
G01X0066540Y0005281D02*
G01X0066820Y0005281D01*
G01X0066820Y0005188D02*
G01X0066820Y0005375D01*
G01X0066773Y0005482D02*
G01X0066586Y0005482D01*
G01X0066586Y0005482D02*
G01X0066540Y0005529D01*
G01X0066540Y0005529D02*
G01X0066540Y0005669D01*
G01X0066540Y0005669D02*
G01X0066820Y0005669D01*
G01X0066820Y0005669D02*
G01X0066820Y0005529D01*
G01X0066820Y0005529D02*
G01X0066773Y0005482D01*
G01X0066633Y0005375D02*
G01X0066540Y0005281D01*
G01X0067040Y0005235D02*
G01X0067086Y0005188D01*
G01X0067086Y0005188D02*
G01X0067133Y0005188D01*
G01X0067133Y0005188D02*
G01X0067320Y0005375D01*
G01X0067320Y0005375D02*
G01X0067320Y0005188D01*
G01X0067540Y0005235D02*
G01X0067586Y0005188D01*
G01X0067586Y0005188D02*
G01X0067633Y0005188D01*
G01X0067633Y0005188D02*
G01X0067680Y0005235D01*
G01X0067680Y0005235D02*
G01X0067727Y0005188D01*
G01X0067727Y0005188D02*
G01X0067773Y0005188D01*
G01X0067773Y0005188D02*
G01X0067820Y0005235D01*
G01X0067820Y0005235D02*
G01X0067820Y0005328D01*
G01X0067820Y0005328D02*
G01X0067773Y0005375D01*
G01X0067773Y0005482D02*
G01X0067586Y0005482D01*
G01X0067586Y0005482D02*
G01X0067540Y0005529D01*
G01X0067540Y0005529D02*
G01X0067540Y0005669D01*
G01X0067540Y0005669D02*
G01X0067820Y0005669D01*
G01X0067820Y0005669D02*
G01X0067820Y0005529D01*
G01X0067820Y0005529D02*
G01X0067773Y0005482D01*
G01X0067586Y0005375D02*
G01X0067540Y0005328D01*
G01X0067540Y0005328D02*
G01X0067540Y0005235D01*
G01X0067680Y0005235D02*
G01X0067680Y0005281D01*
G01X0068040Y0005235D02*
G01X0068180Y0005375D01*
G01X0068180Y0005375D02*
G01X0068180Y0005188D01*
G01X0068320Y0005235D02*
G01X0068040Y0005235D01*
G01X0068086Y0005482D02*
G01X0068040Y0005529D01*
G01X0068040Y0005529D02*
G01X0068040Y0005669D01*
G01X0068040Y0005669D02*
G01X0068320Y0005669D01*
G01X0068320Y0005669D02*
G01X0068320Y0005529D01*
G01X0068320Y0005529D02*
G01X0068273Y0005482D01*
G01X0068273Y0005482D02*
G01X0068086Y0005482D01*
G01X0068540Y0005529D02*
G01X0068540Y0005669D01*
G01X0068540Y0005669D02*
G01X0068820Y0005669D01*
G01X0068820Y0005669D02*
G01X0068820Y0005529D01*
G01X0068820Y0005529D02*
G01X0068773Y0005482D01*
G01X0068773Y0005482D02*
G01X0068586Y0005482D01*
G01X0068586Y0005482D02*
G01X0068540Y0005529D01*
G01X0068540Y0005375D02*
G01X0068680Y0005375D01*
G01X0068680Y0005375D02*
G01X0068633Y0005281D01*
G01X0068633Y0005281D02*
G01X0068633Y0005235D01*
G01X0068633Y0005235D02*
G01X0068680Y0005188D01*
G01X0068680Y0005188D02*
G01X0068773Y0005188D01*
G01X0068773Y0005188D02*
G01X0068820Y0005235D01*
G01X0068820Y0005235D02*
G01X0068820Y0005328D01*
G01X0068820Y0005328D02*
G01X0068773Y0005375D01*
G01X0068540Y0005375D02*
G01X0068540Y0005188D01*
G01X0069040Y0005188D02*
G01X0069086Y0005281D01*
G01X0069086Y0005281D02*
G01X0069180Y0005375D01*
G01X0069180Y0005375D02*
G01X0069180Y0005235D01*
G01X0069180Y0005235D02*
G01X0069227Y0005188D01*
G01X0069227Y0005188D02*
G01X0069273Y0005188D01*
G01X0069273Y0005188D02*
G01X0069320Y0005235D01*
G01X0069320Y0005235D02*
G01X0069320Y0005328D01*
G01X0069320Y0005328D02*
G01X0069273Y0005375D01*
G01X0069273Y0005375D02*
G01X0069180Y0005375D01*
G01X0069273Y0005482D02*
G01X0069086Y0005482D01*
G01X0069086Y0005482D02*
G01X0069040Y0005529D01*
G01X0069040Y0005529D02*
G01X0069040Y0005669D01*
G01X0069040Y0005669D02*
G01X0069320Y0005669D01*
G01X0069320Y0005669D02*
G01X0069320Y0005529D01*
G01X0069320Y0005529D02*
G01X0069273Y0005482D01*
G01X0069540Y0005529D02*
G01X0069540Y0005669D01*
G01X0069540Y0005669D02*
G01X0069820Y0005669D01*
G01X0069820Y0005669D02*
G01X0069820Y0005529D01*
G01X0069820Y0005529D02*
G01X0069773Y0005482D01*
G01X0069773Y0005482D02*
G01X0069586Y0005482D01*
G01X0069586Y0005482D02*
G01X0069540Y0005529D01*
G01X0069540Y0005375D02*
G01X0069540Y0005188D01*
G01X0069540Y0005188D02*
G01X0069586Y0005188D01*
G01X0069586Y0005188D02*
G01X0069773Y0005375D01*
G01X0069773Y0005375D02*
G01X0069820Y0005375D01*
G01X0070040Y0005375D02*
G01X0070040Y0005188D01*
G01X0070040Y0005281D02*
G01X0070320Y0005281D01*
G01X0070320Y0005482D02*
G01X0070040Y0005482D01*
G01X0070040Y0005669D02*
G01X0070320Y0005482D01*
G01X0070320Y0005669D02*
G01X0070040Y0005669D01*
G01X0070040Y0005772D02*
G01X0070040Y0005866D01*
G01X0070040Y0005819D02*
G01X0070320Y0005819D01*
G01X0070320Y0005866D02*
G01X0070320Y0005772D01*
G01X0070540Y0005824D02*
G01X0070586Y0005777D01*
G01X0070586Y0005777D02*
G01X0070680Y0005777D01*
G01X0070680Y0005777D02*
G01X0070727Y0005824D01*
G01X0070727Y0005824D02*
G01X0070727Y0005964D01*
G01X0070820Y0005964D02*
G01X0070540Y0005964D01*
G01X0070540Y0005964D02*
G01X0070540Y0005824D01*
G01X0070586Y0005669D02*
G01X0070540Y0005623D01*
G01X0070540Y0005623D02*
G01X0070540Y0005529D01*
G01X0070540Y0005529D02*
G01X0070586Y0005482D01*
G01X0070586Y0005482D02*
G01X0070773Y0005482D01*
G01X0070773Y0005482D02*
G01X0070820Y0005529D01*
G01X0070820Y0005529D02*
G01X0070820Y0005623D01*
G01X0070820Y0005623D02*
G01X0070773Y0005669D01*
G01X0070773Y0005669D02*
G01X0070586Y0005669D01*
G01X0070727Y0005576D02*
G01X0070820Y0005482D01*
G01X0070820Y0005375D02*
G01X0070540Y0005188D01*
G01X0070460Y0005100D02*
G01X0070460Y0006180D01*
G01X0070540Y0006160D02*
G01X0070540Y0006067D01*
G01X0070540Y0006114D02*
G01X0070820Y0006114D01*
G01X0070820Y0006160D02*
G01X0070820Y0006067D01*
G01X0070960Y0006180D02*
G01X0070960Y0005100D01*
G01X0071086Y0005188D02*
G01X0071273Y0005375D01*
G01X0071273Y0005375D02*
G01X0071320Y0005328D01*
G01X0071320Y0005328D02*
G01X0071320Y0005235D01*
G01X0071320Y0005235D02*
G01X0071273Y0005188D01*
G01X0071273Y0005188D02*
G01X0071086Y0005188D01*
G01X0071086Y0005188D02*
G01X0071040Y0005235D01*
G01X0071040Y0005235D02*
G01X0071040Y0005328D01*
G01X0071040Y0005328D02*
G01X0071086Y0005375D01*
G01X0071086Y0005375D02*
G01X0071273Y0005375D01*
G01X0071273Y0005482D02*
G01X0071320Y0005529D01*
G01X0071320Y0005529D02*
G01X0071320Y0005623D01*
G01X0071320Y0005623D02*
G01X0071273Y0005669D01*
G01X0071273Y0005669D02*
G01X0071086Y0005669D01*
G01X0071086Y0005669D02*
G01X0071040Y0005623D01*
G01X0071040Y0005623D02*
G01X0071040Y0005529D01*
G01X0071040Y0005529D02*
G01X0071086Y0005482D01*
G01X0071086Y0005482D02*
G01X0071273Y0005482D01*
G01X0071320Y0005482D02*
G01X0071227Y0005576D01*
G01X0071180Y0005777D02*
G01X0071227Y0005824D01*
G01X0071227Y0005824D02*
G01X0071227Y0005964D01*
G01X0071320Y0005964D02*
G01X0071040Y0005964D01*
G01X0071040Y0005964D02*
G01X0071040Y0005824D01*
G01X0071040Y0005824D02*
G01X0071086Y0005777D01*
G01X0071086Y0005777D02*
G01X0071180Y0005777D01*
G01X0071227Y0005871D02*
G01X0071320Y0005777D01*
G01X0071540Y0005824D02*
G01X0071586Y0005777D01*
G01X0071586Y0005777D02*
G01X0071680Y0005777D01*
G01X0071680Y0005777D02*
G01X0071727Y0005824D01*
G01X0071727Y0005824D02*
G01X0071727Y0005964D01*
G01X0071820Y0005964D02*
G01X0071540Y0005964D01*
G01X0071540Y0005964D02*
G01X0071540Y0005824D01*
G01X0071586Y0005669D02*
G01X0071540Y0005623D01*
G01X0071540Y0005623D02*
G01X0071540Y0005529D01*
G01X0071540Y0005529D02*
G01X0071586Y0005482D01*
G01X0071586Y0005482D02*
G01X0071773Y0005482D01*
G01X0071773Y0005482D02*
G01X0071820Y0005529D01*
G01X0071820Y0005529D02*
G01X0071820Y0005623D01*
G01X0071820Y0005623D02*
G01X0071773Y0005669D01*
G01X0071773Y0005669D02*
G01X0071586Y0005669D01*
G01X0071727Y0005576D02*
G01X0071820Y0005482D01*
G01X0071820Y0005375D02*
G01X0071820Y0005188D01*
G01X0071820Y0005281D02*
G01X0071540Y0005281D01*
G01X0071540Y0005281D02*
G01X0071633Y0005375D01*
G01X0071460Y0005100D02*
G01X0071460Y0006180D01*
G01X0071540Y0006160D02*
G01X0071540Y0006067D01*
G01X0071540Y0006114D02*
G01X0071820Y0006114D01*
G01X0071820Y0006160D02*
G01X0071820Y0006067D01*
G01X0071960Y0006180D02*
G01X0071960Y0005100D01*
G01X0072086Y0005188D02*
G01X0072040Y0005235D01*
G01X0072040Y0005235D02*
G01X0072040Y0005328D01*
G01X0072040Y0005328D02*
G01X0072086Y0005375D01*
G01X0072086Y0005482D02*
G01X0072273Y0005482D01*
G01X0072273Y0005482D02*
G01X0072320Y0005529D01*
G01X0072320Y0005529D02*
G01X0072320Y0005623D01*
G01X0072320Y0005623D02*
G01X0072273Y0005669D01*
G01X0072273Y0005669D02*
G01X0072086Y0005669D01*
G01X0072086Y0005669D02*
G01X0072040Y0005623D01*
G01X0072040Y0005623D02*
G01X0072040Y0005529D01*
G01X0072040Y0005529D02*
G01X0072086Y0005482D01*
G01X0072227Y0005576D02*
G01X0072320Y0005482D01*
G01X0072320Y0005375D02*
G01X0072133Y0005188D01*
G01X0072133Y0005188D02*
G01X0072086Y0005188D01*
G01X0072320Y0005188D02*
G01X0072320Y0005375D01*
G01X0072540Y0005328D02*
G01X0072540Y0005235D01*
G01X0072540Y0005235D02*
G01X0072586Y0005188D01*
G01X0072586Y0005188D02*
G01X0072633Y0005188D01*
G01X0072633Y0005188D02*
G01X0072680Y0005235D01*
G01X0072680Y0005235D02*
G01X0072727Y0005188D01*
G01X0072727Y0005188D02*
G01X0072773Y0005188D01*
G01X0072773Y0005188D02*
G01X0072820Y0005235D01*
G01X0072820Y0005235D02*
G01X0072820Y0005328D01*
G01X0072820Y0005328D02*
G01X0072773Y0005375D01*
G01X0072773Y0005482D02*
G01X0072820Y0005529D01*
G01X0072820Y0005529D02*
G01X0072820Y0005623D01*
G01X0072820Y0005623D02*
G01X0072773Y0005669D01*
G01X0072773Y0005669D02*
G01X0072586Y0005669D01*
G01X0072586Y0005669D02*
G01X0072540Y0005623D01*
G01X0072540Y0005623D02*
G01X0072540Y0005529D01*
G01X0072540Y0005529D02*
G01X0072586Y0005482D01*
G01X0072586Y0005482D02*
G01X0072773Y0005482D01*
G01X0072820Y0005482D02*
G01X0072727Y0005576D01*
G01X0072680Y0005777D02*
G01X0072727Y0005824D01*
G01X0072727Y0005824D02*
G01X0072727Y0005964D01*
G01X0072820Y0005964D02*
G01X0072540Y0005964D01*
G01X0072540Y0005964D02*
G01X0072540Y0005824D01*
G01X0072540Y0005824D02*
G01X0072586Y0005777D01*
G01X0072586Y0005777D02*
G01X0072680Y0005777D01*
G01X0072727Y0005871D02*
G01X0072820Y0005777D01*
G01X0073040Y0005824D02*
G01X0073086Y0005777D01*
G01X0073086Y0005777D02*
G01X0073180Y0005777D01*
G01X0073180Y0005777D02*
G01X0073227Y0005824D01*
G01X0073227Y0005824D02*
G01X0073227Y0005964D01*
G01X0073320Y0005964D02*
G01X0073040Y0005964D01*
G01X0073040Y0005964D02*
G01X0073040Y0005824D01*
G01X0073086Y0005669D02*
G01X0073040Y0005623D01*
G01X0073040Y0005623D02*
G01X0073040Y0005529D01*
G01X0073040Y0005529D02*
G01X0073086Y0005482D01*
G01X0073086Y0005482D02*
G01X0073273Y0005482D01*
G01X0073273Y0005482D02*
G01X0073320Y0005529D01*
G01X0073320Y0005529D02*
G01X0073320Y0005623D01*
G01X0073320Y0005623D02*
G01X0073273Y0005669D01*
G01X0073273Y0005669D02*
G01X0073086Y0005669D01*
G01X0073227Y0005576D02*
G01X0073320Y0005482D01*
G01X0073180Y0005375D02*
G01X0073180Y0005188D01*
G01X0073320Y0005235D02*
G01X0073040Y0005235D01*
G01X0073040Y0005235D02*
G01X0073180Y0005375D01*
G01X0072960Y0005100D02*
G01X0072960Y0006180D01*
G01X0073040Y0006160D02*
G01X0073040Y0006067D01*
G01X0073040Y0006114D02*
G01X0073320Y0006114D01*
G01X0073320Y0006160D02*
G01X0073320Y0006067D01*
G01X0073460Y0006180D02*
G01X0073460Y0005100D01*
G01X0073540Y0005188D02*
G01X0073540Y0005375D01*
G01X0073540Y0005375D02*
G01X0073680Y0005375D01*
G01X0073680Y0005375D02*
G01X0073633Y0005281D01*
G01X0073633Y0005281D02*
G01X0073633Y0005235D01*
G01X0073633Y0005235D02*
G01X0073680Y0005188D01*
G01X0073680Y0005188D02*
G01X0073773Y0005188D01*
G01X0073773Y0005188D02*
G01X0073820Y0005235D01*
G01X0073820Y0005235D02*
G01X0073820Y0005328D01*
G01X0073820Y0005328D02*
G01X0073773Y0005375D01*
G01X0073773Y0005482D02*
G01X0073820Y0005529D01*
G01X0073820Y0005529D02*
G01X0073820Y0005623D01*
G01X0073820Y0005623D02*
G01X0073773Y0005669D01*
G01X0073773Y0005669D02*
G01X0073586Y0005669D01*
G01X0073586Y0005669D02*
G01X0073540Y0005623D01*
G01X0073540Y0005623D02*
G01X0073540Y0005529D01*
G01X0073540Y0005529D02*
G01X0073586Y0005482D01*
G01X0073586Y0005482D02*
G01X0073773Y0005482D01*
G01X0073820Y0005482D02*
G01X0073727Y0005576D01*
G01X0073680Y0005777D02*
G01X0073727Y0005824D01*
G01X0073727Y0005824D02*
G01X0073727Y0005964D01*
G01X0073820Y0005964D02*
G01X0073540Y0005964D01*
G01X0073540Y0005964D02*
G01X0073540Y0005824D01*
G01X0073540Y0005824D02*
G01X0073586Y0005777D01*
G01X0073586Y0005777D02*
G01X0073680Y0005777D01*
G01X0073727Y0005871D02*
G01X0073820Y0005777D01*
G01X0074040Y0005824D02*
G01X0074086Y0005777D01*
G01X0074086Y0005777D02*
G01X0074180Y0005777D01*
G01X0074180Y0005777D02*
G01X0074227Y0005824D01*
G01X0074227Y0005824D02*
G01X0074227Y0005964D01*
G01X0074320Y0005964D02*
G01X0074040Y0005964D01*
G01X0074040Y0005964D02*
G01X0074040Y0005824D01*
G01X0074086Y0005669D02*
G01X0074040Y0005623D01*
G01X0074040Y0005623D02*
G01X0074040Y0005529D01*
G01X0074040Y0005529D02*
G01X0074086Y0005482D01*
G01X0074086Y0005482D02*
G01X0074273Y0005482D01*
G01X0074273Y0005482D02*
G01X0074320Y0005529D01*
G01X0074320Y0005529D02*
G01X0074320Y0005623D01*
G01X0074320Y0005623D02*
G01X0074273Y0005669D01*
G01X0074273Y0005669D02*
G01X0074086Y0005669D01*
G01X0074227Y0005576D02*
G01X0074320Y0005482D01*
G01X0074273Y0005375D02*
G01X0074320Y0005328D01*
G01X0074320Y0005328D02*
G01X0074320Y0005235D01*
G01X0074320Y0005235D02*
G01X0074273Y0005188D01*
G01X0074273Y0005188D02*
G01X0074227Y0005188D01*
G01X0074227Y0005188D02*
G01X0074180Y0005235D01*
G01X0074180Y0005235D02*
G01X0074180Y0005375D01*
G01X0074180Y0005375D02*
G01X0074273Y0005375D01*
G01X0074180Y0005375D02*
G01X0074086Y0005281D01*
G01X0074086Y0005281D02*
G01X0074040Y0005188D01*
G01X0073960Y0005100D02*
G01X0073960Y0006180D01*
G01X0074040Y0006160D02*
G01X0074040Y0006067D01*
G01X0074040Y0006114D02*
G01X0074320Y0006114D01*
G01X0074320Y0006160D02*
G01X0074320Y0006067D01*
G01X0074460Y0006180D02*
G01X0074460Y0005100D01*
G01X0074540Y0005188D02*
G01X0074586Y0005188D01*
G01X0074586Y0005188D02*
G01X0074773Y0005375D01*
G01X0074773Y0005375D02*
G01X0074820Y0005375D01*
G01X0074820Y0005482D02*
G01X0074727Y0005576D01*
G01X0074773Y0005669D02*
G01X0074820Y0005623D01*
G01X0074820Y0005623D02*
G01X0074820Y0005529D01*
G01X0074820Y0005529D02*
G01X0074773Y0005482D01*
G01X0074773Y0005482D02*
G01X0074586Y0005482D01*
G01X0074586Y0005482D02*
G01X0074540Y0005529D01*
G01X0074540Y0005529D02*
G01X0074540Y0005623D01*
G01X0074540Y0005623D02*
G01X0074586Y0005669D01*
G01X0074586Y0005669D02*
G01X0074773Y0005669D01*
G01X0074820Y0005777D02*
G01X0074727Y0005871D01*
G01X0074727Y0005824D02*
G01X0074727Y0005964D01*
G01X0074820Y0005964D02*
G01X0074540Y0005964D01*
G01X0074540Y0005964D02*
G01X0074540Y0005824D01*
G01X0074540Y0005824D02*
G01X0074586Y0005777D01*
G01X0074586Y0005777D02*
G01X0074680Y0005777D01*
G01X0074680Y0005777D02*
G01X0074727Y0005824D01*
G01X0074960Y0005886D02*
G01X0074960Y0005100D01*
G01X0075040Y0005183D02*
G01X0075040Y0005276D01*
G01X0075040Y0005230D02*
G01X0075320Y0005230D01*
G01X0075320Y0005276D02*
G01X0075320Y0005183D01*
G01X0075320Y0005384D02*
G01X0075040Y0005384D01*
G01X0075040Y0005384D02*
G01X0075133Y0005478D01*
G01X0075133Y0005478D02*
G01X0075040Y0005571D01*
G01X0075040Y0005571D02*
G01X0075320Y0005571D01*
G01X0075320Y0005679D02*
G01X0075040Y0005679D01*
G01X0075040Y0005866D02*
G01X0075320Y0005679D01*
G01X0075320Y0005866D02*
G01X0075040Y0005866D01*
G01X0074820Y0006067D02*
G01X0074820Y0006160D01*
G01X0074820Y0006114D02*
G01X0074540Y0006114D01*
G01X0074540Y0006160D02*
G01X0074540Y0006067D01*
G01X0074320Y0005777D02*
G01X0074227Y0005871D01*
G01X0073820Y0006067D02*
G01X0073820Y0006160D01*
G01X0073820Y0006114D02*
G01X0073540Y0006114D01*
G01X0073540Y0006160D02*
G01X0073540Y0006067D01*
G01X0073320Y0005777D02*
G01X0073227Y0005871D01*
G01X0072820Y0006067D02*
G01X0072820Y0006160D01*
G01X0072820Y0006114D02*
G01X0072540Y0006114D01*
G01X0072540Y0006160D02*
G01X0072540Y0006067D01*
G01X0072460Y0006180D02*
G01X0072460Y0005100D01*
G01X0072540Y0005328D02*
G01X0072586Y0005375D01*
G01X0072680Y0005281D02*
G01X0072680Y0005235D01*
G01X0072320Y0005777D02*
G01X0072227Y0005871D01*
G01X0072227Y0005824D02*
G01X0072227Y0005964D01*
G01X0072320Y0005964D02*
G01X0072040Y0005964D01*
G01X0072040Y0005964D02*
G01X0072040Y0005824D01*
G01X0072040Y0005824D02*
G01X0072086Y0005777D01*
G01X0072086Y0005777D02*
G01X0072180Y0005777D01*
G01X0072180Y0005777D02*
G01X0072227Y0005824D01*
G01X0072320Y0006067D02*
G01X0072320Y0006160D01*
G01X0072320Y0006114D02*
G01X0072040Y0006114D01*
G01X0072040Y0006160D02*
G01X0072040Y0006067D01*
G01X0071820Y0005777D02*
G01X0071727Y0005871D01*
G01X0071320Y0006067D02*
G01X0071320Y0006160D01*
G01X0071320Y0006114D02*
G01X0071040Y0006114D01*
G01X0071040Y0006160D02*
G01X0071040Y0006067D01*
G01X0070820Y0005777D02*
G01X0070727Y0005871D01*
G01X0070540Y0005375D02*
G01X0070820Y0005188D01*
G01X0069960Y0005100D02*
G01X0069960Y0005886D01*
G01X0067320Y0005669D02*
G01X0067320Y0005529D01*
G01X0067320Y0005529D02*
G01X0067273Y0005482D01*
G01X0067273Y0005482D02*
G01X0067086Y0005482D01*
G01X0067086Y0005482D02*
G01X0067040Y0005529D01*
G01X0067040Y0005529D02*
G01X0067040Y0005669D01*
G01X0067040Y0005669D02*
G01X0067320Y0005669D01*
G01X0067086Y0005375D02*
G01X0067040Y0005328D01*
G01X0067040Y0005328D02*
G01X0067040Y0005235D01*
G01X0065820Y0005235D02*
G01X0065773Y0005188D01*
G01X0065773Y0005188D02*
G01X0065586Y0005188D01*
G01X0065586Y0005188D02*
G01X0065540Y0005235D01*
G01X0065540Y0005235D02*
G01X0065540Y0005328D01*
G01X0065540Y0005328D02*
G01X0065586Y0005375D01*
G01X0065586Y0005375D02*
G01X0065633Y0005375D01*
G01X0065633Y0005375D02*
G01X0065680Y0005328D01*
G01X0065680Y0005328D02*
G01X0065680Y0005188D01*
G01X0065820Y0005235D02*
G01X0065820Y0005328D01*
G01X0065820Y0005328D02*
G01X0065773Y0005375D01*
G01X0065320Y0005328D02*
G01X0065273Y0005375D01*
G01X0065273Y0005375D02*
G01X0065227Y0005375D01*
G01X0065227Y0005375D02*
G01X0065180Y0005328D01*
G01X0065180Y0005328D02*
G01X0065180Y0005235D01*
G01X0065180Y0005235D02*
G01X0065227Y0005188D01*
G01X0065227Y0005188D02*
G01X0065273Y0005188D01*
G01X0065273Y0005188D02*
G01X0065320Y0005235D01*
G01X0065320Y0005235D02*
G01X0065320Y0005328D01*
G01X0065180Y0005328D02*
G01X0065133Y0005375D01*
G01X0065133Y0005375D02*
G01X0065086Y0005375D01*
G01X0065086Y0005375D02*
G01X0065040Y0005328D01*
G01X0065040Y0005328D02*
G01X0065040Y0005235D01*
G01X0065040Y0005235D02*
G01X0065086Y0005188D01*
G01X0065086Y0005188D02*
G01X0065133Y0005188D01*
G01X0065133Y0005188D02*
G01X0065180Y0005235D01*
G01X0064820Y0005375D02*
G01X0064773Y0005375D01*
G01X0064773Y0005375D02*
G01X0064586Y0005188D01*
G01X0064586Y0005188D02*
G01X0064540Y0005188D01*
G01X0064540Y0005188D02*
G01X0064540Y0005375D01*
G01X0064320Y0005328D02*
G01X0064320Y0005235D01*
G01X0064320Y0005235D02*
G01X0064273Y0005188D01*
G01X0064273Y0005188D02*
G01X0064227Y0005188D01*
G01X0064227Y0005188D02*
G01X0064180Y0005235D01*
G01X0064180Y0005235D02*
G01X0064180Y0005375D01*
G01X0064180Y0005375D02*
G01X0064273Y0005375D01*
G01X0064273Y0005375D02*
G01X0064320Y0005328D01*
G01X0064180Y0005375D02*
G01X0064086Y0005281D01*
G01X0064086Y0005281D02*
G01X0064040Y0005188D01*
G01X0063820Y0005235D02*
G01X0063773Y0005188D01*
G01X0063773Y0005188D02*
G01X0063680Y0005188D01*
G01X0063680Y0005188D02*
G01X0063633Y0005235D01*
G01X0063633Y0005235D02*
G01X0063633Y0005281D01*
G01X0063633Y0005281D02*
G01X0063680Y0005375D01*
G01X0063680Y0005375D02*
G01X0063540Y0005375D01*
G01X0063540Y0005375D02*
G01X0063540Y0005188D01*
G01X0063320Y0005235D02*
G01X0063040Y0005235D01*
G01X0063040Y0005235D02*
G01X0063180Y0005375D01*
G01X0063180Y0005375D02*
G01X0063180Y0005188D01*
G01X0062820Y0005235D02*
G01X0062773Y0005188D01*
G01X0062773Y0005188D02*
G01X0062727Y0005188D01*
G01X0062727Y0005188D02*
G01X0062680Y0005235D01*
G01X0062680Y0005235D02*
G01X0062680Y0005281D01*
G01X0062680Y0005235D02*
G01X0062633Y0005188D01*
G01X0062633Y0005188D02*
G01X0062586Y0005188D01*
G01X0062586Y0005188D02*
G01X0062540Y0005235D01*
G01X0062540Y0005235D02*
G01X0062540Y0005328D01*
G01X0062540Y0005328D02*
G01X0062586Y0005375D01*
G01X0062773Y0005375D02*
G01X0062820Y0005328D01*
G01X0062820Y0005328D02*
G01X0062820Y0005235D01*
G01X0062320Y0005188D02*
G01X0062320Y0005375D01*
G01X0062320Y0005375D02*
G01X0062133Y0005188D01*
G01X0062133Y0005188D02*
G01X0062086Y0005188D01*
G01X0062086Y0005188D02*
G01X0062040Y0005235D01*
G01X0062040Y0005235D02*
G01X0062040Y0005328D01*
G01X0062040Y0005328D02*
G01X0062086Y0005375D01*
G01X0061820Y0005375D02*
G01X0061820Y0005188D01*
G01X0061820Y0005281D02*
G01X0061540Y0005281D01*
G01X0061540Y0005281D02*
G01X0061633Y0005375D01*
G01X0063773Y0005375D02*
G01X0063820Y0005328D01*
G01X0063820Y0005328D02*
G01X0063820Y0005235D01*
G01X0054773Y0006553D02*
G01X0054540Y0006553D01*
G01X0054540Y0006848D02*
G01X0054820Y0006848D01*
G01X0074540Y0005375D02*
G01X0074540Y0005188D01*
G01X0075586Y0005188D02*
G01X0075540Y0005235D01*
G01X0075540Y0005235D02*
G01X0075540Y0005375D01*
G01X0075540Y0005375D02*
G01X0075820Y0005375D01*
G01X0075820Y0005375D02*
G01X0075820Y0005235D01*
G01X0075820Y0005235D02*
G01X0075773Y0005188D01*
G01X0075773Y0005188D02*
G01X0075586Y0005188D01*
G01X0075540Y0005482D02*
G01X0075820Y0005482D01*
G01X0075820Y0005482D02*
G01X0075540Y0005669D01*
G01X0075540Y0005669D02*
G01X0075820Y0005669D01*
G01X0075773Y0005777D02*
G01X0075680Y0005777D01*
G01X0075680Y0005777D02*
G01X0075680Y0005871D01*
G01X0075773Y0005964D02*
G01X0075820Y0005917D01*
G01X0075820Y0005917D02*
G01X0075820Y0005824D01*
G01X0075820Y0005824D02*
G01X0075773Y0005777D01*
G01X0075586Y0005777D02*
G01X0075540Y0005824D01*
G01X0075540Y0005824D02*
G01X0075540Y0005917D01*
G01X0075540Y0005917D02*
G01X0075586Y0005964D01*
G01X0075586Y0005964D02*
G01X0075773Y0005964D01*
M02*
