G75*
G70*
%OFA0B0*%
%FSLAX24Y24*%
%IPPOS*%
%LPD*%
%AMOC8*
5,1,8,0,0,1.08239X$1,22.5*
%
%ADD10C,0.0110*%
%ADD11C,0.0080*%
%ADD12C,0.0040*%
%ADD13C,0.0050*%
D10*
X004452Y003888D02*
X004452Y004322D01*
X004235Y004105D02*
X004669Y004105D01*
X004935Y004105D02*
X004935Y004431D01*
X005369Y004431D01*
X005260Y004214D02*
X005369Y004105D01*
X005369Y003888D01*
X005260Y003780D01*
X005043Y003780D01*
X004935Y003888D01*
X004935Y004105D02*
X005152Y004214D01*
X005260Y004214D01*
X005635Y004431D02*
X005635Y003997D01*
X005851Y003780D01*
X006068Y003997D01*
X006068Y004431D01*
X007034Y004431D02*
X007359Y004431D01*
X007468Y004322D01*
X007468Y004105D01*
X007359Y003997D01*
X007034Y003997D01*
X007034Y003780D02*
X007034Y004431D01*
X007734Y004431D02*
X007734Y003780D01*
X008168Y003780D01*
X008434Y003780D02*
X008434Y004214D01*
X008651Y004431D01*
X008867Y004214D01*
X008867Y003780D01*
X009134Y003780D02*
X009134Y004431D01*
X009567Y003780D01*
X009567Y004431D01*
X009833Y004431D02*
X009833Y003780D01*
X010267Y003780D01*
X010050Y004105D02*
X009833Y004105D01*
X009833Y004431D02*
X010267Y004431D01*
X008867Y004105D02*
X008434Y004105D01*
X014235Y004105D02*
X014669Y004105D01*
X014935Y004105D02*
X015152Y004214D01*
X015260Y004214D01*
X015369Y004105D01*
X015369Y003888D01*
X015260Y003780D01*
X015043Y003780D01*
X014935Y003888D01*
X014935Y004105D02*
X014935Y004431D01*
X015369Y004431D01*
X015635Y004431D02*
X015635Y003997D01*
X015851Y003780D01*
X016068Y003997D01*
X016068Y004431D01*
X017034Y004431D02*
X017034Y003780D01*
X017034Y003997D02*
X017359Y003997D01*
X017468Y004105D01*
X017468Y004322D01*
X017359Y004431D01*
X017034Y004431D01*
X017734Y004431D02*
X017734Y003780D01*
X018168Y003780D01*
X018434Y003780D02*
X018434Y004214D01*
X018651Y004431D01*
X018867Y004214D01*
X018867Y003780D01*
X019134Y003780D02*
X019134Y004431D01*
X019567Y003780D01*
X019567Y004431D01*
X019833Y004431D02*
X019833Y003780D01*
X020267Y003780D01*
X020050Y004105D02*
X019833Y004105D01*
X019833Y004431D02*
X020267Y004431D01*
X018867Y004105D02*
X018434Y004105D01*
X014452Y004322D02*
X014452Y003888D01*
X024235Y004105D02*
X024669Y004105D01*
X024935Y004105D02*
X024935Y004431D01*
X025369Y004431D01*
X025260Y004214D02*
X025369Y004105D01*
X025369Y003888D01*
X025260Y003780D01*
X025043Y003780D01*
X024935Y003888D01*
X024935Y004105D02*
X025152Y004214D01*
X025260Y004214D01*
X025635Y004431D02*
X025635Y003997D01*
X025851Y003780D01*
X026068Y003997D01*
X026068Y004431D01*
X027034Y004431D02*
X027359Y004431D01*
X027468Y004322D01*
X027468Y004105D01*
X027359Y003997D01*
X027034Y003997D01*
X027034Y003780D02*
X027034Y004431D01*
X027734Y004431D02*
X027734Y003780D01*
X028168Y003780D01*
X028434Y003780D02*
X028434Y004214D01*
X028651Y004431D01*
X028867Y004214D01*
X028867Y003780D01*
X029134Y003780D02*
X029134Y004431D01*
X029567Y003780D01*
X029567Y004431D01*
X029833Y004431D02*
X029833Y003780D01*
X030267Y003780D01*
X030050Y004105D02*
X029833Y004105D01*
X029833Y004431D02*
X030267Y004431D01*
X028867Y004105D02*
X028434Y004105D01*
X024452Y004322D02*
X024452Y003888D01*
X034235Y004105D02*
X034669Y004105D01*
X034935Y004105D02*
X035152Y004214D01*
X035260Y004214D01*
X035369Y004105D01*
X035369Y003888D01*
X035260Y003780D01*
X035043Y003780D01*
X034935Y003888D01*
X034935Y004105D02*
X034935Y004431D01*
X035369Y004431D01*
X035635Y004431D02*
X035635Y003997D01*
X035851Y003780D01*
X036068Y003997D01*
X036068Y004431D01*
X037034Y004431D02*
X037034Y003780D01*
X037034Y003997D02*
X037359Y003997D01*
X037468Y004105D01*
X037468Y004322D01*
X037359Y004431D01*
X037034Y004431D01*
X037734Y004431D02*
X037734Y003780D01*
X038168Y003780D01*
X038434Y003780D02*
X038434Y004214D01*
X038651Y004431D01*
X038867Y004214D01*
X038867Y003780D01*
X039134Y003780D02*
X039134Y004431D01*
X039567Y003780D01*
X039567Y004431D01*
X039833Y004431D02*
X039833Y003780D01*
X040267Y003780D01*
X040050Y004105D02*
X039833Y004105D01*
X039833Y004431D02*
X040267Y004431D01*
X038867Y004105D02*
X038434Y004105D01*
X034452Y004322D02*
X034452Y003888D01*
D11*
X017482Y041265D02*
X017482Y041335D01*
X017763Y041615D01*
X017763Y041685D01*
X017482Y041685D01*
X017162Y041685D02*
X017162Y041265D01*
X017022Y041265D02*
X017302Y041265D01*
X017022Y041545D02*
X017162Y041685D01*
X016842Y041615D02*
X016842Y041545D01*
X016772Y041475D01*
X016632Y041475D01*
X016562Y041545D01*
X016562Y041615D01*
X016632Y041685D01*
X016772Y041685D01*
X016842Y041615D01*
X016772Y041475D02*
X016842Y041405D01*
X016842Y041335D01*
X016772Y041265D01*
X016632Y041265D01*
X016562Y041335D01*
X016562Y041405D01*
X016632Y041475D01*
X016381Y041265D02*
X016101Y041265D01*
X016241Y041265D02*
X016241Y041685D01*
X016101Y041545D01*
X015461Y041265D02*
X015180Y041265D01*
X015321Y041265D02*
X015321Y041685D01*
X015180Y041545D01*
X015000Y041405D02*
X015000Y041685D01*
X015000Y041405D02*
X014860Y041265D01*
X014720Y041405D01*
X014720Y041685D01*
X014970Y042015D02*
X015250Y042435D01*
X015430Y042435D02*
X015571Y042295D01*
X015711Y042435D01*
X015711Y042015D01*
X015891Y042015D02*
X016031Y042015D01*
X015961Y042015D02*
X015961Y042435D01*
X015891Y042435D02*
X016031Y042435D01*
X016198Y042365D02*
X016198Y042085D01*
X016268Y042015D01*
X016408Y042015D01*
X016478Y042085D01*
X016658Y042015D02*
X016658Y042435D01*
X016868Y042435D01*
X016938Y042365D01*
X016938Y042225D01*
X016868Y042155D01*
X016658Y042155D01*
X016798Y042155D02*
X016938Y042015D01*
X017118Y042085D02*
X017189Y042015D01*
X017329Y042015D01*
X017399Y042085D01*
X017399Y042365D01*
X017329Y042435D01*
X017189Y042435D01*
X017118Y042365D01*
X017118Y042085D01*
X017579Y042225D02*
X017859Y042225D01*
X018039Y042155D02*
X018249Y042155D01*
X018320Y042225D01*
X018320Y042365D01*
X018249Y042435D01*
X018039Y042435D01*
X018039Y042015D01*
X018500Y042015D02*
X018500Y042435D01*
X018710Y042435D01*
X018780Y042365D01*
X018780Y042225D01*
X018710Y042155D01*
X018500Y042155D01*
X018640Y042155D02*
X018780Y042015D01*
X018960Y042085D02*
X019030Y042015D01*
X019170Y042015D01*
X019240Y042085D01*
X019240Y042365D01*
X019170Y042435D01*
X019030Y042435D01*
X018960Y042365D01*
X018960Y042085D01*
X019420Y042435D02*
X019701Y042435D01*
X019561Y042435D02*
X019561Y042015D01*
X019881Y042085D02*
X019951Y042015D01*
X020091Y042015D01*
X020161Y042085D01*
X020161Y042365D01*
X020091Y042435D01*
X019951Y042435D01*
X019881Y042365D01*
X019881Y042085D01*
X016478Y042365D02*
X016408Y042435D01*
X016268Y042435D01*
X016198Y042365D01*
X015430Y042435D02*
X015430Y042015D01*
X015250Y042015D02*
X014970Y042435D01*
D12*
X049460Y006573D02*
X049460Y005100D01*
X049540Y005120D02*
X049540Y005260D01*
X049586Y005307D01*
X049633Y005307D01*
X049680Y005260D01*
X049680Y005120D01*
X049820Y005120D02*
X049820Y005260D01*
X049773Y005307D01*
X049727Y005307D01*
X049680Y005260D01*
X049773Y005415D02*
X049820Y005461D01*
X049820Y005555D01*
X049773Y005601D01*
X049540Y005601D01*
X049586Y005709D02*
X049633Y005709D01*
X049680Y005756D01*
X049680Y005849D01*
X049727Y005896D01*
X049773Y005896D01*
X049820Y005849D01*
X049820Y005756D01*
X049773Y005709D01*
X049586Y005709D02*
X049540Y005756D01*
X049540Y005849D01*
X049586Y005896D01*
X049540Y006004D02*
X049540Y006144D01*
X049586Y006191D01*
X049680Y006191D01*
X049727Y006144D01*
X049727Y006004D01*
X049820Y006004D02*
X049540Y006004D01*
X049727Y006097D02*
X049820Y006191D01*
X049773Y006299D02*
X049820Y006345D01*
X049820Y006439D01*
X049773Y006485D01*
X049586Y006485D01*
X049540Y006439D01*
X049540Y006345D01*
X049586Y006299D01*
X049773Y006299D01*
X049727Y006392D02*
X049820Y006485D01*
X049960Y005886D02*
X049960Y005100D01*
X050040Y005120D02*
X050040Y005213D01*
X050040Y005167D02*
X050320Y005167D01*
X050320Y005213D02*
X050320Y005120D01*
X050460Y005100D02*
X050460Y005984D01*
X050586Y005896D02*
X050680Y005896D01*
X050727Y005849D01*
X050727Y005709D01*
X050820Y005709D02*
X050540Y005709D01*
X050540Y005849D01*
X050586Y005896D01*
X050727Y005803D02*
X050820Y005896D01*
X051040Y005906D02*
X051320Y005906D01*
X051320Y005798D02*
X051040Y005798D01*
X051180Y005906D02*
X051180Y006093D01*
X051040Y006093D02*
X051320Y006093D01*
X051460Y005984D02*
X051460Y005100D01*
X051540Y005120D02*
X051540Y005260D01*
X051586Y005307D01*
X051680Y005307D01*
X051727Y005260D01*
X051727Y005120D01*
X051820Y005120D02*
X051540Y005120D01*
X051727Y005213D02*
X051820Y005307D01*
X051773Y005415D02*
X051820Y005461D01*
X051820Y005555D01*
X051773Y005601D01*
X051727Y005601D01*
X051680Y005555D01*
X051680Y005461D01*
X051633Y005415D01*
X051586Y005415D01*
X051540Y005461D01*
X051540Y005555D01*
X051586Y005601D01*
X051540Y005709D02*
X051540Y005896D01*
X051540Y005803D02*
X051820Y005803D01*
X052040Y005896D02*
X052227Y005709D01*
X052180Y005756D02*
X052320Y005896D01*
X052320Y005709D02*
X052040Y005709D01*
X052040Y005415D02*
X052320Y005415D01*
X052320Y005601D01*
X052540Y005709D02*
X052820Y005709D01*
X052727Y005709D02*
X052540Y005896D01*
X052633Y006004D02*
X052540Y006097D01*
X052633Y006191D01*
X052820Y006191D01*
X052773Y006299D02*
X052820Y006345D01*
X052820Y006439D01*
X052773Y006485D01*
X052540Y006485D01*
X052540Y006593D02*
X052820Y006780D01*
X052820Y006593D02*
X052540Y006780D01*
X052540Y006299D02*
X052773Y006299D01*
X052680Y006191D02*
X052680Y006004D01*
X052633Y006004D02*
X052820Y006004D01*
X052820Y005896D02*
X052680Y005756D01*
X052820Y005601D02*
X052820Y005415D01*
X052540Y005415D01*
X052586Y005307D02*
X052540Y005260D01*
X052540Y005167D01*
X052586Y005120D01*
X052773Y005120D01*
X052820Y005167D01*
X052820Y005260D01*
X052773Y005307D01*
X053040Y005307D02*
X053320Y005307D01*
X053320Y005415D02*
X053133Y005415D01*
X053040Y005508D01*
X053133Y005601D01*
X053320Y005601D01*
X053320Y005709D02*
X053320Y005896D01*
X053320Y005709D02*
X053040Y005709D01*
X053180Y005601D02*
X053180Y005415D01*
X053180Y005307D02*
X053180Y005120D01*
X053320Y005120D02*
X053040Y005120D01*
X052960Y005100D02*
X052960Y006279D01*
X053040Y006191D02*
X053040Y006004D01*
X053040Y006097D02*
X053320Y006097D01*
X053460Y006180D02*
X053460Y005100D01*
X053540Y005120D02*
X053820Y005120D01*
X053727Y005213D01*
X053820Y005307D01*
X053540Y005307D01*
X053633Y005415D02*
X053540Y005508D01*
X053633Y005601D01*
X053820Y005601D01*
X053820Y005709D02*
X053820Y005803D01*
X053820Y005756D02*
X053540Y005756D01*
X053540Y005709D02*
X053540Y005803D01*
X053540Y005906D02*
X053540Y006093D01*
X053540Y005999D02*
X053820Y005999D01*
X054040Y006051D02*
X054040Y006144D01*
X054086Y006191D01*
X054040Y006299D02*
X054320Y006299D01*
X054273Y006191D02*
X054320Y006144D01*
X054320Y006051D01*
X054273Y006004D01*
X054086Y006004D01*
X054040Y006051D01*
X054040Y005896D02*
X054040Y005709D01*
X054040Y005803D02*
X054320Y005803D01*
X054320Y005601D02*
X054320Y005415D01*
X054040Y005415D01*
X054040Y005601D01*
X054180Y005508D02*
X054180Y005415D01*
X054040Y005307D02*
X054040Y005120D01*
X054320Y005120D01*
X054180Y005120D02*
X054180Y005213D01*
X053960Y005100D02*
X053960Y006573D01*
X054040Y006485D02*
X054320Y006485D01*
X054180Y006485D02*
X054180Y006299D01*
X054540Y006345D02*
X054586Y006299D01*
X054773Y006299D01*
X054820Y006345D01*
X054820Y006439D01*
X054773Y006485D01*
X054727Y006593D02*
X054540Y006780D01*
X054460Y006868D02*
X054460Y005100D01*
X054540Y005120D02*
X054540Y005260D01*
X054586Y005307D01*
X054633Y005307D01*
X054680Y005260D01*
X054680Y005120D01*
X054820Y005120D02*
X054820Y005260D01*
X054773Y005307D01*
X054727Y005307D01*
X054680Y005260D01*
X054773Y005415D02*
X054820Y005461D01*
X054820Y005555D01*
X054773Y005601D01*
X054540Y005601D01*
X054586Y005709D02*
X054633Y005709D01*
X054680Y005756D01*
X054680Y005849D01*
X054727Y005896D01*
X054773Y005896D01*
X054820Y005849D01*
X054820Y005756D01*
X054773Y005709D01*
X054586Y005709D02*
X054540Y005756D01*
X054540Y005849D01*
X054586Y005896D01*
X054633Y006004D02*
X054540Y006097D01*
X054633Y006191D01*
X054820Y006191D01*
X054680Y006191D02*
X054680Y006004D01*
X054633Y006004D02*
X054820Y006004D01*
X054960Y005689D02*
X054960Y005100D01*
X055040Y005120D02*
X055040Y005260D01*
X055086Y005307D01*
X055180Y005307D01*
X055227Y005260D01*
X055227Y005120D01*
X055320Y005120D02*
X055040Y005120D01*
X055227Y005213D02*
X055320Y005307D01*
X055320Y005415D02*
X055320Y005555D01*
X055273Y005601D01*
X055086Y005601D01*
X055040Y005555D01*
X055040Y005415D01*
X055320Y005415D01*
X055540Y005415D02*
X055540Y005555D01*
X055586Y005601D01*
X055680Y005601D01*
X055727Y005555D01*
X055727Y005415D01*
X055820Y005415D02*
X055540Y005415D01*
X055540Y005307D02*
X055820Y005307D01*
X055727Y005213D01*
X055820Y005120D01*
X055540Y005120D01*
X055460Y005100D02*
X055460Y005689D01*
X055727Y005508D02*
X055820Y005601D01*
X056040Y005555D02*
X056086Y005601D01*
X056273Y005415D01*
X056320Y005461D01*
X056320Y005555D01*
X056273Y005601D01*
X056086Y005601D01*
X056040Y005555D02*
X056040Y005461D01*
X056086Y005415D01*
X056273Y005415D01*
X056320Y005307D02*
X056133Y005307D01*
X056040Y005213D01*
X056133Y005120D01*
X056320Y005120D01*
X056180Y005120D02*
X056180Y005307D01*
X056540Y005213D02*
X056633Y005120D01*
X056820Y005120D01*
X056680Y005120D02*
X056680Y005307D01*
X056633Y005307D02*
X056820Y005307D01*
X056820Y005415D02*
X056820Y005601D01*
X056820Y005508D02*
X056540Y005508D01*
X056633Y005415D01*
X056633Y005307D02*
X056540Y005213D01*
X057040Y005213D02*
X057133Y005307D01*
X057320Y005307D01*
X057320Y005415D02*
X057133Y005601D01*
X057086Y005601D01*
X057040Y005555D01*
X057040Y005461D01*
X057086Y005415D01*
X057180Y005307D02*
X057180Y005120D01*
X057133Y005120D02*
X057040Y005213D01*
X057133Y005120D02*
X057320Y005120D01*
X057540Y005213D02*
X057633Y005120D01*
X057820Y005120D01*
X057680Y005120D02*
X057680Y005307D01*
X057633Y005307D02*
X057820Y005307D01*
X057773Y005415D02*
X057820Y005461D01*
X057820Y005555D01*
X057773Y005601D01*
X057727Y005601D01*
X057680Y005555D01*
X057680Y005508D01*
X057680Y005555D02*
X057633Y005601D01*
X057586Y005601D01*
X057540Y005555D01*
X057540Y005461D01*
X057586Y005415D01*
X057633Y005307D02*
X057540Y005213D01*
X057320Y005415D02*
X057320Y005601D01*
X058040Y005555D02*
X058180Y005415D01*
X058180Y005601D01*
X058320Y005555D02*
X058040Y005555D01*
X058133Y005307D02*
X058320Y005307D01*
X058180Y005307D02*
X058180Y005120D01*
X058133Y005120D02*
X058040Y005213D01*
X058133Y005307D01*
X058133Y005120D02*
X058320Y005120D01*
X058540Y005213D02*
X058633Y005120D01*
X058820Y005120D01*
X058680Y005120D02*
X058680Y005307D01*
X058633Y005307D02*
X058820Y005307D01*
X058773Y005415D02*
X058820Y005461D01*
X058820Y005555D01*
X058773Y005601D01*
X058680Y005601D01*
X058633Y005555D01*
X058633Y005508D01*
X058680Y005415D01*
X058540Y005415D01*
X058540Y005601D01*
X058633Y005307D02*
X058540Y005213D01*
X059040Y005213D02*
X059133Y005120D01*
X059320Y005120D01*
X059180Y005120D02*
X059180Y005307D01*
X059133Y005307D02*
X059320Y005307D01*
X059273Y005415D02*
X059320Y005461D01*
X059320Y005555D01*
X059273Y005601D01*
X059227Y005601D01*
X059180Y005555D01*
X059180Y005415D01*
X059273Y005415D01*
X059180Y005415D02*
X059086Y005508D01*
X059040Y005601D01*
X059133Y005307D02*
X059040Y005213D01*
X059540Y005213D02*
X059633Y005120D01*
X059820Y005120D01*
X059680Y005120D02*
X059680Y005307D01*
X059633Y005307D02*
X059820Y005307D01*
X059820Y005415D02*
X059773Y005415D01*
X059586Y005601D01*
X059540Y005601D01*
X059540Y005415D01*
X059633Y005307D02*
X059540Y005213D01*
X060040Y005213D02*
X060133Y005307D01*
X060320Y005307D01*
X060273Y005415D02*
X060227Y005415D01*
X060180Y005461D01*
X060180Y005555D01*
X060227Y005601D01*
X060273Y005601D01*
X060320Y005555D01*
X060320Y005461D01*
X060273Y005415D01*
X060180Y005461D02*
X060133Y005415D01*
X060086Y005415D01*
X060040Y005461D01*
X060040Y005555D01*
X060086Y005601D01*
X060133Y005601D01*
X060180Y005555D01*
X060180Y005307D02*
X060180Y005120D01*
X060133Y005120D02*
X060040Y005213D01*
X060133Y005120D02*
X060320Y005120D01*
X060540Y005213D02*
X060633Y005120D01*
X060820Y005120D01*
X060680Y005120D02*
X060680Y005307D01*
X060633Y005307D02*
X060820Y005307D01*
X060773Y005415D02*
X060820Y005461D01*
X060820Y005555D01*
X060773Y005601D01*
X060586Y005601D01*
X060540Y005555D01*
X060540Y005461D01*
X060586Y005415D01*
X060633Y005415D01*
X060680Y005461D01*
X060680Y005601D01*
X060633Y005307D02*
X060540Y005213D01*
X061040Y005213D02*
X061133Y005307D01*
X061320Y005307D01*
X061320Y005415D02*
X061320Y005601D01*
X061320Y005508D02*
X061040Y005508D01*
X061133Y005415D01*
X061180Y005307D02*
X061180Y005120D01*
X061133Y005120D02*
X061040Y005213D01*
X061133Y005120D02*
X061320Y005120D01*
X061540Y005213D02*
X061633Y005120D01*
X061820Y005120D01*
X061680Y005120D02*
X061680Y005307D01*
X061633Y005307D02*
X061820Y005307D01*
X061820Y005415D02*
X061820Y005601D01*
X061820Y005508D02*
X061540Y005508D01*
X061633Y005415D01*
X061633Y005307D02*
X061540Y005213D01*
X062040Y005213D02*
X062133Y005120D01*
X062320Y005120D01*
X062180Y005120D02*
X062180Y005307D01*
X062133Y005307D02*
X062320Y005307D01*
X062320Y005415D02*
X062320Y005601D01*
X062320Y005508D02*
X062040Y005508D01*
X062133Y005415D01*
X062133Y005307D02*
X062040Y005213D01*
X062086Y005709D02*
X062040Y005756D01*
X062040Y005849D01*
X062086Y005896D01*
X062133Y005896D01*
X062320Y005709D01*
X062320Y005896D01*
X062540Y005849D02*
X062586Y005896D01*
X062633Y005896D01*
X062680Y005849D01*
X062727Y005896D01*
X062773Y005896D01*
X062820Y005849D01*
X062820Y005756D01*
X062773Y005709D01*
X062820Y005601D02*
X062820Y005415D01*
X062820Y005508D02*
X062540Y005508D01*
X062633Y005415D01*
X062633Y005307D02*
X062820Y005307D01*
X062680Y005307D02*
X062680Y005120D01*
X062633Y005120D02*
X062540Y005213D01*
X062633Y005307D01*
X062633Y005120D02*
X062820Y005120D01*
X063040Y005213D02*
X063133Y005120D01*
X063320Y005120D01*
X063180Y005120D02*
X063180Y005307D01*
X063133Y005307D02*
X063320Y005307D01*
X063320Y005415D02*
X063320Y005601D01*
X063320Y005508D02*
X063040Y005508D01*
X063133Y005415D01*
X063133Y005307D02*
X063040Y005213D01*
X063540Y005213D02*
X063633Y005120D01*
X063820Y005120D01*
X063680Y005120D02*
X063680Y005307D01*
X063633Y005307D02*
X063820Y005307D01*
X063820Y005415D02*
X063820Y005601D01*
X063820Y005508D02*
X063540Y005508D01*
X063633Y005415D01*
X063633Y005307D02*
X063540Y005213D01*
X063540Y005709D02*
X063680Y005709D01*
X063633Y005803D01*
X063633Y005849D01*
X063680Y005896D01*
X063773Y005896D01*
X063820Y005849D01*
X063820Y005756D01*
X063773Y005709D01*
X063540Y005709D02*
X063540Y005896D01*
X063320Y005849D02*
X063040Y005849D01*
X063180Y005709D01*
X063180Y005896D01*
X062680Y005849D02*
X062680Y005803D01*
X062586Y005709D02*
X062540Y005756D01*
X062540Y005849D01*
X061820Y005803D02*
X061540Y005803D01*
X061633Y005709D01*
X061820Y005709D02*
X061820Y005896D01*
X061320Y005849D02*
X061320Y005756D01*
X061273Y005709D01*
X061086Y005896D01*
X061273Y005896D01*
X061320Y005849D01*
X061273Y005709D02*
X061086Y005709D01*
X061040Y005756D01*
X061040Y005849D01*
X061086Y005896D01*
X064040Y005896D02*
X064086Y005803D01*
X064180Y005709D01*
X064180Y005849D01*
X064227Y005896D01*
X064273Y005896D01*
X064320Y005849D01*
X064320Y005756D01*
X064273Y005709D01*
X064180Y005709D01*
X064320Y005601D02*
X064320Y005415D01*
X064320Y005508D02*
X064040Y005508D01*
X064133Y005415D01*
X064133Y005307D02*
X064320Y005307D01*
X064180Y005307D02*
X064180Y005120D01*
X064133Y005120D02*
X064040Y005213D01*
X064133Y005307D01*
X064133Y005120D02*
X064320Y005120D01*
X064540Y005213D02*
X064633Y005120D01*
X064820Y005120D01*
X064680Y005120D02*
X064680Y005307D01*
X064633Y005307D02*
X064820Y005307D01*
X064820Y005415D02*
X064820Y005601D01*
X064820Y005508D02*
X064540Y005508D01*
X064633Y005415D01*
X064633Y005307D02*
X064540Y005213D01*
X064540Y005709D02*
X064540Y005896D01*
X064586Y005896D01*
X064773Y005709D01*
X064820Y005709D01*
X065040Y005756D02*
X065040Y005849D01*
X065086Y005896D01*
X065133Y005896D01*
X065180Y005849D01*
X065180Y005756D01*
X065133Y005709D01*
X065086Y005709D01*
X065040Y005756D01*
X065180Y005756D02*
X065227Y005709D01*
X065273Y005709D01*
X065320Y005756D01*
X065320Y005849D01*
X065273Y005896D01*
X065227Y005896D01*
X065180Y005849D01*
X065320Y005601D02*
X065320Y005415D01*
X065320Y005508D02*
X065040Y005508D01*
X065133Y005415D01*
X065133Y005307D02*
X065320Y005307D01*
X065180Y005307D02*
X065180Y005120D01*
X065133Y005120D02*
X065040Y005213D01*
X065133Y005307D01*
X065133Y005120D02*
X065320Y005120D01*
X065540Y005213D02*
X065633Y005120D01*
X065820Y005120D01*
X065680Y005120D02*
X065680Y005307D01*
X065633Y005307D02*
X065820Y005307D01*
X065820Y005415D02*
X065820Y005601D01*
X065820Y005508D02*
X065540Y005508D01*
X065633Y005415D01*
X065633Y005307D02*
X065540Y005213D01*
X065586Y005709D02*
X065633Y005709D01*
X065680Y005756D01*
X065680Y005896D01*
X065773Y005896D02*
X065586Y005896D01*
X065540Y005849D01*
X065540Y005756D01*
X065586Y005709D01*
X065773Y005709D02*
X065820Y005756D01*
X065820Y005849D01*
X065773Y005896D01*
X066086Y005601D02*
X066273Y005415D01*
X066320Y005461D01*
X066320Y005555D01*
X066273Y005601D01*
X066086Y005601D01*
X066040Y005555D01*
X066040Y005461D01*
X066086Y005415D01*
X066273Y005415D01*
X066273Y005307D02*
X066086Y005307D01*
X066040Y005260D01*
X066040Y005120D01*
X066320Y005120D01*
X066320Y005260D01*
X066273Y005307D01*
X066540Y005260D02*
X066540Y005120D01*
X066820Y005120D01*
X066820Y005260D01*
X066773Y005307D01*
X066586Y005307D01*
X066540Y005260D01*
X066633Y005415D02*
X066540Y005508D01*
X066820Y005508D01*
X066820Y005415D02*
X066820Y005601D01*
X067040Y005555D02*
X067040Y005461D01*
X067086Y005415D01*
X067086Y005307D02*
X067040Y005260D01*
X067040Y005120D01*
X067320Y005120D01*
X067320Y005260D01*
X067273Y005307D01*
X067086Y005307D01*
X067040Y005555D02*
X067086Y005601D01*
X067133Y005601D01*
X067320Y005415D01*
X067320Y005601D01*
X067540Y005555D02*
X067586Y005601D01*
X067633Y005601D01*
X067680Y005555D01*
X067727Y005601D01*
X067773Y005601D01*
X067820Y005555D01*
X067820Y005461D01*
X067773Y005415D01*
X067773Y005307D02*
X067586Y005307D01*
X067540Y005260D01*
X067540Y005120D01*
X067820Y005120D01*
X067820Y005260D01*
X067773Y005307D01*
X067586Y005415D02*
X067540Y005461D01*
X067540Y005555D01*
X067680Y005555D02*
X067680Y005508D01*
X068040Y005555D02*
X068180Y005415D01*
X068180Y005601D01*
X068320Y005555D02*
X068040Y005555D01*
X068086Y005307D02*
X068040Y005260D01*
X068040Y005120D01*
X068320Y005120D01*
X068320Y005260D01*
X068273Y005307D01*
X068086Y005307D01*
X068540Y005260D02*
X068540Y005120D01*
X068820Y005120D01*
X068820Y005260D01*
X068773Y005307D01*
X068586Y005307D01*
X068540Y005260D01*
X068540Y005415D02*
X068680Y005415D01*
X068633Y005508D01*
X068633Y005555D01*
X068680Y005601D01*
X068773Y005601D01*
X068820Y005555D01*
X068820Y005461D01*
X068773Y005415D01*
X068540Y005415D02*
X068540Y005601D01*
X069040Y005601D02*
X069086Y005508D01*
X069180Y005415D01*
X069180Y005555D01*
X069227Y005601D01*
X069273Y005601D01*
X069320Y005555D01*
X069320Y005461D01*
X069273Y005415D01*
X069180Y005415D01*
X069273Y005307D02*
X069086Y005307D01*
X069040Y005260D01*
X069040Y005120D01*
X069320Y005120D01*
X069320Y005260D01*
X069273Y005307D01*
X069540Y005260D02*
X069540Y005120D01*
X069820Y005120D01*
X069820Y005260D01*
X069773Y005307D01*
X069586Y005307D01*
X069540Y005260D01*
X069540Y005415D02*
X069540Y005601D01*
X069586Y005601D01*
X069773Y005415D01*
X069820Y005415D01*
X070040Y005503D02*
X070320Y005503D01*
X070040Y005316D01*
X070320Y005316D01*
X070320Y005213D02*
X070320Y005120D01*
X070320Y005167D02*
X070040Y005167D01*
X070040Y005213D02*
X070040Y005120D01*
X069960Y005100D02*
X069960Y005886D01*
X070040Y005798D02*
X070040Y005611D01*
X070040Y005704D02*
X070320Y005704D01*
X070540Y005658D02*
X070540Y005751D01*
X070586Y005798D01*
X070773Y005798D01*
X070820Y005751D01*
X070820Y005658D01*
X070773Y005611D01*
X070586Y005611D01*
X070540Y005658D01*
X070586Y005503D02*
X070680Y005503D01*
X070727Y005457D01*
X070727Y005316D01*
X070820Y005316D02*
X070540Y005316D01*
X070540Y005457D01*
X070586Y005503D01*
X070727Y005410D02*
X070820Y005503D01*
X070727Y005704D02*
X070820Y005798D01*
X070820Y005906D02*
X070540Y006093D01*
X070460Y006180D02*
X070460Y005100D01*
X070540Y005120D02*
X070540Y005213D01*
X070540Y005167D02*
X070820Y005167D01*
X070820Y005213D02*
X070820Y005120D01*
X070960Y005100D02*
X070960Y006180D01*
X071086Y006093D02*
X071273Y005906D01*
X071320Y005952D01*
X071320Y006046D01*
X071273Y006093D01*
X071086Y006093D01*
X071040Y006046D01*
X071040Y005952D01*
X071086Y005906D01*
X071273Y005906D01*
X071273Y005798D02*
X071320Y005751D01*
X071320Y005658D01*
X071273Y005611D01*
X071086Y005611D01*
X071040Y005658D01*
X071040Y005751D01*
X071086Y005798D01*
X071273Y005798D01*
X071320Y005798D02*
X071227Y005704D01*
X071180Y005503D02*
X071227Y005457D01*
X071227Y005316D01*
X071320Y005316D02*
X071040Y005316D01*
X071040Y005457D01*
X071086Y005503D01*
X071180Y005503D01*
X071227Y005410D02*
X071320Y005503D01*
X071540Y005457D02*
X071586Y005503D01*
X071680Y005503D01*
X071727Y005457D01*
X071727Y005316D01*
X071820Y005316D02*
X071540Y005316D01*
X071540Y005457D01*
X071586Y005611D02*
X071540Y005658D01*
X071540Y005751D01*
X071586Y005798D01*
X071773Y005798D01*
X071820Y005751D01*
X071820Y005658D01*
X071773Y005611D01*
X071586Y005611D01*
X071727Y005704D02*
X071820Y005798D01*
X071820Y005906D02*
X071820Y006093D01*
X071820Y005999D02*
X071540Y005999D01*
X071633Y005906D01*
X071460Y006180D02*
X071460Y005100D01*
X071540Y005120D02*
X071540Y005213D01*
X071540Y005167D02*
X071820Y005167D01*
X071820Y005213D02*
X071820Y005120D01*
X071960Y005100D02*
X071960Y006180D01*
X072086Y006093D02*
X072040Y006046D01*
X072040Y005952D01*
X072086Y005906D01*
X072086Y005798D02*
X072273Y005798D01*
X072320Y005751D01*
X072320Y005658D01*
X072273Y005611D01*
X072086Y005611D01*
X072040Y005658D01*
X072040Y005751D01*
X072086Y005798D01*
X072227Y005704D02*
X072320Y005798D01*
X072320Y005906D02*
X072133Y006093D01*
X072086Y006093D01*
X072320Y006093D02*
X072320Y005906D01*
X072540Y005952D02*
X072540Y006046D01*
X072586Y006093D01*
X072633Y006093D01*
X072680Y006046D01*
X072727Y006093D01*
X072773Y006093D01*
X072820Y006046D01*
X072820Y005952D01*
X072773Y005906D01*
X072773Y005798D02*
X072820Y005751D01*
X072820Y005658D01*
X072773Y005611D01*
X072586Y005611D01*
X072540Y005658D01*
X072540Y005751D01*
X072586Y005798D01*
X072773Y005798D01*
X072820Y005798D02*
X072727Y005704D01*
X072680Y005503D02*
X072727Y005457D01*
X072727Y005316D01*
X072820Y005316D02*
X072540Y005316D01*
X072540Y005457D01*
X072586Y005503D01*
X072680Y005503D01*
X072727Y005410D02*
X072820Y005503D01*
X073040Y005457D02*
X073086Y005503D01*
X073180Y005503D01*
X073227Y005457D01*
X073227Y005316D01*
X073320Y005316D02*
X073040Y005316D01*
X073040Y005457D01*
X073086Y005611D02*
X073040Y005658D01*
X073040Y005751D01*
X073086Y005798D01*
X073273Y005798D01*
X073320Y005751D01*
X073320Y005658D01*
X073273Y005611D01*
X073086Y005611D01*
X073227Y005704D02*
X073320Y005798D01*
X073180Y005906D02*
X073180Y006093D01*
X073320Y006046D02*
X073040Y006046D01*
X073180Y005906D01*
X072960Y006180D02*
X072960Y005100D01*
X073040Y005120D02*
X073040Y005213D01*
X073040Y005167D02*
X073320Y005167D01*
X073320Y005213D02*
X073320Y005120D01*
X073460Y005100D02*
X073460Y006180D01*
X073540Y006093D02*
X073540Y005906D01*
X073680Y005906D01*
X073633Y005999D01*
X073633Y006046D01*
X073680Y006093D01*
X073773Y006093D01*
X073820Y006046D01*
X073820Y005952D01*
X073773Y005906D01*
X073773Y005798D02*
X073820Y005751D01*
X073820Y005658D01*
X073773Y005611D01*
X073586Y005611D01*
X073540Y005658D01*
X073540Y005751D01*
X073586Y005798D01*
X073773Y005798D01*
X073820Y005798D02*
X073727Y005704D01*
X073680Y005503D02*
X073727Y005457D01*
X073727Y005316D01*
X073820Y005316D02*
X073540Y005316D01*
X073540Y005457D01*
X073586Y005503D01*
X073680Y005503D01*
X073727Y005410D02*
X073820Y005503D01*
X074040Y005457D02*
X074086Y005503D01*
X074180Y005503D01*
X074227Y005457D01*
X074227Y005316D01*
X074320Y005316D02*
X074040Y005316D01*
X074040Y005457D01*
X074086Y005611D02*
X074040Y005658D01*
X074040Y005751D01*
X074086Y005798D01*
X074273Y005798D01*
X074320Y005751D01*
X074320Y005658D01*
X074273Y005611D01*
X074086Y005611D01*
X074227Y005704D02*
X074320Y005798D01*
X074273Y005906D02*
X074320Y005952D01*
X074320Y006046D01*
X074273Y006093D01*
X074227Y006093D01*
X074180Y006046D01*
X074180Y005906D01*
X074273Y005906D01*
X074180Y005906D02*
X074086Y005999D01*
X074040Y006093D01*
X073960Y006180D02*
X073960Y005100D01*
X074040Y005120D02*
X074040Y005213D01*
X074040Y005167D02*
X074320Y005167D01*
X074320Y005213D02*
X074320Y005120D01*
X074460Y005100D02*
X074460Y006180D01*
X074540Y006093D02*
X074586Y006093D01*
X074773Y005906D01*
X074820Y005906D01*
X074820Y005798D02*
X074727Y005704D01*
X074773Y005611D02*
X074586Y005611D01*
X074540Y005658D01*
X074540Y005751D01*
X074586Y005798D01*
X074773Y005798D01*
X074820Y005751D01*
X074820Y005658D01*
X074773Y005611D01*
X074820Y005503D02*
X074727Y005410D01*
X074727Y005457D02*
X074727Y005316D01*
X074820Y005316D02*
X074540Y005316D01*
X074540Y005457D01*
X074586Y005503D01*
X074680Y005503D01*
X074727Y005457D01*
X074820Y005213D02*
X074820Y005120D01*
X074820Y005167D02*
X074540Y005167D01*
X074540Y005213D02*
X074540Y005120D01*
X074960Y005100D02*
X074960Y005886D01*
X075040Y005803D02*
X075040Y005709D01*
X075040Y005756D02*
X075320Y005756D01*
X075320Y005709D02*
X075320Y005803D01*
X075320Y005601D02*
X075040Y005601D01*
X075133Y005508D01*
X075040Y005415D01*
X075320Y005415D01*
X075320Y005307D02*
X075040Y005307D01*
X075040Y005120D02*
X075320Y005307D01*
X075320Y005120D02*
X075040Y005120D01*
X075540Y005167D02*
X075540Y005260D01*
X075586Y005307D01*
X075680Y005307D02*
X075680Y005213D01*
X075680Y005307D02*
X075773Y005307D01*
X075820Y005260D01*
X075820Y005167D01*
X075773Y005120D01*
X075586Y005120D01*
X075540Y005167D01*
X075540Y005415D02*
X075820Y005601D01*
X075540Y005601D01*
X075540Y005709D02*
X075540Y005849D01*
X075586Y005896D01*
X075773Y005896D01*
X075820Y005849D01*
X075820Y005709D01*
X075540Y005709D01*
X075540Y005415D02*
X075820Y005415D01*
X076007Y004580D02*
X075853Y004504D01*
X075700Y004350D01*
X075930Y004350D01*
X076007Y004273D01*
X076007Y004197D01*
X075930Y004120D01*
X075777Y004120D01*
X075700Y004197D01*
X075700Y004350D01*
X076160Y004427D02*
X076314Y004580D01*
X076314Y004120D01*
X076467Y004120D02*
X076160Y004120D01*
X074320Y005503D02*
X074227Y005410D01*
X073820Y005213D02*
X073820Y005120D01*
X073820Y005167D02*
X073540Y005167D01*
X073540Y005213D02*
X073540Y005120D01*
X073227Y005410D02*
X073320Y005503D01*
X072820Y005213D02*
X072820Y005120D01*
X072820Y005167D02*
X072540Y005167D01*
X072540Y005213D02*
X072540Y005120D01*
X072460Y005100D02*
X072460Y006180D01*
X072540Y005952D02*
X072586Y005906D01*
X072680Y005999D02*
X072680Y006046D01*
X072320Y005503D02*
X072227Y005410D01*
X072227Y005457D02*
X072227Y005316D01*
X072320Y005316D02*
X072040Y005316D01*
X072040Y005457D01*
X072086Y005503D01*
X072180Y005503D01*
X072227Y005457D01*
X072320Y005213D02*
X072320Y005120D01*
X072320Y005167D02*
X072040Y005167D01*
X072040Y005213D02*
X072040Y005120D01*
X071727Y005410D02*
X071820Y005503D01*
X071320Y005213D02*
X071320Y005120D01*
X071320Y005167D02*
X071040Y005167D01*
X071040Y005213D02*
X071040Y005120D01*
X070540Y005906D02*
X070820Y006093D01*
X074540Y006093D02*
X074540Y005906D01*
X054820Y006593D02*
X054540Y006593D01*
X054586Y006485D02*
X054540Y006439D01*
X054540Y006345D01*
X054680Y006640D02*
X054820Y006780D01*
X054773Y005415D02*
X054540Y005415D01*
X054540Y005120D02*
X054820Y005120D01*
X053820Y005415D02*
X053633Y005415D01*
X053680Y005415D02*
X053680Y005601D01*
X052320Y005260D02*
X052320Y005167D01*
X052273Y005120D01*
X052086Y005120D01*
X052040Y005167D01*
X052040Y005260D01*
X052086Y005307D01*
X052273Y005307D02*
X052320Y005260D01*
X051320Y005260D02*
X051320Y005167D01*
X051273Y005120D01*
X051086Y005120D01*
X051040Y005167D01*
X051040Y005260D01*
X051086Y005307D01*
X051040Y005415D02*
X051040Y005508D01*
X051040Y005461D02*
X051320Y005461D01*
X051320Y005415D02*
X051320Y005508D01*
X051320Y005611D02*
X051040Y005611D01*
X051320Y005798D01*
X051273Y005307D02*
X051320Y005260D01*
X050960Y005100D02*
X050960Y006180D01*
X050320Y005798D02*
X050040Y005798D01*
X050180Y005798D02*
X050180Y005611D01*
X050320Y005611D02*
X050040Y005611D01*
X050040Y005503D02*
X050320Y005503D01*
X050040Y005316D01*
X050320Y005316D01*
X050540Y005260D02*
X050540Y005167D01*
X050586Y005120D01*
X050773Y005120D01*
X050820Y005167D01*
X050820Y005260D01*
X050773Y005307D01*
X050820Y005415D02*
X050820Y005555D01*
X050773Y005601D01*
X050727Y005601D01*
X050680Y005555D01*
X050680Y005415D01*
X050680Y005555D02*
X050633Y005601D01*
X050586Y005601D01*
X050540Y005555D01*
X050540Y005415D01*
X050820Y005415D01*
X050586Y005307D02*
X050540Y005260D01*
X049820Y005120D02*
X049540Y005120D01*
X049320Y005167D02*
X049320Y005260D01*
X049273Y005307D01*
X049273Y005415D02*
X049320Y005461D01*
X049320Y005555D01*
X049273Y005601D01*
X049227Y005601D01*
X049180Y005555D01*
X049180Y005461D01*
X049133Y005415D01*
X049086Y005415D01*
X049040Y005461D01*
X049040Y005555D01*
X049086Y005601D01*
X049040Y005709D02*
X049320Y005896D01*
X049320Y005709D02*
X049040Y005896D01*
X048960Y005984D02*
X048960Y005100D01*
X049040Y005167D02*
X049040Y005260D01*
X049086Y005307D01*
X049040Y005167D02*
X049086Y005120D01*
X049273Y005120D01*
X049320Y005167D01*
X049540Y005415D02*
X049773Y005415D01*
X048820Y005461D02*
X048773Y005415D01*
X048820Y005461D02*
X048820Y005555D01*
X048773Y005601D01*
X048680Y005601D01*
X048633Y005555D01*
X048633Y005508D01*
X048680Y005415D01*
X048540Y005415D01*
X048540Y005601D01*
X048540Y005709D02*
X048727Y005709D01*
X048820Y005803D01*
X048727Y005896D01*
X048540Y005896D01*
X048586Y006004D02*
X048633Y006004D01*
X048680Y006051D01*
X048680Y006144D01*
X048727Y006191D01*
X048773Y006191D01*
X048820Y006144D01*
X048820Y006051D01*
X048773Y006004D01*
X048586Y006004D02*
X048540Y006051D01*
X048540Y006144D01*
X048586Y006191D01*
X048540Y006299D02*
X048540Y006439D01*
X048586Y006485D01*
X048633Y006485D01*
X048680Y006439D01*
X048680Y006299D01*
X048680Y006439D02*
X048727Y006485D01*
X048773Y006485D01*
X048820Y006439D01*
X048820Y006299D01*
X048540Y006299D01*
X048320Y006097D02*
X048227Y006191D01*
X048040Y006191D01*
X048040Y006004D02*
X048227Y006004D01*
X048320Y006097D01*
X048320Y005896D02*
X048320Y005709D01*
X048133Y005896D01*
X048086Y005896D01*
X048040Y005849D01*
X048040Y005756D01*
X048086Y005709D01*
X048040Y005508D02*
X048320Y005508D01*
X048320Y005415D02*
X048320Y005601D01*
X048133Y005415D02*
X048040Y005508D01*
X048180Y005307D02*
X048180Y005120D01*
X048586Y005213D02*
X048773Y005213D01*
X048680Y005120D02*
X048680Y005307D01*
X047273Y005713D02*
X047086Y005713D01*
X047180Y005620D02*
X047180Y005807D01*
X047180Y005915D02*
X047133Y006008D01*
X047133Y006055D01*
X047180Y006101D01*
X047273Y006101D01*
X047320Y006055D01*
X047320Y005961D01*
X047273Y005915D01*
X047180Y005915D02*
X047040Y005915D01*
X047040Y006101D01*
X047040Y006209D02*
X047227Y006209D01*
X047320Y006303D01*
X047227Y006396D01*
X047040Y006396D01*
X046320Y005849D02*
X046273Y005896D01*
X046086Y005896D01*
X046040Y005849D01*
X046040Y005709D01*
X046320Y005709D01*
X046320Y005849D01*
X046320Y005601D02*
X046040Y005601D01*
X046040Y005415D02*
X046320Y005601D01*
X046320Y005415D02*
X046040Y005415D01*
X046086Y005307D02*
X046040Y005260D01*
X046040Y005167D01*
X046086Y005120D01*
X046273Y005120D01*
X046320Y005167D01*
X046320Y005260D01*
X046273Y005307D01*
X046180Y005307D01*
X046180Y005213D01*
X045320Y005461D02*
X045273Y005415D01*
X045320Y005461D02*
X045320Y005555D01*
X045273Y005601D01*
X045227Y005601D01*
X045180Y005555D01*
X045180Y005508D01*
X045180Y005555D02*
X045133Y005601D01*
X045086Y005601D01*
X045040Y005555D01*
X045040Y005461D01*
X045086Y005415D01*
X045180Y005307D02*
X045180Y005120D01*
X045273Y005213D02*
X045086Y005213D01*
X045273Y005709D02*
X045273Y005756D01*
X045320Y005756D01*
X045320Y005709D01*
X045273Y005709D01*
X045273Y005857D02*
X045320Y005903D01*
X045320Y005997D01*
X045273Y006043D01*
X045227Y006043D01*
X045180Y005997D01*
X045180Y005950D01*
X045180Y005997D02*
X045133Y006043D01*
X045086Y006043D01*
X045040Y005997D01*
X045040Y005903D01*
X045086Y005857D01*
X045040Y006151D02*
X045227Y006151D01*
X045320Y006245D01*
X045227Y006338D01*
X045040Y006338D01*
X044570Y006097D02*
X044477Y006004D01*
X044290Y006004D01*
X044336Y005896D02*
X044290Y005849D01*
X044290Y005756D01*
X044336Y005709D01*
X044336Y005896D02*
X044383Y005896D01*
X044570Y005709D01*
X044570Y005896D01*
X044570Y006097D02*
X044477Y006191D01*
X044290Y006191D01*
X044570Y005601D02*
X044570Y005415D01*
X044570Y005508D02*
X044290Y005508D01*
X044383Y005415D01*
X044430Y005307D02*
X044430Y005120D01*
X044523Y005213D02*
X044336Y005213D01*
X044353Y004580D02*
X044353Y004120D01*
X044200Y004120D02*
X044507Y004120D01*
X044200Y004427D02*
X044353Y004580D01*
D13*
X044680Y004600D02*
X045180Y003600D01*
X045680Y004600D01*
X044680Y004600D01*
X044702Y004555D02*
X045658Y004555D01*
X045633Y004507D02*
X044727Y004507D01*
X044751Y004458D02*
X045609Y004458D01*
X045585Y004410D02*
X044775Y004410D01*
X044799Y004361D02*
X045561Y004361D01*
X045536Y004313D02*
X044824Y004313D01*
X044848Y004264D02*
X045512Y004264D01*
X045488Y004216D02*
X044872Y004216D01*
X044896Y004167D02*
X045464Y004167D01*
X045439Y004119D02*
X044921Y004119D01*
X044945Y004070D02*
X045415Y004070D01*
X045391Y004022D02*
X044969Y004022D01*
X044993Y003973D02*
X045367Y003973D01*
X045342Y003925D02*
X045018Y003925D01*
X045042Y003876D02*
X045318Y003876D01*
X045294Y003828D02*
X045066Y003828D01*
X045090Y003779D02*
X045270Y003779D01*
X045245Y003731D02*
X045115Y003731D01*
X045139Y003682D02*
X045221Y003682D01*
X045197Y003634D02*
X045163Y003634D01*
X043786Y004313D02*
X043074Y004313D01*
X043049Y004361D02*
X043811Y004361D01*
X043835Y004410D02*
X043025Y004410D01*
X043001Y004458D02*
X043859Y004458D01*
X043883Y004507D02*
X042977Y004507D01*
X042952Y004555D02*
X043908Y004555D01*
X043930Y004600D02*
X042930Y004600D01*
X043430Y003600D01*
X043930Y004600D01*
X043762Y004264D02*
X043098Y004264D01*
X043122Y004216D02*
X043738Y004216D01*
X043714Y004167D02*
X043146Y004167D01*
X043171Y004119D02*
X043689Y004119D01*
X043665Y004070D02*
X043195Y004070D01*
X043219Y004022D02*
X043641Y004022D01*
X043617Y003973D02*
X043243Y003973D01*
X043268Y003925D02*
X043592Y003925D01*
X043568Y003876D02*
X043292Y003876D01*
X043316Y003828D02*
X043544Y003828D01*
X043520Y003779D02*
X043340Y003779D01*
X043365Y003731D02*
X043495Y003731D01*
X043471Y003682D02*
X043389Y003682D01*
X043413Y003634D02*
X043447Y003634D01*
X042939Y003925D02*
X042705Y003925D01*
X042822Y003925D02*
X042822Y004275D01*
X042705Y004159D01*
M02*
