%
M48
M72
T01C0.0315
T02C0.1600
%
T01
X5180Y5100
X6180Y5100
X7180Y5100
X8180Y5100
X9180Y5100
X10180Y5100
X11180Y5100
X12180Y5100
X13180Y5100
X14180Y5100
X15180Y5100
X16180Y5100
X17180Y5100
X18180Y5100
X19180Y5100
X20180Y5100
X21180Y5100
X22180Y5100
X23180Y5100
X24180Y5100
X25180Y5100
X26180Y5100
X27180Y5100
X28180Y5100
X29180Y5100
X30180Y5100
X31180Y5100
X32180Y5100
X33180Y5100
X34180Y5100
X35180Y5100
X36180Y5100
X37180Y5100
X38180Y5100
X39180Y5100
X40180Y5100
X41180Y5100
X42180Y5100
X43180Y5100
X44430Y4100
X45180Y4600
X46180Y4600
X46180Y4100
X46180Y3600
X47180Y4100
X47180Y4600
X47180Y5100
X48180Y4600
X48680Y3975
X49180Y4600
X49680Y3975
X50180Y4600
X50680Y3975
X51180Y4600
X51680Y3975
X52180Y4600
X52680Y3975
X53180Y4600
X53680Y3975
X54180Y4600
X54680Y3975
X55180Y4600
X55680Y3975
X56180Y4600
X56680Y3975
X57180Y4600
X57680Y3975
X58180Y4600
X58680Y3975
X59180Y4600
X59680Y3975
X60180Y4600
X60680Y3975
X61180Y4600
X61680Y3975
X62180Y4600
X62680Y3975
X63180Y4600
X63680Y3975
X64180Y4600
X64680Y3975
X65180Y4600
X65680Y3975
X66180Y4600
X66680Y3975
X67180Y4600
X67680Y3975
X68180Y4600
X68680Y3975
X69180Y4600
X69680Y3975
X70180Y4600
X70680Y3975
X71180Y4600
X71680Y3975
X72180Y4600
X72680Y3975
X73180Y4600
X73680Y3975
X74180Y4600
X74680Y3975
X75180Y4600
X75680Y3975
X75180Y7100
X74180Y7100
X73180Y7100
X73180Y8100
X74180Y8100
X75180Y8100
X76180Y8100
X76180Y7100
X77180Y7100
X77180Y8100
X78180Y8100
X78180Y9100
X77180Y9100
X77180Y10100
X78180Y10100
X78180Y11100
X77180Y11100
X77180Y12100
X78180Y12100
X78180Y13100
X77180Y13100
X77180Y14100
X78180Y14100
X78180Y15100
X77180Y15100
X76180Y15100
X75180Y15100
X74180Y15100
X73180Y15100
X73180Y14100
X74180Y14100
X75180Y14100
X76180Y14100
X76180Y13100
X75180Y13100
X74180Y13100
X73180Y13100
X72180Y13100
X71180Y13100
X70180Y13100
X69180Y13100
X69180Y14100
X70180Y14100
X71180Y14100
X72180Y14100
X72180Y15100
X71180Y15100
X70180Y15100
X69180Y15100
X68180Y15100
X67180Y15100
X66180Y15100
X65180Y15100
X65180Y14100
X66180Y14100
X67180Y14100
X68180Y14100
X68180Y13100
X67180Y13100
X66180Y13100
X65180Y13100
X64180Y13100
X63180Y13100
X62180Y13100
X61180Y13100
X61180Y14100
X62180Y14100
X63180Y14100
X64180Y14100
X64180Y15100
X63180Y15100
X62180Y15100
X61180Y15100
X60180Y15100
X59180Y15100
X58180Y15100
X57180Y15100
X57180Y14100
X58180Y14100
X59180Y14100
X60180Y14100
X60180Y13100
X59180Y13100
X58180Y13100
X57180Y13100
X56180Y13100
X55180Y13100
X54180Y13100
X53180Y13100
X53180Y14100
X54180Y14100
X55180Y14100
X56180Y14100
X56180Y15100
X55180Y15100
X54180Y15100
X53180Y15100
X52180Y15100
X51180Y15100
X50180Y15100
X49180Y15100
X49180Y14100
X50180Y14100
X51180Y14100
X52180Y14100
X52180Y13100
X51180Y13100
X50180Y13100
X49180Y13100
X48180Y13100
X47180Y13100
X46180Y13100
X45180Y13100
X45180Y14100
X46180Y14100
X47180Y14100
X48180Y14100
X48180Y15100
X47180Y15100
X46180Y15100
X45180Y15100
X44180Y15100
X43180Y15100
X42180Y15100
X41180Y15100
X40180Y15100
X40180Y14100
X41180Y14100
X42180Y14100
X43180Y14100
X44180Y14100
X44180Y13100
X43180Y13100
X42180Y13100
X41180Y13100
X40180Y13100
X39180Y13100
X38180Y13100
X37180Y13100
X36180Y13100
X36180Y14100
X37180Y14100
X38180Y14100
X39180Y14100
X39180Y15100
X38180Y15100
X37180Y15100
X36180Y15100
X35180Y15100
X34180Y15100
X33180Y15100
X32180Y15100
X32180Y14100
X33180Y14100
X34180Y14100
X35180Y14100
X35180Y13100
X34180Y13100
X33180Y13100
X32180Y13100
X31180Y13100
X30180Y13100
X29180Y13100
X28180Y13100
X28180Y14100
X29180Y14100
X30180Y14100
X31180Y14100
X31180Y15100
X30180Y15100
X29180Y15100
X28180Y15100
X27180Y15100
X26180Y15100
X25180Y15100
X24180Y15100
X24180Y14100
X25180Y14100
X26180Y14100
X27180Y14100
X27180Y13100
X26180Y13100
X25180Y13100
X24180Y13100
X23180Y13100
X22180Y13100
X21180Y13100
X20180Y13100
X20180Y14100
X21180Y14100
X22180Y14100
X23180Y14100
X23180Y15100
X22180Y15100
X21180Y15100
X20180Y15100
X19180Y15100
X18180Y15100
X17180Y15100
X16180Y15100
X16180Y14100
X17180Y14100
X18180Y14100
X19180Y14100
X19180Y13100
X18180Y13100
X17180Y13100
X16180Y13100
X15180Y13100
X14180Y13100
X13180Y13100
X12180Y13100
X12180Y14100
X13180Y14100
X14180Y14100
X15180Y14100
X15180Y15100
X14180Y15100
X13180Y15100
X12180Y15100
X11180Y15100
X10180Y15100
X9180Y15100
X8180Y15100
X8180Y14100
X9180Y14100
X10180Y14100
X11180Y14100
X11180Y13100
X10180Y13100
X9180Y13100
X8180Y13100
X7180Y13100
X6180Y13100
X5180Y13100
X4180Y13100
X4180Y14100
X5180Y14100
X6180Y14100
X7180Y14100
X7180Y15100
X6180Y15100
X5180Y15100
X4180Y15100
X3180Y15100
X2180Y15100
X2180Y14100
X3180Y14100
X3180Y13100
X2180Y13100
X2180Y12100
X3180Y12100
X3180Y11100
X2180Y11100
X2180Y10100
X3180Y10100
X3180Y9100
X2180Y9100
X2180Y8100
X3180Y8100
X3180Y7100
X4180Y7100
X5180Y7100
X6180Y7100
X7180Y7100
X7180Y6100
X6180Y6100
X5180Y6100
X4180Y6100
X4180Y8100
X5180Y8100
X6180Y8100
X7180Y8100
X8180Y8100
X9180Y8100
X10180Y8100
X11180Y8100
X11180Y7100
X10180Y7100
X9180Y7100
X8180Y7100
X8180Y6100
X9180Y6100
X10180Y6100
X11180Y6100
X12180Y6100
X13180Y6100
X14180Y6100
X15180Y6100
X15180Y7100
X14180Y7100
X13180Y7100
X12180Y7100
X12180Y8100
X13180Y8100
X14180Y8100
X15180Y8100
X16180Y8100
X17180Y8100
X18180Y8100
X19180Y8100
X19180Y7100
X18180Y7100
X17180Y7100
X16180Y7100
X16180Y6100
X17180Y6100
X18180Y6100
X19180Y6100
X20180Y6100
X21180Y6100
X22180Y6100
X23180Y6100
X23180Y7100
X22180Y7100
X21180Y7100
X20180Y7100
X20180Y8100
X21180Y8100
X22180Y8100
X23180Y8100
X24180Y8100
X25180Y8100
X26180Y8100
X27180Y8100
X27180Y7100
X26180Y7100
X25180Y7100
X24180Y7100
X24180Y6100
X25180Y6100
X26180Y6100
X27180Y6100
X28180Y6100
X29180Y6100
X30180Y6100
X31180Y6100
X31180Y7100
X30180Y7100
X29180Y7100
X28180Y7100
X28180Y8100
X29180Y8100
X30180Y8100
X31180Y8100
X32180Y8100
X33180Y8100
X34180Y8100
X35180Y8100
X35180Y7100
X34180Y7100
X33180Y7100
X32180Y7100
X32180Y6100
X33180Y6100
X34180Y6100
X35180Y6100
X36180Y6100
X37180Y6100
X38180Y6100
X39180Y6100
X39180Y7100
X38180Y7100
X37180Y7100
X36180Y7100
X36180Y8100
X37180Y8100
X38180Y8100
X39180Y8100
X40180Y8100
X41180Y8100
X42180Y8100
X43180Y8100
X44180Y8100
X44180Y7100
X43180Y7100
X42180Y7100
X41180Y7100
X40180Y7100
X40180Y6100
X41180Y6100
X42180Y6100
X43180Y6100
X45180Y7100
X46180Y7100
X47180Y7100
X48180Y7100
X48180Y8100
X47180Y8100
X46180Y8100
X45180Y8100
X45180Y9100
X46180Y9100
X47180Y9100
X48180Y9100
X48180Y10100
X47180Y10100
X46180Y10100
X45180Y10100
X45180Y11100
X46180Y11100
X47180Y11100
X48180Y11100
X48180Y12100
X47180Y12100
X46180Y12100
X45180Y12100
X44180Y12100
X43180Y12100
X42180Y12100
X41180Y12100
X40180Y12100
X40180Y11100
X41180Y11100
X42180Y11100
X43180Y11100
X44180Y11100
X44180Y10100
X43180Y10100
X42180Y10100
X41180Y10100
X40180Y10100
X40180Y9100
X41180Y9100
X42180Y9100
X43180Y9100
X44180Y9100
X39180Y9100
X38180Y9100
X37180Y9100
X36180Y9100
X36180Y10100
X37180Y10100
X38180Y10100
X39180Y10100
X39180Y11100
X38180Y11100
X37180Y11100
X36180Y11100
X36180Y12100
X37180Y12100
X38180Y12100
X39180Y12100
X35180Y12100
X34180Y12100
X33180Y12100
X32180Y12100
X32180Y11100
X33180Y11100
X34180Y11100
X35180Y11100
X35180Y10100
X34180Y10100
X33180Y10100
X32180Y10100
X32180Y9100
X33180Y9100
X34180Y9100
X35180Y9100
X31180Y9100
X30180Y9100
X29180Y9100
X28180Y9100
X28180Y10100
X29180Y10100
X30180Y10100
X31180Y10100
X31180Y11100
X30180Y11100
X29180Y11100
X28180Y11100
X28180Y12100
X29180Y12100
X30180Y12100
X31180Y12100
X27180Y12100
X26180Y12100
X25180Y12100
X24180Y12100
X24180Y11100
X25180Y11100
X26180Y11100
X27180Y11100
X27180Y10100
X26180Y10100
X25180Y10100
X24180Y10100
X24180Y9100
X25180Y9100
X26180Y9100
X27180Y9100
X23180Y9100
X22180Y9100
X21180Y9100
X20180Y9100
X20180Y10100
X21180Y10100
X22180Y10100
X23180Y10100
X23180Y11100
X22180Y11100
X21180Y11100
X20180Y11100
X20180Y12100
X21180Y12100
X22180Y12100
X23180Y12100
X19180Y12100
X18180Y12100
X17180Y12100
X16180Y12100
X16180Y11100
X17180Y11100
X18180Y11100
X19180Y11100
X19180Y10100
X18180Y10100
X17180Y10100
X16180Y10100
X16180Y9100
X17180Y9100
X18180Y9100
X19180Y9100
X15180Y9100
X14180Y9100
X13180Y9100
X12180Y9100
X12180Y10100
X13180Y10100
X14180Y10100
X15180Y10100
X15180Y11100
X14180Y11100
X13180Y11100
X12180Y11100
X12180Y12100
X13180Y12100
X14180Y12100
X15180Y12100
X11180Y12100
X10180Y12100
X9180Y12100
X8180Y12100
X8180Y11100
X9180Y11100
X10180Y11100
X11180Y11100
X11180Y10100
X10180Y10100
X9180Y10100
X8180Y10100
X8180Y9100
X9180Y9100
X10180Y9100
X11180Y9100
X7180Y9100
X6180Y9100
X5180Y9100
X4180Y9100
X4180Y10100
X5180Y10100
X6180Y10100
X7180Y10100
X7180Y11100
X6180Y11100
X5180Y11100
X4180Y11100
X4180Y12100
X5180Y12100
X6180Y12100
X7180Y12100
X7180Y16100
X6180Y16100
X5180Y16100
X4180Y16100
X4180Y17100
X5180Y17100
X6180Y17100
X7180Y17100
X7180Y18100
X6180Y18100
X5180Y18100
X4180Y18100
X3180Y18100
X2180Y18100
X2180Y17100
X3180Y17100
X3180Y16100
X2180Y16100
X2180Y19100
X3180Y19100
X3180Y20100
X2180Y20100
X2180Y21100
X3180Y21100
X4180Y21100
X5180Y21100
X6180Y21100
X7180Y21100
X7180Y20100
X6180Y20100
X5180Y20100
X4180Y20100
X4180Y19100
X5180Y19100
X6180Y19100
X7180Y19100
X8180Y19100
X9180Y19100
X10180Y19100
X11180Y19100
X11180Y20100
X10180Y20100
X9180Y20100
X8180Y20100
X8180Y21100
X9180Y21100
X10180Y21100
X11180Y21100
X12180Y21100
X13180Y21100
X14180Y21100
X15180Y21100
X15180Y20100
X14180Y20100
X13180Y20100
X12180Y20100
X12180Y19100
X13180Y19100
X14180Y19100
X15180Y19100
X16180Y19100
X17180Y19100
X18180Y19100
X19180Y19100
X19180Y20100
X18180Y20100
X17180Y20100
X16180Y20100
X16180Y21100
X17180Y21100
X18180Y21100
X19180Y21100
X20180Y21100
X21180Y21100
X22180Y21100
X23180Y21100
X23180Y20100
X22180Y20100
X21180Y20100
X20180Y20100
X20180Y19100
X21180Y19100
X22180Y19100
X23180Y19100
X24180Y19100
X25180Y19100
X26180Y19100
X27180Y19100
X27180Y20100
X26180Y20100
X25180Y20100
X24180Y20100
X24180Y21100
X25180Y21100
X26180Y21100
X27180Y21100
X28180Y21100
X29180Y21100
X30180Y21100
X31180Y21100
X31180Y20100
X30180Y20100
X29180Y20100
X28180Y20100
X28180Y19100
X29180Y19100
X30180Y19100
X31180Y19100
X32180Y19100
X33180Y19100
X34180Y19100
X35180Y19100
X35180Y20100
X34180Y20100
X33180Y20100
X32180Y20100
X32180Y21100
X33180Y21100
X34180Y21100
X35180Y21100
X36180Y21100
X37180Y21100
X38180Y21100
X39180Y21100
X39180Y20100
X38180Y20100
X37180Y20100
X36180Y20100
X36180Y19100
X37180Y19100
X38180Y19100
X39180Y19100
X40180Y19100
X41180Y19100
X42180Y19100
X43180Y19100
X44180Y19100
X44180Y20100
X43180Y20100
X42180Y20100
X41180Y20100
X40180Y20100
X40180Y21100
X41180Y21100
X42180Y21100
X43180Y21100
X44180Y21100
X45180Y21100
X46180Y21100
X47180Y21100
X48180Y21100
X48180Y20100
X47180Y20100
X46180Y20100
X45180Y20100
X45180Y19100
X46180Y19100
X47180Y19100
X48180Y19100
X49180Y19100
X50180Y19100
X51180Y19100
X52180Y19100
X52180Y20100
X51180Y20100
X50180Y20100
X49180Y20100
X49180Y21100
X50180Y21100
X51180Y21100
X52180Y21100
X53180Y21100
X54180Y21100
X55180Y21100
X56180Y21100
X56180Y20100
X55180Y20100
X54180Y20100
X53180Y20100
X53180Y19100
X54180Y19100
X55180Y19100
X56180Y19100
X57180Y19100
X58180Y19100
X59180Y19100
X60180Y19100
X60180Y20100
X59180Y20100
X58180Y20100
X57180Y20100
X57180Y21100
X58180Y21100
X59180Y21100
X60180Y21100
X61180Y21100
X62180Y21100
X63180Y21100
X64180Y21100
X64180Y20100
X63180Y20100
X62180Y20100
X61180Y20100
X61180Y19100
X62180Y19100
X63180Y19100
X64180Y19100
X65180Y19100
X66180Y19100
X67180Y19100
X68180Y19100
X68180Y20100
X67180Y20100
X66180Y20100
X65180Y20100
X65180Y21100
X66180Y21100
X67180Y21100
X68180Y21100
X69180Y21100
X70180Y21100
X71180Y21100
X72180Y21100
X72180Y20100
X71180Y20100
X70180Y20100
X69180Y20100
X69180Y19100
X70180Y19100
X71180Y19100
X72180Y19100
X73180Y19100
X74180Y19100
X75180Y19100
X76180Y19100
X76180Y20100
X75180Y20100
X74180Y20100
X73180Y20100
X73180Y21100
X74180Y21100
X75180Y21100
X76180Y21100
X77180Y21100
X78180Y21100
X78180Y20100
X77180Y20100
X77180Y19100
X78180Y19100
X78180Y18100
X77180Y18100
X77180Y17100
X78180Y17100
X78180Y16100
X77180Y16100
X76180Y16100
X75180Y16100
X74180Y16100
X73180Y16100
X73180Y17100
X74180Y17100
X75180Y17100
X76180Y17100
X76180Y18100
X75180Y18100
X74180Y18100
X73180Y18100
X72180Y18100
X71180Y18100
X70180Y18100
X69180Y18100
X69180Y17100
X70180Y17100
X71180Y17100
X72180Y17100
X72180Y16100
X71180Y16100
X70180Y16100
X69180Y16100
X68180Y16100
X67180Y16100
X66180Y16100
X65180Y16100
X65180Y17100
X66180Y17100
X67180Y17100
X68180Y17100
X68180Y18100
X67180Y18100
X66180Y18100
X65180Y18100
X64180Y18100
X63180Y18100
X62180Y18100
X61180Y18100
X61180Y17100
X62180Y17100
X63180Y17100
X64180Y17100
X64180Y16100
X63180Y16100
X62180Y16100
X61180Y16100
X60180Y16100
X59180Y16100
X58180Y16100
X57180Y16100
X57180Y17100
X58180Y17100
X59180Y17100
X60180Y17100
X60180Y18100
X59180Y18100
X58180Y18100
X57180Y18100
X56180Y18100
X55180Y18100
X54180Y18100
X53180Y18100
X53180Y17100
X54180Y17100
X55180Y17100
X56180Y17100
X56180Y16100
X55180Y16100
X54180Y16100
X53180Y16100
X52180Y16100
X51180Y16100
X50180Y16100
X49180Y16100
X49180Y17100
X50180Y17100
X51180Y17100
X52180Y17100
X52180Y18100
X51180Y18100
X50180Y18100
X49180Y18100
X48180Y18100
X47180Y18100
X46180Y18100
X45180Y18100
X45180Y17100
X46180Y17100
X47180Y17100
X48180Y17100
X48180Y16100
X47180Y16100
X46180Y16100
X45180Y16100
X44180Y16100
X43180Y16100
X42180Y16100
X41180Y16100
X40180Y16100
X40180Y17100
X41180Y17100
X42180Y17100
X43180Y17100
X44180Y17100
X44180Y18100
X43180Y18100
X42180Y18100
X41180Y18100
X40180Y18100
X39180Y18100
X38180Y18100
X37180Y18100
X36180Y18100
X36180Y17100
X37180Y17100
X38180Y17100
X39180Y17100
X39180Y16100
X38180Y16100
X37180Y16100
X36180Y16100
X35180Y16100
X34180Y16100
X33180Y16100
X32180Y16100
X32180Y17100
X33180Y17100
X34180Y17100
X35180Y17100
X35180Y18100
X34180Y18100
X33180Y18100
X32180Y18100
X31180Y18100
X30180Y18100
X29180Y18100
X28180Y18100
X28180Y17100
X29180Y17100
X30180Y17100
X31180Y17100
X31180Y16100
X30180Y16100
X29180Y16100
X28180Y16100
X27180Y16100
X26180Y16100
X25180Y16100
X24180Y16100
X24180Y17100
X25180Y17100
X26180Y17100
X27180Y17100
X27180Y18100
X26180Y18100
X25180Y18100
X24180Y18100
X23180Y18100
X22180Y18100
X21180Y18100
X20180Y18100
X20180Y17100
X21180Y17100
X22180Y17100
X23180Y17100
X23180Y16100
X22180Y16100
X21180Y16100
X20180Y16100
X19180Y16100
X18180Y16100
X17180Y16100
X16180Y16100
X16180Y17100
X17180Y17100
X18180Y17100
X19180Y17100
X19180Y18100
X18180Y18100
X17180Y18100
X16180Y18100
X15180Y18100
X14180Y18100
X13180Y18100
X12180Y18100
X12180Y17100
X13180Y17100
X14180Y17100
X15180Y17100
X15180Y16100
X14180Y16100
X13180Y16100
X12180Y16100
X11180Y16100
X10180Y16100
X9180Y16100
X8180Y16100
X8180Y17100
X9180Y17100
X10180Y17100
X11180Y17100
X11180Y18100
X10180Y18100
X9180Y18100
X8180Y18100
X8180Y22100
X9180Y22100
X10180Y22100
X11180Y22100
X11180Y23100
X10180Y23100
X9180Y23100
X8180Y23100
X8180Y24100
X9180Y24100
X10180Y24100
X11180Y24100
X11180Y25100
X10180Y25100
X9180Y25100
X8180Y25100
X7180Y25100
X6180Y25100
X5180Y25100
X4180Y25100
X4180Y24100
X5180Y24100
X6180Y24100
X7180Y24100
X7180Y23100
X6180Y23100
X5180Y23100
X4180Y23100
X4180Y22100
X5180Y22100
X6180Y22100
X7180Y22100
X3180Y22100
X2180Y22100
X2180Y23100
X3180Y23100
X3180Y24100
X2180Y24100
X2180Y25100
X3180Y25100
X3180Y26100
X2180Y26100
X2180Y27100
X3180Y27100
X3180Y28100
X2180Y28100
X2180Y29100
X3180Y29100
X3180Y30100
X2180Y30100
X2180Y31100
X3180Y31100
X4180Y31100
X5180Y31100
X6180Y31100
X7180Y31100
X7180Y30100
X6180Y30100
X5180Y30100
X4180Y30100
X4180Y29100
X5180Y29100
X6180Y29100
X7180Y29100
X8180Y29100
X9180Y29100
X10180Y29100
X11180Y29100
X11180Y30100
X10180Y30100
X9180Y30100
X8180Y30100
X8180Y31100
X9180Y31100
X10180Y31100
X11180Y31100
X12180Y31100
X13180Y31100
X14180Y31100
X15180Y31100
X15180Y30100
X14180Y30100
X13180Y30100
X12180Y30100
X12180Y29100
X13180Y29100
X14180Y29100
X15180Y29100
X16180Y29100
X17180Y29100
X18180Y29100
X19180Y29100
X19180Y30100
X18180Y30100
X17180Y30100
X16180Y30100
X16180Y31100
X17180Y31100
X18180Y31100
X19180Y31100
X20180Y31100
X21180Y31100
X22180Y31100
X23180Y31100
X23180Y30100
X22180Y30100
X21180Y30100
X20180Y30100
X20180Y29100
X21180Y29100
X22180Y29100
X23180Y29100
X24180Y29100
X25180Y29100
X26180Y29100
X27180Y29100
X27180Y30100
X26180Y30100
X25180Y30100
X24180Y30100
X24180Y31100
X25180Y31100
X26180Y31100
X27180Y31100
X28180Y31100
X29180Y31100
X30180Y31100
X31180Y31100
X31180Y30100
X30180Y30100
X29180Y30100
X28180Y30100
X28180Y29100
X29180Y29100
X30180Y29100
X31180Y29100
X32180Y29100
X33180Y29100
X34180Y29100
X35180Y29100
X35180Y30100
X34180Y30100
X33180Y30100
X32180Y30100
X32180Y31100
X33180Y31100
X34180Y31100
X35180Y31100
X36180Y31100
X37180Y31100
X38180Y31100
X39180Y31100
X39180Y30100
X38180Y30100
X37180Y30100
X36180Y30100
X36180Y29100
X37180Y29100
X38180Y29100
X39180Y29100
X40180Y29100
X41180Y29100
X42180Y29100
X43180Y29100
X44180Y29100
X44180Y30100
X43180Y30100
X42180Y30100
X41180Y30100
X40180Y30100
X40180Y31100
X41180Y31100
X42180Y31100
X43180Y31100
X44180Y31100
X45180Y31100
X46180Y31100
X47180Y31100
X48180Y31100
X48180Y30100
X47180Y30100
X46180Y30100
X45180Y30100
X45180Y29100
X46180Y29100
X47180Y29100
X48180Y29100
X49180Y29100
X50180Y29100
X51180Y29100
X52180Y29100
X52180Y30100
X51180Y30100
X50180Y30100
X49180Y30100
X49180Y31100
X50180Y31100
X51180Y31100
X52180Y31100
X53180Y31100
X54180Y31100
X55180Y31100
X56180Y31100
X56180Y30100
X55180Y30100
X54180Y30100
X53180Y30100
X53180Y29100
X54180Y29100
X55180Y29100
X56180Y29100
X57180Y29100
X58180Y29100
X59180Y29100
X60180Y29100
X60180Y30100
X59180Y30100
X58180Y30100
X57180Y30100
X57180Y31100
X58180Y31100
X59180Y31100
X60180Y31100
X61180Y31100
X62180Y31100
X63180Y31100
X64180Y31100
X64180Y30100
X63180Y30100
X62180Y30100
X61180Y30100
X61180Y29100
X62180Y29100
X63180Y29100
X64180Y29100
X65180Y29100
X66180Y29100
X67180Y29100
X68180Y29100
X68180Y30100
X67180Y30100
X66180Y30100
X65180Y30100
X65180Y31100
X66180Y31100
X67180Y31100
X68180Y31100
X69180Y31100
X70180Y31100
X71180Y31100
X72180Y31100
X72180Y30100
X71180Y30100
X70180Y30100
X69180Y30100
X69180Y29100
X70180Y29100
X71180Y29100
X72180Y29100
X73180Y29100
X74180Y29100
X75180Y29100
X76180Y29100
X76180Y30100
X75180Y30100
X74180Y30100
X73180Y30100
X73180Y31100
X74180Y31100
X75180Y31100
X76180Y31100
X77180Y31100
X78180Y31100
X78180Y30100
X77180Y30100
X77180Y29100
X78180Y29100
X78180Y28100
X77180Y28100
X77180Y27100
X78180Y27100
X78180Y26100
X77180Y26100
X76180Y26100
X75180Y26100
X74180Y26100
X73180Y26100
X73180Y27100
X74180Y27100
X75180Y27100
X76180Y27100
X76180Y28100
X75180Y28100
X74180Y28100
X73180Y28100
X72180Y28100
X71180Y28100
X70180Y28100
X69180Y28100
X69180Y27100
X70180Y27100
X71180Y27100
X72180Y27100
X72180Y26100
X71180Y26100
X70180Y26100
X69180Y26100
X68180Y26100
X67180Y26100
X66180Y26100
X65180Y26100
X65180Y27100
X66180Y27100
X67180Y27100
X68180Y27100
X68180Y28100
X67180Y28100
X66180Y28100
X65180Y28100
X64180Y28100
X63180Y28100
X62180Y28100
X61180Y28100
X61180Y27100
X62180Y27100
X63180Y27100
X64180Y27100
X64180Y26100
X63180Y26100
X62180Y26100
X61180Y26100
X60180Y26100
X59180Y26100
X58180Y26100
X57180Y26100
X57180Y27100
X58180Y27100
X59180Y27100
X60180Y27100
X60180Y28100
X59180Y28100
X58180Y28100
X57180Y28100
X56180Y28100
X55180Y28100
X54180Y28100
X53180Y28100
X53180Y27100
X54180Y27100
X55180Y27100
X56180Y27100
X56180Y26100
X55180Y26100
X54180Y26100
X53180Y26100
X52180Y26100
X51180Y26100
X50180Y26100
X49180Y26100
X49180Y27100
X50180Y27100
X51180Y27100
X52180Y27100
X52180Y28100
X51180Y28100
X50180Y28100
X49180Y28100
X48180Y28100
X47180Y28100
X46180Y28100
X45180Y28100
X45180Y27100
X46180Y27100
X47180Y27100
X48180Y27100
X48180Y26100
X47180Y26100
X46180Y26100
X45180Y26100
X44180Y26100
X43180Y26100
X42180Y26100
X41180Y26100
X40180Y26100
X40180Y27100
X41180Y27100
X42180Y27100
X43180Y27100
X44180Y27100
X44180Y28100
X43180Y28100
X42180Y28100
X41180Y28100
X40180Y28100
X39180Y28100
X38180Y28100
X37180Y28100
X36180Y28100
X36180Y27100
X37180Y27100
X38180Y27100
X39180Y27100
X39180Y26100
X38180Y26100
X37180Y26100
X36180Y26100
X35180Y26100
X34180Y26100
X33180Y26100
X32180Y26100
X32180Y27100
X33180Y27100
X34180Y27100
X35180Y27100
X35180Y28100
X34180Y28100
X33180Y28100
X32180Y28100
X31180Y28100
X30180Y28100
X29180Y28100
X28180Y28100
X28180Y27100
X29180Y27100
X30180Y27100
X31180Y27100
X31180Y26100
X30180Y26100
X29180Y26100
X28180Y26100
X27180Y26100
X26180Y26100
X25180Y26100
X24180Y26100
X24180Y27100
X25180Y27100
X26180Y27100
X27180Y27100
X27180Y28100
X26180Y28100
X25180Y28100
X24180Y28100
X23180Y28100
X22180Y28100
X21180Y28100
X20180Y28100
X20180Y27100
X21180Y27100
X22180Y27100
X23180Y27100
X23180Y26100
X22180Y26100
X21180Y26100
X20180Y26100
X19180Y26100
X18180Y26100
X17180Y26100
X16180Y26100
X16180Y27100
X17180Y27100
X18180Y27100
X19180Y27100
X19180Y28100
X18180Y28100
X17180Y28100
X16180Y28100
X15180Y28100
X14180Y28100
X13180Y28100
X12180Y28100
X12180Y27100
X13180Y27100
X14180Y27100
X15180Y27100
X15180Y26100
X14180Y26100
X13180Y26100
X12180Y26100
X11180Y26100
X10180Y26100
X9180Y26100
X8180Y26100
X8180Y27100
X9180Y27100
X10180Y27100
X11180Y27100
X11180Y28100
X10180Y28100
X9180Y28100
X8180Y28100
X7180Y28100
X6180Y28100
X5180Y28100
X4180Y28100
X4180Y27100
X5180Y27100
X6180Y27100
X7180Y27100
X7180Y26100
X6180Y26100
X5180Y26100
X4180Y26100
X12180Y25100
X13180Y25100
X14180Y25100
X15180Y25100
X15180Y24100
X14180Y24100
X13180Y24100
X12180Y24100
X12180Y23100
X13180Y23100
X14180Y23100
X15180Y23100
X15180Y22100
X14180Y22100
X13180Y22100
X12180Y22100
X16180Y22100
X17180Y22100
X18180Y22100
X19180Y22100
X19180Y23100
X18180Y23100
X17180Y23100
X16180Y23100
X16180Y24100
X17180Y24100
X18180Y24100
X19180Y24100
X19180Y25100
X18180Y25100
X17180Y25100
X16180Y25100
X20180Y25100
X21180Y25100
X22180Y25100
X23180Y25100
X23180Y24100
X22180Y24100
X21180Y24100
X20180Y24100
X20180Y23100
X21180Y23100
X22180Y23100
X23180Y23100
X23180Y22100
X22180Y22100
X21180Y22100
X20180Y22100
X24180Y22100
X25180Y22100
X26180Y22100
X27180Y22100
X27180Y23100
X26180Y23100
X25180Y23100
X24180Y23100
X24180Y24100
X25180Y24100
X26180Y24100
X27180Y24100
X27180Y25100
X26180Y25100
X25180Y25100
X24180Y25100
X28180Y25100
X29180Y25100
X30180Y25100
X31180Y25100
X31180Y24100
X30180Y24100
X29180Y24100
X28180Y24100
X28180Y23100
X29180Y23100
X30180Y23100
X31180Y23100
X31180Y22100
X30180Y22100
X29180Y22100
X28180Y22100
X32180Y22100
X33180Y22100
X34180Y22100
X35180Y22100
X35180Y23100
X34180Y23100
X33180Y23100
X32180Y23100
X32180Y24100
X33180Y24100
X34180Y24100
X35180Y24100
X35180Y25100
X34180Y25100
X33180Y25100
X32180Y25100
X36180Y25100
X37180Y25100
X38180Y25100
X39180Y25100
X39180Y24100
X38180Y24100
X37180Y24100
X36180Y24100
X36180Y23100
X37180Y23100
X38180Y23100
X39180Y23100
X39180Y22100
X38180Y22100
X37180Y22100
X36180Y22100
X40180Y22100
X41180Y22100
X42180Y22100
X43180Y22100
X44180Y22100
X44180Y23100
X43180Y23100
X42180Y23100
X41180Y23100
X40180Y23100
X40180Y24100
X41180Y24100
X42180Y24100
X43180Y24100
X44180Y24100
X44180Y25100
X43180Y25100
X42180Y25100
X41180Y25100
X40180Y25100
X45180Y25100
X46180Y25100
X47180Y25100
X48180Y25100
X48180Y24100
X47180Y24100
X46180Y24100
X45180Y24100
X45180Y23100
X46180Y23100
X47180Y23100
X48180Y23100
X48180Y22100
X47180Y22100
X46180Y22100
X45180Y22100
X49180Y22100
X50180Y22100
X51180Y22100
X52180Y22100
X52180Y23100
X51180Y23100
X50180Y23100
X49180Y23100
X49180Y24100
X50180Y24100
X51180Y24100
X52180Y24100
X52180Y25100
X51180Y25100
X50180Y25100
X49180Y25100
X53180Y25100
X54180Y25100
X55180Y25100
X56180Y25100
X56180Y24100
X55180Y24100
X54180Y24100
X53180Y24100
X53180Y23100
X54180Y23100
X55180Y23100
X56180Y23100
X56180Y22100
X55180Y22100
X54180Y22100
X53180Y22100
X57180Y22100
X58180Y22100
X59180Y22100
X60180Y22100
X60180Y23100
X59180Y23100
X58180Y23100
X57180Y23100
X57180Y24100
X58180Y24100
X59180Y24100
X60180Y24100
X60180Y25100
X59180Y25100
X58180Y25100
X57180Y25100
X61180Y25100
X62180Y25100
X63180Y25100
X64180Y25100
X64180Y24100
X63180Y24100
X62180Y24100
X61180Y24100
X61180Y23100
X62180Y23100
X63180Y23100
X64180Y23100
X64180Y22100
X63180Y22100
X62180Y22100
X61180Y22100
X65180Y22100
X66180Y22100
X67180Y22100
X68180Y22100
X68180Y23100
X67180Y23100
X66180Y23100
X65180Y23100
X65180Y24100
X66180Y24100
X67180Y24100
X68180Y24100
X68180Y25100
X67180Y25100
X66180Y25100
X65180Y25100
X69180Y25100
X70180Y25100
X71180Y25100
X72180Y25100
X72180Y24100
X71180Y24100
X70180Y24100
X69180Y24100
X69180Y23100
X70180Y23100
X71180Y23100
X72180Y23100
X72180Y22100
X71180Y22100
X70180Y22100
X69180Y22100
X73180Y22100
X74180Y22100
X75180Y22100
X76180Y22100
X76180Y23100
X75180Y23100
X74180Y23100
X73180Y23100
X73180Y24100
X74180Y24100
X75180Y24100
X76180Y24100
X76180Y25100
X75180Y25100
X74180Y25100
X73180Y25100
X77180Y25100
X78180Y25100
X78180Y24100
X77180Y24100
X77180Y23100
X78180Y23100
X78180Y22100
X77180Y22100
X77180Y32100
X78180Y32100
X78180Y33100
X77180Y33100
X77180Y34100
X78180Y34100
X78180Y35100
X77180Y35100
X77180Y36100
X78180Y36100
X78180Y37100
X77180Y37100
X76180Y37100
X75180Y37100
X74180Y37100
X73180Y37100
X73180Y36100
X74180Y36100
X75180Y36100
X76180Y36100
X76180Y35100
X75180Y35100
X74180Y35100
X73180Y35100
X72180Y35100
X71180Y35100
X70180Y35100
X69180Y35100
X69180Y36100
X70180Y36100
X71180Y36100
X72180Y36100
X72180Y37100
X71180Y37100
X70180Y37100
X69180Y37100
X68180Y37100
X67180Y37100
X66180Y37100
X65180Y37100
X65180Y36100
X66180Y36100
X67180Y36100
X68180Y36100
X68180Y35100
X67180Y35100
X66180Y35100
X65180Y35100
X64180Y35100
X63180Y35100
X62180Y35100
X61180Y35100
X61180Y36100
X62180Y36100
X63180Y36100
X64180Y36100
X64180Y37100
X63180Y37100
X62180Y37100
X61180Y37100
X60180Y37100
X59180Y37100
X58180Y37100
X57180Y37100
X57180Y36100
X58180Y36100
X59180Y36100
X60180Y36100
X60180Y35100
X59180Y35100
X58180Y35100
X57180Y35100
X56180Y35100
X55180Y35100
X54180Y35100
X53180Y35100
X53180Y36100
X54180Y36100
X55180Y36100
X56180Y36100
X56180Y37100
X55180Y37100
X54180Y37100
X53180Y37100
X52180Y37100
X51180Y37100
X50180Y37100
X49180Y37100
X49180Y36100
X50180Y36100
X51180Y36100
X52180Y36100
X52180Y35100
X51180Y35100
X50180Y35100
X49180Y35100
X48180Y35100
X47180Y35100
X46180Y35100
X45180Y35100
X45180Y36100
X46180Y36100
X47180Y36100
X48180Y36100
X48180Y37100
X47180Y37100
X46180Y37100
X45180Y37100
X44180Y37100
X43180Y37100
X42180Y37100
X41180Y37100
X40180Y37100
X40180Y36100
X41180Y36100
X42180Y36100
X43180Y36100
X44180Y36100
X44180Y35100
X43180Y35100
X42180Y35100
X41180Y35100
X40180Y35100
X39180Y35100
X38180Y35100
X37180Y35100
X36180Y35100
X36180Y36100
X37180Y36100
X38180Y36100
X39180Y36100
X39180Y37100
X38180Y37100
X37180Y37100
X36180Y37100
X35180Y37100
X34180Y37100
X33180Y37100
X32180Y37100
X32180Y36100
X33180Y36100
X34180Y36100
X35180Y36100
X35180Y35100
X34180Y35100
X33180Y35100
X32180Y35100
X31180Y35100
X30180Y35100
X29180Y35100
X28180Y35100
X28180Y36100
X29180Y36100
X30180Y36100
X31180Y36100
X31180Y37100
X30180Y37100
X29180Y37100
X28180Y37100
X27180Y37100
X26180Y37100
X25180Y37100
X24180Y37100
X24180Y36100
X25180Y36100
X26180Y36100
X27180Y36100
X27180Y35100
X26180Y35100
X25180Y35100
X24180Y35100
X23180Y35100
X22180Y35100
X21180Y35100
X20180Y35100
X20180Y36100
X21180Y36100
X22180Y36100
X23180Y36100
X23180Y37100
X22180Y37100
X21180Y37100
X20180Y37100
X19180Y37100
X18180Y37100
X17180Y37100
X16180Y37100
X16180Y36100
X17180Y36100
X18180Y36100
X19180Y36100
X19180Y35100
X18180Y35100
X17180Y35100
X16180Y35100
X15180Y35100
X14180Y35100
X13180Y35100
X12180Y35100
X12180Y36100
X13180Y36100
X14180Y36100
X15180Y36100
X15180Y37100
X14180Y37100
X13180Y37100
X12180Y37100
X11180Y37100
X10180Y37100
X9180Y37100
X8180Y37100
X8180Y36100
X9180Y36100
X10180Y36100
X11180Y36100
X11180Y35100
X10180Y35100
X9180Y35100
X8180Y35100
X7180Y35100
X6180Y35100
X5180Y35100
X4180Y35100
X4180Y36100
X5180Y36100
X6180Y36100
X7180Y36100
X7180Y37100
X6180Y37100
X5180Y37100
X4180Y37100
X3180Y37100
X2180Y37100
X2180Y36100
X3180Y36100
X3180Y35100
X2180Y35100
X2180Y34100
X3180Y34100
X3180Y33100
X2180Y33100
X2180Y32100
X3180Y32100
X4180Y32100
X5180Y32100
X6180Y32100
X7180Y32100
X7180Y33100
X6180Y33100
X5180Y33100
X4180Y33100
X4180Y34100
X5180Y34100
X6180Y34100
X7180Y34100
X8180Y34100
X9180Y34100
X10180Y34100
X11180Y34100
X11180Y33100
X10180Y33100
X9180Y33100
X8180Y33100
X8180Y32100
X9180Y32100
X10180Y32100
X11180Y32100
X12180Y32100
X13180Y32100
X14180Y32100
X15180Y32100
X15180Y33100
X14180Y33100
X13180Y33100
X12180Y33100
X12180Y34100
X13180Y34100
X14180Y34100
X15180Y34100
X16180Y34100
X17180Y34100
X18180Y34100
X19180Y34100
X19180Y33100
X18180Y33100
X17180Y33100
X16180Y33100
X16180Y32100
X17180Y32100
X18180Y32100
X19180Y32100
X20180Y32100
X21180Y32100
X22180Y32100
X23180Y32100
X23180Y33100
X22180Y33100
X21180Y33100
X20180Y33100
X20180Y34100
X21180Y34100
X22180Y34100
X23180Y34100
X24180Y34100
X25180Y34100
X26180Y34100
X27180Y34100
X27180Y33100
X26180Y33100
X25180Y33100
X24180Y33100
X24180Y32100
X25180Y32100
X26180Y32100
X27180Y32100
X28180Y32100
X29180Y32100
X30180Y32100
X31180Y32100
X31180Y33100
X30180Y33100
X29180Y33100
X28180Y33100
X28180Y34100
X29180Y34100
X30180Y34100
X31180Y34100
X32180Y34100
X33180Y34100
X34180Y34100
X35180Y34100
X35180Y33100
X34180Y33100
X33180Y33100
X32180Y33100
X32180Y32100
X33180Y32100
X34180Y32100
X35180Y32100
X36180Y32100
X37180Y32100
X38180Y32100
X39180Y32100
X39180Y33100
X38180Y33100
X37180Y33100
X36180Y33100
X36180Y34100
X37180Y34100
X38180Y34100
X39180Y34100
X40180Y34100
X41180Y34100
X42180Y34100
X43180Y34100
X44180Y34100
X44180Y33100
X43180Y33100
X42180Y33100
X41180Y33100
X40180Y33100
X40180Y32100
X41180Y32100
X42180Y32100
X43180Y32100
X44180Y32100
X45180Y32100
X46180Y32100
X47180Y32100
X48180Y32100
X48180Y33100
X47180Y33100
X46180Y33100
X45180Y33100
X45180Y34100
X46180Y34100
X47180Y34100
X48180Y34100
X49180Y34100
X50180Y34100
X51180Y34100
X52180Y34100
X52180Y33100
X51180Y33100
X50180Y33100
X49180Y33100
X49180Y32100
X50180Y32100
X51180Y32100
X52180Y32100
X53180Y32100
X54180Y32100
X55180Y32100
X56180Y32100
X56180Y33100
X55180Y33100
X54180Y33100
X53180Y33100
X53180Y34100
X54180Y34100
X55180Y34100
X56180Y34100
X57180Y34100
X58180Y34100
X59180Y34100
X60180Y34100
X60180Y33100
X59180Y33100
X58180Y33100
X57180Y33100
X57180Y32100
X58180Y32100
X59180Y32100
X60180Y32100
X61180Y32100
X62180Y32100
X63180Y32100
X64180Y32100
X64180Y33100
X63180Y33100
X62180Y33100
X61180Y33100
X61180Y34100
X62180Y34100
X63180Y34100
X64180Y34100
X65180Y34100
X66180Y34100
X67180Y34100
X68180Y34100
X68180Y33100
X67180Y33100
X66180Y33100
X65180Y33100
X65180Y32100
X66180Y32100
X67180Y32100
X68180Y32100
X69180Y32100
X70180Y32100
X71180Y32100
X72180Y32100
X72180Y33100
X71180Y33100
X70180Y33100
X69180Y33100
X69180Y34100
X70180Y34100
X71180Y34100
X72180Y34100
X73180Y34100
X74180Y34100
X75180Y34100
X76180Y34100
X76180Y33100
X75180Y33100
X74180Y33100
X73180Y33100
X73180Y32100
X74180Y32100
X75180Y32100
X76180Y32100
X76180Y38100
X75180Y38100
X74180Y38100
X73180Y38100
X73180Y39100
X74180Y39100
X75180Y39100
X76180Y39100
X76180Y40100
X75180Y40100
X74180Y40100
X73180Y40100
X73180Y41100
X74180Y41100
X75180Y41100
X77180Y39100
X77180Y38100
X78180Y38100
X72180Y38100
X71180Y38100
X70180Y38100
X69180Y38100
X69180Y39100
X70180Y39100
X71180Y39100
X72180Y39100
X72180Y40100
X71180Y40100
X70180Y40100
X69180Y40100
X69180Y41100
X70180Y41100
X71180Y41100
X72180Y41100
X68180Y41100
X67180Y41100
X66180Y41100
X65180Y41100
X65180Y40100
X66180Y40100
X67180Y40100
X68180Y40100
X68180Y39100
X67180Y39100
X66180Y39100
X65180Y39100
X65180Y38100
X66180Y38100
X67180Y38100
X68180Y38100
X64180Y38100
X63180Y38100
X62180Y38100
X61180Y38100
X61180Y39100
X62180Y39100
X63180Y39100
X64180Y39100
X64180Y40100
X63180Y40100
X62180Y40100
X61180Y40100
X61180Y41100
X62180Y41100
X63180Y41100
X64180Y41100
X60180Y41100
X59180Y41100
X58180Y41100
X57180Y41100
X57180Y40100
X58180Y40100
X59180Y40100
X60180Y40100
X60180Y39100
X59180Y39100
X58180Y39100
X57180Y39100
X57180Y38100
X58180Y38100
X59180Y38100
X60180Y38100
X56180Y38100
X55180Y38100
X54180Y38100
X53180Y38100
X53180Y39100
X54180Y39100
X55180Y39100
X56180Y39100
X56180Y40100
X55180Y40100
X54180Y40100
X53180Y40100
X53180Y41100
X54180Y41100
X55180Y41100
X56180Y41100
X52180Y41100
X51180Y41100
X50180Y41100
X49180Y41100
X49180Y40100
X50180Y40100
X51180Y40100
X52180Y40100
X52180Y39100
X51180Y39100
X50180Y39100
X49180Y39100
X49180Y38100
X50180Y38100
X51180Y38100
X52180Y38100
X48180Y38100
X47180Y38100
X46180Y38100
X45180Y38100
X45180Y39100
X46180Y39100
X47180Y39100
X48180Y39100
X48180Y40100
X47180Y40100
X46180Y40100
X45180Y40100
X45180Y41100
X46180Y41100
X47180Y41100
X48180Y41100
X44180Y41100
X43180Y41100
X42180Y41100
X41180Y41100
X40180Y41100
X40180Y40100
X41180Y40100
X42180Y40100
X43180Y40100
X44180Y40100
X44180Y39100
X43180Y39100
X42180Y39100
X41180Y39100
X40180Y39100
X40180Y38100
X41180Y38100
X42180Y38100
X43180Y38100
X44180Y38100
X39180Y38100
X38180Y38100
X37180Y38100
X36180Y38100
X36180Y39100
X37180Y39100
X38180Y39100
X39180Y39100
X39180Y40100
X38180Y40100
X37180Y40100
X36180Y40100
X36180Y41100
X37180Y41100
X38180Y41100
X39180Y41100
X35180Y41100
X34180Y41100
X33180Y41100
X32180Y41100
X32180Y40100
X33180Y40100
X34180Y40100
X35180Y40100
X35180Y39100
X34180Y39100
X33180Y39100
X32180Y39100
X32180Y38100
X33180Y38100
X34180Y38100
X35180Y38100
X31180Y38100
X30180Y38100
X29180Y38100
X28180Y38100
X28180Y39100
X29180Y39100
X30180Y39100
X31180Y39100
X31180Y40100
X30180Y40100
X29180Y40100
X28180Y40100
X28180Y41100
X29180Y41100
X30180Y41100
X31180Y41100
X27180Y41100
X26180Y41100
X25180Y41100
X24180Y41100
X24180Y40100
X25180Y40100
X26180Y40100
X27180Y40100
X27180Y39100
X26180Y39100
X25180Y39100
X24180Y39100
X24180Y38100
X25180Y38100
X26180Y38100
X27180Y38100
X23180Y38100
X22180Y38100
X21180Y38100
X20180Y38100
X20180Y39100
X21180Y39100
X22180Y39100
X23180Y39100
X23180Y40100
X22180Y40100
X21180Y40100
X20180Y40100
X19180Y40100
X18180Y40100
X17180Y40100
X16180Y40100
X16180Y39100
X17180Y39100
X18180Y39100
X19180Y39100
X19180Y38100
X18180Y38100
X17180Y38100
X16180Y38100
X15180Y38100
X14180Y38100
X13180Y38100
X12180Y38100
X12180Y39100
X13180Y39100
X14180Y39100
X15180Y39100
X15180Y40100
X14180Y40100
X13180Y40100
X12180Y40100
X11180Y40100
X10180Y40100
X9180Y40100
X8180Y40100
X8180Y39100
X9180Y39100
X10180Y39100
X11180Y39100
X11180Y38100
X10180Y38100
X9180Y38100
X8180Y38100
X7180Y38100
X6180Y38100
X5180Y38100
X4180Y38100
X4180Y39100
X5180Y39100
X6180Y39100
X7180Y39100
X7180Y40100
X6180Y40100
X5180Y40100
X4180Y40100
X3180Y39100
X3180Y38100
X2180Y38100
X21180Y41100
X22180Y41100
X23180Y41100
X49180Y12100
X50180Y12100
X51180Y12100
X52180Y12100
X52180Y11100
X51180Y11100
X50180Y11100
X49180Y11100
X49180Y10100
X50180Y10100
X51180Y10100
X52180Y10100
X52180Y9100
X51180Y9100
X50180Y9100
X49180Y9100
X49180Y8100
X50180Y8100
X51180Y8100
X52180Y8100
X52180Y7100
X51180Y7100
X50180Y7100
X49180Y7100
X53180Y7100
X54180Y7100
X55180Y7100
X56180Y7100
X56180Y8100
X55180Y8100
X54180Y8100
X53180Y8100
X53180Y9100
X54180Y9100
X55180Y9100
X56180Y9100
X56180Y10100
X55180Y10100
X54180Y10100
X53180Y10100
X53180Y11100
X54180Y11100
X55180Y11100
X56180Y11100
X56180Y12100
X55180Y12100
X54180Y12100
X53180Y12100
X57180Y12100
X58180Y12100
X59180Y12100
X60180Y12100
X60180Y11100
X59180Y11100
X58180Y11100
X57180Y11100
X57180Y10100
X58180Y10100
X59180Y10100
X60180Y10100
X60180Y9100
X59180Y9100
X58180Y9100
X57180Y9100
X57180Y8100
X58180Y8100
X59180Y8100
X60180Y8100
X60180Y7100
X59180Y7100
X58180Y7100
X57180Y7100
X61180Y7100
X62180Y7100
X63180Y7100
X64180Y7100
X64180Y8100
X63180Y8100
X62180Y8100
X61180Y8100
X61180Y9100
X62180Y9100
X63180Y9100
X64180Y9100
X64180Y10100
X63180Y10100
X62180Y10100
X61180Y10100
X61180Y11100
X62180Y11100
X63180Y11100
X64180Y11100
X64180Y12100
X63180Y12100
X62180Y12100
X61180Y12100
X65180Y12100
X66180Y12100
X67180Y12100
X68180Y12100
X68180Y11100
X67180Y11100
X66180Y11100
X65180Y11100
X65180Y10100
X66180Y10100
X67180Y10100
X68180Y10100
X68180Y9100
X67180Y9100
X66180Y9100
X65180Y9100
X65180Y8100
X66180Y8100
X67180Y8100
X68180Y8100
X68180Y7100
X67180Y7100
X66180Y7100
X65180Y7100
X69180Y7100
X70180Y7100
X71180Y7100
X72180Y7100
X72180Y8100
X71180Y8100
X70180Y8100
X69180Y8100
X69180Y9100
X70180Y9100
X71180Y9100
X72180Y9100
X72180Y10100
X71180Y10100
X70180Y10100
X69180Y10100
X69180Y11100
X70180Y11100
X71180Y11100
X72180Y11100
X72180Y12100
X71180Y12100
X70180Y12100
X69180Y12100
X73180Y12100
X74180Y12100
X75180Y12100
X76180Y12100
X76180Y11100
X75180Y11100
X74180Y11100
X73180Y11100
X73180Y10100
X74180Y10100
X75180Y10100
X76180Y10100
X76180Y9100
X75180Y9100
X74180Y9100
X73180Y9100
T02
X2180Y5100
X2180Y41100
X78180Y41100
X78180Y5100
M30
