G75*
G70*
%OFA0B0*%
%FSLAX24Y24*%
%IPPOS*%
%LPD*%
%AMOC8*
5,1,8,0,0,1.08239X$1,22.5*
%
%ADD10C,0.0110*%
%ADD11C,0.0040*%
D10*
X004391Y003780D02*
X004825Y003780D01*
X004825Y004431D01*
X004391Y004431D01*
X004608Y004105D02*
X004825Y004105D01*
X005091Y003780D02*
X005091Y004431D01*
X005525Y004431D02*
X005091Y003780D01*
X005525Y003780D02*
X005525Y004431D01*
X005791Y004214D02*
X005791Y003780D01*
X005791Y004105D02*
X006224Y004105D01*
X006224Y004214D02*
X006008Y004431D01*
X005791Y004214D01*
X006224Y004214D02*
X006224Y003780D01*
X006490Y003780D02*
X006924Y003780D01*
X006924Y004431D01*
X007190Y004322D02*
X007190Y004105D01*
X007299Y003997D01*
X007624Y003997D01*
X007624Y003780D02*
X007624Y004431D01*
X007299Y004431D01*
X007190Y004322D01*
X008590Y004322D02*
X008590Y003888D01*
X008698Y003780D01*
X009024Y003780D01*
X009024Y004431D01*
X008698Y004431D01*
X008590Y004322D01*
X009290Y004431D02*
X009290Y003780D01*
X009723Y004431D01*
X009723Y003780D01*
X009989Y003888D02*
X009989Y004105D01*
X010206Y004105D01*
X009989Y003888D02*
X010098Y003780D01*
X010315Y003780D01*
X010423Y003888D01*
X010423Y004322D01*
X010315Y004431D01*
X010098Y004431D01*
X009989Y004322D01*
X014391Y004431D02*
X014825Y004431D01*
X014825Y003780D01*
X014391Y003780D01*
X014608Y004105D02*
X014825Y004105D01*
X015091Y003780D02*
X015091Y004431D01*
X015525Y004431D02*
X015091Y003780D01*
X015525Y003780D02*
X015525Y004431D01*
X015791Y004214D02*
X016008Y004431D01*
X016224Y004214D01*
X016224Y003780D01*
X016490Y003780D02*
X016924Y003780D01*
X016924Y004431D01*
X017190Y004322D02*
X017299Y004431D01*
X017624Y004431D01*
X017624Y003780D01*
X017624Y003997D02*
X017299Y003997D01*
X017190Y004105D01*
X017190Y004322D01*
X016224Y004105D02*
X015791Y004105D01*
X015791Y004214D02*
X015791Y003780D01*
X018590Y003888D02*
X018590Y004322D01*
X018698Y004431D01*
X019024Y004431D01*
X019024Y003780D01*
X018698Y003780D01*
X018590Y003888D01*
X019290Y003780D02*
X019290Y004431D01*
X019723Y004431D02*
X019290Y003780D01*
X019723Y003780D02*
X019723Y004431D01*
X019989Y004322D02*
X020098Y004431D01*
X020315Y004431D01*
X020423Y004322D01*
X020423Y003888D01*
X020315Y003780D01*
X020098Y003780D01*
X019989Y003888D01*
X019989Y004105D01*
X020206Y004105D01*
X024391Y003780D02*
X024825Y003780D01*
X024825Y004431D01*
X024391Y004431D01*
X024608Y004105D02*
X024825Y004105D01*
X025091Y003780D02*
X025091Y004431D01*
X025525Y004431D02*
X025091Y003780D01*
X025525Y003780D02*
X025525Y004431D01*
X025791Y004214D02*
X025791Y003780D01*
X025791Y004105D02*
X026224Y004105D01*
X026224Y004214D02*
X026008Y004431D01*
X025791Y004214D01*
X026224Y004214D02*
X026224Y003780D01*
X026490Y003780D02*
X026924Y003780D01*
X026924Y004431D01*
X027190Y004322D02*
X027299Y004431D01*
X027624Y004431D01*
X027624Y003780D01*
X027624Y003997D02*
X027299Y003997D01*
X027190Y004105D01*
X027190Y004322D01*
X028590Y004322D02*
X028590Y003888D01*
X028698Y003780D01*
X029024Y003780D01*
X029024Y004431D01*
X028698Y004431D01*
X028590Y004322D01*
X029290Y004431D02*
X029290Y003780D01*
X029723Y004431D01*
X029723Y003780D01*
X029989Y003888D02*
X029989Y004105D01*
X030206Y004105D01*
X029989Y003888D02*
X030098Y003780D01*
X030315Y003780D01*
X030423Y003888D01*
X030423Y004322D01*
X030315Y004431D01*
X030098Y004431D01*
X029989Y004322D01*
X034391Y004431D02*
X034825Y004431D01*
X034825Y003780D01*
X034391Y003780D01*
X034608Y004105D02*
X034825Y004105D01*
X035091Y003780D02*
X035091Y004431D01*
X035525Y004431D02*
X035091Y003780D01*
X035525Y003780D02*
X035525Y004431D01*
X035791Y004214D02*
X036008Y004431D01*
X036224Y004214D01*
X036224Y003780D01*
X036490Y003780D02*
X036924Y003780D01*
X036924Y004431D01*
X037190Y004322D02*
X037190Y004105D01*
X037299Y003997D01*
X037624Y003997D01*
X037624Y003780D02*
X037624Y004431D01*
X037299Y004431D01*
X037190Y004322D01*
X036224Y004105D02*
X035791Y004105D01*
X035791Y004214D02*
X035791Y003780D01*
X038590Y003888D02*
X038590Y004322D01*
X038698Y004431D01*
X039024Y004431D01*
X039024Y003780D01*
X038698Y003780D01*
X038590Y003888D01*
X039290Y003780D02*
X039290Y004431D01*
X039723Y004431D02*
X039290Y003780D01*
X039723Y003780D02*
X039723Y004431D01*
X039989Y004322D02*
X040098Y004431D01*
X040315Y004431D01*
X040423Y004322D01*
X040423Y003888D01*
X040315Y003780D01*
X040098Y003780D01*
X039989Y003888D01*
X039989Y004105D01*
X040206Y004105D01*
D11*
X044353Y004120D02*
X044660Y004120D01*
X044353Y004427D01*
X044353Y004504D01*
X044430Y004580D01*
X044583Y004580D01*
X044660Y004504D01*
X044477Y005188D02*
X044290Y005188D01*
X044477Y005188D02*
X044570Y005281D01*
X044477Y005375D01*
X044290Y005375D01*
X044336Y005482D02*
X044290Y005529D01*
X044290Y005623D01*
X044336Y005669D01*
X044336Y005482D02*
X044383Y005482D01*
X044570Y005669D01*
X044570Y005482D01*
X044570Y005777D02*
X044570Y005964D01*
X044570Y005871D02*
X044290Y005871D01*
X044383Y005964D01*
X044430Y006072D02*
X044430Y006259D01*
X044336Y006165D02*
X044523Y006165D01*
X045040Y006065D02*
X045040Y005971D01*
X045086Y005924D01*
X045133Y005924D01*
X045180Y005971D01*
X045227Y005924D01*
X045273Y005924D01*
X045320Y005971D01*
X045320Y006065D01*
X045273Y006111D01*
X045180Y006018D02*
X045180Y005971D01*
X045086Y006111D02*
X045040Y006065D01*
X045180Y006219D02*
X045180Y006406D01*
X045273Y006313D02*
X045086Y006313D01*
X045273Y005817D02*
X045273Y005770D01*
X045320Y005770D01*
X045320Y005817D01*
X045273Y005817D01*
X045273Y005669D02*
X045320Y005623D01*
X045320Y005529D01*
X045273Y005482D01*
X045227Y005482D01*
X045180Y005529D01*
X045180Y005576D01*
X045180Y005529D02*
X045133Y005482D01*
X045086Y005482D01*
X045040Y005529D01*
X045040Y005623D01*
X045086Y005669D01*
X045040Y005375D02*
X045227Y005375D01*
X045320Y005281D01*
X045227Y005188D01*
X045040Y005188D01*
X046040Y005235D02*
X046040Y005375D01*
X046320Y005375D01*
X046320Y005235D01*
X046273Y005188D01*
X046086Y005188D01*
X046040Y005235D01*
X046040Y005482D02*
X046320Y005482D01*
X046040Y005669D01*
X046320Y005669D01*
X046273Y005777D02*
X046180Y005777D01*
X046180Y005871D01*
X046273Y005964D02*
X046320Y005917D01*
X046320Y005824D01*
X046273Y005777D01*
X046086Y005777D02*
X046040Y005824D01*
X046040Y005917D01*
X046086Y005964D01*
X046273Y005964D01*
X047040Y005982D02*
X047040Y006169D01*
X047180Y006169D01*
X047133Y006076D01*
X047133Y006029D01*
X047180Y005982D01*
X047273Y005982D01*
X047320Y006029D01*
X047320Y006123D01*
X047273Y006169D01*
X047180Y006277D02*
X047180Y006464D01*
X047273Y006371D02*
X047086Y006371D01*
X047040Y005875D02*
X047227Y005875D01*
X047320Y005781D01*
X047227Y005688D01*
X047040Y005688D01*
X048040Y005623D02*
X048086Y005669D01*
X048040Y005623D02*
X048040Y005529D01*
X048086Y005482D01*
X048133Y005482D01*
X048320Y005669D01*
X048320Y005482D01*
X048227Y005375D02*
X048320Y005281D01*
X048227Y005188D01*
X048040Y005188D01*
X048040Y005375D02*
X048227Y005375D01*
X048540Y005375D02*
X048540Y005235D01*
X048586Y005188D01*
X048633Y005188D01*
X048680Y005235D01*
X048680Y005375D01*
X048727Y005482D02*
X048773Y005482D01*
X048820Y005529D01*
X048820Y005623D01*
X048773Y005669D01*
X048680Y005623D02*
X048633Y005669D01*
X048586Y005669D01*
X048540Y005623D01*
X048540Y005529D01*
X048586Y005482D01*
X048680Y005529D02*
X048727Y005482D01*
X048680Y005529D02*
X048680Y005623D01*
X048727Y005777D02*
X048540Y005777D01*
X048727Y005777D02*
X048820Y005871D01*
X048727Y005964D01*
X048540Y005964D01*
X048540Y006072D02*
X048540Y006259D01*
X048680Y006259D01*
X048633Y006165D01*
X048633Y006118D01*
X048680Y006072D01*
X048773Y006072D01*
X048820Y006118D01*
X048820Y006212D01*
X048773Y006259D01*
X048680Y006366D02*
X048680Y006553D01*
X048773Y006460D02*
X048586Y006460D01*
X048180Y006259D02*
X048180Y006072D01*
X048133Y005964D02*
X048040Y005871D01*
X048320Y005871D01*
X048320Y005964D02*
X048320Y005777D01*
X048540Y005375D02*
X048820Y005375D01*
X048820Y005235D01*
X048773Y005188D01*
X048727Y005188D01*
X048680Y005235D01*
X048960Y005100D02*
X048960Y005984D01*
X049040Y005917D02*
X049086Y005964D01*
X049273Y005964D01*
X049320Y005917D01*
X049320Y005824D01*
X049273Y005777D01*
X049273Y005669D02*
X049320Y005623D01*
X049320Y005529D01*
X049273Y005482D01*
X049227Y005482D01*
X049180Y005529D01*
X049180Y005623D01*
X049133Y005669D01*
X049086Y005669D01*
X049040Y005623D01*
X049040Y005529D01*
X049086Y005482D01*
X049040Y005375D02*
X049320Y005188D01*
X049460Y005100D02*
X049460Y006573D01*
X049540Y006553D02*
X049540Y006413D01*
X049586Y006366D01*
X049633Y006366D01*
X049680Y006413D01*
X049680Y006553D01*
X049680Y006413D02*
X049727Y006366D01*
X049773Y006366D01*
X049820Y006413D01*
X049820Y006553D01*
X049540Y006553D01*
X049540Y006259D02*
X049773Y006259D01*
X049820Y006212D01*
X049820Y006118D01*
X049773Y006072D01*
X049540Y006072D01*
X049586Y005964D02*
X049633Y005964D01*
X049680Y005917D01*
X049680Y005824D01*
X049727Y005777D01*
X049773Y005777D01*
X049820Y005824D01*
X049820Y005917D01*
X049773Y005964D01*
X049586Y005964D02*
X049540Y005917D01*
X049540Y005824D01*
X049586Y005777D01*
X049540Y005669D02*
X049540Y005529D01*
X049586Y005482D01*
X049680Y005482D01*
X049727Y005529D01*
X049727Y005669D01*
X049820Y005669D02*
X049540Y005669D01*
X049727Y005576D02*
X049820Y005482D01*
X049773Y005375D02*
X049820Y005328D01*
X049820Y005235D01*
X049773Y005188D01*
X049586Y005188D01*
X049540Y005235D01*
X049540Y005328D01*
X049586Y005375D01*
X049773Y005375D01*
X049727Y005281D02*
X049820Y005188D01*
X049960Y005100D02*
X049960Y005886D01*
X050040Y005866D02*
X050040Y005772D01*
X050040Y005819D02*
X050320Y005819D01*
X050320Y005866D02*
X050320Y005772D01*
X050320Y005669D02*
X050040Y005669D01*
X050320Y005482D01*
X050040Y005482D01*
X050040Y005375D02*
X050320Y005375D01*
X050180Y005375D02*
X050180Y005188D01*
X050040Y005188D02*
X050320Y005188D01*
X050460Y005100D02*
X050460Y005984D01*
X050540Y005917D02*
X050586Y005964D01*
X050773Y005964D01*
X050820Y005917D01*
X050820Y005824D01*
X050773Y005777D01*
X050820Y005669D02*
X050820Y005529D01*
X050773Y005482D01*
X050727Y005482D01*
X050680Y005529D01*
X050680Y005669D01*
X050680Y005529D02*
X050633Y005482D01*
X050586Y005482D01*
X050540Y005529D01*
X050540Y005669D01*
X050820Y005669D01*
X051040Y005669D02*
X051320Y005482D01*
X051040Y005482D01*
X051040Y005375D02*
X051320Y005375D01*
X051180Y005375D02*
X051180Y005188D01*
X051040Y005188D02*
X051320Y005188D01*
X051460Y005100D02*
X051460Y005984D01*
X051540Y005964D02*
X051540Y005824D01*
X051586Y005777D01*
X051680Y005777D01*
X051727Y005824D01*
X051727Y005964D01*
X051820Y005964D02*
X051540Y005964D01*
X051727Y005871D02*
X051820Y005777D01*
X051773Y005669D02*
X051820Y005623D01*
X051820Y005529D01*
X051773Y005482D01*
X051727Y005482D01*
X051680Y005529D01*
X051680Y005623D01*
X051633Y005669D01*
X051586Y005669D01*
X051540Y005623D01*
X051540Y005529D01*
X051586Y005482D01*
X051540Y005375D02*
X051540Y005188D01*
X051540Y005281D02*
X051820Y005281D01*
X052040Y005188D02*
X052227Y005375D01*
X052180Y005328D02*
X052320Y005188D01*
X052320Y005375D02*
X052040Y005375D01*
X052040Y005669D02*
X052320Y005669D01*
X052320Y005482D01*
X052540Y005482D02*
X052773Y005482D01*
X052820Y005529D01*
X052820Y005623D01*
X052773Y005669D01*
X052540Y005669D01*
X052633Y005777D02*
X052820Y005777D01*
X052680Y005777D02*
X052680Y005964D01*
X052633Y005964D02*
X052540Y005871D01*
X052633Y005777D01*
X052633Y005964D02*
X052820Y005964D01*
X052820Y006072D02*
X052680Y006212D01*
X052727Y006259D02*
X052540Y006072D01*
X052540Y006259D02*
X052820Y006259D01*
X052820Y006366D02*
X052820Y006553D01*
X052540Y006553D01*
X052586Y006661D02*
X052540Y006708D01*
X052540Y006801D01*
X052586Y006848D01*
X052773Y006848D01*
X052820Y006801D01*
X052820Y006708D01*
X052773Y006661D01*
X052960Y006279D02*
X052960Y005100D01*
X053040Y005188D02*
X053040Y005375D01*
X053040Y005281D02*
X053320Y005281D01*
X053320Y005482D02*
X053320Y005669D01*
X053040Y005669D01*
X053133Y005777D02*
X053320Y005777D01*
X053180Y005777D02*
X053180Y005964D01*
X053133Y005964D02*
X053040Y005871D01*
X053133Y005777D01*
X053133Y005964D02*
X053320Y005964D01*
X053320Y006072D02*
X053040Y006072D01*
X053180Y006072D02*
X053180Y006259D01*
X053320Y006259D02*
X053040Y006259D01*
X053460Y006180D02*
X053460Y005100D01*
X053540Y005188D02*
X053540Y005375D01*
X053540Y005281D02*
X053820Y005281D01*
X053820Y005478D02*
X053820Y005571D01*
X053820Y005524D02*
X053540Y005524D01*
X053540Y005478D02*
X053540Y005571D01*
X053633Y005679D02*
X053820Y005679D01*
X053680Y005679D02*
X053680Y005866D01*
X053633Y005866D02*
X053540Y005772D01*
X053633Y005679D01*
X053633Y005866D02*
X053820Y005866D01*
X053820Y005974D02*
X053540Y005974D01*
X053540Y006160D02*
X053820Y006160D01*
X053727Y006067D01*
X053820Y005974D01*
X054040Y005964D02*
X054040Y005777D01*
X054040Y005871D02*
X054320Y005871D01*
X054320Y006072D02*
X054320Y006259D01*
X054040Y006259D01*
X054040Y006072D01*
X054180Y006165D02*
X054180Y006259D01*
X054040Y006366D02*
X054040Y006553D01*
X054320Y006553D01*
X054180Y006553D02*
X054180Y006460D01*
X053960Y006573D02*
X053960Y005100D01*
X054040Y005188D02*
X054320Y005188D01*
X054180Y005188D02*
X054180Y005375D01*
X054320Y005375D02*
X054040Y005375D01*
X054086Y005482D02*
X054040Y005529D01*
X054040Y005623D01*
X054086Y005669D01*
X054273Y005669D01*
X054320Y005623D01*
X054320Y005529D01*
X054273Y005482D01*
X054540Y005529D02*
X054540Y005623D01*
X054586Y005669D01*
X054773Y005669D01*
X054820Y005623D01*
X054820Y005529D01*
X054773Y005482D01*
X054727Y005375D02*
X054540Y005188D01*
X054460Y005100D02*
X054460Y006868D01*
X054540Y006848D02*
X054540Y006708D01*
X054586Y006661D01*
X054633Y006661D01*
X054680Y006708D01*
X054680Y006848D01*
X054820Y006848D02*
X054820Y006708D01*
X054773Y006661D01*
X054727Y006661D01*
X054680Y006708D01*
X054773Y006553D02*
X054820Y006507D01*
X054820Y006413D01*
X054773Y006366D01*
X054540Y006366D01*
X054586Y006259D02*
X054633Y006259D01*
X054680Y006212D01*
X054680Y006118D01*
X054727Y006072D01*
X054773Y006072D01*
X054820Y006118D01*
X054820Y006212D01*
X054773Y006259D01*
X054586Y006259D02*
X054540Y006212D01*
X054540Y006118D01*
X054586Y006072D01*
X054633Y005964D02*
X054540Y005871D01*
X054633Y005777D01*
X054820Y005777D01*
X054680Y005777D02*
X054680Y005964D01*
X054633Y005964D02*
X054820Y005964D01*
X054960Y005689D02*
X054960Y005100D01*
X055086Y005188D02*
X055040Y005235D01*
X055040Y005375D01*
X055320Y005375D01*
X055320Y005235D01*
X055273Y005188D01*
X055086Y005188D01*
X054820Y005188D02*
X054680Y005328D01*
X054540Y005375D02*
X054820Y005375D01*
X054586Y005482D02*
X054540Y005529D01*
X055040Y005529D02*
X055040Y005669D01*
X055320Y005669D01*
X055227Y005669D02*
X055227Y005529D01*
X055180Y005482D01*
X055086Y005482D01*
X055040Y005529D01*
X055227Y005576D02*
X055320Y005482D01*
X055540Y005482D02*
X055820Y005482D01*
X055727Y005576D01*
X055820Y005669D01*
X055540Y005669D01*
X055460Y005689D02*
X055460Y005100D01*
X055586Y005188D02*
X055680Y005188D01*
X055727Y005235D01*
X055727Y005375D01*
X055820Y005375D02*
X055540Y005375D01*
X055540Y005235D01*
X055586Y005188D01*
X055727Y005281D02*
X055820Y005188D01*
X056040Y005235D02*
X056086Y005188D01*
X056273Y005375D01*
X056320Y005328D01*
X056320Y005235D01*
X056273Y005188D01*
X056086Y005188D01*
X056040Y005235D02*
X056040Y005328D01*
X056086Y005375D01*
X056273Y005375D01*
X056320Y005482D02*
X056133Y005482D01*
X056040Y005576D01*
X056133Y005669D01*
X056320Y005669D01*
X056180Y005669D02*
X056180Y005482D01*
X056540Y005576D02*
X056633Y005669D01*
X056820Y005669D01*
X056680Y005669D02*
X056680Y005482D01*
X056633Y005482D02*
X056820Y005482D01*
X056820Y005375D02*
X056820Y005188D01*
X056820Y005281D02*
X056540Y005281D01*
X056633Y005375D01*
X056633Y005482D02*
X056540Y005576D01*
X057040Y005576D02*
X057133Y005482D01*
X057320Y005482D01*
X057320Y005375D02*
X057133Y005188D01*
X057086Y005188D01*
X057040Y005235D01*
X057040Y005328D01*
X057086Y005375D01*
X057180Y005482D02*
X057180Y005669D01*
X057133Y005669D02*
X057040Y005576D01*
X057133Y005669D02*
X057320Y005669D01*
X057540Y005576D02*
X057633Y005669D01*
X057820Y005669D01*
X057680Y005669D02*
X057680Y005482D01*
X057633Y005482D02*
X057820Y005482D01*
X057773Y005375D02*
X057820Y005328D01*
X057820Y005235D01*
X057773Y005188D01*
X057727Y005188D01*
X057680Y005235D01*
X057680Y005281D01*
X057680Y005235D02*
X057633Y005188D01*
X057586Y005188D01*
X057540Y005235D01*
X057540Y005328D01*
X057586Y005375D01*
X057633Y005482D02*
X057540Y005576D01*
X057320Y005375D02*
X057320Y005188D01*
X058040Y005235D02*
X058180Y005375D01*
X058180Y005188D01*
X058320Y005235D02*
X058040Y005235D01*
X058133Y005482D02*
X058320Y005482D01*
X058180Y005482D02*
X058180Y005669D01*
X058133Y005669D02*
X058040Y005576D01*
X058133Y005482D01*
X058133Y005669D02*
X058320Y005669D01*
X058540Y005576D02*
X058633Y005669D01*
X058820Y005669D01*
X058680Y005669D02*
X058680Y005482D01*
X058633Y005482D02*
X058820Y005482D01*
X058773Y005375D02*
X058820Y005328D01*
X058820Y005235D01*
X058773Y005188D01*
X058680Y005188D01*
X058633Y005235D01*
X058633Y005281D01*
X058680Y005375D01*
X058540Y005375D01*
X058540Y005188D01*
X058633Y005482D02*
X058540Y005576D01*
X059040Y005576D02*
X059133Y005669D01*
X059320Y005669D01*
X059180Y005669D02*
X059180Y005482D01*
X059133Y005482D02*
X059320Y005482D01*
X059273Y005375D02*
X059320Y005328D01*
X059320Y005235D01*
X059273Y005188D01*
X059227Y005188D01*
X059180Y005235D01*
X059180Y005375D01*
X059273Y005375D01*
X059180Y005375D02*
X059086Y005281D01*
X059040Y005188D01*
X059133Y005482D02*
X059040Y005576D01*
X059540Y005576D02*
X059633Y005669D01*
X059820Y005669D01*
X059680Y005669D02*
X059680Y005482D01*
X059633Y005482D02*
X059820Y005482D01*
X059820Y005375D02*
X059773Y005375D01*
X059586Y005188D01*
X059540Y005188D01*
X059540Y005375D01*
X059633Y005482D02*
X059540Y005576D01*
X060040Y005576D02*
X060133Y005482D01*
X060320Y005482D01*
X060273Y005375D02*
X060227Y005375D01*
X060180Y005328D01*
X060180Y005235D01*
X060227Y005188D01*
X060273Y005188D01*
X060320Y005235D01*
X060320Y005328D01*
X060273Y005375D01*
X060180Y005328D02*
X060133Y005375D01*
X060086Y005375D01*
X060040Y005328D01*
X060040Y005235D01*
X060086Y005188D01*
X060133Y005188D01*
X060180Y005235D01*
X060180Y005482D02*
X060180Y005669D01*
X060133Y005669D02*
X060040Y005576D01*
X060133Y005669D02*
X060320Y005669D01*
X060540Y005576D02*
X060633Y005669D01*
X060820Y005669D01*
X060680Y005669D02*
X060680Y005482D01*
X060633Y005482D02*
X060820Y005482D01*
X060773Y005375D02*
X060820Y005328D01*
X060820Y005235D01*
X060773Y005188D01*
X060586Y005188D01*
X060540Y005235D01*
X060540Y005328D01*
X060586Y005375D01*
X060633Y005375D01*
X060680Y005328D01*
X060680Y005188D01*
X060633Y005482D02*
X060540Y005576D01*
X061040Y005576D02*
X061320Y005576D01*
X061320Y005669D02*
X061320Y005482D01*
X061273Y005375D02*
X061086Y005188D01*
X061273Y005188D01*
X061320Y005235D01*
X061320Y005328D01*
X061273Y005375D01*
X061086Y005375D01*
X061040Y005328D01*
X061040Y005235D01*
X061086Y005188D01*
X061040Y005576D02*
X061133Y005669D01*
X061133Y005777D02*
X061320Y005777D01*
X061180Y005777D02*
X061180Y005964D01*
X061133Y005964D02*
X061040Y005871D01*
X061133Y005777D01*
X061133Y005964D02*
X061320Y005964D01*
X061540Y005871D02*
X061633Y005777D01*
X061820Y005777D01*
X061820Y005669D02*
X061820Y005482D01*
X061820Y005576D02*
X061540Y005576D01*
X061633Y005669D01*
X061680Y005777D02*
X061680Y005964D01*
X061633Y005964D02*
X061540Y005871D01*
X061633Y005964D02*
X061820Y005964D01*
X062040Y005871D02*
X062133Y005777D01*
X062320Y005777D01*
X062320Y005669D02*
X062320Y005482D01*
X062320Y005576D02*
X062040Y005576D01*
X062133Y005669D01*
X062180Y005777D02*
X062180Y005964D01*
X062133Y005964D02*
X062040Y005871D01*
X062133Y005964D02*
X062320Y005964D01*
X062540Y005871D02*
X062633Y005777D01*
X062820Y005777D01*
X062820Y005669D02*
X062820Y005482D01*
X062820Y005576D02*
X062540Y005576D01*
X062633Y005669D01*
X062680Y005777D02*
X062680Y005964D01*
X062633Y005964D02*
X062540Y005871D01*
X062633Y005964D02*
X062820Y005964D01*
X063040Y005871D02*
X063133Y005777D01*
X063320Y005777D01*
X063320Y005669D02*
X063320Y005482D01*
X063320Y005576D02*
X063040Y005576D01*
X063133Y005669D01*
X063180Y005777D02*
X063180Y005964D01*
X063133Y005964D02*
X063040Y005871D01*
X063133Y005964D02*
X063320Y005964D01*
X063540Y005871D02*
X063633Y005777D01*
X063820Y005777D01*
X063820Y005669D02*
X063820Y005482D01*
X063820Y005576D02*
X063540Y005576D01*
X063633Y005669D01*
X063680Y005777D02*
X063680Y005964D01*
X063633Y005964D02*
X063540Y005871D01*
X063633Y005964D02*
X063820Y005964D01*
X064040Y005871D02*
X064133Y005777D01*
X064320Y005777D01*
X064320Y005669D02*
X064320Y005482D01*
X064320Y005576D02*
X064040Y005576D01*
X064133Y005669D01*
X064180Y005777D02*
X064180Y005964D01*
X064133Y005964D02*
X064040Y005871D01*
X064133Y005964D02*
X064320Y005964D01*
X064540Y005871D02*
X064633Y005777D01*
X064820Y005777D01*
X064820Y005669D02*
X064820Y005482D01*
X064820Y005576D02*
X064540Y005576D01*
X064633Y005669D01*
X064680Y005777D02*
X064680Y005964D01*
X064633Y005964D02*
X064540Y005871D01*
X064633Y005964D02*
X064820Y005964D01*
X065040Y005871D02*
X065133Y005777D01*
X065320Y005777D01*
X065320Y005669D02*
X065320Y005482D01*
X065320Y005576D02*
X065040Y005576D01*
X065133Y005669D01*
X065180Y005777D02*
X065180Y005964D01*
X065133Y005964D02*
X065040Y005871D01*
X065133Y005964D02*
X065320Y005964D01*
X065540Y005871D02*
X065633Y005777D01*
X065820Y005777D01*
X065820Y005669D02*
X065820Y005482D01*
X065820Y005576D02*
X065540Y005576D01*
X065633Y005669D01*
X065680Y005777D02*
X065680Y005964D01*
X065633Y005964D02*
X065540Y005871D01*
X065633Y005964D02*
X065820Y005964D01*
X066040Y005669D02*
X066040Y005529D01*
X066086Y005482D01*
X066273Y005482D01*
X066320Y005529D01*
X066320Y005669D01*
X066040Y005669D01*
X066086Y005375D02*
X066040Y005328D01*
X066040Y005235D01*
X066086Y005188D01*
X066273Y005375D01*
X066320Y005328D01*
X066320Y005235D01*
X066273Y005188D01*
X066086Y005188D01*
X066086Y005375D02*
X066273Y005375D01*
X066540Y005281D02*
X066820Y005281D01*
X066820Y005188D02*
X066820Y005375D01*
X066773Y005482D02*
X066586Y005482D01*
X066540Y005529D01*
X066540Y005669D01*
X066820Y005669D01*
X066820Y005529D01*
X066773Y005482D01*
X066633Y005375D02*
X066540Y005281D01*
X067040Y005235D02*
X067086Y005188D01*
X067133Y005188D01*
X067320Y005375D01*
X067320Y005188D01*
X067540Y005235D02*
X067586Y005188D01*
X067633Y005188D01*
X067680Y005235D01*
X067727Y005188D01*
X067773Y005188D01*
X067820Y005235D01*
X067820Y005328D01*
X067773Y005375D01*
X067773Y005482D02*
X067586Y005482D01*
X067540Y005529D01*
X067540Y005669D01*
X067820Y005669D01*
X067820Y005529D01*
X067773Y005482D01*
X067586Y005375D02*
X067540Y005328D01*
X067540Y005235D01*
X067680Y005235D02*
X067680Y005281D01*
X068040Y005235D02*
X068180Y005375D01*
X068180Y005188D01*
X068320Y005235D02*
X068040Y005235D01*
X068086Y005482D02*
X068040Y005529D01*
X068040Y005669D01*
X068320Y005669D01*
X068320Y005529D01*
X068273Y005482D01*
X068086Y005482D01*
X068540Y005529D02*
X068540Y005669D01*
X068820Y005669D01*
X068820Y005529D01*
X068773Y005482D01*
X068586Y005482D01*
X068540Y005529D01*
X068540Y005375D02*
X068680Y005375D01*
X068633Y005281D01*
X068633Y005235D01*
X068680Y005188D01*
X068773Y005188D01*
X068820Y005235D01*
X068820Y005328D01*
X068773Y005375D01*
X068540Y005375D02*
X068540Y005188D01*
X069040Y005188D02*
X069086Y005281D01*
X069180Y005375D01*
X069180Y005235D01*
X069227Y005188D01*
X069273Y005188D01*
X069320Y005235D01*
X069320Y005328D01*
X069273Y005375D01*
X069180Y005375D01*
X069273Y005482D02*
X069086Y005482D01*
X069040Y005529D01*
X069040Y005669D01*
X069320Y005669D01*
X069320Y005529D01*
X069273Y005482D01*
X069540Y005529D02*
X069540Y005669D01*
X069820Y005669D01*
X069820Y005529D01*
X069773Y005482D01*
X069586Y005482D01*
X069540Y005529D01*
X069540Y005375D02*
X069540Y005188D01*
X069586Y005188D01*
X069773Y005375D01*
X069820Y005375D01*
X070040Y005375D02*
X070040Y005188D01*
X070040Y005281D02*
X070320Y005281D01*
X070320Y005482D02*
X070040Y005482D01*
X070040Y005669D02*
X070320Y005482D01*
X070320Y005669D02*
X070040Y005669D01*
X070040Y005772D02*
X070040Y005866D01*
X070040Y005819D02*
X070320Y005819D01*
X070320Y005866D02*
X070320Y005772D01*
X070540Y005824D02*
X070586Y005777D01*
X070680Y005777D01*
X070727Y005824D01*
X070727Y005964D01*
X070820Y005964D02*
X070540Y005964D01*
X070540Y005824D01*
X070586Y005669D02*
X070540Y005623D01*
X070540Y005529D01*
X070586Y005482D01*
X070773Y005482D01*
X070820Y005529D01*
X070820Y005623D01*
X070773Y005669D01*
X070586Y005669D01*
X070727Y005576D02*
X070820Y005482D01*
X070820Y005375D02*
X070540Y005188D01*
X070460Y005100D02*
X070460Y006180D01*
X070540Y006160D02*
X070540Y006067D01*
X070540Y006114D02*
X070820Y006114D01*
X070820Y006160D02*
X070820Y006067D01*
X070960Y006180D02*
X070960Y005100D01*
X071086Y005188D02*
X071273Y005375D01*
X071320Y005328D01*
X071320Y005235D01*
X071273Y005188D01*
X071086Y005188D01*
X071040Y005235D01*
X071040Y005328D01*
X071086Y005375D01*
X071273Y005375D01*
X071273Y005482D02*
X071320Y005529D01*
X071320Y005623D01*
X071273Y005669D01*
X071086Y005669D01*
X071040Y005623D01*
X071040Y005529D01*
X071086Y005482D01*
X071273Y005482D01*
X071320Y005482D02*
X071227Y005576D01*
X071180Y005777D02*
X071227Y005824D01*
X071227Y005964D01*
X071320Y005964D02*
X071040Y005964D01*
X071040Y005824D01*
X071086Y005777D01*
X071180Y005777D01*
X071227Y005871D02*
X071320Y005777D01*
X071540Y005824D02*
X071586Y005777D01*
X071680Y005777D01*
X071727Y005824D01*
X071727Y005964D01*
X071820Y005964D02*
X071540Y005964D01*
X071540Y005824D01*
X071586Y005669D02*
X071540Y005623D01*
X071540Y005529D01*
X071586Y005482D01*
X071773Y005482D01*
X071820Y005529D01*
X071820Y005623D01*
X071773Y005669D01*
X071586Y005669D01*
X071727Y005576D02*
X071820Y005482D01*
X071820Y005375D02*
X071820Y005188D01*
X071820Y005281D02*
X071540Y005281D01*
X071633Y005375D01*
X071460Y005100D02*
X071460Y006180D01*
X071540Y006160D02*
X071540Y006067D01*
X071540Y006114D02*
X071820Y006114D01*
X071820Y006160D02*
X071820Y006067D01*
X071960Y006180D02*
X071960Y005100D01*
X072086Y005188D02*
X072040Y005235D01*
X072040Y005328D01*
X072086Y005375D01*
X072086Y005482D02*
X072273Y005482D01*
X072320Y005529D01*
X072320Y005623D01*
X072273Y005669D01*
X072086Y005669D01*
X072040Y005623D01*
X072040Y005529D01*
X072086Y005482D01*
X072227Y005576D02*
X072320Y005482D01*
X072320Y005375D02*
X072133Y005188D01*
X072086Y005188D01*
X072320Y005188D02*
X072320Y005375D01*
X072540Y005328D02*
X072540Y005235D01*
X072586Y005188D01*
X072633Y005188D01*
X072680Y005235D01*
X072727Y005188D01*
X072773Y005188D01*
X072820Y005235D01*
X072820Y005328D01*
X072773Y005375D01*
X072773Y005482D02*
X072820Y005529D01*
X072820Y005623D01*
X072773Y005669D01*
X072586Y005669D01*
X072540Y005623D01*
X072540Y005529D01*
X072586Y005482D01*
X072773Y005482D01*
X072820Y005482D02*
X072727Y005576D01*
X072680Y005777D02*
X072727Y005824D01*
X072727Y005964D01*
X072820Y005964D02*
X072540Y005964D01*
X072540Y005824D01*
X072586Y005777D01*
X072680Y005777D01*
X072727Y005871D02*
X072820Y005777D01*
X073040Y005824D02*
X073086Y005777D01*
X073180Y005777D01*
X073227Y005824D01*
X073227Y005964D01*
X073320Y005964D02*
X073040Y005964D01*
X073040Y005824D01*
X073086Y005669D02*
X073040Y005623D01*
X073040Y005529D01*
X073086Y005482D01*
X073273Y005482D01*
X073320Y005529D01*
X073320Y005623D01*
X073273Y005669D01*
X073086Y005669D01*
X073227Y005576D02*
X073320Y005482D01*
X073180Y005375D02*
X073180Y005188D01*
X073320Y005235D02*
X073040Y005235D01*
X073180Y005375D01*
X072960Y005100D02*
X072960Y006180D01*
X073040Y006160D02*
X073040Y006067D01*
X073040Y006114D02*
X073320Y006114D01*
X073320Y006160D02*
X073320Y006067D01*
X073460Y006180D02*
X073460Y005100D01*
X073540Y005188D02*
X073540Y005375D01*
X073680Y005375D01*
X073633Y005281D01*
X073633Y005235D01*
X073680Y005188D01*
X073773Y005188D01*
X073820Y005235D01*
X073820Y005328D01*
X073773Y005375D01*
X073773Y005482D02*
X073820Y005529D01*
X073820Y005623D01*
X073773Y005669D01*
X073586Y005669D01*
X073540Y005623D01*
X073540Y005529D01*
X073586Y005482D01*
X073773Y005482D01*
X073820Y005482D02*
X073727Y005576D01*
X073680Y005777D02*
X073727Y005824D01*
X073727Y005964D01*
X073820Y005964D02*
X073540Y005964D01*
X073540Y005824D01*
X073586Y005777D01*
X073680Y005777D01*
X073727Y005871D02*
X073820Y005777D01*
X074040Y005824D02*
X074086Y005777D01*
X074180Y005777D01*
X074227Y005824D01*
X074227Y005964D01*
X074320Y005964D02*
X074040Y005964D01*
X074040Y005824D01*
X074086Y005669D02*
X074040Y005623D01*
X074040Y005529D01*
X074086Y005482D01*
X074273Y005482D01*
X074320Y005529D01*
X074320Y005623D01*
X074273Y005669D01*
X074086Y005669D01*
X074227Y005576D02*
X074320Y005482D01*
X074273Y005375D02*
X074320Y005328D01*
X074320Y005235D01*
X074273Y005188D01*
X074227Y005188D01*
X074180Y005235D01*
X074180Y005375D01*
X074273Y005375D01*
X074180Y005375D02*
X074086Y005281D01*
X074040Y005188D01*
X073960Y005100D02*
X073960Y006180D01*
X074040Y006160D02*
X074040Y006067D01*
X074040Y006114D02*
X074320Y006114D01*
X074320Y006160D02*
X074320Y006067D01*
X074460Y006180D02*
X074460Y005100D01*
X074540Y005188D02*
X074586Y005188D01*
X074773Y005375D01*
X074820Y005375D01*
X074820Y005482D02*
X074727Y005576D01*
X074773Y005669D02*
X074820Y005623D01*
X074820Y005529D01*
X074773Y005482D01*
X074586Y005482D01*
X074540Y005529D01*
X074540Y005623D01*
X074586Y005669D01*
X074773Y005669D01*
X074820Y005777D02*
X074727Y005871D01*
X074727Y005824D02*
X074727Y005964D01*
X074820Y005964D02*
X074540Y005964D01*
X074540Y005824D01*
X074586Y005777D01*
X074680Y005777D01*
X074727Y005824D01*
X074960Y005886D02*
X074960Y005100D01*
X075040Y005183D02*
X075040Y005276D01*
X075040Y005230D02*
X075320Y005230D01*
X075320Y005276D02*
X075320Y005183D01*
X075320Y005384D02*
X075040Y005384D01*
X075133Y005478D01*
X075040Y005571D01*
X075320Y005571D01*
X075320Y005679D02*
X075040Y005679D01*
X075040Y005866D02*
X075320Y005679D01*
X075320Y005866D02*
X075040Y005866D01*
X074820Y006067D02*
X074820Y006160D01*
X074820Y006114D02*
X074540Y006114D01*
X074540Y006160D02*
X074540Y006067D01*
X074320Y005777D02*
X074227Y005871D01*
X073820Y006067D02*
X073820Y006160D01*
X073820Y006114D02*
X073540Y006114D01*
X073540Y006160D02*
X073540Y006067D01*
X073320Y005777D02*
X073227Y005871D01*
X072820Y006067D02*
X072820Y006160D01*
X072820Y006114D02*
X072540Y006114D01*
X072540Y006160D02*
X072540Y006067D01*
X072460Y006180D02*
X072460Y005100D01*
X072540Y005328D02*
X072586Y005375D01*
X072680Y005281D02*
X072680Y005235D01*
X072320Y005777D02*
X072227Y005871D01*
X072227Y005824D02*
X072227Y005964D01*
X072320Y005964D02*
X072040Y005964D01*
X072040Y005824D01*
X072086Y005777D01*
X072180Y005777D01*
X072227Y005824D01*
X072320Y006067D02*
X072320Y006160D01*
X072320Y006114D02*
X072040Y006114D01*
X072040Y006160D02*
X072040Y006067D01*
X071820Y005777D02*
X071727Y005871D01*
X071320Y006067D02*
X071320Y006160D01*
X071320Y006114D02*
X071040Y006114D01*
X071040Y006160D02*
X071040Y006067D01*
X070820Y005777D02*
X070727Y005871D01*
X070540Y005375D02*
X070820Y005188D01*
X069960Y005100D02*
X069960Y005886D01*
X067320Y005669D02*
X067320Y005529D01*
X067273Y005482D01*
X067086Y005482D01*
X067040Y005529D01*
X067040Y005669D01*
X067320Y005669D01*
X067086Y005375D02*
X067040Y005328D01*
X067040Y005235D01*
X065820Y005235D02*
X065773Y005188D01*
X065586Y005188D01*
X065540Y005235D01*
X065540Y005328D01*
X065586Y005375D01*
X065633Y005375D01*
X065680Y005328D01*
X065680Y005188D01*
X065820Y005235D02*
X065820Y005328D01*
X065773Y005375D01*
X065320Y005328D02*
X065273Y005375D01*
X065227Y005375D01*
X065180Y005328D01*
X065180Y005235D01*
X065227Y005188D01*
X065273Y005188D01*
X065320Y005235D01*
X065320Y005328D01*
X065180Y005328D02*
X065133Y005375D01*
X065086Y005375D01*
X065040Y005328D01*
X065040Y005235D01*
X065086Y005188D01*
X065133Y005188D01*
X065180Y005235D01*
X064820Y005375D02*
X064773Y005375D01*
X064586Y005188D01*
X064540Y005188D01*
X064540Y005375D01*
X064320Y005328D02*
X064320Y005235D01*
X064273Y005188D01*
X064227Y005188D01*
X064180Y005235D01*
X064180Y005375D01*
X064273Y005375D01*
X064320Y005328D01*
X064180Y005375D02*
X064086Y005281D01*
X064040Y005188D01*
X063820Y005235D02*
X063773Y005188D01*
X063680Y005188D01*
X063633Y005235D01*
X063633Y005281D01*
X063680Y005375D01*
X063540Y005375D01*
X063540Y005188D01*
X063320Y005235D02*
X063040Y005235D01*
X063180Y005375D01*
X063180Y005188D01*
X062820Y005235D02*
X062773Y005188D01*
X062727Y005188D01*
X062680Y005235D01*
X062680Y005281D01*
X062680Y005235D02*
X062633Y005188D01*
X062586Y005188D01*
X062540Y005235D01*
X062540Y005328D01*
X062586Y005375D01*
X062773Y005375D02*
X062820Y005328D01*
X062820Y005235D01*
X062320Y005188D02*
X062320Y005375D01*
X062133Y005188D01*
X062086Y005188D01*
X062040Y005235D01*
X062040Y005328D01*
X062086Y005375D01*
X061820Y005375D02*
X061820Y005188D01*
X061820Y005281D02*
X061540Y005281D01*
X061633Y005375D01*
X063773Y005375D02*
X063820Y005328D01*
X063820Y005235D01*
X054773Y006553D02*
X054540Y006553D01*
X054540Y006848D02*
X054820Y006848D01*
X052820Y005375D02*
X052540Y005188D01*
X052540Y005375D02*
X052820Y005188D01*
X052273Y005777D02*
X052320Y005824D01*
X052320Y005917D01*
X052273Y005964D01*
X052086Y005964D01*
X052040Y005917D01*
X052040Y005824D01*
X052086Y005777D01*
X051320Y005772D02*
X051320Y005866D01*
X051320Y005819D02*
X051040Y005819D01*
X051040Y005866D02*
X051040Y005772D01*
X051040Y005669D02*
X051320Y005669D01*
X051273Y005974D02*
X051320Y006020D01*
X051320Y006114D01*
X051273Y006160D01*
X051086Y006160D01*
X051040Y006114D01*
X051040Y006020D01*
X051086Y005974D01*
X050960Y006180D02*
X050960Y005100D01*
X050820Y005188D02*
X050727Y005281D01*
X050727Y005235D02*
X050727Y005375D01*
X050820Y005375D02*
X050540Y005375D01*
X050540Y005235D01*
X050586Y005188D01*
X050680Y005188D01*
X050727Y005235D01*
X050586Y005777D02*
X050540Y005824D01*
X050540Y005917D01*
X049320Y005375D02*
X049040Y005188D01*
X049086Y005777D02*
X049040Y005824D01*
X049040Y005917D01*
X074540Y005375D02*
X074540Y005188D01*
X075393Y004504D02*
X075469Y004580D01*
X075623Y004580D01*
X075700Y004504D01*
X075853Y004580D02*
X076007Y004504D01*
X076160Y004350D01*
X075930Y004350D01*
X075853Y004273D01*
X075853Y004197D01*
X075930Y004120D01*
X076083Y004120D01*
X076160Y004197D01*
X076160Y004350D01*
X075700Y004120D02*
X075393Y004120D01*
X075700Y004120D02*
X075393Y004427D01*
X075393Y004504D01*
X075586Y005188D02*
X075540Y005235D01*
X075540Y005375D01*
X075820Y005375D01*
X075820Y005235D01*
X075773Y005188D01*
X075586Y005188D01*
X075540Y005482D02*
X075820Y005482D01*
X075540Y005669D01*
X075820Y005669D01*
X075773Y005777D02*
X075680Y005777D01*
X075680Y005871D01*
X075773Y005964D02*
X075820Y005917D01*
X075820Y005824D01*
X075773Y005777D01*
X075586Y005777D02*
X075540Y005824D01*
X075540Y005917D01*
X075586Y005964D01*
X075773Y005964D01*
M02*
