G75*
G70*
%OFA0B0*%
%FSLAX24Y24*%
%IPPOS*%
%LPD*%
%AMOC8*
5,1,8,0,0,1.08239X$1,22.5*
%
%ADD10C,0.0060*%
%ADD11R,3.2000X0.3000*%
%ADD12C,0.0640*%
%ADD13C,0.2580*%
D10*
X004461Y041254D02*
X005156Y041884D01*
X004788Y042535D01*
X005196Y042535D01*
X005418Y042129D01*
X005859Y042535D01*
X006247Y042535D01*
X005548Y041894D01*
X005920Y041254D01*
X005508Y041254D01*
X005286Y041660D01*
X004849Y041254D01*
X004461Y041254D01*
X004513Y041301D02*
X004899Y041301D01*
X004962Y041359D02*
X004577Y041359D01*
X004642Y041418D02*
X005025Y041418D01*
X005088Y041476D02*
X004706Y041476D01*
X004771Y041535D02*
X005151Y041535D01*
X005214Y041593D02*
X004835Y041593D01*
X004900Y041652D02*
X005277Y041652D01*
X005290Y041652D02*
X005689Y041652D01*
X005655Y041710D02*
X004964Y041710D01*
X005029Y041769D02*
X005621Y041769D01*
X005587Y041827D02*
X005093Y041827D01*
X005155Y041886D02*
X005553Y041886D01*
X005602Y041944D02*
X005122Y041944D01*
X005089Y042003D02*
X005666Y042003D01*
X005730Y042061D02*
X005056Y042061D01*
X005023Y042120D02*
X005794Y042120D01*
X005858Y042178D02*
X005472Y042178D01*
X005391Y042178D02*
X004990Y042178D01*
X004957Y042237D02*
X005359Y042237D01*
X005327Y042295D02*
X004924Y042295D01*
X004890Y042354D02*
X005295Y042354D01*
X005263Y042412D02*
X004857Y042412D01*
X004824Y042471D02*
X005231Y042471D01*
X005199Y042529D02*
X004791Y042529D01*
X005535Y042237D02*
X005922Y042237D01*
X005985Y042295D02*
X005599Y042295D01*
X005662Y042354D02*
X006049Y042354D01*
X006113Y042412D02*
X005726Y042412D01*
X005789Y042471D02*
X006177Y042471D01*
X006241Y042529D02*
X005853Y042529D01*
X006435Y042354D02*
X008350Y042354D01*
X008350Y042370D02*
X008350Y042296D01*
X008339Y042222D01*
X008087Y041254D01*
X007742Y041254D01*
X008007Y042264D01*
X007557Y042264D01*
X007296Y041254D01*
X006946Y041254D01*
X007211Y042264D01*
X006761Y042264D01*
X006500Y041254D01*
X006151Y041254D01*
X006482Y042535D01*
X008168Y042535D01*
X008204Y042534D01*
X008239Y042525D01*
X008272Y042508D01*
X008300Y042485D01*
X008325Y042451D01*
X008342Y042412D01*
X008350Y042370D01*
X008342Y042412D02*
X006450Y042412D01*
X006465Y042471D02*
X008310Y042471D01*
X008221Y042529D02*
X006480Y042529D01*
X006420Y042295D02*
X008350Y042295D01*
X008341Y042237D02*
X008000Y042237D01*
X007985Y042178D02*
X008327Y042178D01*
X008312Y042120D02*
X007969Y042120D01*
X007954Y042061D02*
X008297Y042061D01*
X008282Y042003D02*
X007938Y042003D01*
X007923Y041944D02*
X008267Y041944D01*
X008251Y041886D02*
X007908Y041886D01*
X007892Y041827D02*
X008236Y041827D01*
X008221Y041769D02*
X007877Y041769D01*
X007862Y041710D02*
X008206Y041710D01*
X008191Y041652D02*
X007846Y041652D01*
X007831Y041593D02*
X008176Y041593D01*
X008160Y041535D02*
X007816Y041535D01*
X007800Y041476D02*
X008145Y041476D01*
X008130Y041418D02*
X007785Y041418D01*
X007770Y041359D02*
X008115Y041359D01*
X008100Y041301D02*
X007754Y041301D01*
X007338Y041418D02*
X006989Y041418D01*
X007005Y041476D02*
X007353Y041476D01*
X007368Y041535D02*
X007020Y041535D01*
X007035Y041593D02*
X007384Y041593D01*
X007399Y041652D02*
X007051Y041652D01*
X007066Y041710D02*
X007414Y041710D01*
X007429Y041769D02*
X007081Y041769D01*
X007097Y041827D02*
X007444Y041827D01*
X007459Y041886D02*
X007112Y041886D01*
X007128Y041944D02*
X007474Y041944D01*
X007490Y042003D02*
X007143Y042003D01*
X007158Y042061D02*
X007505Y042061D01*
X007520Y042120D02*
X007174Y042120D01*
X007189Y042178D02*
X007535Y042178D01*
X007550Y042237D02*
X007204Y042237D01*
X006754Y042237D02*
X006405Y042237D01*
X006389Y042178D02*
X006739Y042178D01*
X006724Y042120D02*
X006374Y042120D01*
X006359Y042061D02*
X006709Y042061D01*
X006694Y042003D02*
X006344Y042003D01*
X006329Y041944D02*
X006679Y041944D01*
X006664Y041886D02*
X006314Y041886D01*
X006299Y041827D02*
X006649Y041827D01*
X006633Y041769D02*
X006284Y041769D01*
X006269Y041710D02*
X006618Y041710D01*
X006603Y041652D02*
X006253Y041652D01*
X006238Y041593D02*
X006588Y041593D01*
X006573Y041535D02*
X006223Y041535D01*
X006208Y041476D02*
X006558Y041476D01*
X006543Y041418D02*
X006193Y041418D01*
X006178Y041359D02*
X006527Y041359D01*
X006512Y041301D02*
X006163Y041301D01*
X005893Y041301D02*
X005482Y041301D01*
X005450Y041359D02*
X005859Y041359D01*
X005825Y041418D02*
X005418Y041418D01*
X005386Y041476D02*
X005791Y041476D01*
X005757Y041535D02*
X005354Y041535D01*
X005322Y041593D02*
X005723Y041593D01*
X006959Y041301D02*
X007308Y041301D01*
X007323Y041359D02*
X006974Y041359D01*
X008339Y041254D02*
X008670Y042535D01*
X009015Y042535D01*
X008684Y041254D01*
X008339Y041254D01*
X008351Y041301D02*
X008696Y041301D01*
X008711Y041359D02*
X008366Y041359D01*
X008381Y041418D02*
X008726Y041418D01*
X008742Y041476D02*
X008396Y041476D01*
X008411Y041535D02*
X008757Y041535D01*
X008772Y041593D02*
X008426Y041593D01*
X008441Y041652D02*
X008787Y041652D01*
X008802Y041710D02*
X008456Y041710D01*
X008472Y041769D02*
X008817Y041769D01*
X008832Y041827D02*
X008487Y041827D01*
X008502Y041886D02*
X008847Y041886D01*
X008862Y041944D02*
X008517Y041944D01*
X008532Y042003D02*
X008878Y042003D01*
X008893Y042061D02*
X008547Y042061D01*
X008562Y042120D02*
X008908Y042120D01*
X008923Y042178D02*
X008577Y042178D01*
X008592Y042237D02*
X008938Y042237D01*
X008953Y042295D02*
X008608Y042295D01*
X008623Y042354D02*
X008968Y042354D01*
X008983Y042412D02*
X008638Y042412D01*
X008653Y042471D02*
X008998Y042471D01*
X009014Y042529D02*
X008668Y042529D01*
X009203Y042273D02*
X009235Y042335D01*
X009276Y042393D01*
X009325Y042444D01*
X009369Y042482D01*
X009419Y042511D01*
X009474Y042531D01*
X009502Y042535D01*
X009529Y042535D01*
X010790Y042535D01*
X010724Y042264D01*
X009546Y042264D01*
X009357Y041525D01*
X010528Y041525D01*
X010463Y041254D01*
X009168Y041254D01*
X009139Y041256D01*
X009111Y041265D01*
X009086Y041279D01*
X009063Y041298D01*
X009036Y041335D01*
X009017Y041377D01*
X009007Y041422D01*
X009005Y041474D01*
X009011Y041525D01*
X009023Y041586D01*
X009180Y042206D01*
X009203Y042273D01*
X009215Y042295D02*
X010731Y042295D01*
X010746Y042354D02*
X009248Y042354D01*
X009295Y042412D02*
X010760Y042412D01*
X010774Y042471D02*
X009356Y042471D01*
X009468Y042529D02*
X010788Y042529D01*
X011028Y042471D02*
X011110Y042471D01*
X012438Y042471D01*
X012428Y042482D02*
X012453Y042454D01*
X012474Y042423D01*
X012488Y042389D01*
X012496Y042353D01*
X012495Y042288D01*
X012484Y042224D01*
X012441Y042063D01*
X012429Y042024D01*
X012410Y041988D01*
X012354Y041905D01*
X012286Y041831D01*
X012228Y041786D01*
X012163Y041753D01*
X012095Y041737D01*
X012026Y041729D01*
X012198Y041254D01*
X011852Y041254D01*
X011680Y041733D01*
X011180Y041733D01*
X011055Y041254D01*
X010710Y041254D01*
X011045Y042535D01*
X012288Y042535D01*
X012326Y042532D01*
X012363Y042522D01*
X012397Y042505D01*
X012428Y042482D01*
X012478Y042412D02*
X011170Y042412D01*
X011012Y042412D01*
X010997Y042354D02*
X011229Y042354D01*
X012496Y042354D01*
X012496Y042295D02*
X011288Y042295D01*
X010982Y042295D01*
X010967Y042237D02*
X011314Y042237D01*
X011320Y042264D02*
X011045Y042535D01*
X011320Y042264D01*
X012150Y042264D01*
X012082Y041985D01*
X011252Y041985D01*
X011320Y042264D01*
X011299Y042178D02*
X010951Y042178D01*
X010936Y042120D02*
X011285Y042120D01*
X011271Y042061D02*
X010921Y042061D01*
X010905Y042003D02*
X011256Y042003D01*
X011174Y041710D02*
X010829Y041710D01*
X010814Y041652D02*
X011159Y041652D01*
X011144Y041593D02*
X010798Y041593D01*
X010783Y041535D02*
X011128Y041535D01*
X011113Y041476D02*
X010768Y041476D01*
X010753Y041418D02*
X011098Y041418D01*
X011083Y041359D02*
X010737Y041359D01*
X010722Y041301D02*
X011068Y041301D01*
X010844Y041769D02*
X012194Y041769D01*
X012281Y041827D02*
X010860Y041827D01*
X010875Y041886D02*
X012337Y041886D01*
X012381Y041944D02*
X010890Y041944D01*
X010516Y041476D02*
X009005Y041476D01*
X009008Y041418D02*
X010502Y041418D01*
X010488Y041359D02*
X009025Y041359D01*
X009062Y041301D02*
X010474Y041301D01*
X011689Y041710D02*
X012033Y041710D01*
X012054Y041652D02*
X011709Y041652D01*
X011730Y041593D02*
X012075Y041593D01*
X012096Y041535D02*
X011751Y041535D01*
X011772Y041476D02*
X012117Y041476D01*
X012138Y041418D02*
X011793Y041418D01*
X011814Y041359D02*
X012159Y041359D01*
X012180Y041301D02*
X011835Y041301D01*
X012562Y041400D02*
X012576Y041358D01*
X012586Y041332D01*
X012603Y041309D01*
X012623Y041289D01*
X012647Y041273D01*
X012673Y041261D01*
X012701Y041256D01*
X012729Y041254D01*
X013743Y041254D01*
X013784Y041255D01*
X013824Y041263D01*
X013863Y041280D01*
X013898Y041302D01*
X013947Y041341D01*
X013990Y041386D01*
X014033Y041442D01*
X014067Y041504D01*
X014091Y041571D01*
X014263Y042230D01*
X014271Y042284D01*
X014271Y042339D01*
X014266Y042384D01*
X014253Y042428D01*
X014235Y042462D01*
X014210Y042492D01*
X014178Y042514D01*
X014142Y042529D01*
X014104Y042535D01*
X013115Y042535D01*
X013095Y042264D01*
X013115Y042535D01*
X013072Y042535D01*
X013018Y042527D01*
X012966Y042509D01*
X012919Y042481D01*
X012857Y042423D01*
X012806Y042356D01*
X012765Y042284D01*
X012735Y042206D01*
X012568Y041577D01*
X012560Y041538D01*
X012556Y041444D01*
X012562Y041400D01*
X012560Y041418D02*
X014014Y041418D01*
X014051Y041476D02*
X012557Y041476D01*
X012560Y041535D02*
X012902Y041535D01*
X012900Y041525D02*
X013732Y041525D01*
X013927Y042264D01*
X013095Y042264D01*
X012900Y041525D01*
X012918Y041593D02*
X012572Y041593D01*
X012588Y041652D02*
X012933Y041652D01*
X012949Y041710D02*
X012603Y041710D01*
X012619Y041769D02*
X012964Y041769D01*
X012979Y041827D02*
X012635Y041827D01*
X012650Y041886D02*
X012995Y041886D01*
X013010Y041944D02*
X012666Y041944D01*
X012681Y042003D02*
X013026Y042003D01*
X013041Y042061D02*
X012697Y042061D01*
X012712Y042120D02*
X013057Y042120D01*
X013072Y042178D02*
X012728Y042178D01*
X012747Y042237D02*
X013088Y042237D01*
X013097Y042295D02*
X014271Y042295D01*
X014269Y042354D02*
X013102Y042354D01*
X012804Y042354D01*
X012771Y042295D02*
X013097Y042295D01*
X013106Y042412D02*
X014258Y042412D01*
X014228Y042471D02*
X013110Y042471D01*
X012908Y042471D01*
X012849Y042412D02*
X013106Y042412D01*
X013115Y042529D02*
X014141Y042529D01*
X014264Y042237D02*
X013920Y042237D01*
X013905Y042178D02*
X014249Y042178D01*
X014234Y042120D02*
X013889Y042120D01*
X013874Y042061D02*
X014219Y042061D01*
X014204Y042003D02*
X013858Y042003D01*
X013843Y041944D02*
X014188Y041944D01*
X014173Y041886D02*
X013827Y041886D01*
X013812Y041827D02*
X014158Y041827D01*
X014143Y041769D02*
X013796Y041769D01*
X013781Y041710D02*
X014128Y041710D01*
X014112Y041652D02*
X013765Y041652D01*
X013750Y041593D02*
X014097Y041593D01*
X014078Y041535D02*
X013734Y041535D01*
X013896Y041301D02*
X012611Y041301D01*
X012575Y041359D02*
X013964Y041359D01*
X012418Y042003D02*
X012086Y042003D01*
X012101Y042061D02*
X012441Y042061D01*
X012457Y042120D02*
X012115Y042120D01*
X012129Y042178D02*
X012472Y042178D01*
X012487Y042237D02*
X012144Y042237D01*
X012338Y042529D02*
X011051Y042529D01*
X011043Y042529D01*
X009539Y042237D02*
X009191Y042237D01*
X009173Y042178D02*
X009524Y042178D01*
X009509Y042120D02*
X009158Y042120D01*
X009144Y042061D02*
X009494Y042061D01*
X009479Y042003D02*
X009129Y042003D01*
X009114Y041944D02*
X009464Y041944D01*
X009449Y041886D02*
X009099Y041886D01*
X009084Y041827D02*
X009434Y041827D01*
X009419Y041769D02*
X009069Y041769D01*
X009054Y041710D02*
X009404Y041710D01*
X009389Y041652D02*
X009039Y041652D01*
X009024Y041593D02*
X009374Y041593D01*
X009359Y041535D02*
X009013Y041535D01*
X013033Y042529D02*
X013115Y042529D01*
D11*
X060180Y001600D03*
D12*
X059680Y003975D03*
X059180Y004600D03*
X058680Y003975D03*
X058180Y004600D03*
X057680Y003975D03*
X057180Y004600D03*
X056680Y003975D03*
X056180Y004600D03*
X055680Y003975D03*
X055180Y004600D03*
X054680Y003975D03*
X054180Y004600D03*
X053680Y003975D03*
X053180Y004600D03*
X052680Y003975D03*
X052180Y004600D03*
X051680Y003975D03*
X051180Y004600D03*
X050680Y003975D03*
X050180Y004600D03*
X049680Y003975D03*
X049180Y004600D03*
X048680Y003975D03*
X048180Y004600D03*
X047180Y004600D03*
X047180Y004100D03*
X046180Y004100D03*
X046180Y004600D03*
X046180Y005100D03*
X047180Y005100D03*
X045180Y004600D03*
X044430Y004100D03*
X043180Y005100D03*
X042180Y005100D03*
X041180Y005100D03*
X040180Y005100D03*
X039180Y005100D03*
X038180Y005100D03*
X037180Y005100D03*
X036180Y005100D03*
X035180Y005100D03*
X034180Y005100D03*
X033180Y005100D03*
X032180Y005100D03*
X031180Y005100D03*
X030180Y005100D03*
X029180Y005100D03*
X028180Y005100D03*
X027180Y005100D03*
X026180Y005100D03*
X025180Y005100D03*
X024180Y005100D03*
X023180Y005100D03*
X022180Y005100D03*
X021180Y005100D03*
X020180Y005100D03*
X019180Y005100D03*
X018180Y005100D03*
X017180Y005100D03*
X016180Y005100D03*
X015180Y005100D03*
X014180Y005100D03*
X013180Y005100D03*
X012180Y005100D03*
X011180Y005100D03*
X010180Y005100D03*
X009180Y005100D03*
X008180Y005100D03*
X007180Y005100D03*
X006180Y005100D03*
X005180Y005100D03*
X005180Y006100D03*
X004180Y006100D03*
X004180Y007100D03*
X005180Y007100D03*
X006180Y007100D03*
X007180Y007100D03*
X007180Y006100D03*
X006180Y006100D03*
X008180Y006100D03*
X009180Y006100D03*
X010180Y006100D03*
X011180Y006100D03*
X011180Y007100D03*
X010180Y007100D03*
X009180Y007100D03*
X008180Y007100D03*
X008180Y008100D03*
X009180Y008100D03*
X010180Y008100D03*
X011180Y008100D03*
X012180Y008100D03*
X013180Y008100D03*
X014180Y008100D03*
X015180Y008100D03*
X015180Y007100D03*
X014180Y007100D03*
X013180Y007100D03*
X012180Y007100D03*
X012180Y006100D03*
X013180Y006100D03*
X014180Y006100D03*
X015180Y006100D03*
X016180Y006100D03*
X017180Y006100D03*
X018180Y006100D03*
X019180Y006100D03*
X019180Y007100D03*
X018180Y007100D03*
X017180Y007100D03*
X016180Y007100D03*
X016180Y008100D03*
X017180Y008100D03*
X018180Y008100D03*
X019180Y008100D03*
X020180Y008100D03*
X021180Y008100D03*
X022180Y008100D03*
X023180Y008100D03*
X023180Y007100D03*
X022180Y007100D03*
X021180Y007100D03*
X020180Y007100D03*
X020180Y006100D03*
X021180Y006100D03*
X022180Y006100D03*
X023180Y006100D03*
X024180Y006100D03*
X025180Y006100D03*
X026180Y006100D03*
X027180Y006100D03*
X027180Y007100D03*
X026180Y007100D03*
X025180Y007100D03*
X024180Y007100D03*
X024180Y008100D03*
X025180Y008100D03*
X026180Y008100D03*
X027180Y008100D03*
X028180Y008100D03*
X029180Y008100D03*
X030180Y008100D03*
X031180Y008100D03*
X031180Y007100D03*
X030180Y007100D03*
X029180Y007100D03*
X028180Y007100D03*
X028180Y006100D03*
X029180Y006100D03*
X030180Y006100D03*
X031180Y006100D03*
X032180Y006100D03*
X033180Y006100D03*
X034180Y006100D03*
X035180Y006100D03*
X035180Y007100D03*
X034180Y007100D03*
X033180Y007100D03*
X032180Y007100D03*
X032180Y008100D03*
X033180Y008100D03*
X034180Y008100D03*
X035180Y008100D03*
X036180Y008100D03*
X037180Y008100D03*
X038180Y008100D03*
X039180Y008100D03*
X039180Y007100D03*
X038180Y007100D03*
X037180Y007100D03*
X036180Y007100D03*
X036180Y006100D03*
X037180Y006100D03*
X038180Y006100D03*
X039180Y006100D03*
X040180Y006100D03*
X041180Y006100D03*
X042180Y006100D03*
X043180Y006100D03*
X043180Y007100D03*
X042180Y007100D03*
X041180Y007100D03*
X040180Y007100D03*
X040180Y008100D03*
X041180Y008100D03*
X042180Y008100D03*
X043180Y008100D03*
X044180Y008100D03*
X044180Y007100D03*
X045180Y007100D03*
X046180Y007100D03*
X047180Y007100D03*
X048180Y007100D03*
X048180Y008100D03*
X047180Y008100D03*
X046180Y008100D03*
X045180Y008100D03*
X045180Y009100D03*
X046180Y009100D03*
X047180Y009100D03*
X048180Y009100D03*
X048180Y010100D03*
X047180Y010100D03*
X046180Y010100D03*
X045180Y010100D03*
X045180Y011100D03*
X046180Y011100D03*
X047180Y011100D03*
X048180Y011100D03*
X048180Y012100D03*
X047180Y012100D03*
X046180Y012100D03*
X045180Y012100D03*
X044180Y012100D03*
X043180Y012100D03*
X042180Y012100D03*
X041180Y012100D03*
X040180Y012100D03*
X040180Y011100D03*
X041180Y011100D03*
X042180Y011100D03*
X043180Y011100D03*
X044180Y011100D03*
X044180Y010100D03*
X043180Y010100D03*
X042180Y010100D03*
X041180Y010100D03*
X040180Y010100D03*
X040180Y009100D03*
X041180Y009100D03*
X042180Y009100D03*
X043180Y009100D03*
X044180Y009100D03*
X039180Y009100D03*
X038180Y009100D03*
X037180Y009100D03*
X036180Y009100D03*
X036180Y010100D03*
X037180Y010100D03*
X038180Y010100D03*
X039180Y010100D03*
X039180Y011100D03*
X038180Y011100D03*
X037180Y011100D03*
X036180Y011100D03*
X036180Y012100D03*
X037180Y012100D03*
X038180Y012100D03*
X039180Y012100D03*
X039180Y013100D03*
X038180Y013100D03*
X037180Y013100D03*
X036180Y013100D03*
X036180Y014100D03*
X037180Y014100D03*
X038180Y014100D03*
X039180Y014100D03*
X039180Y015100D03*
X038180Y015100D03*
X037180Y015100D03*
X036180Y015100D03*
X035180Y015100D03*
X034180Y015100D03*
X033180Y015100D03*
X032180Y015100D03*
X032180Y014100D03*
X033180Y014100D03*
X034180Y014100D03*
X035180Y014100D03*
X035180Y013100D03*
X034180Y013100D03*
X033180Y013100D03*
X032180Y013100D03*
X031180Y013100D03*
X030180Y013100D03*
X029180Y013100D03*
X028180Y013100D03*
X028180Y014100D03*
X029180Y014100D03*
X030180Y014100D03*
X031180Y014100D03*
X031180Y015100D03*
X030180Y015100D03*
X029180Y015100D03*
X028180Y015100D03*
X027180Y015100D03*
X026180Y015100D03*
X025180Y015100D03*
X024180Y015100D03*
X024180Y014100D03*
X025180Y014100D03*
X026180Y014100D03*
X027180Y014100D03*
X027180Y013100D03*
X026180Y013100D03*
X025180Y013100D03*
X024180Y013100D03*
X023180Y013100D03*
X022180Y013100D03*
X021180Y013100D03*
X020180Y013100D03*
X020180Y014100D03*
X021180Y014100D03*
X022180Y014100D03*
X023180Y014100D03*
X023180Y015100D03*
X022180Y015100D03*
X021180Y015100D03*
X020180Y015100D03*
X019180Y015100D03*
X018180Y015100D03*
X017180Y015100D03*
X016180Y015100D03*
X016180Y014100D03*
X017180Y014100D03*
X018180Y014100D03*
X019180Y014100D03*
X019180Y013100D03*
X018180Y013100D03*
X017180Y013100D03*
X016180Y013100D03*
X015180Y013100D03*
X014180Y013100D03*
X013180Y013100D03*
X012180Y013100D03*
X012180Y014100D03*
X013180Y014100D03*
X014180Y014100D03*
X015180Y014100D03*
X015180Y015100D03*
X014180Y015100D03*
X013180Y015100D03*
X012180Y015100D03*
X011180Y015100D03*
X010180Y015100D03*
X009180Y015100D03*
X008180Y015100D03*
X008180Y014100D03*
X009180Y014100D03*
X010180Y014100D03*
X011180Y014100D03*
X011180Y013100D03*
X010180Y013100D03*
X009180Y013100D03*
X008180Y013100D03*
X007180Y013100D03*
X006180Y013100D03*
X005180Y013100D03*
X004180Y013100D03*
X004180Y014100D03*
X005180Y014100D03*
X006180Y014100D03*
X007180Y014100D03*
X007180Y015100D03*
X006180Y015100D03*
X005180Y015100D03*
X004180Y015100D03*
X003180Y015100D03*
X002180Y015100D03*
X002180Y014100D03*
X003180Y014100D03*
X003180Y013100D03*
X002180Y013100D03*
X002180Y012100D03*
X003180Y012100D03*
X003180Y011100D03*
X002180Y011100D03*
X002180Y010100D03*
X003180Y010100D03*
X003180Y009100D03*
X002180Y009100D03*
X002180Y008100D03*
X003180Y008100D03*
X003180Y007100D03*
X004180Y008100D03*
X005180Y008100D03*
X006180Y008100D03*
X007180Y008100D03*
X007180Y009100D03*
X006180Y009100D03*
X005180Y009100D03*
X004180Y009100D03*
X004180Y010100D03*
X005180Y010100D03*
X006180Y010100D03*
X007180Y010100D03*
X007180Y011100D03*
X006180Y011100D03*
X005180Y011100D03*
X004180Y011100D03*
X004180Y012100D03*
X005180Y012100D03*
X006180Y012100D03*
X007180Y012100D03*
X008180Y012100D03*
X009180Y012100D03*
X010180Y012100D03*
X011180Y012100D03*
X011180Y011100D03*
X010180Y011100D03*
X009180Y011100D03*
X008180Y011100D03*
X008180Y010100D03*
X009180Y010100D03*
X010180Y010100D03*
X011180Y010100D03*
X011180Y009100D03*
X010180Y009100D03*
X009180Y009100D03*
X008180Y009100D03*
X012180Y009100D03*
X013180Y009100D03*
X014180Y009100D03*
X015180Y009100D03*
X015180Y010100D03*
X014180Y010100D03*
X013180Y010100D03*
X012180Y010100D03*
X012180Y011100D03*
X013180Y011100D03*
X014180Y011100D03*
X015180Y011100D03*
X015180Y012100D03*
X014180Y012100D03*
X013180Y012100D03*
X012180Y012100D03*
X016180Y012100D03*
X017180Y012100D03*
X018180Y012100D03*
X019180Y012100D03*
X019180Y011100D03*
X018180Y011100D03*
X017180Y011100D03*
X016180Y011100D03*
X016180Y010100D03*
X017180Y010100D03*
X018180Y010100D03*
X019180Y010100D03*
X019180Y009100D03*
X018180Y009100D03*
X017180Y009100D03*
X016180Y009100D03*
X020180Y009100D03*
X021180Y009100D03*
X022180Y009100D03*
X023180Y009100D03*
X023180Y010100D03*
X022180Y010100D03*
X021180Y010100D03*
X020180Y010100D03*
X020180Y011100D03*
X021180Y011100D03*
X022180Y011100D03*
X023180Y011100D03*
X023180Y012100D03*
X022180Y012100D03*
X021180Y012100D03*
X020180Y012100D03*
X024180Y012100D03*
X025180Y012100D03*
X026180Y012100D03*
X027180Y012100D03*
X027180Y011100D03*
X026180Y011100D03*
X025180Y011100D03*
X024180Y011100D03*
X024180Y010100D03*
X025180Y010100D03*
X026180Y010100D03*
X027180Y010100D03*
X027180Y009100D03*
X026180Y009100D03*
X025180Y009100D03*
X024180Y009100D03*
X028180Y009100D03*
X029180Y009100D03*
X030180Y009100D03*
X031180Y009100D03*
X031180Y010100D03*
X030180Y010100D03*
X029180Y010100D03*
X028180Y010100D03*
X028180Y011100D03*
X029180Y011100D03*
X030180Y011100D03*
X031180Y011100D03*
X031180Y012100D03*
X030180Y012100D03*
X029180Y012100D03*
X028180Y012100D03*
X032180Y012100D03*
X033180Y012100D03*
X034180Y012100D03*
X035180Y012100D03*
X035180Y011100D03*
X034180Y011100D03*
X033180Y011100D03*
X032180Y011100D03*
X032180Y010100D03*
X033180Y010100D03*
X034180Y010100D03*
X035180Y010100D03*
X035180Y009100D03*
X034180Y009100D03*
X033180Y009100D03*
X032180Y009100D03*
X040180Y013100D03*
X041180Y013100D03*
X042180Y013100D03*
X043180Y013100D03*
X044180Y013100D03*
X044180Y014100D03*
X043180Y014100D03*
X042180Y014100D03*
X041180Y014100D03*
X040180Y014100D03*
X040180Y015100D03*
X041180Y015100D03*
X042180Y015100D03*
X043180Y015100D03*
X044180Y015100D03*
X045180Y015100D03*
X046180Y015100D03*
X047180Y015100D03*
X048180Y015100D03*
X048180Y014100D03*
X047180Y014100D03*
X046180Y014100D03*
X045180Y014100D03*
X045180Y013100D03*
X046180Y013100D03*
X047180Y013100D03*
X048180Y013100D03*
X049180Y013100D03*
X050180Y013100D03*
X051180Y013100D03*
X052180Y013100D03*
X052180Y014100D03*
X051180Y014100D03*
X050180Y014100D03*
X049180Y014100D03*
X049180Y015100D03*
X050180Y015100D03*
X051180Y015100D03*
X052180Y015100D03*
X053180Y015100D03*
X054180Y015100D03*
X055180Y015100D03*
X056180Y015100D03*
X056180Y014100D03*
X055180Y014100D03*
X054180Y014100D03*
X053180Y014100D03*
X053180Y013100D03*
X054180Y013100D03*
X055180Y013100D03*
X056180Y013100D03*
X057180Y013100D03*
X058180Y013100D03*
X059180Y013100D03*
X060180Y013100D03*
X060180Y014100D03*
X059180Y014100D03*
X058180Y014100D03*
X057180Y014100D03*
X057180Y015100D03*
X058180Y015100D03*
X059180Y015100D03*
X060180Y015100D03*
X061180Y015100D03*
X062180Y015100D03*
X063180Y015100D03*
X064180Y015100D03*
X064180Y014100D03*
X063180Y014100D03*
X062180Y014100D03*
X061180Y014100D03*
X061180Y013100D03*
X062180Y013100D03*
X063180Y013100D03*
X064180Y013100D03*
X065180Y013100D03*
X066180Y013100D03*
X067180Y013100D03*
X068180Y013100D03*
X068180Y014100D03*
X067180Y014100D03*
X066180Y014100D03*
X065180Y014100D03*
X065180Y015100D03*
X066180Y015100D03*
X067180Y015100D03*
X068180Y015100D03*
X069180Y015100D03*
X070180Y015100D03*
X071180Y015100D03*
X072180Y015100D03*
X072180Y014100D03*
X071180Y014100D03*
X070180Y014100D03*
X069180Y014100D03*
X069180Y013100D03*
X070180Y013100D03*
X071180Y013100D03*
X072180Y013100D03*
X073180Y013100D03*
X074180Y013100D03*
X075180Y013100D03*
X076180Y013100D03*
X076180Y014100D03*
X075180Y014100D03*
X074180Y014100D03*
X073180Y014100D03*
X073180Y015100D03*
X074180Y015100D03*
X075180Y015100D03*
X076180Y015100D03*
X077180Y015100D03*
X078180Y015100D03*
X078180Y014100D03*
X077180Y014100D03*
X077180Y013100D03*
X078180Y013100D03*
X078180Y012100D03*
X077180Y012100D03*
X077180Y011100D03*
X078180Y011100D03*
X078180Y010100D03*
X077180Y010100D03*
X077180Y009100D03*
X078180Y009100D03*
X078180Y008100D03*
X077180Y008100D03*
X077180Y007100D03*
X076180Y007100D03*
X075180Y007100D03*
X074180Y007100D03*
X073180Y007100D03*
X073180Y008100D03*
X074180Y008100D03*
X075180Y008100D03*
X076180Y008100D03*
X076180Y009100D03*
X075180Y009100D03*
X074180Y009100D03*
X073180Y009100D03*
X073180Y010100D03*
X074180Y010100D03*
X075180Y010100D03*
X076180Y010100D03*
X076180Y011100D03*
X075180Y011100D03*
X074180Y011100D03*
X073180Y011100D03*
X073180Y012100D03*
X074180Y012100D03*
X075180Y012100D03*
X076180Y012100D03*
X072180Y012100D03*
X071180Y012100D03*
X070180Y012100D03*
X069180Y012100D03*
X069180Y011100D03*
X070180Y011100D03*
X071180Y011100D03*
X072180Y011100D03*
X072180Y010100D03*
X071180Y010100D03*
X070180Y010100D03*
X069180Y010100D03*
X069180Y009100D03*
X070180Y009100D03*
X071180Y009100D03*
X072180Y009100D03*
X072180Y008100D03*
X071180Y008100D03*
X070180Y008100D03*
X069180Y008100D03*
X069180Y007100D03*
X070180Y007100D03*
X071180Y007100D03*
X072180Y007100D03*
X068180Y007100D03*
X067180Y007100D03*
X066180Y007100D03*
X065180Y007100D03*
X065180Y008100D03*
X066180Y008100D03*
X067180Y008100D03*
X068180Y008100D03*
X068180Y009100D03*
X067180Y009100D03*
X066180Y009100D03*
X065180Y009100D03*
X065180Y010100D03*
X066180Y010100D03*
X067180Y010100D03*
X068180Y010100D03*
X068180Y011100D03*
X067180Y011100D03*
X066180Y011100D03*
X065180Y011100D03*
X065180Y012100D03*
X066180Y012100D03*
X067180Y012100D03*
X068180Y012100D03*
X064180Y012100D03*
X063180Y012100D03*
X062180Y012100D03*
X061180Y012100D03*
X061180Y011100D03*
X062180Y011100D03*
X063180Y011100D03*
X064180Y011100D03*
X064180Y010100D03*
X063180Y010100D03*
X062180Y010100D03*
X061180Y010100D03*
X061180Y009100D03*
X062180Y009100D03*
X063180Y009100D03*
X064180Y009100D03*
X064180Y008100D03*
X063180Y008100D03*
X062180Y008100D03*
X061180Y008100D03*
X061180Y007100D03*
X062180Y007100D03*
X063180Y007100D03*
X064180Y007100D03*
X060180Y007100D03*
X059180Y007100D03*
X058180Y007100D03*
X057180Y007100D03*
X057180Y008100D03*
X058180Y008100D03*
X059180Y008100D03*
X060180Y008100D03*
X060180Y009100D03*
X059180Y009100D03*
X058180Y009100D03*
X057180Y009100D03*
X057180Y010100D03*
X058180Y010100D03*
X059180Y010100D03*
X060180Y010100D03*
X060180Y011100D03*
X059180Y011100D03*
X058180Y011100D03*
X057180Y011100D03*
X057180Y012100D03*
X058180Y012100D03*
X059180Y012100D03*
X060180Y012100D03*
X056180Y012100D03*
X055180Y012100D03*
X054180Y012100D03*
X053180Y012100D03*
X053180Y011100D03*
X054180Y011100D03*
X055180Y011100D03*
X056180Y011100D03*
X056180Y010100D03*
X055180Y010100D03*
X054180Y010100D03*
X053180Y010100D03*
X053180Y009100D03*
X054180Y009100D03*
X055180Y009100D03*
X056180Y009100D03*
X056180Y008100D03*
X055180Y008100D03*
X054180Y008100D03*
X053180Y008100D03*
X053180Y007100D03*
X054180Y007100D03*
X055180Y007100D03*
X056180Y007100D03*
X052180Y007100D03*
X051180Y007100D03*
X050180Y007100D03*
X049180Y007100D03*
X049180Y008100D03*
X050180Y008100D03*
X051180Y008100D03*
X052180Y008100D03*
X052180Y009100D03*
X051180Y009100D03*
X050180Y009100D03*
X049180Y009100D03*
X049180Y010100D03*
X050180Y010100D03*
X051180Y010100D03*
X052180Y010100D03*
X052180Y011100D03*
X051180Y011100D03*
X050180Y011100D03*
X049180Y011100D03*
X049180Y012100D03*
X050180Y012100D03*
X051180Y012100D03*
X052180Y012100D03*
X052180Y016100D03*
X051180Y016100D03*
X050180Y016100D03*
X049180Y016100D03*
X049180Y017100D03*
X050180Y017100D03*
X051180Y017100D03*
X052180Y017100D03*
X052180Y018100D03*
X051180Y018100D03*
X050180Y018100D03*
X049180Y018100D03*
X048180Y018100D03*
X047180Y018100D03*
X046180Y018100D03*
X045180Y018100D03*
X045180Y017100D03*
X046180Y017100D03*
X047180Y017100D03*
X048180Y017100D03*
X048180Y016100D03*
X047180Y016100D03*
X046180Y016100D03*
X045180Y016100D03*
X044180Y016100D03*
X043180Y016100D03*
X042180Y016100D03*
X041180Y016100D03*
X040180Y016100D03*
X040180Y017100D03*
X041180Y017100D03*
X042180Y017100D03*
X043180Y017100D03*
X044180Y017100D03*
X044180Y018100D03*
X043180Y018100D03*
X042180Y018100D03*
X041180Y018100D03*
X040180Y018100D03*
X039180Y018100D03*
X038180Y018100D03*
X037180Y018100D03*
X036180Y018100D03*
X036180Y017100D03*
X037180Y017100D03*
X038180Y017100D03*
X039180Y017100D03*
X039180Y016100D03*
X038180Y016100D03*
X037180Y016100D03*
X036180Y016100D03*
X035180Y016100D03*
X034180Y016100D03*
X033180Y016100D03*
X032180Y016100D03*
X032180Y017100D03*
X033180Y017100D03*
X034180Y017100D03*
X035180Y017100D03*
X035180Y018100D03*
X034180Y018100D03*
X033180Y018100D03*
X032180Y018100D03*
X031180Y018100D03*
X030180Y018100D03*
X029180Y018100D03*
X028180Y018100D03*
X028180Y017100D03*
X029180Y017100D03*
X030180Y017100D03*
X031180Y017100D03*
X031180Y016100D03*
X030180Y016100D03*
X029180Y016100D03*
X028180Y016100D03*
X027180Y016100D03*
X026180Y016100D03*
X025180Y016100D03*
X024180Y016100D03*
X024180Y017100D03*
X025180Y017100D03*
X026180Y017100D03*
X027180Y017100D03*
X027180Y018100D03*
X026180Y018100D03*
X025180Y018100D03*
X024180Y018100D03*
X023180Y018100D03*
X022180Y018100D03*
X021180Y018100D03*
X020180Y018100D03*
X020180Y017100D03*
X021180Y017100D03*
X022180Y017100D03*
X023180Y017100D03*
X023180Y016100D03*
X022180Y016100D03*
X021180Y016100D03*
X020180Y016100D03*
X019180Y016100D03*
X018180Y016100D03*
X017180Y016100D03*
X016180Y016100D03*
X016180Y017100D03*
X017180Y017100D03*
X018180Y017100D03*
X019180Y017100D03*
X019180Y018100D03*
X018180Y018100D03*
X017180Y018100D03*
X016180Y018100D03*
X015180Y018100D03*
X014180Y018100D03*
X013180Y018100D03*
X012180Y018100D03*
X012180Y017100D03*
X013180Y017100D03*
X014180Y017100D03*
X015180Y017100D03*
X015180Y016100D03*
X014180Y016100D03*
X013180Y016100D03*
X012180Y016100D03*
X011180Y016100D03*
X010180Y016100D03*
X009180Y016100D03*
X008180Y016100D03*
X008180Y017100D03*
X009180Y017100D03*
X010180Y017100D03*
X011180Y017100D03*
X011180Y018100D03*
X010180Y018100D03*
X009180Y018100D03*
X008180Y018100D03*
X007180Y018100D03*
X006180Y018100D03*
X005180Y018100D03*
X004180Y018100D03*
X004180Y017100D03*
X005180Y017100D03*
X006180Y017100D03*
X007180Y017100D03*
X007180Y016100D03*
X006180Y016100D03*
X005180Y016100D03*
X004180Y016100D03*
X003180Y016100D03*
X002180Y016100D03*
X002180Y017100D03*
X003180Y017100D03*
X003180Y018100D03*
X002180Y018100D03*
X002180Y019100D03*
X003180Y019100D03*
X003180Y020100D03*
X002180Y020100D03*
X002180Y021100D03*
X003180Y021100D03*
X004180Y021100D03*
X005180Y021100D03*
X006180Y021100D03*
X007180Y021100D03*
X007180Y020100D03*
X006180Y020100D03*
X005180Y020100D03*
X004180Y020100D03*
X004180Y019100D03*
X005180Y019100D03*
X006180Y019100D03*
X007180Y019100D03*
X008180Y019100D03*
X009180Y019100D03*
X010180Y019100D03*
X011180Y019100D03*
X011180Y020100D03*
X010180Y020100D03*
X009180Y020100D03*
X008180Y020100D03*
X008180Y021100D03*
X009180Y021100D03*
X010180Y021100D03*
X011180Y021100D03*
X012180Y021100D03*
X013180Y021100D03*
X014180Y021100D03*
X015180Y021100D03*
X015180Y020100D03*
X014180Y020100D03*
X013180Y020100D03*
X012180Y020100D03*
X012180Y019100D03*
X013180Y019100D03*
X014180Y019100D03*
X015180Y019100D03*
X016180Y019100D03*
X017180Y019100D03*
X018180Y019100D03*
X019180Y019100D03*
X019180Y020100D03*
X018180Y020100D03*
X017180Y020100D03*
X016180Y020100D03*
X016180Y021100D03*
X017180Y021100D03*
X018180Y021100D03*
X019180Y021100D03*
X020180Y021100D03*
X021180Y021100D03*
X022180Y021100D03*
X023180Y021100D03*
X023180Y020100D03*
X022180Y020100D03*
X021180Y020100D03*
X020180Y020100D03*
X020180Y019100D03*
X021180Y019100D03*
X022180Y019100D03*
X023180Y019100D03*
X024180Y019100D03*
X025180Y019100D03*
X026180Y019100D03*
X027180Y019100D03*
X027180Y020100D03*
X026180Y020100D03*
X025180Y020100D03*
X024180Y020100D03*
X024180Y021100D03*
X025180Y021100D03*
X026180Y021100D03*
X027180Y021100D03*
X028180Y021100D03*
X029180Y021100D03*
X030180Y021100D03*
X031180Y021100D03*
X031180Y020100D03*
X030180Y020100D03*
X029180Y020100D03*
X028180Y020100D03*
X028180Y019100D03*
X029180Y019100D03*
X030180Y019100D03*
X031180Y019100D03*
X032180Y019100D03*
X033180Y019100D03*
X034180Y019100D03*
X035180Y019100D03*
X035180Y020100D03*
X034180Y020100D03*
X033180Y020100D03*
X032180Y020100D03*
X032180Y021100D03*
X033180Y021100D03*
X034180Y021100D03*
X035180Y021100D03*
X036180Y021100D03*
X037180Y021100D03*
X038180Y021100D03*
X039180Y021100D03*
X039180Y020100D03*
X038180Y020100D03*
X037180Y020100D03*
X036180Y020100D03*
X036180Y019100D03*
X037180Y019100D03*
X038180Y019100D03*
X039180Y019100D03*
X040180Y019100D03*
X041180Y019100D03*
X042180Y019100D03*
X043180Y019100D03*
X044180Y019100D03*
X044180Y020100D03*
X043180Y020100D03*
X042180Y020100D03*
X041180Y020100D03*
X040180Y020100D03*
X040180Y021100D03*
X041180Y021100D03*
X042180Y021100D03*
X043180Y021100D03*
X044180Y021100D03*
X045180Y021100D03*
X046180Y021100D03*
X047180Y021100D03*
X048180Y021100D03*
X048180Y020100D03*
X047180Y020100D03*
X046180Y020100D03*
X045180Y020100D03*
X045180Y019100D03*
X046180Y019100D03*
X047180Y019100D03*
X048180Y019100D03*
X049180Y019100D03*
X050180Y019100D03*
X051180Y019100D03*
X052180Y019100D03*
X052180Y020100D03*
X051180Y020100D03*
X050180Y020100D03*
X049180Y020100D03*
X049180Y021100D03*
X050180Y021100D03*
X051180Y021100D03*
X052180Y021100D03*
X053180Y021100D03*
X054180Y021100D03*
X055180Y021100D03*
X056180Y021100D03*
X056180Y020100D03*
X055180Y020100D03*
X054180Y020100D03*
X053180Y020100D03*
X053180Y019100D03*
X054180Y019100D03*
X055180Y019100D03*
X056180Y019100D03*
X057180Y019100D03*
X058180Y019100D03*
X059180Y019100D03*
X060180Y019100D03*
X060180Y020100D03*
X059180Y020100D03*
X058180Y020100D03*
X057180Y020100D03*
X057180Y021100D03*
X058180Y021100D03*
X059180Y021100D03*
X060180Y021100D03*
X061180Y021100D03*
X062180Y021100D03*
X063180Y021100D03*
X064180Y021100D03*
X064180Y020100D03*
X063180Y020100D03*
X062180Y020100D03*
X061180Y020100D03*
X061180Y019100D03*
X062180Y019100D03*
X063180Y019100D03*
X064180Y019100D03*
X065180Y019100D03*
X066180Y019100D03*
X067180Y019100D03*
X068180Y019100D03*
X068180Y020100D03*
X067180Y020100D03*
X066180Y020100D03*
X065180Y020100D03*
X065180Y021100D03*
X066180Y021100D03*
X067180Y021100D03*
X068180Y021100D03*
X069180Y021100D03*
X070180Y021100D03*
X071180Y021100D03*
X072180Y021100D03*
X072180Y020100D03*
X071180Y020100D03*
X070180Y020100D03*
X069180Y020100D03*
X069180Y019100D03*
X070180Y019100D03*
X071180Y019100D03*
X072180Y019100D03*
X073180Y019100D03*
X074180Y019100D03*
X075180Y019100D03*
X076180Y019100D03*
X076180Y020100D03*
X075180Y020100D03*
X074180Y020100D03*
X073180Y020100D03*
X073180Y021100D03*
X074180Y021100D03*
X075180Y021100D03*
X076180Y021100D03*
X077180Y021100D03*
X078180Y021100D03*
X078180Y020100D03*
X077180Y020100D03*
X077180Y019100D03*
X078180Y019100D03*
X078180Y018100D03*
X077180Y018100D03*
X077180Y017100D03*
X078180Y017100D03*
X078180Y016100D03*
X077180Y016100D03*
X076180Y016100D03*
X075180Y016100D03*
X074180Y016100D03*
X073180Y016100D03*
X073180Y017100D03*
X074180Y017100D03*
X075180Y017100D03*
X076180Y017100D03*
X076180Y018100D03*
X075180Y018100D03*
X074180Y018100D03*
X073180Y018100D03*
X072180Y018100D03*
X071180Y018100D03*
X070180Y018100D03*
X069180Y018100D03*
X069180Y017100D03*
X070180Y017100D03*
X071180Y017100D03*
X072180Y017100D03*
X072180Y016100D03*
X071180Y016100D03*
X070180Y016100D03*
X069180Y016100D03*
X068180Y016100D03*
X067180Y016100D03*
X066180Y016100D03*
X065180Y016100D03*
X065180Y017100D03*
X066180Y017100D03*
X067180Y017100D03*
X068180Y017100D03*
X068180Y018100D03*
X067180Y018100D03*
X066180Y018100D03*
X065180Y018100D03*
X064180Y018100D03*
X063180Y018100D03*
X062180Y018100D03*
X061180Y018100D03*
X061180Y017100D03*
X062180Y017100D03*
X063180Y017100D03*
X064180Y017100D03*
X064180Y016100D03*
X063180Y016100D03*
X062180Y016100D03*
X061180Y016100D03*
X060180Y016100D03*
X059180Y016100D03*
X058180Y016100D03*
X057180Y016100D03*
X057180Y017100D03*
X058180Y017100D03*
X059180Y017100D03*
X060180Y017100D03*
X060180Y018100D03*
X059180Y018100D03*
X058180Y018100D03*
X057180Y018100D03*
X056180Y018100D03*
X055180Y018100D03*
X054180Y018100D03*
X053180Y018100D03*
X053180Y017100D03*
X054180Y017100D03*
X055180Y017100D03*
X056180Y017100D03*
X056180Y016100D03*
X055180Y016100D03*
X054180Y016100D03*
X053180Y016100D03*
X053180Y022100D03*
X054180Y022100D03*
X055180Y022100D03*
X056180Y022100D03*
X056180Y023100D03*
X055180Y023100D03*
X054180Y023100D03*
X053180Y023100D03*
X053180Y024100D03*
X054180Y024100D03*
X055180Y024100D03*
X056180Y024100D03*
X056180Y025100D03*
X055180Y025100D03*
X054180Y025100D03*
X053180Y025100D03*
X052180Y025100D03*
X051180Y025100D03*
X050180Y025100D03*
X049180Y025100D03*
X049180Y024100D03*
X050180Y024100D03*
X051180Y024100D03*
X052180Y024100D03*
X052180Y023100D03*
X051180Y023100D03*
X050180Y023100D03*
X049180Y023100D03*
X049180Y022100D03*
X050180Y022100D03*
X051180Y022100D03*
X052180Y022100D03*
X048180Y022100D03*
X047180Y022100D03*
X046180Y022100D03*
X045180Y022100D03*
X045180Y023100D03*
X046180Y023100D03*
X047180Y023100D03*
X048180Y023100D03*
X048180Y024100D03*
X047180Y024100D03*
X046180Y024100D03*
X045180Y024100D03*
X045180Y025100D03*
X046180Y025100D03*
X047180Y025100D03*
X048180Y025100D03*
X048180Y026100D03*
X047180Y026100D03*
X046180Y026100D03*
X045180Y026100D03*
X045180Y027100D03*
X046180Y027100D03*
X047180Y027100D03*
X048180Y027100D03*
X048180Y028100D03*
X047180Y028100D03*
X046180Y028100D03*
X045180Y028100D03*
X044180Y028100D03*
X043180Y028100D03*
X042180Y028100D03*
X041180Y028100D03*
X040180Y028100D03*
X040180Y027100D03*
X041180Y027100D03*
X042180Y027100D03*
X043180Y027100D03*
X044180Y027100D03*
X044180Y026100D03*
X043180Y026100D03*
X042180Y026100D03*
X041180Y026100D03*
X040180Y026100D03*
X039180Y026100D03*
X038180Y026100D03*
X037180Y026100D03*
X036180Y026100D03*
X036180Y027100D03*
X037180Y027100D03*
X038180Y027100D03*
X039180Y027100D03*
X039180Y028100D03*
X038180Y028100D03*
X037180Y028100D03*
X036180Y028100D03*
X035180Y028100D03*
X034180Y028100D03*
X033180Y028100D03*
X032180Y028100D03*
X032180Y027100D03*
X033180Y027100D03*
X034180Y027100D03*
X035180Y027100D03*
X035180Y026100D03*
X034180Y026100D03*
X033180Y026100D03*
X032180Y026100D03*
X031180Y026100D03*
X030180Y026100D03*
X029180Y026100D03*
X028180Y026100D03*
X028180Y027100D03*
X029180Y027100D03*
X030180Y027100D03*
X031180Y027100D03*
X031180Y028100D03*
X030180Y028100D03*
X029180Y028100D03*
X028180Y028100D03*
X027180Y028100D03*
X026180Y028100D03*
X025180Y028100D03*
X024180Y028100D03*
X024180Y027100D03*
X025180Y027100D03*
X026180Y027100D03*
X027180Y027100D03*
X027180Y026100D03*
X026180Y026100D03*
X025180Y026100D03*
X024180Y026100D03*
X023180Y026100D03*
X022180Y026100D03*
X021180Y026100D03*
X020180Y026100D03*
X020180Y027100D03*
X021180Y027100D03*
X022180Y027100D03*
X023180Y027100D03*
X023180Y028100D03*
X022180Y028100D03*
X021180Y028100D03*
X020180Y028100D03*
X019180Y028100D03*
X018180Y028100D03*
X017180Y028100D03*
X016180Y028100D03*
X016180Y027100D03*
X017180Y027100D03*
X018180Y027100D03*
X019180Y027100D03*
X019180Y026100D03*
X018180Y026100D03*
X017180Y026100D03*
X016180Y026100D03*
X015180Y026100D03*
X014180Y026100D03*
X013180Y026100D03*
X012180Y026100D03*
X012180Y027100D03*
X013180Y027100D03*
X014180Y027100D03*
X015180Y027100D03*
X015180Y028100D03*
X014180Y028100D03*
X013180Y028100D03*
X012180Y028100D03*
X011180Y028100D03*
X010180Y028100D03*
X009180Y028100D03*
X008180Y028100D03*
X008180Y027100D03*
X009180Y027100D03*
X010180Y027100D03*
X011180Y027100D03*
X011180Y026100D03*
X010180Y026100D03*
X009180Y026100D03*
X008180Y026100D03*
X007180Y026100D03*
X006180Y026100D03*
X005180Y026100D03*
X004180Y026100D03*
X004180Y027100D03*
X005180Y027100D03*
X006180Y027100D03*
X007180Y027100D03*
X007180Y028100D03*
X006180Y028100D03*
X005180Y028100D03*
X004180Y028100D03*
X003180Y028100D03*
X002180Y028100D03*
X002180Y027100D03*
X003180Y027100D03*
X003180Y026100D03*
X002180Y026100D03*
X002180Y025100D03*
X003180Y025100D03*
X003180Y024100D03*
X002180Y024100D03*
X002180Y023100D03*
X003180Y023100D03*
X003180Y022100D03*
X002180Y022100D03*
X004180Y022100D03*
X005180Y022100D03*
X006180Y022100D03*
X007180Y022100D03*
X007180Y023100D03*
X006180Y023100D03*
X005180Y023100D03*
X004180Y023100D03*
X004180Y024100D03*
X005180Y024100D03*
X006180Y024100D03*
X007180Y024100D03*
X007180Y025100D03*
X006180Y025100D03*
X005180Y025100D03*
X004180Y025100D03*
X008180Y025100D03*
X009180Y025100D03*
X010180Y025100D03*
X011180Y025100D03*
X011180Y024100D03*
X010180Y024100D03*
X009180Y024100D03*
X008180Y024100D03*
X008180Y023100D03*
X009180Y023100D03*
X010180Y023100D03*
X011180Y023100D03*
X011180Y022100D03*
X010180Y022100D03*
X009180Y022100D03*
X008180Y022100D03*
X012180Y022100D03*
X013180Y022100D03*
X014180Y022100D03*
X015180Y022100D03*
X015180Y023100D03*
X014180Y023100D03*
X013180Y023100D03*
X012180Y023100D03*
X012180Y024100D03*
X013180Y024100D03*
X014180Y024100D03*
X015180Y024100D03*
X015180Y025100D03*
X014180Y025100D03*
X013180Y025100D03*
X012180Y025100D03*
X016180Y025100D03*
X017180Y025100D03*
X018180Y025100D03*
X019180Y025100D03*
X019180Y024100D03*
X018180Y024100D03*
X017180Y024100D03*
X016180Y024100D03*
X016180Y023100D03*
X017180Y023100D03*
X018180Y023100D03*
X019180Y023100D03*
X019180Y022100D03*
X018180Y022100D03*
X017180Y022100D03*
X016180Y022100D03*
X020180Y022100D03*
X021180Y022100D03*
X022180Y022100D03*
X023180Y022100D03*
X023180Y023100D03*
X022180Y023100D03*
X021180Y023100D03*
X020180Y023100D03*
X020180Y024100D03*
X021180Y024100D03*
X022180Y024100D03*
X023180Y024100D03*
X023180Y025100D03*
X022180Y025100D03*
X021180Y025100D03*
X020180Y025100D03*
X024180Y025100D03*
X025180Y025100D03*
X026180Y025100D03*
X027180Y025100D03*
X027180Y024100D03*
X026180Y024100D03*
X025180Y024100D03*
X024180Y024100D03*
X024180Y023100D03*
X025180Y023100D03*
X026180Y023100D03*
X027180Y023100D03*
X027180Y022100D03*
X026180Y022100D03*
X025180Y022100D03*
X024180Y022100D03*
X028180Y022100D03*
X029180Y022100D03*
X030180Y022100D03*
X031180Y022100D03*
X031180Y023100D03*
X030180Y023100D03*
X029180Y023100D03*
X028180Y023100D03*
X028180Y024100D03*
X029180Y024100D03*
X030180Y024100D03*
X031180Y024100D03*
X031180Y025100D03*
X030180Y025100D03*
X029180Y025100D03*
X028180Y025100D03*
X032180Y025100D03*
X033180Y025100D03*
X034180Y025100D03*
X035180Y025100D03*
X035180Y024100D03*
X034180Y024100D03*
X033180Y024100D03*
X032180Y024100D03*
X032180Y023100D03*
X033180Y023100D03*
X034180Y023100D03*
X035180Y023100D03*
X035180Y022100D03*
X034180Y022100D03*
X033180Y022100D03*
X032180Y022100D03*
X036180Y022100D03*
X037180Y022100D03*
X038180Y022100D03*
X039180Y022100D03*
X039180Y023100D03*
X038180Y023100D03*
X037180Y023100D03*
X036180Y023100D03*
X036180Y024100D03*
X037180Y024100D03*
X038180Y024100D03*
X039180Y024100D03*
X039180Y025100D03*
X038180Y025100D03*
X037180Y025100D03*
X036180Y025100D03*
X040180Y025100D03*
X041180Y025100D03*
X042180Y025100D03*
X043180Y025100D03*
X044180Y025100D03*
X044180Y024100D03*
X043180Y024100D03*
X042180Y024100D03*
X041180Y024100D03*
X040180Y024100D03*
X040180Y023100D03*
X041180Y023100D03*
X042180Y023100D03*
X043180Y023100D03*
X044180Y023100D03*
X044180Y022100D03*
X043180Y022100D03*
X042180Y022100D03*
X041180Y022100D03*
X040180Y022100D03*
X049180Y026100D03*
X050180Y026100D03*
X051180Y026100D03*
X052180Y026100D03*
X052180Y027100D03*
X051180Y027100D03*
X050180Y027100D03*
X049180Y027100D03*
X049180Y028100D03*
X050180Y028100D03*
X051180Y028100D03*
X052180Y028100D03*
X053180Y028100D03*
X054180Y028100D03*
X055180Y028100D03*
X056180Y028100D03*
X056180Y027100D03*
X055180Y027100D03*
X054180Y027100D03*
X053180Y027100D03*
X053180Y026100D03*
X054180Y026100D03*
X055180Y026100D03*
X056180Y026100D03*
X057180Y026100D03*
X058180Y026100D03*
X059180Y026100D03*
X060180Y026100D03*
X060180Y027100D03*
X059180Y027100D03*
X058180Y027100D03*
X057180Y027100D03*
X057180Y028100D03*
X058180Y028100D03*
X059180Y028100D03*
X060180Y028100D03*
X061180Y028100D03*
X062180Y028100D03*
X063180Y028100D03*
X064180Y028100D03*
X064180Y027100D03*
X063180Y027100D03*
X062180Y027100D03*
X061180Y027100D03*
X061180Y026100D03*
X062180Y026100D03*
X063180Y026100D03*
X064180Y026100D03*
X065180Y026100D03*
X066180Y026100D03*
X067180Y026100D03*
X068180Y026100D03*
X068180Y027100D03*
X067180Y027100D03*
X066180Y027100D03*
X065180Y027100D03*
X065180Y028100D03*
X066180Y028100D03*
X067180Y028100D03*
X068180Y028100D03*
X069180Y028100D03*
X070180Y028100D03*
X071180Y028100D03*
X072180Y028100D03*
X072180Y027100D03*
X071180Y027100D03*
X070180Y027100D03*
X069180Y027100D03*
X069180Y026100D03*
X070180Y026100D03*
X071180Y026100D03*
X072180Y026100D03*
X073180Y026100D03*
X074180Y026100D03*
X075180Y026100D03*
X076180Y026100D03*
X076180Y027100D03*
X075180Y027100D03*
X074180Y027100D03*
X073180Y027100D03*
X073180Y028100D03*
X074180Y028100D03*
X075180Y028100D03*
X076180Y028100D03*
X077180Y028100D03*
X078180Y028100D03*
X078180Y027100D03*
X077180Y027100D03*
X077180Y026100D03*
X078180Y026100D03*
X078180Y025100D03*
X077180Y025100D03*
X077180Y024100D03*
X078180Y024100D03*
X078180Y023100D03*
X077180Y023100D03*
X077180Y022100D03*
X078180Y022100D03*
X076180Y022100D03*
X075180Y022100D03*
X074180Y022100D03*
X073180Y022100D03*
X073180Y023100D03*
X074180Y023100D03*
X075180Y023100D03*
X076180Y023100D03*
X076180Y024100D03*
X075180Y024100D03*
X074180Y024100D03*
X073180Y024100D03*
X073180Y025100D03*
X074180Y025100D03*
X075180Y025100D03*
X076180Y025100D03*
X072180Y025100D03*
X071180Y025100D03*
X070180Y025100D03*
X069180Y025100D03*
X069180Y024100D03*
X070180Y024100D03*
X071180Y024100D03*
X072180Y024100D03*
X072180Y023100D03*
X071180Y023100D03*
X070180Y023100D03*
X069180Y023100D03*
X069180Y022100D03*
X070180Y022100D03*
X071180Y022100D03*
X072180Y022100D03*
X068180Y022100D03*
X067180Y022100D03*
X066180Y022100D03*
X065180Y022100D03*
X065180Y023100D03*
X066180Y023100D03*
X067180Y023100D03*
X068180Y023100D03*
X068180Y024100D03*
X067180Y024100D03*
X066180Y024100D03*
X065180Y024100D03*
X065180Y025100D03*
X066180Y025100D03*
X067180Y025100D03*
X068180Y025100D03*
X064180Y025100D03*
X063180Y025100D03*
X062180Y025100D03*
X061180Y025100D03*
X061180Y024100D03*
X062180Y024100D03*
X063180Y024100D03*
X064180Y024100D03*
X064180Y023100D03*
X063180Y023100D03*
X062180Y023100D03*
X061180Y023100D03*
X061180Y022100D03*
X062180Y022100D03*
X063180Y022100D03*
X064180Y022100D03*
X060180Y022100D03*
X059180Y022100D03*
X058180Y022100D03*
X057180Y022100D03*
X057180Y023100D03*
X058180Y023100D03*
X059180Y023100D03*
X060180Y023100D03*
X060180Y024100D03*
X059180Y024100D03*
X058180Y024100D03*
X057180Y024100D03*
X057180Y025100D03*
X058180Y025100D03*
X059180Y025100D03*
X060180Y025100D03*
X060180Y029100D03*
X059180Y029100D03*
X058180Y029100D03*
X057180Y029100D03*
X057180Y030100D03*
X058180Y030100D03*
X059180Y030100D03*
X060180Y030100D03*
X060180Y031100D03*
X059180Y031100D03*
X058180Y031100D03*
X057180Y031100D03*
X056180Y031100D03*
X055180Y031100D03*
X054180Y031100D03*
X053180Y031100D03*
X053180Y030100D03*
X054180Y030100D03*
X055180Y030100D03*
X056180Y030100D03*
X056180Y029100D03*
X055180Y029100D03*
X054180Y029100D03*
X053180Y029100D03*
X052180Y029100D03*
X051180Y029100D03*
X050180Y029100D03*
X049180Y029100D03*
X049180Y030100D03*
X050180Y030100D03*
X051180Y030100D03*
X052180Y030100D03*
X052180Y031100D03*
X051180Y031100D03*
X050180Y031100D03*
X049180Y031100D03*
X048180Y031100D03*
X047180Y031100D03*
X046180Y031100D03*
X045180Y031100D03*
X045180Y030100D03*
X046180Y030100D03*
X047180Y030100D03*
X048180Y030100D03*
X048180Y029100D03*
X047180Y029100D03*
X046180Y029100D03*
X045180Y029100D03*
X044180Y029100D03*
X043180Y029100D03*
X042180Y029100D03*
X041180Y029100D03*
X040180Y029100D03*
X040180Y030100D03*
X041180Y030100D03*
X042180Y030100D03*
X043180Y030100D03*
X044180Y030100D03*
X044180Y031100D03*
X043180Y031100D03*
X042180Y031100D03*
X041180Y031100D03*
X040180Y031100D03*
X039180Y031100D03*
X038180Y031100D03*
X037180Y031100D03*
X036180Y031100D03*
X036180Y030100D03*
X037180Y030100D03*
X038180Y030100D03*
X039180Y030100D03*
X039180Y029100D03*
X038180Y029100D03*
X037180Y029100D03*
X036180Y029100D03*
X035180Y029100D03*
X034180Y029100D03*
X033180Y029100D03*
X032180Y029100D03*
X032180Y030100D03*
X033180Y030100D03*
X034180Y030100D03*
X035180Y030100D03*
X035180Y031100D03*
X034180Y031100D03*
X033180Y031100D03*
X032180Y031100D03*
X031180Y031100D03*
X030180Y031100D03*
X029180Y031100D03*
X028180Y031100D03*
X028180Y030100D03*
X029180Y030100D03*
X030180Y030100D03*
X031180Y030100D03*
X031180Y029100D03*
X030180Y029100D03*
X029180Y029100D03*
X028180Y029100D03*
X027180Y029100D03*
X026180Y029100D03*
X025180Y029100D03*
X024180Y029100D03*
X024180Y030100D03*
X025180Y030100D03*
X026180Y030100D03*
X027180Y030100D03*
X027180Y031100D03*
X026180Y031100D03*
X025180Y031100D03*
X024180Y031100D03*
X023180Y031100D03*
X022180Y031100D03*
X021180Y031100D03*
X020180Y031100D03*
X020180Y030100D03*
X021180Y030100D03*
X022180Y030100D03*
X023180Y030100D03*
X023180Y029100D03*
X022180Y029100D03*
X021180Y029100D03*
X020180Y029100D03*
X019180Y029100D03*
X018180Y029100D03*
X017180Y029100D03*
X016180Y029100D03*
X016180Y030100D03*
X017180Y030100D03*
X018180Y030100D03*
X019180Y030100D03*
X019180Y031100D03*
X018180Y031100D03*
X017180Y031100D03*
X016180Y031100D03*
X015180Y031100D03*
X014180Y031100D03*
X013180Y031100D03*
X012180Y031100D03*
X012180Y030100D03*
X013180Y030100D03*
X014180Y030100D03*
X015180Y030100D03*
X015180Y029100D03*
X014180Y029100D03*
X013180Y029100D03*
X012180Y029100D03*
X011180Y029100D03*
X010180Y029100D03*
X009180Y029100D03*
X008180Y029100D03*
X008180Y030100D03*
X009180Y030100D03*
X010180Y030100D03*
X011180Y030100D03*
X011180Y031100D03*
X010180Y031100D03*
X009180Y031100D03*
X008180Y031100D03*
X007180Y031100D03*
X006180Y031100D03*
X005180Y031100D03*
X004180Y031100D03*
X004180Y030100D03*
X005180Y030100D03*
X006180Y030100D03*
X007180Y030100D03*
X007180Y029100D03*
X006180Y029100D03*
X005180Y029100D03*
X004180Y029100D03*
X003180Y029100D03*
X002180Y029100D03*
X002180Y030100D03*
X003180Y030100D03*
X003180Y031100D03*
X002180Y031100D03*
X002180Y032100D03*
X003180Y032100D03*
X003180Y033100D03*
X002180Y033100D03*
X002180Y034100D03*
X003180Y034100D03*
X004180Y034100D03*
X005180Y034100D03*
X006180Y034100D03*
X007180Y034100D03*
X007180Y033100D03*
X006180Y033100D03*
X005180Y033100D03*
X004180Y033100D03*
X004180Y032100D03*
X005180Y032100D03*
X006180Y032100D03*
X007180Y032100D03*
X008180Y032100D03*
X009180Y032100D03*
X010180Y032100D03*
X011180Y032100D03*
X011180Y033100D03*
X010180Y033100D03*
X009180Y033100D03*
X008180Y033100D03*
X008180Y034100D03*
X009180Y034100D03*
X010180Y034100D03*
X011180Y034100D03*
X012180Y034100D03*
X013180Y034100D03*
X014180Y034100D03*
X015180Y034100D03*
X015180Y033100D03*
X014180Y033100D03*
X013180Y033100D03*
X012180Y033100D03*
X012180Y032100D03*
X013180Y032100D03*
X014180Y032100D03*
X015180Y032100D03*
X016180Y032100D03*
X017180Y032100D03*
X018180Y032100D03*
X019180Y032100D03*
X019180Y033100D03*
X018180Y033100D03*
X017180Y033100D03*
X016180Y033100D03*
X016180Y034100D03*
X017180Y034100D03*
X018180Y034100D03*
X019180Y034100D03*
X020180Y034100D03*
X021180Y034100D03*
X022180Y034100D03*
X023180Y034100D03*
X023180Y033100D03*
X022180Y033100D03*
X021180Y033100D03*
X020180Y033100D03*
X020180Y032100D03*
X021180Y032100D03*
X022180Y032100D03*
X023180Y032100D03*
X024180Y032100D03*
X025180Y032100D03*
X026180Y032100D03*
X027180Y032100D03*
X027180Y033100D03*
X026180Y033100D03*
X025180Y033100D03*
X024180Y033100D03*
X024180Y034100D03*
X025180Y034100D03*
X026180Y034100D03*
X027180Y034100D03*
X028180Y034100D03*
X029180Y034100D03*
X030180Y034100D03*
X031180Y034100D03*
X031180Y033100D03*
X030180Y033100D03*
X029180Y033100D03*
X028180Y033100D03*
X028180Y032100D03*
X029180Y032100D03*
X030180Y032100D03*
X031180Y032100D03*
X032180Y032100D03*
X033180Y032100D03*
X034180Y032100D03*
X035180Y032100D03*
X035180Y033100D03*
X034180Y033100D03*
X033180Y033100D03*
X032180Y033100D03*
X032180Y034100D03*
X033180Y034100D03*
X034180Y034100D03*
X035180Y034100D03*
X036180Y034100D03*
X037180Y034100D03*
X038180Y034100D03*
X039180Y034100D03*
X039180Y033100D03*
X038180Y033100D03*
X037180Y033100D03*
X036180Y033100D03*
X036180Y032100D03*
X037180Y032100D03*
X038180Y032100D03*
X039180Y032100D03*
X040180Y032100D03*
X041180Y032100D03*
X042180Y032100D03*
X043180Y032100D03*
X044180Y032100D03*
X044180Y033100D03*
X043180Y033100D03*
X042180Y033100D03*
X041180Y033100D03*
X040180Y033100D03*
X040180Y034100D03*
X041180Y034100D03*
X042180Y034100D03*
X043180Y034100D03*
X044180Y034100D03*
X045180Y034100D03*
X046180Y034100D03*
X047180Y034100D03*
X048180Y034100D03*
X048180Y033100D03*
X047180Y033100D03*
X046180Y033100D03*
X045180Y033100D03*
X045180Y032100D03*
X046180Y032100D03*
X047180Y032100D03*
X048180Y032100D03*
X049180Y032100D03*
X050180Y032100D03*
X051180Y032100D03*
X052180Y032100D03*
X052180Y033100D03*
X051180Y033100D03*
X050180Y033100D03*
X049180Y033100D03*
X049180Y034100D03*
X050180Y034100D03*
X051180Y034100D03*
X052180Y034100D03*
X053180Y034100D03*
X054180Y034100D03*
X055180Y034100D03*
X056180Y034100D03*
X056180Y033100D03*
X055180Y033100D03*
X054180Y033100D03*
X053180Y033100D03*
X053180Y032100D03*
X054180Y032100D03*
X055180Y032100D03*
X056180Y032100D03*
X057180Y032100D03*
X058180Y032100D03*
X059180Y032100D03*
X060180Y032100D03*
X060180Y033100D03*
X059180Y033100D03*
X058180Y033100D03*
X057180Y033100D03*
X057180Y034100D03*
X058180Y034100D03*
X059180Y034100D03*
X060180Y034100D03*
X061180Y034100D03*
X062180Y034100D03*
X063180Y034100D03*
X064180Y034100D03*
X064180Y033100D03*
X063180Y033100D03*
X062180Y033100D03*
X061180Y033100D03*
X061180Y032100D03*
X062180Y032100D03*
X063180Y032100D03*
X064180Y032100D03*
X065180Y032100D03*
X066180Y032100D03*
X067180Y032100D03*
X068180Y032100D03*
X068180Y033100D03*
X067180Y033100D03*
X066180Y033100D03*
X065180Y033100D03*
X065180Y034100D03*
X066180Y034100D03*
X067180Y034100D03*
X068180Y034100D03*
X069180Y034100D03*
X070180Y034100D03*
X071180Y034100D03*
X072180Y034100D03*
X072180Y033100D03*
X071180Y033100D03*
X070180Y033100D03*
X069180Y033100D03*
X069180Y032100D03*
X070180Y032100D03*
X071180Y032100D03*
X072180Y032100D03*
X073180Y032100D03*
X074180Y032100D03*
X075180Y032100D03*
X076180Y032100D03*
X076180Y033100D03*
X075180Y033100D03*
X074180Y033100D03*
X073180Y033100D03*
X073180Y034100D03*
X074180Y034100D03*
X075180Y034100D03*
X076180Y034100D03*
X077180Y034100D03*
X078180Y034100D03*
X078180Y033100D03*
X077180Y033100D03*
X077180Y032100D03*
X078180Y032100D03*
X078180Y031100D03*
X077180Y031100D03*
X077180Y030100D03*
X078180Y030100D03*
X078180Y029100D03*
X077180Y029100D03*
X076180Y029100D03*
X075180Y029100D03*
X074180Y029100D03*
X073180Y029100D03*
X073180Y030100D03*
X074180Y030100D03*
X075180Y030100D03*
X076180Y030100D03*
X076180Y031100D03*
X075180Y031100D03*
X074180Y031100D03*
X073180Y031100D03*
X072180Y031100D03*
X071180Y031100D03*
X070180Y031100D03*
X069180Y031100D03*
X069180Y030100D03*
X070180Y030100D03*
X071180Y030100D03*
X072180Y030100D03*
X072180Y029100D03*
X071180Y029100D03*
X070180Y029100D03*
X069180Y029100D03*
X068180Y029100D03*
X067180Y029100D03*
X066180Y029100D03*
X065180Y029100D03*
X065180Y030100D03*
X066180Y030100D03*
X067180Y030100D03*
X068180Y030100D03*
X068180Y031100D03*
X067180Y031100D03*
X066180Y031100D03*
X065180Y031100D03*
X064180Y031100D03*
X063180Y031100D03*
X062180Y031100D03*
X061180Y031100D03*
X061180Y030100D03*
X062180Y030100D03*
X063180Y030100D03*
X064180Y030100D03*
X064180Y029100D03*
X063180Y029100D03*
X062180Y029100D03*
X061180Y029100D03*
X061180Y035100D03*
X062180Y035100D03*
X063180Y035100D03*
X064180Y035100D03*
X064180Y036100D03*
X063180Y036100D03*
X062180Y036100D03*
X061180Y036100D03*
X061180Y037100D03*
X062180Y037100D03*
X063180Y037100D03*
X064180Y037100D03*
X065180Y037100D03*
X066180Y037100D03*
X067180Y037100D03*
X068180Y037100D03*
X068180Y036100D03*
X067180Y036100D03*
X066180Y036100D03*
X065180Y036100D03*
X065180Y035100D03*
X066180Y035100D03*
X067180Y035100D03*
X068180Y035100D03*
X069180Y035100D03*
X070180Y035100D03*
X071180Y035100D03*
X072180Y035100D03*
X072180Y036100D03*
X071180Y036100D03*
X070180Y036100D03*
X069180Y036100D03*
X069180Y037100D03*
X070180Y037100D03*
X071180Y037100D03*
X072180Y037100D03*
X073180Y037100D03*
X074180Y037100D03*
X075180Y037100D03*
X076180Y037100D03*
X076180Y036100D03*
X075180Y036100D03*
X074180Y036100D03*
X073180Y036100D03*
X073180Y035100D03*
X074180Y035100D03*
X075180Y035100D03*
X076180Y035100D03*
X077180Y035100D03*
X078180Y035100D03*
X078180Y036100D03*
X077180Y036100D03*
X077180Y037100D03*
X078180Y037100D03*
X078180Y038100D03*
X077180Y038100D03*
X077180Y039100D03*
X076180Y039100D03*
X075180Y039100D03*
X074180Y039100D03*
X073180Y039100D03*
X073180Y038100D03*
X074180Y038100D03*
X075180Y038100D03*
X076180Y038100D03*
X076180Y040100D03*
X075180Y040100D03*
X074180Y040100D03*
X073180Y040100D03*
X073180Y041100D03*
X074180Y041100D03*
X075180Y041100D03*
X072180Y041100D03*
X071180Y041100D03*
X070180Y041100D03*
X069180Y041100D03*
X069180Y040100D03*
X070180Y040100D03*
X071180Y040100D03*
X072180Y040100D03*
X072180Y039100D03*
X071180Y039100D03*
X070180Y039100D03*
X069180Y039100D03*
X069180Y038100D03*
X070180Y038100D03*
X071180Y038100D03*
X072180Y038100D03*
X068180Y038100D03*
X067180Y038100D03*
X066180Y038100D03*
X065180Y038100D03*
X065180Y039100D03*
X066180Y039100D03*
X067180Y039100D03*
X068180Y039100D03*
X068180Y040100D03*
X067180Y040100D03*
X066180Y040100D03*
X065180Y040100D03*
X065180Y041100D03*
X066180Y041100D03*
X067180Y041100D03*
X068180Y041100D03*
X064180Y041100D03*
X063180Y041100D03*
X062180Y041100D03*
X061180Y041100D03*
X061180Y040100D03*
X062180Y040100D03*
X063180Y040100D03*
X064180Y040100D03*
X064180Y039100D03*
X063180Y039100D03*
X062180Y039100D03*
X061180Y039100D03*
X061180Y038100D03*
X062180Y038100D03*
X063180Y038100D03*
X064180Y038100D03*
X060180Y038100D03*
X059180Y038100D03*
X058180Y038100D03*
X057180Y038100D03*
X057180Y039100D03*
X058180Y039100D03*
X059180Y039100D03*
X060180Y039100D03*
X060180Y040100D03*
X059180Y040100D03*
X058180Y040100D03*
X057180Y040100D03*
X057180Y041100D03*
X058180Y041100D03*
X059180Y041100D03*
X060180Y041100D03*
X056180Y041100D03*
X055180Y041100D03*
X054180Y041100D03*
X053180Y041100D03*
X053180Y040100D03*
X054180Y040100D03*
X055180Y040100D03*
X056180Y040100D03*
X056180Y039100D03*
X055180Y039100D03*
X054180Y039100D03*
X053180Y039100D03*
X053180Y038100D03*
X054180Y038100D03*
X055180Y038100D03*
X056180Y038100D03*
X056180Y037100D03*
X055180Y037100D03*
X054180Y037100D03*
X053180Y037100D03*
X053180Y036100D03*
X054180Y036100D03*
X055180Y036100D03*
X056180Y036100D03*
X056180Y035100D03*
X055180Y035100D03*
X054180Y035100D03*
X053180Y035100D03*
X052180Y035100D03*
X051180Y035100D03*
X050180Y035100D03*
X049180Y035100D03*
X049180Y036100D03*
X050180Y036100D03*
X051180Y036100D03*
X052180Y036100D03*
X052180Y037100D03*
X051180Y037100D03*
X050180Y037100D03*
X049180Y037100D03*
X048180Y037100D03*
X047180Y037100D03*
X046180Y037100D03*
X045180Y037100D03*
X045180Y036100D03*
X046180Y036100D03*
X047180Y036100D03*
X048180Y036100D03*
X048180Y035100D03*
X047180Y035100D03*
X046180Y035100D03*
X045180Y035100D03*
X044180Y035100D03*
X043180Y035100D03*
X042180Y035100D03*
X041180Y035100D03*
X040180Y035100D03*
X040180Y036100D03*
X041180Y036100D03*
X042180Y036100D03*
X043180Y036100D03*
X044180Y036100D03*
X044180Y037100D03*
X043180Y037100D03*
X042180Y037100D03*
X041180Y037100D03*
X040180Y037100D03*
X039180Y037100D03*
X038180Y037100D03*
X037180Y037100D03*
X036180Y037100D03*
X036180Y036100D03*
X037180Y036100D03*
X038180Y036100D03*
X039180Y036100D03*
X039180Y035100D03*
X038180Y035100D03*
X037180Y035100D03*
X036180Y035100D03*
X035180Y035100D03*
X034180Y035100D03*
X033180Y035100D03*
X032180Y035100D03*
X032180Y036100D03*
X033180Y036100D03*
X034180Y036100D03*
X035180Y036100D03*
X035180Y037100D03*
X034180Y037100D03*
X033180Y037100D03*
X032180Y037100D03*
X031180Y037100D03*
X030180Y037100D03*
X029180Y037100D03*
X028180Y037100D03*
X028180Y036100D03*
X029180Y036100D03*
X030180Y036100D03*
X031180Y036100D03*
X031180Y035100D03*
X030180Y035100D03*
X029180Y035100D03*
X028180Y035100D03*
X027180Y035100D03*
X026180Y035100D03*
X025180Y035100D03*
X024180Y035100D03*
X024180Y036100D03*
X025180Y036100D03*
X026180Y036100D03*
X027180Y036100D03*
X027180Y037100D03*
X026180Y037100D03*
X025180Y037100D03*
X024180Y037100D03*
X023180Y037100D03*
X022180Y037100D03*
X021180Y037100D03*
X020180Y037100D03*
X020180Y036100D03*
X021180Y036100D03*
X022180Y036100D03*
X023180Y036100D03*
X023180Y035100D03*
X022180Y035100D03*
X021180Y035100D03*
X020180Y035100D03*
X019180Y035100D03*
X018180Y035100D03*
X017180Y035100D03*
X016180Y035100D03*
X016180Y036100D03*
X017180Y036100D03*
X018180Y036100D03*
X019180Y036100D03*
X019180Y037100D03*
X018180Y037100D03*
X017180Y037100D03*
X016180Y037100D03*
X015180Y037100D03*
X014180Y037100D03*
X013180Y037100D03*
X012180Y037100D03*
X012180Y036100D03*
X013180Y036100D03*
X014180Y036100D03*
X015180Y036100D03*
X015180Y035100D03*
X014180Y035100D03*
X013180Y035100D03*
X012180Y035100D03*
X011180Y035100D03*
X010180Y035100D03*
X009180Y035100D03*
X008180Y035100D03*
X008180Y036100D03*
X009180Y036100D03*
X010180Y036100D03*
X011180Y036100D03*
X011180Y037100D03*
X010180Y037100D03*
X009180Y037100D03*
X008180Y037100D03*
X007180Y037100D03*
X006180Y037100D03*
X005180Y037100D03*
X004180Y037100D03*
X004180Y036100D03*
X005180Y036100D03*
X006180Y036100D03*
X007180Y036100D03*
X007180Y035100D03*
X006180Y035100D03*
X005180Y035100D03*
X004180Y035100D03*
X003180Y035100D03*
X002180Y035100D03*
X002180Y036100D03*
X003180Y036100D03*
X003180Y037100D03*
X002180Y037100D03*
X002180Y038100D03*
X003180Y038100D03*
X003180Y039100D03*
X004180Y039100D03*
X005180Y039100D03*
X006180Y039100D03*
X007180Y039100D03*
X007180Y038100D03*
X006180Y038100D03*
X005180Y038100D03*
X004180Y038100D03*
X004180Y040100D03*
X005180Y040100D03*
X006180Y040100D03*
X007180Y040100D03*
X008180Y040100D03*
X009180Y040100D03*
X010180Y040100D03*
X011180Y040100D03*
X011180Y039100D03*
X010180Y039100D03*
X009180Y039100D03*
X008180Y039100D03*
X008180Y038100D03*
X009180Y038100D03*
X010180Y038100D03*
X011180Y038100D03*
X012180Y038100D03*
X013180Y038100D03*
X014180Y038100D03*
X015180Y038100D03*
X015180Y039100D03*
X014180Y039100D03*
X013180Y039100D03*
X012180Y039100D03*
X012180Y040100D03*
X013180Y040100D03*
X014180Y040100D03*
X015180Y040100D03*
X016180Y040100D03*
X017180Y040100D03*
X018180Y040100D03*
X019180Y040100D03*
X019180Y039100D03*
X018180Y039100D03*
X017180Y039100D03*
X016180Y039100D03*
X016180Y038100D03*
X017180Y038100D03*
X018180Y038100D03*
X019180Y038100D03*
X020180Y038100D03*
X021180Y038100D03*
X022180Y038100D03*
X023180Y038100D03*
X023180Y039100D03*
X022180Y039100D03*
X021180Y039100D03*
X020180Y039100D03*
X020180Y040100D03*
X021180Y040100D03*
X022180Y040100D03*
X023180Y040100D03*
X023180Y041100D03*
X022180Y041100D03*
X021180Y041100D03*
X024180Y041100D03*
X025180Y041100D03*
X026180Y041100D03*
X027180Y041100D03*
X027180Y040100D03*
X026180Y040100D03*
X025180Y040100D03*
X024180Y040100D03*
X024180Y039100D03*
X025180Y039100D03*
X026180Y039100D03*
X027180Y039100D03*
X027180Y038100D03*
X026180Y038100D03*
X025180Y038100D03*
X024180Y038100D03*
X028180Y038100D03*
X029180Y038100D03*
X030180Y038100D03*
X031180Y038100D03*
X031180Y039100D03*
X030180Y039100D03*
X029180Y039100D03*
X028180Y039100D03*
X028180Y040100D03*
X029180Y040100D03*
X030180Y040100D03*
X031180Y040100D03*
X031180Y041100D03*
X030180Y041100D03*
X029180Y041100D03*
X028180Y041100D03*
X032180Y041100D03*
X033180Y041100D03*
X034180Y041100D03*
X035180Y041100D03*
X035180Y040100D03*
X034180Y040100D03*
X033180Y040100D03*
X032180Y040100D03*
X032180Y039100D03*
X033180Y039100D03*
X034180Y039100D03*
X035180Y039100D03*
X035180Y038100D03*
X034180Y038100D03*
X033180Y038100D03*
X032180Y038100D03*
X036180Y038100D03*
X037180Y038100D03*
X038180Y038100D03*
X039180Y038100D03*
X039180Y039100D03*
X038180Y039100D03*
X037180Y039100D03*
X036180Y039100D03*
X036180Y040100D03*
X037180Y040100D03*
X038180Y040100D03*
X039180Y040100D03*
X039180Y041100D03*
X038180Y041100D03*
X037180Y041100D03*
X036180Y041100D03*
X040180Y041100D03*
X041180Y041100D03*
X042180Y041100D03*
X043180Y041100D03*
X044180Y041100D03*
X044180Y040100D03*
X043180Y040100D03*
X042180Y040100D03*
X041180Y040100D03*
X040180Y040100D03*
X040180Y039100D03*
X041180Y039100D03*
X042180Y039100D03*
X043180Y039100D03*
X044180Y039100D03*
X044180Y038100D03*
X043180Y038100D03*
X042180Y038100D03*
X041180Y038100D03*
X040180Y038100D03*
X045180Y038100D03*
X046180Y038100D03*
X047180Y038100D03*
X048180Y038100D03*
X048180Y039100D03*
X047180Y039100D03*
X046180Y039100D03*
X045180Y039100D03*
X045180Y040100D03*
X046180Y040100D03*
X047180Y040100D03*
X048180Y040100D03*
X048180Y041100D03*
X047180Y041100D03*
X046180Y041100D03*
X045180Y041100D03*
X049180Y041100D03*
X050180Y041100D03*
X051180Y041100D03*
X052180Y041100D03*
X052180Y040100D03*
X051180Y040100D03*
X050180Y040100D03*
X049180Y040100D03*
X049180Y039100D03*
X050180Y039100D03*
X051180Y039100D03*
X052180Y039100D03*
X052180Y038100D03*
X051180Y038100D03*
X050180Y038100D03*
X049180Y038100D03*
X057180Y037100D03*
X058180Y037100D03*
X059180Y037100D03*
X060180Y037100D03*
X060180Y036100D03*
X059180Y036100D03*
X058180Y036100D03*
X057180Y036100D03*
X057180Y035100D03*
X058180Y035100D03*
X059180Y035100D03*
X060180Y035100D03*
X060180Y004600D03*
X060680Y003975D03*
X061180Y004600D03*
X061680Y003975D03*
X062180Y004600D03*
X062680Y003975D03*
X063180Y004600D03*
X063680Y003975D03*
X064180Y004600D03*
X064680Y003975D03*
X065180Y004600D03*
X065680Y003975D03*
X066180Y004600D03*
X066680Y003975D03*
X067180Y004600D03*
X067680Y003975D03*
X068180Y004600D03*
X068680Y003975D03*
X069180Y004600D03*
X069680Y003975D03*
X070180Y004600D03*
X070680Y003975D03*
X071180Y004600D03*
X071680Y003975D03*
X072180Y004600D03*
X072680Y003975D03*
X073180Y004600D03*
X073680Y003975D03*
X074180Y004600D03*
X074680Y003975D03*
X075180Y004600D03*
X075680Y003975D03*
D13*
X002180Y005100D03*
X002180Y041100D03*
X078180Y041100D03*
X078180Y005100D03*
M02*
