G75*
G70*
%OFA0B0*%
%FSLAX24Y24*%
%IPPOS*%
%LPD*%
%AMOC8*
5,1,8,0,0,1.08239X$1,22.5*
%
%ADD10R,3.2000X0.3000*%
%ADD11C,0.0680*%
%ADD12C,0.2580*%
%ADD13C,0.0680*%
D10*
X020180Y001600D03*
D11*
X020180Y040005D02*
X020180Y040605D01*
X021180Y040605D02*
X021180Y040005D01*
X022180Y040005D02*
X022180Y040605D01*
X023180Y040605D02*
X023180Y040005D01*
X024180Y040005D02*
X024180Y040605D01*
X025180Y040605D02*
X025180Y040005D01*
X026180Y040005D02*
X026180Y040605D01*
X027180Y040605D02*
X027180Y040005D01*
X028180Y040005D02*
X028180Y040605D01*
X029180Y040605D02*
X029180Y040005D01*
X030180Y040005D02*
X030180Y040605D01*
X031180Y040605D02*
X031180Y040005D01*
X032180Y040005D02*
X032180Y040605D01*
X033180Y040605D02*
X033180Y040005D01*
X034180Y040005D02*
X034180Y040605D01*
X035180Y040605D02*
X035180Y040005D01*
X019180Y040005D02*
X019180Y040605D01*
X018180Y040605D02*
X018180Y040005D01*
X017180Y040005D02*
X017180Y040605D01*
X016180Y040605D02*
X016180Y040005D01*
X015180Y040005D02*
X015180Y040605D01*
X014180Y040605D02*
X014180Y040005D01*
X013180Y040005D02*
X013180Y040605D01*
X012180Y040605D02*
X012180Y040005D01*
X011180Y040005D02*
X011180Y040605D01*
X010180Y040605D02*
X010180Y040005D01*
X009180Y040005D02*
X009180Y040605D01*
X008180Y040605D02*
X008180Y040005D01*
X007180Y040005D02*
X007180Y040605D01*
X006180Y040605D02*
X006180Y040005D01*
X005180Y040005D02*
X005180Y040605D01*
D12*
X002180Y005100D03*
X002180Y041100D03*
X038180Y041100D03*
X038180Y005100D03*
D13*
X006180Y004100D03*
X006180Y036600D03*
M02*
