%
M48
M72
T01C0.0400
T02C0.1600
%
T01
X6180Y4100
X6180Y36600
X6180Y40305
X7180Y40305
X8180Y40305
X9180Y40305
X10180Y40305
X11180Y40305
X12180Y40305
X13180Y40305
X14180Y40305
X15180Y40305
X16180Y40305
X17180Y40305
X18180Y40305
X19180Y40305
X20180Y40305
X21180Y40305
X22180Y40305
X23180Y40305
X24180Y40305
X25180Y40305
X26180Y40305
X27180Y40305
X28180Y40305
X29180Y40305
X30180Y40305
X31180Y40305
X32180Y40305
X33180Y40305
X34180Y40305
X35180Y40305
X5180Y40305
T02
X2180Y5100
X2180Y41100
X38180Y41100
X38180Y5100
M30
