G75*
G70*
%OFA0B0*%
%FSLAX24Y24*%
%IPPOS*%
%LPD*%
%AMOC8*
5,1,8,0,0,1.08239X$1,22.5*
%
%ADD10C,0.0040*%
D10*
X004353Y004120D02*
X004660Y004120D01*
X004353Y004427D01*
X004353Y004504D01*
X004430Y004580D01*
X004583Y004580D01*
X004660Y004504D01*
X004660Y040120D02*
X004353Y040427D01*
X004353Y040504D01*
X004430Y040580D01*
X004583Y040580D01*
X004660Y040504D01*
X004660Y040120D02*
X004353Y040120D01*
X035393Y040120D02*
X035700Y040120D01*
X035393Y040427D01*
X035393Y040504D01*
X035469Y040580D01*
X035623Y040580D01*
X035700Y040504D01*
X035853Y040580D02*
X036007Y040504D01*
X036160Y040350D01*
X035930Y040350D01*
X035853Y040273D01*
X035853Y040197D01*
X035930Y040120D01*
X036083Y040120D01*
X036160Y040197D01*
X036160Y040350D01*
X035853Y004580D02*
X036007Y004504D01*
X036160Y004350D01*
X035930Y004350D01*
X035853Y004273D01*
X035853Y004197D01*
X035930Y004120D01*
X036083Y004120D01*
X036160Y004197D01*
X036160Y004350D01*
X035700Y004504D02*
X035623Y004580D01*
X035469Y004580D01*
X035393Y004504D01*
X035393Y004427D01*
X035700Y004120D01*
X035393Y004120D01*
M02*
