G75*
G70*
%OFA0B0*%
%FSLAX24Y24*%
%IPPOS*%
%LPD*%
%AMOC8*
5,1,8,0,0,1.08239X$1,22.5*
%
%ADD10C,0.0000*%
%ADD11R,0.0650X0.2350*%
%ADD12R,0.0650X0.1500*%
%ADD13C,0.2500*%
%ADD14C,0.0120*%
%ADD15C,0.0600*%
%ADD16C,0.0600*%
%ADD17C,0.0060*%
%ADD18C,0.0240*%
D10*
X000180Y003100D02*
X004180Y003100D01*
X004250Y003100D01*
X004250Y000420D01*
X004570Y000100D01*
X035790Y000100D01*
X036110Y000420D01*
X036110Y003100D01*
X036180Y003100D01*
X040180Y003100D01*
X040180Y043100D01*
X000180Y043100D01*
X000180Y003100D01*
D11*
X005180Y001915D03*
X006180Y001915D03*
X007180Y001915D03*
X008180Y001915D03*
X009180Y001915D03*
X010180Y001915D03*
X011180Y001915D03*
X012180Y001915D03*
X013180Y001915D03*
X014180Y001915D03*
X015180Y001915D03*
X016180Y001915D03*
X017180Y001915D03*
X018180Y001915D03*
X019180Y001915D03*
X020180Y001915D03*
X021180Y001915D03*
X022180Y001915D03*
X023180Y001915D03*
X024180Y001915D03*
X025180Y001915D03*
X026180Y001915D03*
X027180Y001915D03*
X028180Y001915D03*
X029180Y001915D03*
X030180Y001915D03*
X031180Y001915D03*
X032180Y001915D03*
X033180Y001915D03*
X034180Y001915D03*
X035180Y001915D03*
D12*
X035180Y041850D03*
X034180Y041850D03*
X033180Y041850D03*
X032180Y041850D03*
X031180Y041850D03*
X030180Y041850D03*
X029180Y041850D03*
X028180Y041850D03*
X027180Y041850D03*
X026180Y041850D03*
X025180Y041850D03*
X024180Y041850D03*
X023180Y041850D03*
X022180Y041850D03*
X021180Y041850D03*
X020180Y041850D03*
X019180Y041850D03*
X018180Y041850D03*
X017180Y041850D03*
X016180Y041850D03*
X015180Y041850D03*
X014180Y041850D03*
X013180Y041850D03*
X012180Y041850D03*
X011180Y041850D03*
X010180Y041850D03*
X009180Y041850D03*
X008180Y041850D03*
X007180Y041850D03*
X006180Y041850D03*
X005180Y041850D03*
D13*
X002180Y041100D03*
X002180Y005100D03*
X038180Y005100D03*
X038180Y041100D03*
D14*
X039720Y041139D02*
X036180Y041139D01*
X036180Y041257D02*
X039720Y041257D01*
X039720Y041376D02*
X036180Y041376D01*
X036180Y041494D02*
X039720Y041494D01*
X039720Y041613D02*
X036180Y041613D01*
X036180Y041731D02*
X039720Y041731D01*
X039720Y041850D02*
X036180Y041850D01*
X036180Y041968D02*
X039720Y041968D01*
X039720Y042087D02*
X036180Y042087D01*
X036180Y042205D02*
X039720Y042205D01*
X039720Y042324D02*
X036180Y042324D01*
X036180Y042442D02*
X039720Y042442D01*
X039720Y042561D02*
X036180Y042561D01*
X036180Y042640D02*
X039720Y042640D01*
X039720Y003560D01*
X036180Y003560D01*
X036180Y003600D01*
X035560Y003600D01*
X035560Y040600D01*
X036180Y040600D01*
X036180Y042640D01*
X036180Y041020D02*
X039720Y041020D01*
X039720Y040902D02*
X036180Y040902D01*
X036180Y040783D02*
X039720Y040783D01*
X039720Y040665D02*
X036180Y040665D01*
X035560Y040546D02*
X039720Y040546D01*
X039720Y040428D02*
X035560Y040428D01*
X035560Y040309D02*
X039720Y040309D01*
X039720Y040191D02*
X035560Y040191D01*
X035560Y040072D02*
X039720Y040072D01*
X039720Y039954D02*
X035560Y039954D01*
X035560Y039835D02*
X039720Y039835D01*
X039720Y039717D02*
X035560Y039717D01*
X035560Y039598D02*
X039720Y039598D01*
X039720Y039480D02*
X035560Y039480D01*
X035560Y039361D02*
X039720Y039361D01*
X039720Y039243D02*
X035560Y039243D01*
X035560Y039124D02*
X039720Y039124D01*
X039720Y039006D02*
X035560Y039006D01*
X035560Y038887D02*
X039720Y038887D01*
X039720Y038769D02*
X035560Y038769D01*
X035560Y038650D02*
X039720Y038650D01*
X039720Y038532D02*
X035560Y038532D01*
X035560Y038413D02*
X039720Y038413D01*
X039720Y038295D02*
X035560Y038295D01*
X035560Y038176D02*
X039720Y038176D01*
X039720Y038058D02*
X035560Y038058D01*
X035560Y037939D02*
X039720Y037939D01*
X039720Y037821D02*
X035560Y037821D01*
X035560Y037702D02*
X039720Y037702D01*
X039720Y037584D02*
X035560Y037584D01*
X035560Y037465D02*
X039720Y037465D01*
X039720Y037347D02*
X035560Y037347D01*
X035560Y037228D02*
X039720Y037228D01*
X039720Y037110D02*
X035560Y037110D01*
X035560Y036991D02*
X039720Y036991D01*
X039720Y036873D02*
X035560Y036873D01*
X035560Y036754D02*
X039720Y036754D01*
X039720Y036636D02*
X035560Y036636D01*
X035560Y036517D02*
X039720Y036517D01*
X039720Y036399D02*
X035560Y036399D01*
X035560Y036280D02*
X039720Y036280D01*
X039720Y036162D02*
X035560Y036162D01*
X035560Y036043D02*
X039720Y036043D01*
X039720Y035925D02*
X035560Y035925D01*
X035560Y035806D02*
X039720Y035806D01*
X039720Y035688D02*
X035560Y035688D01*
X035560Y035569D02*
X039720Y035569D01*
X039720Y035451D02*
X035560Y035451D01*
X035560Y035332D02*
X039720Y035332D01*
X039720Y035214D02*
X035560Y035214D01*
X035560Y035095D02*
X039720Y035095D01*
X039720Y034977D02*
X035560Y034977D01*
X035560Y034858D02*
X039720Y034858D01*
X039720Y034740D02*
X035560Y034740D01*
X035560Y034621D02*
X039720Y034621D01*
X039720Y034503D02*
X035560Y034503D01*
X035560Y034384D02*
X039720Y034384D01*
X039720Y034266D02*
X035560Y034266D01*
X035560Y034147D02*
X039720Y034147D01*
X039720Y034029D02*
X035560Y034029D01*
X035560Y033910D02*
X039720Y033910D01*
X039720Y033792D02*
X035560Y033792D01*
X035560Y033673D02*
X039720Y033673D01*
X039720Y033555D02*
X035560Y033555D01*
X035560Y033436D02*
X039720Y033436D01*
X039720Y033318D02*
X035560Y033318D01*
X035560Y033199D02*
X039720Y033199D01*
X039720Y033081D02*
X035560Y033081D01*
X035560Y032962D02*
X039720Y032962D01*
X039720Y032844D02*
X035560Y032844D01*
X035560Y032725D02*
X039720Y032725D01*
X039720Y032607D02*
X035560Y032607D01*
X035560Y032488D02*
X039720Y032488D01*
X039720Y032370D02*
X035560Y032370D01*
X035560Y032251D02*
X039720Y032251D01*
X039720Y032133D02*
X035560Y032133D01*
X035560Y032014D02*
X039720Y032014D01*
X039720Y031896D02*
X035560Y031896D01*
X035560Y031777D02*
X039720Y031777D01*
X039720Y031659D02*
X035560Y031659D01*
X035560Y031540D02*
X039720Y031540D01*
X039720Y031422D02*
X035560Y031422D01*
X035560Y031303D02*
X039720Y031303D01*
X039720Y031185D02*
X035560Y031185D01*
X035560Y031066D02*
X039720Y031066D01*
X039720Y030948D02*
X035560Y030948D01*
X035560Y030829D02*
X039720Y030829D01*
X039720Y030711D02*
X035560Y030711D01*
X035560Y030592D02*
X039720Y030592D01*
X039720Y030474D02*
X035560Y030474D01*
X035560Y030355D02*
X039720Y030355D01*
X039720Y030237D02*
X035560Y030237D01*
X035560Y030118D02*
X039720Y030118D01*
X039720Y030000D02*
X035560Y030000D01*
X035560Y029881D02*
X039720Y029881D01*
X039720Y029763D02*
X035560Y029763D01*
X035560Y029644D02*
X039720Y029644D01*
X039720Y029526D02*
X035560Y029526D01*
X035560Y029407D02*
X039720Y029407D01*
X039720Y029289D02*
X035560Y029289D01*
X035560Y029170D02*
X039720Y029170D01*
X039720Y029052D02*
X035560Y029052D01*
X035560Y028933D02*
X039720Y028933D01*
X039720Y028815D02*
X035560Y028815D01*
X035560Y028696D02*
X039720Y028696D01*
X039720Y028578D02*
X035560Y028578D01*
X035560Y028459D02*
X039720Y028459D01*
X039720Y028341D02*
X035560Y028341D01*
X035560Y028222D02*
X039720Y028222D01*
X039720Y028104D02*
X035560Y028104D01*
X035560Y027985D02*
X039720Y027985D01*
X039720Y027867D02*
X035560Y027867D01*
X035560Y027748D02*
X039720Y027748D01*
X039720Y027630D02*
X035560Y027630D01*
X035560Y027511D02*
X039720Y027511D01*
X039720Y027393D02*
X035560Y027393D01*
X035560Y027274D02*
X039720Y027274D01*
X039720Y027156D02*
X035560Y027156D01*
X035560Y027037D02*
X039720Y027037D01*
X039720Y026919D02*
X035560Y026919D01*
X035560Y026800D02*
X039720Y026800D01*
X039720Y026682D02*
X035560Y026682D01*
X035560Y026563D02*
X039720Y026563D01*
X039720Y026445D02*
X035560Y026445D01*
X035560Y026326D02*
X039720Y026326D01*
X039720Y026208D02*
X035560Y026208D01*
X035560Y026089D02*
X039720Y026089D01*
X039720Y025971D02*
X035560Y025971D01*
X035560Y025852D02*
X039720Y025852D01*
X039720Y025734D02*
X035560Y025734D01*
X035560Y025615D02*
X039720Y025615D01*
X039720Y025497D02*
X035560Y025497D01*
X035560Y025378D02*
X039720Y025378D01*
X039720Y025260D02*
X035560Y025260D01*
X035560Y025141D02*
X039720Y025141D01*
X039720Y025023D02*
X035560Y025023D01*
X035560Y024904D02*
X039720Y024904D01*
X039720Y024786D02*
X035560Y024786D01*
X035560Y024667D02*
X039720Y024667D01*
X039720Y024549D02*
X035560Y024549D01*
X035560Y024430D02*
X039720Y024430D01*
X039720Y024312D02*
X035560Y024312D01*
X035560Y024193D02*
X039720Y024193D01*
X039720Y024075D02*
X035560Y024075D01*
X035560Y023956D02*
X039720Y023956D01*
X039720Y023838D02*
X035560Y023838D01*
X035560Y023719D02*
X039720Y023719D01*
X039720Y023601D02*
X035560Y023601D01*
X035560Y023482D02*
X039720Y023482D01*
X039720Y023364D02*
X035560Y023364D01*
X035560Y023245D02*
X039720Y023245D01*
X039720Y023127D02*
X035560Y023127D01*
X035560Y023008D02*
X039720Y023008D01*
X039720Y022890D02*
X035560Y022890D01*
X035560Y022771D02*
X039720Y022771D01*
X039720Y022653D02*
X035560Y022653D01*
X035560Y022534D02*
X039720Y022534D01*
X039720Y022416D02*
X035560Y022416D01*
X035560Y022297D02*
X039720Y022297D01*
X039720Y022179D02*
X035560Y022179D01*
X035560Y022060D02*
X039720Y022060D01*
X039720Y021942D02*
X035560Y021942D01*
X035560Y021823D02*
X039720Y021823D01*
X039720Y021705D02*
X035560Y021705D01*
X035560Y021586D02*
X039720Y021586D01*
X039720Y021468D02*
X035560Y021468D01*
X035560Y021349D02*
X039720Y021349D01*
X039720Y021231D02*
X035560Y021231D01*
X035560Y021112D02*
X039720Y021112D01*
X039720Y020994D02*
X035560Y020994D01*
X035560Y020875D02*
X039720Y020875D01*
X039720Y020757D02*
X035560Y020757D01*
X035560Y020638D02*
X039720Y020638D01*
X039720Y020520D02*
X035560Y020520D01*
X035560Y020401D02*
X039720Y020401D01*
X039720Y020283D02*
X035560Y020283D01*
X035560Y020164D02*
X039720Y020164D01*
X039720Y020046D02*
X035560Y020046D01*
X035560Y019927D02*
X039720Y019927D01*
X039720Y019809D02*
X035560Y019809D01*
X035560Y019690D02*
X039720Y019690D01*
X039720Y019572D02*
X035560Y019572D01*
X035560Y019453D02*
X039720Y019453D01*
X039720Y019335D02*
X035560Y019335D01*
X035560Y019216D02*
X039720Y019216D01*
X039720Y019098D02*
X035560Y019098D01*
X035560Y018979D02*
X039720Y018979D01*
X039720Y018861D02*
X035560Y018861D01*
X035560Y018742D02*
X039720Y018742D01*
X039720Y018624D02*
X035560Y018624D01*
X035560Y018505D02*
X039720Y018505D01*
X039720Y018387D02*
X035560Y018387D01*
X035560Y018268D02*
X039720Y018268D01*
X039720Y018150D02*
X035560Y018150D01*
X035560Y018031D02*
X039720Y018031D01*
X039720Y017913D02*
X035560Y017913D01*
X035560Y017794D02*
X039720Y017794D01*
X039720Y017676D02*
X035560Y017676D01*
X035560Y017557D02*
X039720Y017557D01*
X039720Y017439D02*
X035560Y017439D01*
X035560Y017320D02*
X039720Y017320D01*
X039720Y017202D02*
X035560Y017202D01*
X035560Y017083D02*
X039720Y017083D01*
X039720Y016965D02*
X035560Y016965D01*
X035560Y016846D02*
X039720Y016846D01*
X039720Y016728D02*
X035560Y016728D01*
X035560Y016609D02*
X039720Y016609D01*
X039720Y016491D02*
X035560Y016491D01*
X035560Y016372D02*
X039720Y016372D01*
X039720Y016254D02*
X035560Y016254D01*
X035560Y016135D02*
X039720Y016135D01*
X039720Y016017D02*
X035560Y016017D01*
X035560Y015898D02*
X039720Y015898D01*
X039720Y015780D02*
X035560Y015780D01*
X035560Y015661D02*
X039720Y015661D01*
X039720Y015543D02*
X035560Y015543D01*
X035560Y015424D02*
X039720Y015424D01*
X039720Y015306D02*
X035560Y015306D01*
X035560Y015187D02*
X039720Y015187D01*
X039720Y015069D02*
X035560Y015069D01*
X035560Y014950D02*
X039720Y014950D01*
X039720Y014832D02*
X035560Y014832D01*
X035560Y014713D02*
X039720Y014713D01*
X039720Y014595D02*
X035560Y014595D01*
X035560Y014476D02*
X039720Y014476D01*
X039720Y014358D02*
X035560Y014358D01*
X035560Y014239D02*
X039720Y014239D01*
X039720Y014121D02*
X035560Y014121D01*
X035560Y014002D02*
X039720Y014002D01*
X039720Y013884D02*
X035560Y013884D01*
X035560Y013765D02*
X039720Y013765D01*
X039720Y013647D02*
X035560Y013647D01*
X035560Y013528D02*
X039720Y013528D01*
X039720Y013410D02*
X035560Y013410D01*
X035560Y013291D02*
X039720Y013291D01*
X039720Y013173D02*
X035560Y013173D01*
X035560Y013054D02*
X039720Y013054D01*
X039720Y012936D02*
X035560Y012936D01*
X035560Y012817D02*
X039720Y012817D01*
X039720Y012699D02*
X035560Y012699D01*
X035560Y012580D02*
X039720Y012580D01*
X039720Y012462D02*
X035560Y012462D01*
X035560Y012343D02*
X039720Y012343D01*
X039720Y012225D02*
X035560Y012225D01*
X035560Y012106D02*
X039720Y012106D01*
X039720Y011988D02*
X035560Y011988D01*
X035560Y011869D02*
X039720Y011869D01*
X039720Y011751D02*
X035560Y011751D01*
X035560Y011632D02*
X039720Y011632D01*
X039720Y011514D02*
X035560Y011514D01*
X035560Y011395D02*
X039720Y011395D01*
X039720Y011277D02*
X035560Y011277D01*
X035560Y011158D02*
X039720Y011158D01*
X039720Y011040D02*
X035560Y011040D01*
X035560Y010921D02*
X039720Y010921D01*
X039720Y010803D02*
X035560Y010803D01*
X035560Y010684D02*
X039720Y010684D01*
X039720Y010566D02*
X035560Y010566D01*
X035560Y010447D02*
X039720Y010447D01*
X039720Y010329D02*
X035560Y010329D01*
X035560Y010210D02*
X039720Y010210D01*
X039720Y010092D02*
X035560Y010092D01*
X035560Y009973D02*
X039720Y009973D01*
X039720Y009855D02*
X035560Y009855D01*
X035560Y009736D02*
X039720Y009736D01*
X039720Y009618D02*
X035560Y009618D01*
X035560Y009499D02*
X039720Y009499D01*
X039720Y009381D02*
X035560Y009381D01*
X035560Y009262D02*
X039720Y009262D01*
X039720Y009144D02*
X035560Y009144D01*
X035560Y009025D02*
X039720Y009025D01*
X039720Y008907D02*
X035560Y008907D01*
X035560Y008788D02*
X039720Y008788D01*
X039720Y008670D02*
X035560Y008670D01*
X035560Y008551D02*
X039720Y008551D01*
X039720Y008433D02*
X035560Y008433D01*
X035560Y008314D02*
X039720Y008314D01*
X039720Y008196D02*
X035560Y008196D01*
X035560Y008077D02*
X039720Y008077D01*
X039720Y007959D02*
X035560Y007959D01*
X035560Y007840D02*
X039720Y007840D01*
X039720Y007722D02*
X035560Y007722D01*
X035560Y007603D02*
X039720Y007603D01*
X039720Y007485D02*
X035560Y007485D01*
X035560Y007366D02*
X039720Y007366D01*
X039720Y007248D02*
X035560Y007248D01*
X035560Y007129D02*
X039720Y007129D01*
X039720Y007011D02*
X035560Y007011D01*
X035560Y006892D02*
X039720Y006892D01*
X039720Y006774D02*
X035560Y006774D01*
X035560Y006655D02*
X039720Y006655D01*
X039720Y006537D02*
X035560Y006537D01*
X035560Y006418D02*
X039720Y006418D01*
X039720Y006300D02*
X035560Y006300D01*
X035560Y006181D02*
X039720Y006181D01*
X039720Y006063D02*
X035560Y006063D01*
X035560Y005944D02*
X039720Y005944D01*
X039720Y005826D02*
X035560Y005826D01*
X035560Y005707D02*
X039720Y005707D01*
X039720Y005589D02*
X035560Y005589D01*
X035560Y005470D02*
X039720Y005470D01*
X039720Y005352D02*
X035560Y005352D01*
X035560Y005233D02*
X039720Y005233D01*
X039720Y005115D02*
X035560Y005115D01*
X035560Y004996D02*
X039720Y004996D01*
X039720Y004878D02*
X035560Y004878D01*
X035560Y004759D02*
X039720Y004759D01*
X039720Y004641D02*
X035560Y004641D01*
X035560Y004522D02*
X039720Y004522D01*
X039720Y004404D02*
X035560Y004404D01*
X035560Y004285D02*
X039720Y004285D01*
X039720Y004167D02*
X035560Y004167D01*
X035560Y004048D02*
X039720Y004048D01*
X039720Y003930D02*
X035560Y003930D01*
X035560Y003811D02*
X039720Y003811D01*
X039720Y003693D02*
X035560Y003693D01*
X036180Y003574D02*
X039720Y003574D01*
X006620Y003600D02*
X005740Y003600D01*
X005740Y040600D01*
X006620Y040600D01*
X006620Y003600D01*
X006620Y003693D02*
X005740Y003693D01*
X005740Y003811D02*
X006620Y003811D01*
X006620Y003930D02*
X005740Y003930D01*
X005740Y004048D02*
X006620Y004048D01*
X006620Y004167D02*
X005740Y004167D01*
X005740Y004285D02*
X006620Y004285D01*
X006620Y004404D02*
X005740Y004404D01*
X005740Y004522D02*
X006620Y004522D01*
X006620Y004641D02*
X005740Y004641D01*
X005740Y004759D02*
X006620Y004759D01*
X006620Y004878D02*
X005740Y004878D01*
X005740Y004996D02*
X006620Y004996D01*
X006620Y005115D02*
X005740Y005115D01*
X005740Y005233D02*
X006620Y005233D01*
X006620Y005352D02*
X005740Y005352D01*
X005740Y005470D02*
X006620Y005470D01*
X006620Y005589D02*
X005740Y005589D01*
X005740Y005707D02*
X006620Y005707D01*
X006620Y005826D02*
X005740Y005826D01*
X005740Y005944D02*
X006620Y005944D01*
X006620Y006063D02*
X005740Y006063D01*
X005740Y006181D02*
X006620Y006181D01*
X006620Y006300D02*
X005740Y006300D01*
X005740Y006418D02*
X006620Y006418D01*
X006620Y006537D02*
X005740Y006537D01*
X005740Y006655D02*
X006620Y006655D01*
X006620Y006774D02*
X005740Y006774D01*
X005740Y006892D02*
X006620Y006892D01*
X006620Y007011D02*
X005740Y007011D01*
X005740Y007129D02*
X006620Y007129D01*
X006620Y007248D02*
X005740Y007248D01*
X005740Y007366D02*
X006620Y007366D01*
X006620Y007485D02*
X005740Y007485D01*
X005740Y007603D02*
X006620Y007603D01*
X006620Y007722D02*
X005740Y007722D01*
X005740Y007840D02*
X006620Y007840D01*
X006620Y007959D02*
X005740Y007959D01*
X005740Y008077D02*
X006620Y008077D01*
X006620Y008196D02*
X005740Y008196D01*
X005740Y008314D02*
X006620Y008314D01*
X006620Y008433D02*
X005740Y008433D01*
X005740Y008551D02*
X006620Y008551D01*
X006620Y008670D02*
X005740Y008670D01*
X005740Y008788D02*
X006620Y008788D01*
X006620Y008907D02*
X005740Y008907D01*
X005740Y009025D02*
X006620Y009025D01*
X006620Y009144D02*
X005740Y009144D01*
X005740Y009262D02*
X006620Y009262D01*
X006620Y009381D02*
X005740Y009381D01*
X005740Y009499D02*
X006620Y009499D01*
X006620Y009618D02*
X005740Y009618D01*
X005740Y009736D02*
X006620Y009736D01*
X006620Y009855D02*
X005740Y009855D01*
X005740Y009973D02*
X006620Y009973D01*
X006620Y010092D02*
X005740Y010092D01*
X005740Y010210D02*
X006620Y010210D01*
X006620Y010329D02*
X005740Y010329D01*
X005740Y010447D02*
X006620Y010447D01*
X006620Y010566D02*
X005740Y010566D01*
X005740Y010684D02*
X006620Y010684D01*
X006620Y010803D02*
X005740Y010803D01*
X005740Y010921D02*
X006620Y010921D01*
X006620Y011040D02*
X005740Y011040D01*
X005740Y011158D02*
X006620Y011158D01*
X006620Y011277D02*
X005740Y011277D01*
X005740Y011395D02*
X006620Y011395D01*
X006620Y011514D02*
X005740Y011514D01*
X005740Y011632D02*
X006620Y011632D01*
X006620Y011751D02*
X005740Y011751D01*
X005740Y011869D02*
X006620Y011869D01*
X006620Y011988D02*
X005740Y011988D01*
X005740Y012106D02*
X006620Y012106D01*
X006620Y012225D02*
X005740Y012225D01*
X005740Y012343D02*
X006620Y012343D01*
X006620Y012462D02*
X005740Y012462D01*
X005740Y012580D02*
X006620Y012580D01*
X006620Y012699D02*
X005740Y012699D01*
X005740Y012817D02*
X006620Y012817D01*
X006620Y012936D02*
X005740Y012936D01*
X005740Y013054D02*
X006620Y013054D01*
X006620Y013173D02*
X005740Y013173D01*
X005740Y013291D02*
X006620Y013291D01*
X006620Y013410D02*
X005740Y013410D01*
X005740Y013528D02*
X006620Y013528D01*
X006620Y013647D02*
X005740Y013647D01*
X005740Y013765D02*
X006620Y013765D01*
X006620Y013884D02*
X005740Y013884D01*
X005740Y014002D02*
X006620Y014002D01*
X006620Y014121D02*
X005740Y014121D01*
X005740Y014239D02*
X006620Y014239D01*
X006620Y014358D02*
X005740Y014358D01*
X005740Y014476D02*
X006620Y014476D01*
X006620Y014595D02*
X005740Y014595D01*
X005740Y014713D02*
X006620Y014713D01*
X006620Y014832D02*
X005740Y014832D01*
X005740Y014950D02*
X006620Y014950D01*
X006620Y015069D02*
X005740Y015069D01*
X005740Y015187D02*
X006620Y015187D01*
X006620Y015306D02*
X005740Y015306D01*
X005740Y015424D02*
X006620Y015424D01*
X006620Y015543D02*
X005740Y015543D01*
X005740Y015661D02*
X006620Y015661D01*
X006620Y015780D02*
X005740Y015780D01*
X005740Y015898D02*
X006620Y015898D01*
X006620Y016017D02*
X005740Y016017D01*
X005740Y016135D02*
X006620Y016135D01*
X006620Y016254D02*
X005740Y016254D01*
X005740Y016372D02*
X006620Y016372D01*
X006620Y016491D02*
X005740Y016491D01*
X005740Y016609D02*
X006620Y016609D01*
X006620Y016728D02*
X005740Y016728D01*
X005740Y016846D02*
X006620Y016846D01*
X006620Y016965D02*
X005740Y016965D01*
X005740Y017083D02*
X006620Y017083D01*
X006620Y017202D02*
X005740Y017202D01*
X005740Y017320D02*
X006620Y017320D01*
X006620Y017439D02*
X005740Y017439D01*
X005740Y017557D02*
X006620Y017557D01*
X006620Y017676D02*
X005740Y017676D01*
X005740Y017794D02*
X006620Y017794D01*
X006620Y017913D02*
X005740Y017913D01*
X005740Y018031D02*
X006620Y018031D01*
X006620Y018150D02*
X005740Y018150D01*
X005740Y018268D02*
X006620Y018268D01*
X006620Y018387D02*
X005740Y018387D01*
X005740Y018505D02*
X006620Y018505D01*
X006620Y018624D02*
X005740Y018624D01*
X005740Y018742D02*
X006620Y018742D01*
X006620Y018861D02*
X005740Y018861D01*
X005740Y018979D02*
X006620Y018979D01*
X006620Y019098D02*
X005740Y019098D01*
X005740Y019216D02*
X006620Y019216D01*
X006620Y019335D02*
X005740Y019335D01*
X005740Y019453D02*
X006620Y019453D01*
X006620Y019572D02*
X005740Y019572D01*
X005740Y019690D02*
X006620Y019690D01*
X006620Y019809D02*
X005740Y019809D01*
X005740Y019927D02*
X006620Y019927D01*
X006620Y020046D02*
X005740Y020046D01*
X005740Y020164D02*
X006620Y020164D01*
X006620Y020283D02*
X005740Y020283D01*
X005740Y020401D02*
X006620Y020401D01*
X006620Y020520D02*
X005740Y020520D01*
X005740Y020638D02*
X006620Y020638D01*
X006620Y020757D02*
X005740Y020757D01*
X005740Y020875D02*
X006620Y020875D01*
X006620Y020994D02*
X005740Y020994D01*
X005740Y021112D02*
X006620Y021112D01*
X006620Y021231D02*
X005740Y021231D01*
X005740Y021349D02*
X006620Y021349D01*
X006620Y021468D02*
X005740Y021468D01*
X005740Y021586D02*
X006620Y021586D01*
X006620Y021705D02*
X005740Y021705D01*
X005740Y021823D02*
X006620Y021823D01*
X006620Y021942D02*
X005740Y021942D01*
X005740Y022060D02*
X006620Y022060D01*
X006620Y022179D02*
X005740Y022179D01*
X005740Y022297D02*
X006620Y022297D01*
X006620Y022416D02*
X005740Y022416D01*
X005740Y022534D02*
X006620Y022534D01*
X006620Y022653D02*
X005740Y022653D01*
X005740Y022771D02*
X006620Y022771D01*
X006620Y022890D02*
X005740Y022890D01*
X005740Y023008D02*
X006620Y023008D01*
X006620Y023127D02*
X005740Y023127D01*
X005740Y023245D02*
X006620Y023245D01*
X006620Y023364D02*
X005740Y023364D01*
X005740Y023482D02*
X006620Y023482D01*
X006620Y023601D02*
X005740Y023601D01*
X005740Y023719D02*
X006620Y023719D01*
X006620Y023838D02*
X005740Y023838D01*
X005740Y023956D02*
X006620Y023956D01*
X006620Y024075D02*
X005740Y024075D01*
X005740Y024193D02*
X006620Y024193D01*
X006620Y024312D02*
X005740Y024312D01*
X005740Y024430D02*
X006620Y024430D01*
X006620Y024549D02*
X005740Y024549D01*
X005740Y024667D02*
X006620Y024667D01*
X006620Y024786D02*
X005740Y024786D01*
X005740Y024904D02*
X006620Y024904D01*
X006620Y025023D02*
X005740Y025023D01*
X005740Y025141D02*
X006620Y025141D01*
X006620Y025260D02*
X005740Y025260D01*
X005740Y025378D02*
X006620Y025378D01*
X006620Y025497D02*
X005740Y025497D01*
X005740Y025615D02*
X006620Y025615D01*
X006620Y025734D02*
X005740Y025734D01*
X005740Y025852D02*
X006620Y025852D01*
X006620Y025971D02*
X005740Y025971D01*
X005740Y026089D02*
X006620Y026089D01*
X006620Y026208D02*
X005740Y026208D01*
X005740Y026326D02*
X006620Y026326D01*
X006620Y026445D02*
X005740Y026445D01*
X005740Y026563D02*
X006620Y026563D01*
X006620Y026682D02*
X005740Y026682D01*
X005740Y026800D02*
X006620Y026800D01*
X006620Y026919D02*
X005740Y026919D01*
X005740Y027037D02*
X006620Y027037D01*
X006620Y027156D02*
X005740Y027156D01*
X005740Y027274D02*
X006620Y027274D01*
X006620Y027393D02*
X005740Y027393D01*
X005740Y027511D02*
X006620Y027511D01*
X006620Y027630D02*
X005740Y027630D01*
X005740Y027748D02*
X006620Y027748D01*
X006620Y027867D02*
X005740Y027867D01*
X005740Y027985D02*
X006620Y027985D01*
X006620Y028104D02*
X005740Y028104D01*
X005740Y028222D02*
X006620Y028222D01*
X006620Y028341D02*
X005740Y028341D01*
X005740Y028459D02*
X006620Y028459D01*
X006620Y028578D02*
X005740Y028578D01*
X005740Y028696D02*
X006620Y028696D01*
X006620Y028815D02*
X005740Y028815D01*
X005740Y028933D02*
X006620Y028933D01*
X006620Y029052D02*
X005740Y029052D01*
X005740Y029170D02*
X006620Y029170D01*
X006620Y029289D02*
X005740Y029289D01*
X005740Y029407D02*
X006620Y029407D01*
X006620Y029526D02*
X005740Y029526D01*
X005740Y029644D02*
X006620Y029644D01*
X006620Y029763D02*
X005740Y029763D01*
X005740Y029881D02*
X006620Y029881D01*
X006620Y030000D02*
X005740Y030000D01*
X005740Y030118D02*
X006620Y030118D01*
X006620Y030237D02*
X005740Y030237D01*
X005740Y030355D02*
X006620Y030355D01*
X006620Y030474D02*
X005740Y030474D01*
X005740Y030592D02*
X006620Y030592D01*
X006620Y030711D02*
X005740Y030711D01*
X005740Y030829D02*
X006620Y030829D01*
X006620Y030948D02*
X005740Y030948D01*
X005740Y031066D02*
X006620Y031066D01*
X006620Y031185D02*
X005740Y031185D01*
X005740Y031303D02*
X006620Y031303D01*
X006620Y031422D02*
X005740Y031422D01*
X005740Y031540D02*
X006620Y031540D01*
X006620Y031659D02*
X005740Y031659D01*
X005740Y031777D02*
X006620Y031777D01*
X006620Y031896D02*
X005740Y031896D01*
X005740Y032014D02*
X006620Y032014D01*
X006620Y032133D02*
X005740Y032133D01*
X005740Y032251D02*
X006620Y032251D01*
X006620Y032370D02*
X005740Y032370D01*
X005740Y032488D02*
X006620Y032488D01*
X006620Y032607D02*
X005740Y032607D01*
X005740Y032725D02*
X006620Y032725D01*
X006620Y032844D02*
X005740Y032844D01*
X005740Y032962D02*
X006620Y032962D01*
X006620Y033081D02*
X005740Y033081D01*
X005740Y033199D02*
X006620Y033199D01*
X006620Y033318D02*
X005740Y033318D01*
X005740Y033436D02*
X006620Y033436D01*
X006620Y033555D02*
X005740Y033555D01*
X005740Y033673D02*
X006620Y033673D01*
X006620Y033792D02*
X005740Y033792D01*
X005740Y033910D02*
X006620Y033910D01*
X006620Y034029D02*
X005740Y034029D01*
X005740Y034147D02*
X006620Y034147D01*
X006620Y034266D02*
X005740Y034266D01*
X005740Y034384D02*
X006620Y034384D01*
X006620Y034503D02*
X005740Y034503D01*
X005740Y034621D02*
X006620Y034621D01*
X006620Y034740D02*
X005740Y034740D01*
X005740Y034858D02*
X006620Y034858D01*
X006620Y034977D02*
X005740Y034977D01*
X005740Y035095D02*
X006620Y035095D01*
X006620Y035214D02*
X005740Y035214D01*
X005740Y035332D02*
X006620Y035332D01*
X006620Y035451D02*
X005740Y035451D01*
X005740Y035569D02*
X006620Y035569D01*
X006620Y035688D02*
X005740Y035688D01*
X005740Y035806D02*
X006620Y035806D01*
X006620Y035925D02*
X005740Y035925D01*
X005740Y036043D02*
X006620Y036043D01*
X006620Y036162D02*
X005740Y036162D01*
X005740Y036280D02*
X006620Y036280D01*
X006620Y036399D02*
X005740Y036399D01*
X005740Y036517D02*
X006620Y036517D01*
X006620Y036636D02*
X005740Y036636D01*
X005740Y036754D02*
X006620Y036754D01*
X006620Y036873D02*
X005740Y036873D01*
X005740Y036991D02*
X006620Y036991D01*
X006620Y037110D02*
X005740Y037110D01*
X005740Y037228D02*
X006620Y037228D01*
X006620Y037347D02*
X005740Y037347D01*
X005740Y037465D02*
X006620Y037465D01*
X006620Y037584D02*
X005740Y037584D01*
X005740Y037702D02*
X006620Y037702D01*
X006620Y037821D02*
X005740Y037821D01*
X005740Y037939D02*
X006620Y037939D01*
X006620Y038058D02*
X005740Y038058D01*
X005740Y038176D02*
X006620Y038176D01*
X006620Y038295D02*
X005740Y038295D01*
X005740Y038413D02*
X006620Y038413D01*
X006620Y038532D02*
X005740Y038532D01*
X005740Y038650D02*
X006620Y038650D01*
X006620Y038769D02*
X005740Y038769D01*
X005740Y038887D02*
X006620Y038887D01*
X006620Y039006D02*
X005740Y039006D01*
X005740Y039124D02*
X006620Y039124D01*
X006620Y039243D02*
X005740Y039243D01*
X005740Y039361D02*
X006620Y039361D01*
X006620Y039480D02*
X005740Y039480D01*
X005740Y039598D02*
X006620Y039598D01*
X006620Y039717D02*
X005740Y039717D01*
X005740Y039835D02*
X006620Y039835D01*
X006620Y039954D02*
X005740Y039954D01*
X005740Y040072D02*
X006620Y040072D01*
X006620Y040191D02*
X005740Y040191D01*
X005740Y040309D02*
X006620Y040309D01*
X006620Y040428D02*
X005740Y040428D01*
X005740Y040546D02*
X006620Y040546D01*
X004620Y040546D02*
X000640Y040546D01*
X000640Y040428D02*
X004620Y040428D01*
X004620Y040309D02*
X000640Y040309D01*
X000640Y040191D02*
X004620Y040191D01*
X004620Y040072D02*
X000640Y040072D01*
X000640Y039954D02*
X004620Y039954D01*
X004620Y039835D02*
X000640Y039835D01*
X000640Y039717D02*
X004620Y039717D01*
X004620Y039598D02*
X000640Y039598D01*
X000640Y039480D02*
X004620Y039480D01*
X004620Y039361D02*
X000640Y039361D01*
X000640Y039243D02*
X004620Y039243D01*
X004620Y039124D02*
X000640Y039124D01*
X000640Y039006D02*
X004620Y039006D01*
X004620Y038887D02*
X000640Y038887D01*
X000640Y038769D02*
X004620Y038769D01*
X004620Y038650D02*
X000640Y038650D01*
X000640Y038532D02*
X004620Y038532D01*
X004620Y038413D02*
X000640Y038413D01*
X000640Y038295D02*
X004620Y038295D01*
X004620Y038176D02*
X000640Y038176D01*
X000640Y038058D02*
X004620Y038058D01*
X004620Y037939D02*
X000640Y037939D01*
X000640Y037821D02*
X004620Y037821D01*
X004620Y037702D02*
X000640Y037702D01*
X000640Y037584D02*
X004620Y037584D01*
X004620Y037465D02*
X000640Y037465D01*
X000640Y037347D02*
X004620Y037347D01*
X004620Y037228D02*
X000640Y037228D01*
X000640Y037110D02*
X004620Y037110D01*
X004620Y036991D02*
X000640Y036991D01*
X000640Y036873D02*
X004620Y036873D01*
X004620Y036754D02*
X000640Y036754D01*
X000640Y036636D02*
X004620Y036636D01*
X004620Y036517D02*
X000640Y036517D01*
X000640Y036399D02*
X004620Y036399D01*
X004620Y036280D02*
X000640Y036280D01*
X000640Y036162D02*
X004620Y036162D01*
X004620Y036043D02*
X000640Y036043D01*
X000640Y035925D02*
X004620Y035925D01*
X004620Y035806D02*
X000640Y035806D01*
X000640Y035688D02*
X004620Y035688D01*
X004620Y035569D02*
X000640Y035569D01*
X000640Y035451D02*
X004620Y035451D01*
X004620Y035332D02*
X000640Y035332D01*
X000640Y035214D02*
X004620Y035214D01*
X004620Y035095D02*
X000640Y035095D01*
X000640Y034977D02*
X004620Y034977D01*
X004620Y034858D02*
X000640Y034858D01*
X000640Y034740D02*
X004620Y034740D01*
X004620Y034621D02*
X000640Y034621D01*
X000640Y034503D02*
X004620Y034503D01*
X004620Y034384D02*
X000640Y034384D01*
X000640Y034266D02*
X004620Y034266D01*
X004620Y034147D02*
X000640Y034147D01*
X000640Y034029D02*
X004620Y034029D01*
X004620Y033910D02*
X000640Y033910D01*
X000640Y033792D02*
X004620Y033792D01*
X004620Y033673D02*
X000640Y033673D01*
X000640Y033555D02*
X004620Y033555D01*
X004620Y033436D02*
X000640Y033436D01*
X000640Y033318D02*
X004620Y033318D01*
X004620Y033199D02*
X000640Y033199D01*
X000640Y033081D02*
X004620Y033081D01*
X004620Y032962D02*
X000640Y032962D01*
X000640Y032844D02*
X004620Y032844D01*
X004620Y032725D02*
X000640Y032725D01*
X000640Y032607D02*
X004620Y032607D01*
X004620Y032488D02*
X000640Y032488D01*
X000640Y032370D02*
X004620Y032370D01*
X004620Y032251D02*
X000640Y032251D01*
X000640Y032133D02*
X004620Y032133D01*
X004620Y032014D02*
X000640Y032014D01*
X000640Y031896D02*
X004620Y031896D01*
X004620Y031777D02*
X000640Y031777D01*
X000640Y031659D02*
X004620Y031659D01*
X004620Y031540D02*
X000640Y031540D01*
X000640Y031422D02*
X004620Y031422D01*
X004620Y031303D02*
X000640Y031303D01*
X000640Y031185D02*
X004620Y031185D01*
X004620Y031066D02*
X000640Y031066D01*
X000640Y030948D02*
X004620Y030948D01*
X004620Y030829D02*
X000640Y030829D01*
X000640Y030711D02*
X004620Y030711D01*
X004620Y030592D02*
X000640Y030592D01*
X000640Y030474D02*
X004620Y030474D01*
X004620Y030355D02*
X000640Y030355D01*
X000640Y030237D02*
X004620Y030237D01*
X004620Y030118D02*
X000640Y030118D01*
X000640Y030000D02*
X004620Y030000D01*
X004620Y029881D02*
X000640Y029881D01*
X000640Y029763D02*
X004620Y029763D01*
X004620Y029644D02*
X000640Y029644D01*
X000640Y029526D02*
X004620Y029526D01*
X004620Y029407D02*
X000640Y029407D01*
X000640Y029289D02*
X004620Y029289D01*
X004620Y029170D02*
X000640Y029170D01*
X000640Y029052D02*
X004620Y029052D01*
X004620Y028933D02*
X000640Y028933D01*
X000640Y028815D02*
X004620Y028815D01*
X004620Y028696D02*
X000640Y028696D01*
X000640Y028578D02*
X004620Y028578D01*
X004620Y028459D02*
X000640Y028459D01*
X000640Y028341D02*
X004620Y028341D01*
X004620Y028222D02*
X000640Y028222D01*
X000640Y028104D02*
X004620Y028104D01*
X004620Y027985D02*
X000640Y027985D01*
X000640Y027867D02*
X004620Y027867D01*
X004620Y027748D02*
X000640Y027748D01*
X000640Y027630D02*
X004620Y027630D01*
X004620Y027511D02*
X000640Y027511D01*
X000640Y027393D02*
X004620Y027393D01*
X004620Y027274D02*
X000640Y027274D01*
X000640Y027156D02*
X004620Y027156D01*
X004620Y027037D02*
X000640Y027037D01*
X000640Y026919D02*
X004620Y026919D01*
X004620Y026800D02*
X000640Y026800D01*
X000640Y026682D02*
X004620Y026682D01*
X004620Y026563D02*
X000640Y026563D01*
X000640Y026445D02*
X004620Y026445D01*
X004620Y026326D02*
X000640Y026326D01*
X000640Y026208D02*
X004620Y026208D01*
X004620Y026089D02*
X000640Y026089D01*
X000640Y025971D02*
X004620Y025971D01*
X004620Y025852D02*
X000640Y025852D01*
X000640Y025734D02*
X004620Y025734D01*
X004620Y025615D02*
X000640Y025615D01*
X000640Y025497D02*
X004620Y025497D01*
X004620Y025378D02*
X000640Y025378D01*
X000640Y025260D02*
X004620Y025260D01*
X004620Y025141D02*
X000640Y025141D01*
X000640Y025023D02*
X004620Y025023D01*
X004620Y024904D02*
X000640Y024904D01*
X000640Y024786D02*
X004620Y024786D01*
X004620Y024667D02*
X000640Y024667D01*
X000640Y024549D02*
X004620Y024549D01*
X004620Y024430D02*
X000640Y024430D01*
X000640Y024312D02*
X004620Y024312D01*
X004620Y024193D02*
X000640Y024193D01*
X000640Y024075D02*
X004620Y024075D01*
X004620Y023956D02*
X000699Y023956D01*
X000640Y024015D02*
X000640Y042640D01*
X004180Y042640D01*
X004180Y040600D01*
X004620Y040600D01*
X004620Y003600D01*
X004180Y003600D01*
X004180Y003560D01*
X000640Y003560D01*
X000640Y006650D01*
X002430Y006650D01*
X002430Y022225D01*
X000640Y024015D01*
X000817Y023838D02*
X004620Y023838D01*
X004620Y023719D02*
X000936Y023719D01*
X001054Y023601D02*
X004620Y023601D01*
X004620Y023482D02*
X001173Y023482D01*
X001291Y023364D02*
X004620Y023364D01*
X004620Y023245D02*
X001410Y023245D01*
X001528Y023127D02*
X004620Y023127D01*
X004620Y023008D02*
X001647Y023008D01*
X001765Y022890D02*
X004620Y022890D01*
X004620Y022771D02*
X001884Y022771D01*
X002002Y022653D02*
X004620Y022653D01*
X004620Y022534D02*
X002121Y022534D01*
X002239Y022416D02*
X004620Y022416D01*
X004620Y022297D02*
X002358Y022297D01*
X002430Y022179D02*
X004620Y022179D01*
X004620Y022060D02*
X002430Y022060D01*
X002430Y021942D02*
X004620Y021942D01*
X004620Y021823D02*
X002430Y021823D01*
X002430Y021705D02*
X004620Y021705D01*
X004620Y021586D02*
X002430Y021586D01*
X002430Y021468D02*
X004620Y021468D01*
X004620Y021349D02*
X002430Y021349D01*
X002430Y021231D02*
X004620Y021231D01*
X004620Y021112D02*
X002430Y021112D01*
X002430Y020994D02*
X004620Y020994D01*
X004620Y020875D02*
X002430Y020875D01*
X002430Y020757D02*
X004620Y020757D01*
X004620Y020638D02*
X002430Y020638D01*
X002430Y020520D02*
X004620Y020520D01*
X004620Y020401D02*
X002430Y020401D01*
X002430Y020283D02*
X004620Y020283D01*
X004620Y020164D02*
X002430Y020164D01*
X002430Y020046D02*
X004620Y020046D01*
X004620Y019927D02*
X002430Y019927D01*
X002430Y019809D02*
X004620Y019809D01*
X004620Y019690D02*
X002430Y019690D01*
X002430Y019572D02*
X004620Y019572D01*
X004620Y019453D02*
X002430Y019453D01*
X002430Y019335D02*
X004620Y019335D01*
X004620Y019216D02*
X002430Y019216D01*
X002430Y019098D02*
X004620Y019098D01*
X004620Y018979D02*
X002430Y018979D01*
X002430Y018861D02*
X004620Y018861D01*
X004620Y018742D02*
X002430Y018742D01*
X002430Y018624D02*
X004620Y018624D01*
X004620Y018505D02*
X002430Y018505D01*
X002430Y018387D02*
X004620Y018387D01*
X004620Y018268D02*
X002430Y018268D01*
X002430Y018150D02*
X004620Y018150D01*
X004620Y018031D02*
X002430Y018031D01*
X002430Y017913D02*
X004620Y017913D01*
X004620Y017794D02*
X002430Y017794D01*
X002430Y017676D02*
X004620Y017676D01*
X004620Y017557D02*
X002430Y017557D01*
X002430Y017439D02*
X004620Y017439D01*
X004620Y017320D02*
X002430Y017320D01*
X002430Y017202D02*
X004620Y017202D01*
X004620Y017083D02*
X002430Y017083D01*
X002430Y016965D02*
X004620Y016965D01*
X004620Y016846D02*
X002430Y016846D01*
X002430Y016728D02*
X004620Y016728D01*
X004620Y016609D02*
X002430Y016609D01*
X002430Y016491D02*
X004620Y016491D01*
X004620Y016372D02*
X002430Y016372D01*
X002430Y016254D02*
X004620Y016254D01*
X004620Y016135D02*
X002430Y016135D01*
X002430Y016017D02*
X004620Y016017D01*
X004620Y015898D02*
X002430Y015898D01*
X002430Y015780D02*
X004620Y015780D01*
X004620Y015661D02*
X002430Y015661D01*
X002430Y015543D02*
X004620Y015543D01*
X004620Y015424D02*
X002430Y015424D01*
X002430Y015306D02*
X004620Y015306D01*
X004620Y015187D02*
X002430Y015187D01*
X002430Y015069D02*
X004620Y015069D01*
X004620Y014950D02*
X002430Y014950D01*
X002430Y014832D02*
X004620Y014832D01*
X004620Y014713D02*
X002430Y014713D01*
X002430Y014595D02*
X004620Y014595D01*
X004620Y014476D02*
X002430Y014476D01*
X002430Y014358D02*
X004620Y014358D01*
X004620Y014239D02*
X002430Y014239D01*
X002430Y014121D02*
X004620Y014121D01*
X004620Y014002D02*
X002430Y014002D01*
X002430Y013884D02*
X004620Y013884D01*
X004620Y013765D02*
X002430Y013765D01*
X002430Y013647D02*
X004620Y013647D01*
X004620Y013528D02*
X002430Y013528D01*
X002430Y013410D02*
X004620Y013410D01*
X004620Y013291D02*
X002430Y013291D01*
X002430Y013173D02*
X004620Y013173D01*
X004620Y013054D02*
X002430Y013054D01*
X002430Y012936D02*
X004620Y012936D01*
X004620Y012817D02*
X002430Y012817D01*
X002430Y012699D02*
X004620Y012699D01*
X004620Y012580D02*
X002430Y012580D01*
X002430Y012462D02*
X004620Y012462D01*
X004620Y012343D02*
X002430Y012343D01*
X002430Y012225D02*
X004620Y012225D01*
X004620Y012106D02*
X002430Y012106D01*
X002430Y011988D02*
X004620Y011988D01*
X004620Y011869D02*
X002430Y011869D01*
X002430Y011751D02*
X004620Y011751D01*
X004620Y011632D02*
X002430Y011632D01*
X002430Y011514D02*
X004620Y011514D01*
X004620Y011395D02*
X002430Y011395D01*
X002430Y011277D02*
X004620Y011277D01*
X004620Y011158D02*
X002430Y011158D01*
X002430Y011040D02*
X004620Y011040D01*
X004620Y010921D02*
X002430Y010921D01*
X002430Y010803D02*
X004620Y010803D01*
X004620Y010684D02*
X002430Y010684D01*
X002430Y010566D02*
X004620Y010566D01*
X004620Y010447D02*
X002430Y010447D01*
X002430Y010329D02*
X004620Y010329D01*
X004620Y010210D02*
X002430Y010210D01*
X002430Y010092D02*
X004620Y010092D01*
X004620Y009973D02*
X002430Y009973D01*
X002430Y009855D02*
X004620Y009855D01*
X004620Y009736D02*
X002430Y009736D01*
X002430Y009618D02*
X004620Y009618D01*
X004620Y009499D02*
X002430Y009499D01*
X002430Y009381D02*
X004620Y009381D01*
X004620Y009262D02*
X002430Y009262D01*
X002430Y009144D02*
X004620Y009144D01*
X004620Y009025D02*
X002430Y009025D01*
X002430Y008907D02*
X004620Y008907D01*
X004620Y008788D02*
X002430Y008788D01*
X002430Y008670D02*
X004620Y008670D01*
X004620Y008551D02*
X002430Y008551D01*
X002430Y008433D02*
X004620Y008433D01*
X004620Y008314D02*
X002430Y008314D01*
X002430Y008196D02*
X004620Y008196D01*
X004620Y008077D02*
X002430Y008077D01*
X002430Y007959D02*
X004620Y007959D01*
X004620Y007840D02*
X002430Y007840D01*
X002430Y007722D02*
X004620Y007722D01*
X004620Y007603D02*
X002430Y007603D01*
X002430Y007485D02*
X004620Y007485D01*
X004620Y007366D02*
X002430Y007366D01*
X002430Y007248D02*
X004620Y007248D01*
X004620Y007129D02*
X002430Y007129D01*
X002430Y007011D02*
X004620Y007011D01*
X004620Y006892D02*
X002430Y006892D01*
X002430Y006774D02*
X004620Y006774D01*
X004620Y006655D02*
X002430Y006655D01*
X000640Y006537D02*
X004620Y006537D01*
X004620Y006418D02*
X000640Y006418D01*
X000640Y006300D02*
X004620Y006300D01*
X004620Y006181D02*
X000640Y006181D01*
X000640Y006063D02*
X004620Y006063D01*
X004620Y005944D02*
X000640Y005944D01*
X000640Y005826D02*
X004620Y005826D01*
X004620Y005707D02*
X000640Y005707D01*
X000640Y005589D02*
X004620Y005589D01*
X004620Y005470D02*
X000640Y005470D01*
X000640Y005352D02*
X004620Y005352D01*
X004620Y005233D02*
X000640Y005233D01*
X000640Y005115D02*
X004620Y005115D01*
X004620Y004996D02*
X000640Y004996D01*
X000640Y004878D02*
X004620Y004878D01*
X004620Y004759D02*
X000640Y004759D01*
X000640Y004641D02*
X004620Y004641D01*
X004620Y004522D02*
X000640Y004522D01*
X000640Y004404D02*
X004620Y004404D01*
X004620Y004285D02*
X000640Y004285D01*
X000640Y004167D02*
X004620Y004167D01*
X004620Y004048D02*
X000640Y004048D01*
X000640Y003930D02*
X004620Y003930D01*
X004620Y003811D02*
X000640Y003811D01*
X000640Y003693D02*
X004620Y003693D01*
X004180Y003574D02*
X000640Y003574D01*
X000640Y040665D02*
X004180Y040665D01*
X004180Y040783D02*
X000640Y040783D01*
X000640Y040902D02*
X004180Y040902D01*
X004180Y041020D02*
X000640Y041020D01*
X000640Y041139D02*
X004180Y041139D01*
X004180Y041257D02*
X000640Y041257D01*
X000640Y041376D02*
X004180Y041376D01*
X004180Y041494D02*
X000640Y041494D01*
X000640Y041613D02*
X004180Y041613D01*
X004180Y041731D02*
X000640Y041731D01*
X000640Y041850D02*
X004180Y041850D01*
X004180Y041968D02*
X000640Y041968D01*
X000640Y042087D02*
X004180Y042087D01*
X004180Y042205D02*
X000640Y042205D01*
X000640Y042324D02*
X004180Y042324D01*
X004180Y042442D02*
X000640Y042442D01*
X000640Y042561D02*
X004180Y042561D01*
D15*
X005180Y041850D02*
X005180Y001915D01*
X006180Y001915D02*
X006180Y004100D01*
X007180Y001915D02*
X007180Y041850D01*
X006180Y041850D02*
X006180Y040100D01*
X008180Y041850D02*
X008180Y001915D01*
D16*
X006180Y004100D03*
X006180Y040100D03*
D17*
X001050Y017183D02*
X001709Y017011D01*
X001776Y016987D01*
X001838Y016953D01*
X001894Y016910D01*
X001939Y016867D01*
X001978Y016818D01*
X002000Y016783D01*
X002017Y016744D01*
X002025Y016704D01*
X002026Y016663D01*
X002026Y015649D01*
X002024Y015621D01*
X002019Y015593D01*
X002007Y015567D01*
X001991Y015543D01*
X001971Y015523D01*
X001948Y015506D01*
X001922Y015496D01*
X001880Y015482D01*
X001836Y015476D01*
X001742Y015480D01*
X001703Y015488D01*
X001074Y015655D01*
X000996Y015685D01*
X000924Y015726D01*
X000857Y015777D01*
X000799Y015839D01*
X000771Y015886D01*
X000753Y015938D01*
X000745Y015992D01*
X000745Y016035D01*
X001016Y016015D01*
X001756Y015817D01*
X001755Y016652D01*
X001015Y016850D01*
X001016Y016025D01*
X000745Y016045D01*
X000745Y017024D01*
X000751Y017062D01*
X000766Y017098D01*
X000788Y017130D01*
X000818Y017155D01*
X000852Y017173D01*
X000896Y017186D01*
X000941Y017191D01*
X000996Y017191D01*
X001050Y017183D01*
X001214Y017140D02*
X000800Y017140D01*
X000759Y017082D02*
X001439Y017082D01*
X001664Y017023D02*
X000745Y017023D01*
X000745Y016965D02*
X001817Y016965D01*
X001898Y016906D02*
X000745Y016906D01*
X000745Y016848D02*
X001015Y016848D01*
X001022Y016848D02*
X001954Y016848D01*
X001996Y016789D02*
X001241Y016789D01*
X001015Y016789D02*
X000745Y016789D01*
X000745Y016731D02*
X001015Y016731D01*
X001015Y016672D02*
X000745Y016672D01*
X000745Y016614D02*
X001015Y016614D01*
X001015Y016555D02*
X000745Y016555D01*
X000745Y016497D02*
X001016Y016497D01*
X001016Y016438D02*
X000745Y016438D01*
X000745Y016380D02*
X001016Y016380D01*
X001016Y016321D02*
X000745Y016321D01*
X000745Y016263D02*
X001016Y016263D01*
X001016Y016204D02*
X000745Y016204D01*
X000745Y016146D02*
X001016Y016146D01*
X001016Y016087D02*
X000745Y016087D01*
X000745Y016029D02*
X000832Y016029D01*
X000748Y015970D02*
X001185Y015970D01*
X001016Y016029D02*
X000968Y016029D01*
X000762Y015912D02*
X001403Y015912D01*
X001622Y015853D02*
X000791Y015853D01*
X000840Y015795D02*
X002026Y015795D01*
X002026Y015853D02*
X001756Y015853D01*
X001756Y015912D02*
X002026Y015912D01*
X002026Y015970D02*
X001756Y015970D01*
X001756Y016029D02*
X002026Y016029D01*
X002026Y016087D02*
X001756Y016087D01*
X001756Y016146D02*
X002026Y016146D01*
X002026Y016204D02*
X001756Y016204D01*
X001756Y016263D02*
X002026Y016263D01*
X002026Y016321D02*
X001756Y016321D01*
X001755Y016380D02*
X002026Y016380D01*
X002026Y016438D02*
X001755Y016438D01*
X001755Y016497D02*
X002026Y016497D01*
X002026Y016555D02*
X001755Y016555D01*
X001755Y016614D02*
X002026Y016614D01*
X002026Y016672D02*
X001679Y016672D01*
X001460Y016731D02*
X002020Y016731D01*
X002026Y015736D02*
X000910Y015736D01*
X001015Y015678D02*
X002026Y015678D01*
X002024Y015619D02*
X001211Y015619D01*
X001430Y015561D02*
X002002Y015561D01*
X001937Y015502D02*
X001650Y015502D01*
X001382Y015268D02*
X000754Y015268D01*
X000758Y015283D02*
X000775Y015317D01*
X000798Y015348D01*
X000826Y015373D01*
X000857Y015394D01*
X000891Y015408D01*
X000927Y015416D01*
X000992Y015415D01*
X001056Y015404D01*
X001218Y015361D01*
X001256Y015349D01*
X001292Y015330D01*
X001375Y015274D01*
X001449Y015206D01*
X001494Y015148D01*
X001527Y015083D01*
X001543Y015015D01*
X001551Y014946D01*
X002026Y015118D01*
X002026Y014772D01*
X001547Y014600D01*
X001547Y014100D01*
X002026Y013975D01*
X002026Y013630D01*
X002025Y013630D01*
X002026Y013630D02*
X000745Y013965D01*
X001016Y014240D01*
X001295Y014172D01*
X001295Y015002D01*
X001016Y015070D01*
X001016Y014250D01*
X000745Y013975D01*
X000745Y015208D01*
X000748Y015246D01*
X000758Y015283D01*
X000782Y015327D02*
X001297Y015327D01*
X001129Y015385D02*
X000844Y015385D01*
X000745Y015210D02*
X001445Y015210D01*
X001491Y015151D02*
X000745Y015151D01*
X000745Y015093D02*
X001523Y015093D01*
X001539Y015034D02*
X001165Y015034D01*
X001295Y014976D02*
X001548Y014976D01*
X001633Y014976D02*
X002026Y014976D01*
X002026Y015034D02*
X001795Y015034D01*
X001957Y015093D02*
X002026Y015093D01*
X002026Y014917D02*
X001295Y014917D01*
X001295Y014859D02*
X002026Y014859D01*
X002026Y014800D02*
X001295Y014800D01*
X001295Y014742D02*
X001942Y014742D01*
X001778Y014683D02*
X001295Y014683D01*
X001295Y014625D02*
X001615Y014625D01*
X001547Y014566D02*
X001295Y014566D01*
X001295Y014508D02*
X001547Y014508D01*
X001547Y014449D02*
X001295Y014449D01*
X001295Y014391D02*
X001547Y014391D01*
X001547Y014332D02*
X001295Y014332D01*
X001295Y014274D02*
X001547Y014274D01*
X001547Y014215D02*
X001295Y014215D01*
X001120Y014215D02*
X000991Y014215D01*
X000982Y014215D02*
X000745Y014215D01*
X000745Y014157D02*
X000924Y014157D01*
X000934Y014157D02*
X001547Y014157D01*
X001555Y014098D02*
X000876Y014098D01*
X000866Y014098D02*
X000745Y014098D01*
X000745Y014040D02*
X000809Y014040D01*
X000819Y014040D02*
X001780Y014040D01*
X002004Y013981D02*
X000761Y013981D01*
X000751Y013981D02*
X000745Y013981D01*
X000906Y013923D02*
X002026Y013923D01*
X002026Y013864D02*
X001130Y013864D01*
X001354Y013806D02*
X002026Y013806D01*
X002026Y013747D02*
X001577Y013747D01*
X001801Y013689D02*
X002026Y013689D01*
X001971Y013396D02*
X001755Y013396D01*
X001755Y013448D02*
X002026Y013383D01*
X002026Y012088D01*
X002024Y012059D01*
X002015Y012031D01*
X002001Y012006D01*
X001982Y011983D01*
X001945Y011956D01*
X001903Y011937D01*
X001858Y011927D01*
X001806Y011925D01*
X001755Y011931D01*
X001694Y011943D01*
X001074Y012100D01*
X001007Y012123D01*
X000945Y012155D01*
X000887Y012196D01*
X000836Y012245D01*
X000798Y012289D01*
X000769Y012339D01*
X000749Y012394D01*
X000745Y012422D01*
X000745Y012449D01*
X000745Y013710D01*
X001016Y013644D01*
X001016Y012466D01*
X001755Y012277D01*
X001755Y013448D01*
X001755Y013338D02*
X002026Y013338D01*
X002026Y013279D02*
X001755Y013279D01*
X001755Y013221D02*
X002026Y013221D01*
X002026Y013162D02*
X001755Y013162D01*
X001755Y013104D02*
X002026Y013104D01*
X002026Y013045D02*
X001755Y013045D01*
X001755Y012987D02*
X002026Y012987D01*
X002026Y012928D02*
X001755Y012928D01*
X001755Y012870D02*
X002026Y012870D01*
X002026Y012811D02*
X001755Y012811D01*
X001755Y012753D02*
X002026Y012753D01*
X002026Y012694D02*
X001755Y012694D01*
X001755Y012636D02*
X002026Y012636D01*
X002026Y012577D02*
X001755Y012577D01*
X001755Y012519D02*
X002026Y012519D01*
X002026Y012460D02*
X001755Y012460D01*
X001755Y012402D02*
X002026Y012402D01*
X002026Y012343D02*
X001755Y012343D01*
X001755Y012285D02*
X002026Y012285D01*
X002026Y012226D02*
X000856Y012226D01*
X000802Y012285D02*
X001724Y012285D01*
X001496Y012343D02*
X000767Y012343D01*
X000748Y012402D02*
X001268Y012402D01*
X001040Y012460D02*
X000745Y012460D01*
X000745Y012519D02*
X001016Y012519D01*
X001016Y012577D02*
X000745Y012577D01*
X000745Y012636D02*
X001016Y012636D01*
X001016Y012694D02*
X000745Y012694D01*
X000745Y012753D02*
X001016Y012753D01*
X001016Y012811D02*
X000745Y012811D01*
X000745Y012870D02*
X001016Y012870D01*
X001016Y012928D02*
X000745Y012928D01*
X000745Y012987D02*
X001016Y012987D01*
X001016Y013045D02*
X000745Y013045D01*
X000745Y013104D02*
X001016Y013104D01*
X001016Y013162D02*
X000745Y013162D01*
X000745Y013221D02*
X001016Y013221D01*
X001016Y013279D02*
X000745Y013279D01*
X000745Y013338D02*
X001016Y013338D01*
X001016Y013396D02*
X000745Y013396D01*
X000745Y013455D02*
X001016Y013455D01*
X001016Y013513D02*
X000745Y013513D01*
X000745Y013572D02*
X001016Y013572D01*
X001016Y013630D02*
X000745Y013630D01*
X000745Y013689D02*
X000832Y013689D01*
X000745Y014274D02*
X001016Y014274D01*
X001016Y014332D02*
X000745Y014332D01*
X000745Y014391D02*
X001016Y014391D01*
X001016Y014449D02*
X000745Y014449D01*
X000745Y014508D02*
X001016Y014508D01*
X001016Y014566D02*
X000745Y014566D01*
X000745Y014625D02*
X001016Y014625D01*
X001016Y014683D02*
X000745Y014683D01*
X000745Y014742D02*
X001016Y014742D01*
X001016Y014800D02*
X000745Y014800D01*
X000745Y014859D02*
X001016Y014859D01*
X001016Y014917D02*
X000745Y014917D01*
X000745Y014976D02*
X001016Y014976D01*
X001016Y015034D02*
X000745Y015034D01*
X000927Y012168D02*
X002026Y012168D01*
X002026Y012109D02*
X001049Y012109D01*
X001270Y012051D02*
X002021Y012051D01*
X001989Y011992D02*
X001500Y011992D01*
X001430Y011758D02*
X000745Y011758D01*
X000745Y011700D02*
X001657Y011700D01*
X001883Y011641D02*
X000745Y011641D01*
X000745Y011590D02*
X000745Y011935D01*
X002026Y011604D01*
X002026Y011259D01*
X000745Y011590D01*
X000772Y011583D02*
X002026Y011583D01*
X002026Y011524D02*
X000998Y011524D01*
X001225Y011466D02*
X002026Y011466D01*
X002026Y011407D02*
X001451Y011407D01*
X001678Y011349D02*
X002026Y011349D01*
X002026Y011290D02*
X001904Y011290D01*
X001839Y011056D02*
X000745Y011056D01*
X000745Y011088D02*
X000746Y011124D01*
X000755Y011159D01*
X000772Y011192D01*
X000795Y011220D01*
X000829Y011245D01*
X000868Y011262D01*
X000910Y011270D01*
X000984Y011270D01*
X001058Y011259D01*
X002026Y011007D01*
X002026Y010662D01*
X001016Y010927D01*
X001016Y010477D01*
X002026Y010216D01*
X002026Y009866D01*
X001016Y010131D01*
X001016Y009681D01*
X002026Y009420D01*
X002026Y009071D01*
X000745Y009402D01*
X000745Y011088D01*
X000746Y011115D02*
X001614Y011115D01*
X001388Y011173D02*
X000763Y011173D01*
X000811Y011232D02*
X001163Y011232D01*
X001193Y010881D02*
X002026Y010881D01*
X002026Y010939D02*
X000745Y010939D01*
X000745Y010881D02*
X001016Y010881D01*
X001016Y010822D02*
X000745Y010822D01*
X000745Y010764D02*
X001016Y010764D01*
X001016Y010705D02*
X000745Y010705D01*
X000745Y010647D02*
X001016Y010647D01*
X001016Y010588D02*
X000745Y010588D01*
X000745Y010530D02*
X001016Y010530D01*
X001039Y010471D02*
X000745Y010471D01*
X000745Y010413D02*
X001266Y010413D01*
X001492Y010354D02*
X000745Y010354D01*
X000745Y010296D02*
X001718Y010296D01*
X001944Y010237D02*
X000745Y010237D01*
X000745Y010179D02*
X002026Y010179D01*
X002026Y010120D02*
X001060Y010120D01*
X001016Y010120D02*
X000745Y010120D01*
X000745Y010062D02*
X001016Y010062D01*
X001016Y010003D02*
X000745Y010003D01*
X000745Y009945D02*
X001016Y009945D01*
X001016Y009886D02*
X000745Y009886D01*
X000745Y009828D02*
X001016Y009828D01*
X001016Y009769D02*
X000745Y009769D01*
X000745Y009711D02*
X001016Y009711D01*
X001130Y009652D02*
X000745Y009652D01*
X000745Y009594D02*
X001356Y009594D01*
X001582Y009535D02*
X000745Y009535D01*
X000745Y009477D02*
X001808Y009477D01*
X002026Y009418D02*
X000745Y009418D01*
X000908Y009360D02*
X002026Y009360D01*
X002026Y009301D02*
X001134Y009301D01*
X001361Y009243D02*
X002026Y009243D01*
X002026Y009184D02*
X001587Y009184D01*
X001814Y009126D02*
X002026Y009126D01*
X002026Y008840D02*
X002026Y008428D01*
X001620Y008206D01*
X002026Y007769D01*
X002026Y007381D01*
X001396Y008076D01*
X000745Y007708D01*
X000745Y008116D01*
X001151Y008338D01*
X000745Y008779D01*
X000745Y009167D01*
X001386Y008468D01*
X002026Y008840D01*
X002026Y008833D02*
X002014Y008833D01*
X002026Y008775D02*
X001913Y008775D01*
X001813Y008716D02*
X002026Y008716D01*
X002026Y008658D02*
X001712Y008658D01*
X001611Y008599D02*
X002026Y008599D01*
X002026Y008541D02*
X001511Y008541D01*
X001410Y008482D02*
X002026Y008482D01*
X002018Y008424D02*
X001072Y008424D01*
X001019Y008482D02*
X001373Y008482D01*
X001319Y008541D02*
X000965Y008541D01*
X000911Y008599D02*
X001266Y008599D01*
X001212Y008658D02*
X000857Y008658D01*
X000803Y008716D02*
X001158Y008716D01*
X001105Y008775D02*
X000749Y008775D01*
X000745Y008833D02*
X001051Y008833D01*
X000998Y008892D02*
X000745Y008892D01*
X000745Y008950D02*
X000944Y008950D01*
X000890Y009009D02*
X000745Y009009D01*
X000745Y009067D02*
X000837Y009067D01*
X000783Y009126D02*
X000745Y009126D01*
X001126Y008365D02*
X001911Y008365D01*
X001804Y008307D02*
X001093Y008307D01*
X000986Y008248D02*
X001697Y008248D01*
X001636Y008190D02*
X000880Y008190D01*
X000773Y008131D02*
X001690Y008131D01*
X001744Y008073D02*
X001399Y008073D01*
X001389Y008073D02*
X000745Y008073D01*
X000745Y008014D02*
X001286Y008014D01*
X001183Y007956D02*
X000745Y007956D01*
X000745Y007897D02*
X001079Y007897D01*
X000976Y007839D02*
X000745Y007839D01*
X000745Y007780D02*
X000873Y007780D01*
X000769Y007722D02*
X000745Y007722D01*
X001452Y008014D02*
X001799Y008014D01*
X001853Y007956D02*
X001505Y007956D01*
X001558Y007897D02*
X001907Y007897D01*
X001962Y007839D02*
X001611Y007839D01*
X001664Y007780D02*
X002016Y007780D01*
X002026Y007722D02*
X001717Y007722D01*
X001770Y007663D02*
X002026Y007663D01*
X002026Y007605D02*
X001823Y007605D01*
X001877Y007546D02*
X002026Y007546D01*
X002026Y007488D02*
X001930Y007488D01*
X001983Y007429D02*
X002026Y007429D01*
X002026Y009886D02*
X001951Y009886D01*
X002026Y009945D02*
X001728Y009945D01*
X001505Y010003D02*
X002026Y010003D01*
X002026Y010062D02*
X001283Y010062D01*
X001862Y010705D02*
X002026Y010705D01*
X002026Y010764D02*
X001639Y010764D01*
X001416Y010822D02*
X002026Y010822D01*
X002026Y010998D02*
X000745Y010998D01*
X000745Y011817D02*
X001204Y011817D01*
X000977Y011875D02*
X000745Y011875D01*
X000745Y011934D02*
X000751Y011934D01*
X001741Y011934D02*
X001887Y011934D01*
D18*
X009180Y001915D02*
X009180Y041850D01*
X010180Y041850D02*
X010180Y001915D01*
X011180Y001915D02*
X011180Y041850D01*
X012180Y041850D02*
X012180Y001915D01*
X013180Y001915D02*
X013180Y041850D01*
X014180Y041850D02*
X014180Y001915D01*
X015180Y001915D02*
X015180Y041850D01*
X016180Y041850D02*
X016180Y001915D01*
X017180Y001915D02*
X017180Y041850D01*
X018180Y041850D02*
X018180Y001915D01*
X019180Y001915D02*
X019180Y041850D01*
X020180Y041850D02*
X020180Y001915D01*
X021180Y001915D02*
X021180Y041850D01*
X022180Y041850D02*
X022180Y001915D01*
X023180Y001915D02*
X023180Y041850D01*
X024180Y041850D02*
X024180Y001915D01*
X025180Y001915D02*
X025180Y041850D01*
X026180Y041850D02*
X026180Y001915D01*
X027180Y001915D02*
X027180Y041850D01*
X028180Y041850D02*
X028180Y001915D01*
X029180Y001915D02*
X029180Y041850D01*
X030180Y041850D02*
X030180Y001915D01*
X031180Y001915D02*
X031180Y041850D01*
X032180Y041850D02*
X032180Y001915D01*
X033180Y001915D02*
X033180Y041850D01*
X034180Y041850D02*
X034180Y001915D01*
X035180Y001915D02*
X035180Y041850D01*
M02*
