G75*
G70*
%OFA0B0*%
%FSLAX24Y24*%
%IPPOS*%
%LPD*%
%AMOC8*
5,1,8,0,0,1.08239X$1,22.5*
%
%ADD10C,0.0080*%
%ADD11C,0.0050*%
%ADD12C,0.0040*%
D10*
X001595Y017640D02*
X001875Y017640D01*
X002015Y017780D01*
X001875Y017920D01*
X001595Y017920D01*
X001735Y018100D02*
X001595Y018241D01*
X002015Y018241D01*
X002015Y018381D02*
X002015Y018100D01*
X001265Y018170D02*
X000845Y017890D01*
X000845Y018170D02*
X001265Y017890D01*
X001265Y018350D02*
X000845Y018350D01*
X000985Y018491D01*
X000845Y018631D01*
X001265Y018631D01*
X001265Y018811D02*
X001265Y018951D01*
X001265Y018881D02*
X000845Y018881D01*
X000845Y018811D02*
X000845Y018951D01*
X000915Y019118D02*
X001195Y019118D01*
X001265Y019188D01*
X001265Y019328D01*
X001195Y019398D01*
X001265Y019578D02*
X000845Y019578D01*
X000845Y019788D01*
X000915Y019858D01*
X001055Y019858D01*
X001125Y019788D01*
X001125Y019578D01*
X001125Y019718D02*
X001265Y019858D01*
X001195Y020038D02*
X001265Y020109D01*
X001265Y020249D01*
X001195Y020319D01*
X000915Y020319D01*
X000845Y020249D01*
X000845Y020109D01*
X000915Y020038D01*
X001195Y020038D01*
X001595Y020082D02*
X002015Y020082D01*
X002015Y019942D02*
X002015Y020222D01*
X002015Y020402D02*
X001735Y020683D01*
X001665Y020683D01*
X001595Y020613D01*
X001595Y020472D01*
X001665Y020402D01*
X001595Y020082D02*
X001735Y019942D01*
X001805Y019762D02*
X001805Y019552D01*
X001735Y019482D01*
X001665Y019482D01*
X001595Y019552D01*
X001595Y019692D01*
X001665Y019762D01*
X001945Y019762D01*
X002015Y019692D01*
X002015Y019552D01*
X001945Y019482D01*
X002015Y019301D02*
X002015Y019021D01*
X002015Y019161D02*
X001595Y019161D01*
X001735Y019021D01*
X000915Y019118D02*
X000845Y019188D01*
X000845Y019328D01*
X000915Y019398D01*
X001055Y020499D02*
X001055Y020779D01*
X001055Y020959D02*
X001055Y021099D01*
X000845Y020959D02*
X001265Y020959D01*
X001265Y021240D01*
X001265Y021420D02*
X000845Y021700D01*
X000845Y021880D02*
X000845Y022160D01*
X000845Y022020D02*
X001265Y022020D01*
X001265Y021700D02*
X000845Y021420D01*
X000845Y021240D02*
X000845Y020959D01*
X002015Y020683D02*
X002015Y020402D01*
D11*
X004680Y035850D02*
X005680Y035850D01*
X005180Y036850D01*
X004680Y035850D01*
X004698Y035886D02*
X005662Y035886D01*
X005638Y035935D02*
X004722Y035935D01*
X004747Y035983D02*
X005613Y035983D01*
X005589Y036032D02*
X004771Y036032D01*
X004795Y036080D02*
X005565Y036080D01*
X005541Y036129D02*
X004819Y036129D01*
X004844Y036177D02*
X005516Y036177D01*
X005492Y036226D02*
X004868Y036226D01*
X004892Y036274D02*
X005468Y036274D01*
X005444Y036323D02*
X004916Y036323D01*
X004941Y036371D02*
X005419Y036371D01*
X005395Y036420D02*
X004965Y036420D01*
X004989Y036468D02*
X005371Y036468D01*
X005347Y036517D02*
X005013Y036517D01*
X005038Y036565D02*
X005322Y036565D01*
X005298Y036614D02*
X005062Y036614D01*
X005086Y036662D02*
X005274Y036662D01*
X005250Y036711D02*
X005110Y036711D01*
X005135Y036759D02*
X005225Y036759D01*
X005201Y036808D02*
X005159Y036808D01*
X004680Y004600D02*
X005180Y003600D01*
X005680Y004600D01*
X004680Y004600D01*
X004702Y004555D02*
X005658Y004555D01*
X005633Y004507D02*
X004727Y004507D01*
X004751Y004458D02*
X005609Y004458D01*
X005585Y004410D02*
X004775Y004410D01*
X004799Y004361D02*
X005561Y004361D01*
X005536Y004313D02*
X004824Y004313D01*
X004848Y004264D02*
X005512Y004264D01*
X005488Y004216D02*
X004872Y004216D01*
X004896Y004167D02*
X005464Y004167D01*
X005439Y004119D02*
X004921Y004119D01*
X004945Y004070D02*
X005415Y004070D01*
X005391Y004022D02*
X004969Y004022D01*
X004993Y003973D02*
X005367Y003973D01*
X005342Y003925D02*
X005018Y003925D01*
X005042Y003876D02*
X005318Y003876D01*
X005294Y003828D02*
X005066Y003828D01*
X005090Y003779D02*
X005270Y003779D01*
X005245Y003731D02*
X005115Y003731D01*
X005139Y003682D02*
X005221Y003682D01*
X005197Y003634D02*
X005163Y003634D01*
X039205Y006700D02*
X039280Y006625D01*
X039580Y006625D01*
X039655Y006700D01*
X039655Y006850D01*
X039580Y006925D01*
X039655Y007085D02*
X039205Y007085D01*
X039280Y006925D02*
X039205Y006850D01*
X039205Y006700D01*
X039430Y007085D02*
X039430Y007386D01*
X039505Y007546D02*
X039505Y007771D01*
X039430Y007846D01*
X039280Y007846D01*
X039205Y007771D01*
X039205Y007546D01*
X039655Y007546D01*
X039655Y007386D02*
X039205Y007386D01*
X039505Y007696D02*
X039655Y007846D01*
X039655Y008006D02*
X039655Y008156D01*
X039655Y008081D02*
X039205Y008081D01*
X039205Y008006D02*
X039205Y008156D01*
X039280Y008313D02*
X039355Y008313D01*
X039430Y008388D01*
X039430Y008538D01*
X039505Y008613D01*
X039580Y008613D01*
X039655Y008538D01*
X039655Y008388D01*
X039580Y008313D01*
X039280Y008313D02*
X039205Y008388D01*
X039205Y008538D01*
X039280Y008613D01*
X039205Y009234D02*
X039655Y009234D01*
X039505Y009384D01*
X039655Y009534D01*
X039205Y009534D01*
X039205Y009694D02*
X039655Y009694D01*
X039655Y009995D01*
X039655Y010155D02*
X039655Y010305D01*
X039655Y010230D02*
X039205Y010230D01*
X039205Y010155D02*
X039205Y010305D01*
X039205Y010462D02*
X039205Y010687D01*
X039280Y010762D01*
X039430Y010762D01*
X039505Y010687D01*
X039505Y010462D01*
X039505Y010612D02*
X039655Y010762D01*
X039655Y010462D02*
X039205Y010462D01*
X039205Y009995D02*
X039205Y009694D01*
X039430Y009694D02*
X039430Y009844D01*
X039280Y011382D02*
X039205Y011457D01*
X039205Y011608D01*
X039280Y011683D01*
X039355Y011683D01*
X039655Y011382D01*
X039655Y011683D01*
X039580Y011843D02*
X039280Y012143D01*
X039580Y012143D01*
X039655Y012068D01*
X039655Y011918D01*
X039580Y011843D01*
X039280Y011843D01*
X039205Y011918D01*
X039205Y012068D01*
X039280Y012143D01*
X039355Y012303D02*
X039205Y012453D01*
X039655Y012453D01*
X039655Y012303D02*
X039655Y012603D01*
X039580Y012764D02*
X039655Y012839D01*
X039655Y012989D01*
X039580Y013064D01*
X039280Y013064D01*
X039205Y012989D01*
X039205Y012839D01*
X039280Y012764D01*
X039355Y012764D01*
X039430Y012839D01*
X039430Y013064D01*
D12*
X004507Y004120D02*
X004200Y004120D01*
X004353Y004120D02*
X004353Y004580D01*
X004200Y004427D01*
X035700Y004350D02*
X035700Y004197D01*
X035777Y004120D01*
X035930Y004120D01*
X036007Y004197D01*
X036007Y004273D01*
X035930Y004350D01*
X035700Y004350D01*
X035853Y004504D01*
X036007Y004580D01*
X036160Y004427D02*
X036314Y004580D01*
X036314Y004120D01*
X036467Y004120D02*
X036160Y004120D01*
M02*
