G75*
G70*
%OFA0B0*%
%FSLAX24Y24*%
%IPPOS*%
%LPD*%
%AMOC8*
5,1,8,0,0,1.08239X$1,22.5*
%
%ADD10R,0.0650X0.2350*%
%ADD11C,0.0600*%
%ADD12C,0.2500*%
%ADD13C,0.0120*%
%ADD14C,0.0500*%
%ADD15C,0.0600*%
%ADD16C,0.0240*%
D10*
X005180Y001915D03*
X006180Y001915D03*
X007180Y001915D03*
X008180Y001915D03*
X009180Y001915D03*
X010180Y001915D03*
X011180Y001915D03*
X012180Y001915D03*
X013180Y001915D03*
X014180Y001915D03*
X015180Y001915D03*
X016180Y001915D03*
X017180Y001915D03*
X018180Y001915D03*
X019180Y001915D03*
X020180Y001915D03*
X021180Y001915D03*
X022180Y001915D03*
X023180Y001915D03*
X024180Y001915D03*
X025180Y001915D03*
X026180Y001915D03*
X027180Y001915D03*
X028180Y001915D03*
X029180Y001915D03*
X030180Y001915D03*
X031180Y001915D03*
X032180Y001915D03*
X033180Y001915D03*
X034180Y001915D03*
X035180Y001915D03*
D11*
X035180Y040005D02*
X035180Y040605D01*
X034180Y040605D02*
X034180Y040005D01*
X033180Y040005D02*
X033180Y040605D01*
X032180Y040605D02*
X032180Y040005D01*
X031180Y040005D02*
X031180Y040605D01*
X030180Y040605D02*
X030180Y040005D01*
X029180Y040005D02*
X029180Y040605D01*
X028180Y040605D02*
X028180Y040005D01*
X027180Y040005D02*
X027180Y040605D01*
X026180Y040605D02*
X026180Y040005D01*
X025180Y040005D02*
X025180Y040605D01*
X024180Y040605D02*
X024180Y040005D01*
X023180Y040005D02*
X023180Y040605D01*
X022180Y040605D02*
X022180Y040005D01*
X021180Y040005D02*
X021180Y040605D01*
X020180Y040605D02*
X020180Y040005D01*
X019180Y040005D02*
X019180Y040605D01*
X018180Y040605D02*
X018180Y040005D01*
X017180Y040005D02*
X017180Y040605D01*
X016180Y040605D02*
X016180Y040005D01*
X015180Y040005D02*
X015180Y040605D01*
X014180Y040605D02*
X014180Y040005D01*
X013180Y040005D02*
X013180Y040605D01*
X012180Y040605D02*
X012180Y040005D01*
X011180Y040005D02*
X011180Y040605D01*
X010180Y040605D02*
X010180Y040005D01*
X009180Y040005D02*
X009180Y040605D01*
X008180Y040605D02*
X008180Y040005D01*
X007180Y040005D02*
X007180Y040605D01*
X006180Y040605D02*
X006180Y040005D01*
X005180Y040005D02*
X005180Y040605D01*
D12*
X002180Y041100D03*
X002180Y005100D03*
X038180Y005100D03*
X038180Y041100D03*
D13*
X000640Y042640D02*
X000640Y003560D01*
X004180Y003560D01*
X004180Y003600D01*
X004720Y003600D01*
X004720Y039783D01*
X004670Y039904D01*
X004670Y040706D01*
X004748Y040894D01*
X004891Y041037D01*
X005079Y041115D01*
X005281Y041115D01*
X005469Y041037D01*
X005612Y040894D01*
X005690Y040706D01*
X005690Y039904D01*
X005640Y039783D01*
X005640Y003600D01*
X006720Y003600D01*
X006720Y039783D01*
X006670Y039904D01*
X006670Y040706D01*
X006748Y040894D01*
X006891Y041037D01*
X007079Y041115D01*
X007281Y041115D01*
X007469Y041037D01*
X007612Y040894D01*
X007680Y040731D01*
X007748Y040894D01*
X007891Y041037D01*
X008079Y041115D01*
X008281Y041115D01*
X008469Y041037D01*
X008612Y040894D01*
X008680Y040731D01*
X008748Y040894D01*
X008891Y041037D01*
X009079Y041115D01*
X009281Y041115D01*
X009469Y041037D01*
X009612Y040894D01*
X009680Y040731D01*
X009748Y040894D01*
X009891Y041037D01*
X010079Y041115D01*
X010281Y041115D01*
X010469Y041037D01*
X010612Y040894D01*
X010680Y040731D01*
X010748Y040894D01*
X010891Y041037D01*
X011079Y041115D01*
X011281Y041115D01*
X011469Y041037D01*
X011612Y040894D01*
X011680Y040731D01*
X011748Y040894D01*
X011891Y041037D01*
X012079Y041115D01*
X012281Y041115D01*
X012469Y041037D01*
X012612Y040894D01*
X012680Y040731D01*
X012748Y040894D01*
X012891Y041037D01*
X013079Y041115D01*
X013281Y041115D01*
X013469Y041037D01*
X013612Y040894D01*
X013680Y040731D01*
X013748Y040894D01*
X013891Y041037D01*
X014079Y041115D01*
X014281Y041115D01*
X014469Y041037D01*
X014612Y040894D01*
X014680Y040731D01*
X014748Y040894D01*
X014891Y041037D01*
X015079Y041115D01*
X015281Y041115D01*
X015469Y041037D01*
X015612Y040894D01*
X015680Y040731D01*
X015748Y040894D01*
X015891Y041037D01*
X016079Y041115D01*
X016281Y041115D01*
X016469Y041037D01*
X016612Y040894D01*
X016680Y040731D01*
X016748Y040894D01*
X016891Y041037D01*
X017079Y041115D01*
X017281Y041115D01*
X017469Y041037D01*
X017612Y040894D01*
X017680Y040731D01*
X017748Y040894D01*
X017891Y041037D01*
X018079Y041115D01*
X018281Y041115D01*
X018469Y041037D01*
X018612Y040894D01*
X018680Y040731D01*
X018748Y040894D01*
X018891Y041037D01*
X019079Y041115D01*
X019281Y041115D01*
X019469Y041037D01*
X019612Y040894D01*
X019680Y040731D01*
X019748Y040894D01*
X019891Y041037D01*
X020079Y041115D01*
X020281Y041115D01*
X020469Y041037D01*
X020612Y040894D01*
X020680Y040731D01*
X020748Y040894D01*
X020891Y041037D01*
X021079Y041115D01*
X021281Y041115D01*
X021469Y041037D01*
X021612Y040894D01*
X021680Y040731D01*
X021748Y040894D01*
X021891Y041037D01*
X022079Y041115D01*
X022281Y041115D01*
X022469Y041037D01*
X022612Y040894D01*
X022680Y040731D01*
X022748Y040894D01*
X022891Y041037D01*
X023079Y041115D01*
X023281Y041115D01*
X023469Y041037D01*
X023612Y040894D01*
X023680Y040731D01*
X023748Y040894D01*
X023891Y041037D01*
X024079Y041115D01*
X024281Y041115D01*
X024469Y041037D01*
X024612Y040894D01*
X024680Y040731D01*
X024748Y040894D01*
X024891Y041037D01*
X025079Y041115D01*
X025281Y041115D01*
X025469Y041037D01*
X025612Y040894D01*
X025680Y040731D01*
X025748Y040894D01*
X025891Y041037D01*
X026079Y041115D01*
X026281Y041115D01*
X026469Y041037D01*
X026612Y040894D01*
X026680Y040731D01*
X026748Y040894D01*
X026891Y041037D01*
X027079Y041115D01*
X027281Y041115D01*
X027469Y041037D01*
X027612Y040894D01*
X027680Y040731D01*
X027748Y040894D01*
X027891Y041037D01*
X028079Y041115D01*
X028281Y041115D01*
X028469Y041037D01*
X028612Y040894D01*
X028680Y040731D01*
X028748Y040894D01*
X028891Y041037D01*
X029079Y041115D01*
X029281Y041115D01*
X029469Y041037D01*
X029612Y040894D01*
X029680Y040731D01*
X029748Y040894D01*
X029891Y041037D01*
X030079Y041115D01*
X030281Y041115D01*
X030469Y041037D01*
X030612Y040894D01*
X030680Y040731D01*
X030748Y040894D01*
X030891Y041037D01*
X031079Y041115D01*
X031281Y041115D01*
X031469Y041037D01*
X031612Y040894D01*
X031680Y040731D01*
X031748Y040894D01*
X031891Y041037D01*
X032079Y041115D01*
X032281Y041115D01*
X032469Y041037D01*
X032612Y040894D01*
X032680Y040731D01*
X032748Y040894D01*
X032891Y041037D01*
X033079Y041115D01*
X033281Y041115D01*
X033469Y041037D01*
X033612Y040894D01*
X033680Y040731D01*
X033748Y040894D01*
X033891Y041037D01*
X034079Y041115D01*
X034281Y041115D01*
X034469Y041037D01*
X034612Y040894D01*
X034690Y040706D01*
X034690Y039904D01*
X034612Y039716D01*
X034510Y039614D01*
X034510Y003600D01*
X036180Y003600D01*
X036180Y003560D01*
X039720Y003560D01*
X039720Y042640D01*
X000640Y042640D01*
X000640Y042561D02*
X039720Y042561D01*
X039720Y042442D02*
X000640Y042442D01*
X000640Y042324D02*
X039720Y042324D01*
X039720Y042205D02*
X000640Y042205D01*
X000640Y042087D02*
X039720Y042087D01*
X039720Y041968D02*
X000640Y041968D01*
X000640Y041850D02*
X039720Y041850D01*
X039720Y041731D02*
X000640Y041731D01*
X000640Y041613D02*
X039720Y041613D01*
X039720Y041494D02*
X000640Y041494D01*
X000640Y041376D02*
X039720Y041376D01*
X039720Y041257D02*
X000640Y041257D01*
X000640Y041139D02*
X039720Y041139D01*
X039720Y041020D02*
X035379Y041020D01*
X035357Y041031D02*
X035288Y041054D01*
X035220Y041064D01*
X035220Y040345D01*
X035640Y040345D01*
X035640Y040641D01*
X035629Y040713D01*
X035606Y040782D01*
X035573Y040846D01*
X035531Y040905D01*
X035480Y040956D01*
X035421Y040998D01*
X035357Y041031D01*
X035220Y041020D02*
X035140Y041020D01*
X035140Y041064D02*
X035072Y041054D01*
X035003Y041031D01*
X034939Y040998D01*
X034880Y040956D01*
X034829Y040905D01*
X034787Y040846D01*
X034754Y040782D01*
X034731Y040713D01*
X034720Y040641D01*
X034720Y040345D01*
X035140Y040345D01*
X035140Y041064D01*
X035140Y040902D02*
X035220Y040902D01*
X035220Y040783D02*
X035140Y040783D01*
X035140Y040665D02*
X035220Y040665D01*
X035220Y040546D02*
X035140Y040546D01*
X035140Y040428D02*
X035220Y040428D01*
X035220Y040345D02*
X035140Y040345D01*
X035140Y040265D01*
X035220Y040265D01*
X035220Y040345D01*
X035220Y040309D02*
X039720Y040309D01*
X039720Y040191D02*
X035640Y040191D01*
X035640Y040265D02*
X035220Y040265D01*
X035220Y039546D01*
X035288Y039556D01*
X035357Y039579D01*
X035421Y039612D01*
X035480Y039654D01*
X035531Y039705D01*
X035573Y039764D01*
X035606Y039828D01*
X035629Y039897D01*
X035640Y039969D01*
X035640Y040265D01*
X035640Y040428D02*
X039720Y040428D01*
X039720Y040546D02*
X035640Y040546D01*
X035636Y040665D02*
X039720Y040665D01*
X039720Y040783D02*
X035606Y040783D01*
X035533Y040902D02*
X039720Y040902D01*
X039720Y040072D02*
X035640Y040072D01*
X035638Y039954D02*
X039720Y039954D01*
X039720Y039835D02*
X035608Y039835D01*
X035539Y039717D02*
X039720Y039717D01*
X039720Y039598D02*
X035395Y039598D01*
X035220Y039598D02*
X035140Y039598D01*
X035140Y039546D02*
X035140Y040265D01*
X034720Y040265D01*
X034720Y039969D01*
X034731Y039897D01*
X034754Y039828D01*
X034787Y039764D01*
X034829Y039705D01*
X034880Y039654D01*
X034939Y039612D01*
X035003Y039579D01*
X035072Y039556D01*
X035140Y039546D01*
X035140Y039717D02*
X035220Y039717D01*
X035220Y039835D02*
X035140Y039835D01*
X035140Y039954D02*
X035220Y039954D01*
X035220Y040072D02*
X035140Y040072D01*
X035140Y040191D02*
X035220Y040191D01*
X035140Y040309D02*
X034690Y040309D01*
X034690Y040191D02*
X034720Y040191D01*
X034720Y040072D02*
X034690Y040072D01*
X034690Y039954D02*
X034722Y039954D01*
X034752Y039835D02*
X034662Y039835D01*
X034613Y039717D02*
X034821Y039717D01*
X034965Y039598D02*
X034510Y039598D01*
X034510Y039480D02*
X039720Y039480D01*
X039720Y039361D02*
X034510Y039361D01*
X034510Y039243D02*
X039720Y039243D01*
X039720Y039124D02*
X034510Y039124D01*
X034510Y039006D02*
X039720Y039006D01*
X039720Y038887D02*
X034510Y038887D01*
X034510Y038769D02*
X039720Y038769D01*
X039720Y038650D02*
X034510Y038650D01*
X034510Y038532D02*
X039720Y038532D01*
X039720Y038413D02*
X034510Y038413D01*
X034510Y038295D02*
X039720Y038295D01*
X039720Y038176D02*
X034510Y038176D01*
X034510Y038058D02*
X039720Y038058D01*
X039720Y037939D02*
X034510Y037939D01*
X034510Y037821D02*
X039720Y037821D01*
X039720Y037702D02*
X034510Y037702D01*
X034510Y037584D02*
X039720Y037584D01*
X039720Y037465D02*
X034510Y037465D01*
X034510Y037347D02*
X039720Y037347D01*
X039720Y037228D02*
X034510Y037228D01*
X034510Y037110D02*
X039720Y037110D01*
X039720Y036991D02*
X034510Y036991D01*
X034510Y036873D02*
X039720Y036873D01*
X039720Y036754D02*
X034510Y036754D01*
X034510Y036636D02*
X039720Y036636D01*
X039720Y036517D02*
X034510Y036517D01*
X034510Y036399D02*
X039720Y036399D01*
X039720Y036280D02*
X034510Y036280D01*
X034510Y036162D02*
X039720Y036162D01*
X039720Y036043D02*
X034510Y036043D01*
X034510Y035925D02*
X039720Y035925D01*
X039720Y035806D02*
X034510Y035806D01*
X034510Y035688D02*
X039720Y035688D01*
X039720Y035569D02*
X034510Y035569D01*
X034510Y035451D02*
X039720Y035451D01*
X039720Y035332D02*
X034510Y035332D01*
X034510Y035214D02*
X039720Y035214D01*
X039720Y035095D02*
X034510Y035095D01*
X034510Y034977D02*
X039720Y034977D01*
X039720Y034858D02*
X034510Y034858D01*
X034510Y034740D02*
X039720Y034740D01*
X039720Y034621D02*
X034510Y034621D01*
X034510Y034503D02*
X039720Y034503D01*
X039720Y034384D02*
X034510Y034384D01*
X034510Y034266D02*
X039720Y034266D01*
X039720Y034147D02*
X034510Y034147D01*
X034510Y034029D02*
X039720Y034029D01*
X039720Y033910D02*
X034510Y033910D01*
X034510Y033792D02*
X039720Y033792D01*
X039720Y033673D02*
X034510Y033673D01*
X034510Y033555D02*
X039720Y033555D01*
X039720Y033436D02*
X034510Y033436D01*
X034510Y033318D02*
X039720Y033318D01*
X039720Y033199D02*
X034510Y033199D01*
X034510Y033081D02*
X039720Y033081D01*
X039720Y032962D02*
X034510Y032962D01*
X034510Y032844D02*
X039720Y032844D01*
X039720Y032725D02*
X034510Y032725D01*
X034510Y032607D02*
X039720Y032607D01*
X039720Y032488D02*
X034510Y032488D01*
X034510Y032370D02*
X039720Y032370D01*
X039720Y032251D02*
X034510Y032251D01*
X034510Y032133D02*
X039720Y032133D01*
X039720Y032014D02*
X034510Y032014D01*
X034510Y031896D02*
X039720Y031896D01*
X039720Y031777D02*
X034510Y031777D01*
X034510Y031659D02*
X039720Y031659D01*
X039720Y031540D02*
X034510Y031540D01*
X034510Y031422D02*
X039720Y031422D01*
X039720Y031303D02*
X034510Y031303D01*
X034510Y031185D02*
X039720Y031185D01*
X039720Y031066D02*
X034510Y031066D01*
X034510Y030948D02*
X039720Y030948D01*
X039720Y030829D02*
X034510Y030829D01*
X034510Y030711D02*
X039720Y030711D01*
X039720Y030592D02*
X034510Y030592D01*
X034510Y030474D02*
X039720Y030474D01*
X039720Y030355D02*
X034510Y030355D01*
X034510Y030237D02*
X039720Y030237D01*
X039720Y030118D02*
X034510Y030118D01*
X034510Y030000D02*
X039720Y030000D01*
X039720Y029881D02*
X034510Y029881D01*
X034510Y029763D02*
X039720Y029763D01*
X039720Y029644D02*
X034510Y029644D01*
X034510Y029526D02*
X039720Y029526D01*
X039720Y029407D02*
X034510Y029407D01*
X034510Y029289D02*
X039720Y029289D01*
X039720Y029170D02*
X034510Y029170D01*
X034510Y029052D02*
X039720Y029052D01*
X039720Y028933D02*
X034510Y028933D01*
X034510Y028815D02*
X039720Y028815D01*
X039720Y028696D02*
X034510Y028696D01*
X034510Y028578D02*
X039720Y028578D01*
X039720Y028459D02*
X034510Y028459D01*
X034510Y028341D02*
X039720Y028341D01*
X039720Y028222D02*
X034510Y028222D01*
X034510Y028104D02*
X039720Y028104D01*
X039720Y027985D02*
X034510Y027985D01*
X034510Y027867D02*
X039720Y027867D01*
X039720Y027748D02*
X034510Y027748D01*
X034510Y027630D02*
X039720Y027630D01*
X039720Y027511D02*
X034510Y027511D01*
X034510Y027393D02*
X039720Y027393D01*
X039720Y027274D02*
X034510Y027274D01*
X034510Y027156D02*
X039720Y027156D01*
X039720Y027037D02*
X034510Y027037D01*
X034510Y026919D02*
X039720Y026919D01*
X039720Y026800D02*
X034510Y026800D01*
X034510Y026682D02*
X039720Y026682D01*
X039720Y026563D02*
X034510Y026563D01*
X034510Y026445D02*
X039720Y026445D01*
X039720Y026326D02*
X034510Y026326D01*
X034510Y026208D02*
X039720Y026208D01*
X039720Y026089D02*
X034510Y026089D01*
X034510Y025971D02*
X039720Y025971D01*
X039720Y025852D02*
X034510Y025852D01*
X034510Y025734D02*
X039720Y025734D01*
X039720Y025615D02*
X034510Y025615D01*
X034510Y025497D02*
X039720Y025497D01*
X039720Y025378D02*
X034510Y025378D01*
X034510Y025260D02*
X039720Y025260D01*
X039720Y025141D02*
X034510Y025141D01*
X034510Y025023D02*
X039720Y025023D01*
X039720Y024904D02*
X034510Y024904D01*
X034510Y024786D02*
X039720Y024786D01*
X039720Y024667D02*
X034510Y024667D01*
X034510Y024549D02*
X039720Y024549D01*
X039720Y024430D02*
X034510Y024430D01*
X034510Y024312D02*
X039720Y024312D01*
X039720Y024193D02*
X034510Y024193D01*
X034510Y024075D02*
X039720Y024075D01*
X039720Y023956D02*
X034510Y023956D01*
X034510Y023838D02*
X039720Y023838D01*
X039720Y023719D02*
X034510Y023719D01*
X034510Y023601D02*
X039720Y023601D01*
X039720Y023482D02*
X034510Y023482D01*
X034510Y023364D02*
X039720Y023364D01*
X039720Y023245D02*
X034510Y023245D01*
X034510Y023127D02*
X039720Y023127D01*
X039720Y023008D02*
X034510Y023008D01*
X034510Y022890D02*
X039720Y022890D01*
X039720Y022771D02*
X034510Y022771D01*
X034510Y022653D02*
X039720Y022653D01*
X039720Y022534D02*
X034510Y022534D01*
X034510Y022416D02*
X039720Y022416D01*
X039720Y022297D02*
X034510Y022297D01*
X034510Y022179D02*
X039720Y022179D01*
X039720Y022060D02*
X034510Y022060D01*
X034510Y021942D02*
X039720Y021942D01*
X039720Y021823D02*
X034510Y021823D01*
X034510Y021705D02*
X039720Y021705D01*
X039720Y021586D02*
X034510Y021586D01*
X034510Y021468D02*
X039720Y021468D01*
X039720Y021349D02*
X034510Y021349D01*
X034510Y021231D02*
X039720Y021231D01*
X039720Y021112D02*
X034510Y021112D01*
X034510Y020994D02*
X039720Y020994D01*
X039720Y020875D02*
X034510Y020875D01*
X034510Y020757D02*
X039720Y020757D01*
X039720Y020638D02*
X034510Y020638D01*
X034510Y020520D02*
X039720Y020520D01*
X039720Y020401D02*
X034510Y020401D01*
X034510Y020283D02*
X039720Y020283D01*
X039720Y020164D02*
X034510Y020164D01*
X034510Y020046D02*
X039720Y020046D01*
X039720Y019927D02*
X034510Y019927D01*
X034510Y019809D02*
X039720Y019809D01*
X039720Y019690D02*
X034510Y019690D01*
X034510Y019572D02*
X039720Y019572D01*
X039720Y019453D02*
X034510Y019453D01*
X034510Y019335D02*
X039720Y019335D01*
X039720Y019216D02*
X034510Y019216D01*
X034510Y019098D02*
X039720Y019098D01*
X039720Y018979D02*
X034510Y018979D01*
X034510Y018861D02*
X039720Y018861D01*
X039720Y018742D02*
X034510Y018742D01*
X034510Y018624D02*
X039720Y018624D01*
X039720Y018505D02*
X034510Y018505D01*
X034510Y018387D02*
X039720Y018387D01*
X039720Y018268D02*
X034510Y018268D01*
X034510Y018150D02*
X039720Y018150D01*
X039720Y018031D02*
X034510Y018031D01*
X034510Y017913D02*
X039720Y017913D01*
X039720Y017794D02*
X034510Y017794D01*
X034510Y017676D02*
X039720Y017676D01*
X039720Y017557D02*
X034510Y017557D01*
X034510Y017439D02*
X039720Y017439D01*
X039720Y017320D02*
X034510Y017320D01*
X034510Y017202D02*
X039720Y017202D01*
X039720Y017083D02*
X034510Y017083D01*
X034510Y016965D02*
X039720Y016965D01*
X039720Y016846D02*
X034510Y016846D01*
X034510Y016728D02*
X039720Y016728D01*
X039720Y016609D02*
X034510Y016609D01*
X034510Y016491D02*
X039720Y016491D01*
X039720Y016372D02*
X034510Y016372D01*
X034510Y016254D02*
X039720Y016254D01*
X039720Y016135D02*
X034510Y016135D01*
X034510Y016017D02*
X039720Y016017D01*
X039720Y015898D02*
X034510Y015898D01*
X034510Y015780D02*
X039720Y015780D01*
X039720Y015661D02*
X034510Y015661D01*
X034510Y015543D02*
X039720Y015543D01*
X039720Y015424D02*
X034510Y015424D01*
X034510Y015306D02*
X039720Y015306D01*
X039720Y015187D02*
X034510Y015187D01*
X034510Y015069D02*
X039720Y015069D01*
X039720Y014950D02*
X034510Y014950D01*
X034510Y014832D02*
X039720Y014832D01*
X039720Y014713D02*
X034510Y014713D01*
X034510Y014595D02*
X039720Y014595D01*
X039720Y014476D02*
X034510Y014476D01*
X034510Y014358D02*
X039720Y014358D01*
X039720Y014239D02*
X034510Y014239D01*
X034510Y014121D02*
X039720Y014121D01*
X039720Y014002D02*
X034510Y014002D01*
X034510Y013884D02*
X039720Y013884D01*
X039720Y013765D02*
X034510Y013765D01*
X034510Y013647D02*
X039720Y013647D01*
X039720Y013528D02*
X034510Y013528D01*
X034510Y013410D02*
X039720Y013410D01*
X039720Y013291D02*
X034510Y013291D01*
X034510Y013173D02*
X039720Y013173D01*
X039720Y013054D02*
X034510Y013054D01*
X034510Y012936D02*
X039720Y012936D01*
X039720Y012817D02*
X034510Y012817D01*
X034510Y012699D02*
X039720Y012699D01*
X039720Y012580D02*
X034510Y012580D01*
X034510Y012462D02*
X039720Y012462D01*
X039720Y012343D02*
X034510Y012343D01*
X034510Y012225D02*
X039720Y012225D01*
X039720Y012106D02*
X034510Y012106D01*
X034510Y011988D02*
X039720Y011988D01*
X039720Y011869D02*
X034510Y011869D01*
X034510Y011751D02*
X039720Y011751D01*
X039720Y011632D02*
X034510Y011632D01*
X034510Y011514D02*
X039720Y011514D01*
X039720Y011395D02*
X034510Y011395D01*
X034510Y011277D02*
X039720Y011277D01*
X039720Y011158D02*
X034510Y011158D01*
X034510Y011040D02*
X039720Y011040D01*
X039720Y010921D02*
X034510Y010921D01*
X034510Y010803D02*
X039720Y010803D01*
X039720Y010684D02*
X034510Y010684D01*
X034510Y010566D02*
X039720Y010566D01*
X039720Y010447D02*
X034510Y010447D01*
X034510Y010329D02*
X039720Y010329D01*
X039720Y010210D02*
X034510Y010210D01*
X034510Y010092D02*
X039720Y010092D01*
X039720Y009973D02*
X034510Y009973D01*
X034510Y009855D02*
X039720Y009855D01*
X039720Y009736D02*
X034510Y009736D01*
X034510Y009618D02*
X039720Y009618D01*
X039720Y009499D02*
X034510Y009499D01*
X034510Y009381D02*
X039720Y009381D01*
X039720Y009262D02*
X034510Y009262D01*
X034510Y009144D02*
X039720Y009144D01*
X039720Y009025D02*
X034510Y009025D01*
X034510Y008907D02*
X039720Y008907D01*
X039720Y008788D02*
X034510Y008788D01*
X034510Y008670D02*
X039720Y008670D01*
X039720Y008551D02*
X034510Y008551D01*
X034510Y008433D02*
X039720Y008433D01*
X039720Y008314D02*
X034510Y008314D01*
X034510Y008196D02*
X039720Y008196D01*
X039720Y008077D02*
X034510Y008077D01*
X034510Y007959D02*
X039720Y007959D01*
X039720Y007840D02*
X034510Y007840D01*
X034510Y007722D02*
X039720Y007722D01*
X039720Y007603D02*
X034510Y007603D01*
X034510Y007485D02*
X039720Y007485D01*
X039720Y007366D02*
X034510Y007366D01*
X034510Y007248D02*
X039720Y007248D01*
X039720Y007129D02*
X034510Y007129D01*
X034510Y007011D02*
X039720Y007011D01*
X039720Y006892D02*
X034510Y006892D01*
X034510Y006774D02*
X039720Y006774D01*
X039720Y006655D02*
X034510Y006655D01*
X034510Y006537D02*
X039720Y006537D01*
X039720Y006418D02*
X034510Y006418D01*
X034510Y006300D02*
X039720Y006300D01*
X039720Y006181D02*
X034510Y006181D01*
X034510Y006063D02*
X039720Y006063D01*
X039720Y005944D02*
X034510Y005944D01*
X034510Y005826D02*
X039720Y005826D01*
X039720Y005707D02*
X034510Y005707D01*
X034510Y005589D02*
X039720Y005589D01*
X039720Y005470D02*
X034510Y005470D01*
X034510Y005352D02*
X039720Y005352D01*
X039720Y005233D02*
X034510Y005233D01*
X034510Y005115D02*
X039720Y005115D01*
X039720Y004996D02*
X034510Y004996D01*
X034510Y004878D02*
X039720Y004878D01*
X039720Y004759D02*
X034510Y004759D01*
X034510Y004641D02*
X039720Y004641D01*
X039720Y004522D02*
X034510Y004522D01*
X034510Y004404D02*
X039720Y004404D01*
X039720Y004285D02*
X034510Y004285D01*
X034510Y004167D02*
X039720Y004167D01*
X039720Y004048D02*
X034510Y004048D01*
X034510Y003930D02*
X039720Y003930D01*
X039720Y003811D02*
X034510Y003811D01*
X034510Y003693D02*
X039720Y003693D01*
X039720Y003574D02*
X036180Y003574D01*
X006720Y003693D02*
X005640Y003693D01*
X005640Y003811D02*
X006720Y003811D01*
X006720Y003930D02*
X005640Y003930D01*
X005640Y004048D02*
X006720Y004048D01*
X006720Y004167D02*
X005640Y004167D01*
X005640Y004285D02*
X006720Y004285D01*
X006720Y004404D02*
X005640Y004404D01*
X005640Y004522D02*
X006720Y004522D01*
X006720Y004641D02*
X005640Y004641D01*
X005640Y004759D02*
X006720Y004759D01*
X006720Y004878D02*
X005640Y004878D01*
X005640Y004996D02*
X006720Y004996D01*
X006720Y005115D02*
X005640Y005115D01*
X005640Y005233D02*
X006720Y005233D01*
X006720Y005352D02*
X005640Y005352D01*
X005640Y005470D02*
X006720Y005470D01*
X006720Y005589D02*
X005640Y005589D01*
X005640Y005707D02*
X006720Y005707D01*
X006720Y005826D02*
X005640Y005826D01*
X005640Y005944D02*
X006720Y005944D01*
X006720Y006063D02*
X005640Y006063D01*
X005640Y006181D02*
X006720Y006181D01*
X006720Y006300D02*
X005640Y006300D01*
X005640Y006418D02*
X006720Y006418D01*
X006720Y006537D02*
X005640Y006537D01*
X005640Y006655D02*
X006720Y006655D01*
X006720Y006774D02*
X005640Y006774D01*
X005640Y006892D02*
X006720Y006892D01*
X006720Y007011D02*
X005640Y007011D01*
X005640Y007129D02*
X006720Y007129D01*
X006720Y007248D02*
X005640Y007248D01*
X005640Y007366D02*
X006720Y007366D01*
X006720Y007485D02*
X005640Y007485D01*
X005640Y007603D02*
X006720Y007603D01*
X006720Y007722D02*
X005640Y007722D01*
X005640Y007840D02*
X006720Y007840D01*
X006720Y007959D02*
X005640Y007959D01*
X005640Y008077D02*
X006720Y008077D01*
X006720Y008196D02*
X005640Y008196D01*
X005640Y008314D02*
X006720Y008314D01*
X006720Y008433D02*
X005640Y008433D01*
X005640Y008551D02*
X006720Y008551D01*
X006720Y008670D02*
X005640Y008670D01*
X005640Y008788D02*
X006720Y008788D01*
X006720Y008907D02*
X005640Y008907D01*
X005640Y009025D02*
X006720Y009025D01*
X006720Y009144D02*
X005640Y009144D01*
X005640Y009262D02*
X006720Y009262D01*
X006720Y009381D02*
X005640Y009381D01*
X005640Y009499D02*
X006720Y009499D01*
X006720Y009618D02*
X005640Y009618D01*
X005640Y009736D02*
X006720Y009736D01*
X006720Y009855D02*
X005640Y009855D01*
X005640Y009973D02*
X006720Y009973D01*
X006720Y010092D02*
X005640Y010092D01*
X005640Y010210D02*
X006720Y010210D01*
X006720Y010329D02*
X005640Y010329D01*
X005640Y010447D02*
X006720Y010447D01*
X006720Y010566D02*
X005640Y010566D01*
X005640Y010684D02*
X006720Y010684D01*
X006720Y010803D02*
X005640Y010803D01*
X005640Y010921D02*
X006720Y010921D01*
X006720Y011040D02*
X005640Y011040D01*
X005640Y011158D02*
X006720Y011158D01*
X006720Y011277D02*
X005640Y011277D01*
X005640Y011395D02*
X006720Y011395D01*
X006720Y011514D02*
X005640Y011514D01*
X005640Y011632D02*
X006720Y011632D01*
X006720Y011751D02*
X005640Y011751D01*
X005640Y011869D02*
X006720Y011869D01*
X006720Y011988D02*
X005640Y011988D01*
X005640Y012106D02*
X006720Y012106D01*
X006720Y012225D02*
X005640Y012225D01*
X005640Y012343D02*
X006720Y012343D01*
X006720Y012462D02*
X005640Y012462D01*
X005640Y012580D02*
X006720Y012580D01*
X006720Y012699D02*
X005640Y012699D01*
X005640Y012817D02*
X006720Y012817D01*
X006720Y012936D02*
X005640Y012936D01*
X005640Y013054D02*
X006720Y013054D01*
X006720Y013173D02*
X005640Y013173D01*
X005640Y013291D02*
X006720Y013291D01*
X006720Y013410D02*
X005640Y013410D01*
X005640Y013528D02*
X006720Y013528D01*
X006720Y013647D02*
X005640Y013647D01*
X005640Y013765D02*
X006720Y013765D01*
X006720Y013884D02*
X005640Y013884D01*
X005640Y014002D02*
X006720Y014002D01*
X006720Y014121D02*
X005640Y014121D01*
X005640Y014239D02*
X006720Y014239D01*
X006720Y014358D02*
X005640Y014358D01*
X005640Y014476D02*
X006720Y014476D01*
X006720Y014595D02*
X005640Y014595D01*
X005640Y014713D02*
X006720Y014713D01*
X006720Y014832D02*
X005640Y014832D01*
X005640Y014950D02*
X006720Y014950D01*
X006720Y015069D02*
X005640Y015069D01*
X005640Y015187D02*
X006720Y015187D01*
X006720Y015306D02*
X005640Y015306D01*
X005640Y015424D02*
X006720Y015424D01*
X006720Y015543D02*
X005640Y015543D01*
X005640Y015661D02*
X006720Y015661D01*
X006720Y015780D02*
X005640Y015780D01*
X005640Y015898D02*
X006720Y015898D01*
X006720Y016017D02*
X005640Y016017D01*
X005640Y016135D02*
X006720Y016135D01*
X006720Y016254D02*
X005640Y016254D01*
X005640Y016372D02*
X006720Y016372D01*
X006720Y016491D02*
X005640Y016491D01*
X005640Y016609D02*
X006720Y016609D01*
X006720Y016728D02*
X005640Y016728D01*
X005640Y016846D02*
X006720Y016846D01*
X006720Y016965D02*
X005640Y016965D01*
X005640Y017083D02*
X006720Y017083D01*
X006720Y017202D02*
X005640Y017202D01*
X005640Y017320D02*
X006720Y017320D01*
X006720Y017439D02*
X005640Y017439D01*
X005640Y017557D02*
X006720Y017557D01*
X006720Y017676D02*
X005640Y017676D01*
X005640Y017794D02*
X006720Y017794D01*
X006720Y017913D02*
X005640Y017913D01*
X005640Y018031D02*
X006720Y018031D01*
X006720Y018150D02*
X005640Y018150D01*
X005640Y018268D02*
X006720Y018268D01*
X006720Y018387D02*
X005640Y018387D01*
X005640Y018505D02*
X006720Y018505D01*
X006720Y018624D02*
X005640Y018624D01*
X005640Y018742D02*
X006720Y018742D01*
X006720Y018861D02*
X005640Y018861D01*
X005640Y018979D02*
X006720Y018979D01*
X006720Y019098D02*
X005640Y019098D01*
X005640Y019216D02*
X006720Y019216D01*
X006720Y019335D02*
X005640Y019335D01*
X005640Y019453D02*
X006720Y019453D01*
X006720Y019572D02*
X005640Y019572D01*
X005640Y019690D02*
X006720Y019690D01*
X006720Y019809D02*
X005640Y019809D01*
X005640Y019927D02*
X006720Y019927D01*
X006720Y020046D02*
X005640Y020046D01*
X005640Y020164D02*
X006720Y020164D01*
X006720Y020283D02*
X005640Y020283D01*
X005640Y020401D02*
X006720Y020401D01*
X006720Y020520D02*
X005640Y020520D01*
X005640Y020638D02*
X006720Y020638D01*
X006720Y020757D02*
X005640Y020757D01*
X005640Y020875D02*
X006720Y020875D01*
X006720Y020994D02*
X005640Y020994D01*
X005640Y021112D02*
X006720Y021112D01*
X006720Y021231D02*
X005640Y021231D01*
X005640Y021349D02*
X006720Y021349D01*
X006720Y021468D02*
X005640Y021468D01*
X005640Y021586D02*
X006720Y021586D01*
X006720Y021705D02*
X005640Y021705D01*
X005640Y021823D02*
X006720Y021823D01*
X006720Y021942D02*
X005640Y021942D01*
X005640Y022060D02*
X006720Y022060D01*
X006720Y022179D02*
X005640Y022179D01*
X005640Y022297D02*
X006720Y022297D01*
X006720Y022416D02*
X005640Y022416D01*
X005640Y022534D02*
X006720Y022534D01*
X006720Y022653D02*
X005640Y022653D01*
X005640Y022771D02*
X006720Y022771D01*
X006720Y022890D02*
X005640Y022890D01*
X005640Y023008D02*
X006720Y023008D01*
X006720Y023127D02*
X005640Y023127D01*
X005640Y023245D02*
X006720Y023245D01*
X006720Y023364D02*
X005640Y023364D01*
X005640Y023482D02*
X006720Y023482D01*
X006720Y023601D02*
X005640Y023601D01*
X005640Y023719D02*
X006720Y023719D01*
X006720Y023838D02*
X005640Y023838D01*
X005640Y023956D02*
X006720Y023956D01*
X006720Y024075D02*
X005640Y024075D01*
X005640Y024193D02*
X006720Y024193D01*
X006720Y024312D02*
X005640Y024312D01*
X005640Y024430D02*
X006720Y024430D01*
X006720Y024549D02*
X005640Y024549D01*
X005640Y024667D02*
X006720Y024667D01*
X006720Y024786D02*
X005640Y024786D01*
X005640Y024904D02*
X006720Y024904D01*
X006720Y025023D02*
X005640Y025023D01*
X005640Y025141D02*
X006720Y025141D01*
X006720Y025260D02*
X005640Y025260D01*
X005640Y025378D02*
X006720Y025378D01*
X006720Y025497D02*
X005640Y025497D01*
X005640Y025615D02*
X006720Y025615D01*
X006720Y025734D02*
X005640Y025734D01*
X005640Y025852D02*
X006720Y025852D01*
X006720Y025971D02*
X005640Y025971D01*
X005640Y026089D02*
X006720Y026089D01*
X006720Y026208D02*
X005640Y026208D01*
X005640Y026326D02*
X006720Y026326D01*
X006720Y026445D02*
X005640Y026445D01*
X005640Y026563D02*
X006720Y026563D01*
X006720Y026682D02*
X005640Y026682D01*
X005640Y026800D02*
X006720Y026800D01*
X006720Y026919D02*
X005640Y026919D01*
X005640Y027037D02*
X006720Y027037D01*
X006720Y027156D02*
X005640Y027156D01*
X005640Y027274D02*
X006720Y027274D01*
X006720Y027393D02*
X005640Y027393D01*
X005640Y027511D02*
X006720Y027511D01*
X006720Y027630D02*
X005640Y027630D01*
X005640Y027748D02*
X006720Y027748D01*
X006720Y027867D02*
X005640Y027867D01*
X005640Y027985D02*
X006720Y027985D01*
X006720Y028104D02*
X005640Y028104D01*
X005640Y028222D02*
X006720Y028222D01*
X006720Y028341D02*
X005640Y028341D01*
X005640Y028459D02*
X006720Y028459D01*
X006720Y028578D02*
X005640Y028578D01*
X005640Y028696D02*
X006720Y028696D01*
X006720Y028815D02*
X005640Y028815D01*
X005640Y028933D02*
X006720Y028933D01*
X006720Y029052D02*
X005640Y029052D01*
X005640Y029170D02*
X006720Y029170D01*
X006720Y029289D02*
X005640Y029289D01*
X005640Y029407D02*
X006720Y029407D01*
X006720Y029526D02*
X005640Y029526D01*
X005640Y029644D02*
X006720Y029644D01*
X006720Y029763D02*
X005640Y029763D01*
X005640Y029881D02*
X006720Y029881D01*
X006720Y030000D02*
X005640Y030000D01*
X005640Y030118D02*
X006720Y030118D01*
X006720Y030237D02*
X005640Y030237D01*
X005640Y030355D02*
X006720Y030355D01*
X006720Y030474D02*
X005640Y030474D01*
X005640Y030592D02*
X006720Y030592D01*
X006720Y030711D02*
X005640Y030711D01*
X005640Y030829D02*
X006720Y030829D01*
X006720Y030948D02*
X005640Y030948D01*
X005640Y031066D02*
X006720Y031066D01*
X006720Y031185D02*
X005640Y031185D01*
X005640Y031303D02*
X006720Y031303D01*
X006720Y031422D02*
X005640Y031422D01*
X005640Y031540D02*
X006720Y031540D01*
X006720Y031659D02*
X005640Y031659D01*
X005640Y031777D02*
X006720Y031777D01*
X006720Y031896D02*
X005640Y031896D01*
X005640Y032014D02*
X006720Y032014D01*
X006720Y032133D02*
X005640Y032133D01*
X005640Y032251D02*
X006720Y032251D01*
X006720Y032370D02*
X005640Y032370D01*
X005640Y032488D02*
X006720Y032488D01*
X006720Y032607D02*
X005640Y032607D01*
X005640Y032725D02*
X006720Y032725D01*
X006720Y032844D02*
X005640Y032844D01*
X005640Y032962D02*
X006720Y032962D01*
X006720Y033081D02*
X005640Y033081D01*
X005640Y033199D02*
X006720Y033199D01*
X006720Y033318D02*
X005640Y033318D01*
X005640Y033436D02*
X006720Y033436D01*
X006720Y033555D02*
X005640Y033555D01*
X005640Y033673D02*
X006720Y033673D01*
X006720Y033792D02*
X005640Y033792D01*
X005640Y033910D02*
X006720Y033910D01*
X006720Y034029D02*
X005640Y034029D01*
X005640Y034147D02*
X006720Y034147D01*
X006720Y034266D02*
X005640Y034266D01*
X005640Y034384D02*
X006720Y034384D01*
X006720Y034503D02*
X005640Y034503D01*
X005640Y034621D02*
X006720Y034621D01*
X006720Y034740D02*
X005640Y034740D01*
X005640Y034858D02*
X006720Y034858D01*
X006720Y034977D02*
X005640Y034977D01*
X005640Y035095D02*
X006720Y035095D01*
X006720Y035214D02*
X005640Y035214D01*
X005640Y035332D02*
X006720Y035332D01*
X006720Y035451D02*
X005640Y035451D01*
X005640Y035569D02*
X006720Y035569D01*
X006720Y035688D02*
X005640Y035688D01*
X005640Y035806D02*
X006720Y035806D01*
X006720Y035925D02*
X005640Y035925D01*
X005640Y036043D02*
X006720Y036043D01*
X006720Y036162D02*
X005640Y036162D01*
X005640Y036280D02*
X006720Y036280D01*
X006720Y036399D02*
X005640Y036399D01*
X005640Y036517D02*
X006720Y036517D01*
X006720Y036636D02*
X005640Y036636D01*
X005640Y036754D02*
X006720Y036754D01*
X006720Y036873D02*
X005640Y036873D01*
X005640Y036991D02*
X006720Y036991D01*
X006720Y037110D02*
X005640Y037110D01*
X005640Y037228D02*
X006720Y037228D01*
X006720Y037347D02*
X005640Y037347D01*
X005640Y037465D02*
X006720Y037465D01*
X006720Y037584D02*
X005640Y037584D01*
X005640Y037702D02*
X006720Y037702D01*
X006720Y037821D02*
X005640Y037821D01*
X005640Y037939D02*
X006720Y037939D01*
X006720Y038058D02*
X005640Y038058D01*
X005640Y038176D02*
X006720Y038176D01*
X006720Y038295D02*
X005640Y038295D01*
X005640Y038413D02*
X006720Y038413D01*
X006720Y038532D02*
X005640Y038532D01*
X005640Y038650D02*
X006720Y038650D01*
X006720Y038769D02*
X005640Y038769D01*
X005640Y038887D02*
X006720Y038887D01*
X006720Y039006D02*
X005640Y039006D01*
X005640Y039124D02*
X006720Y039124D01*
X006720Y039243D02*
X005640Y039243D01*
X005640Y039361D02*
X006720Y039361D01*
X006720Y039480D02*
X005640Y039480D01*
X005640Y039598D02*
X005965Y039598D01*
X005939Y039612D02*
X006003Y039579D01*
X006072Y039556D01*
X006140Y039546D01*
X006140Y040265D01*
X006220Y040265D01*
X006220Y040345D01*
X006640Y040345D01*
X006640Y040641D01*
X006629Y040713D01*
X006606Y040782D01*
X006573Y040846D01*
X006531Y040905D01*
X006480Y040956D01*
X006421Y040998D01*
X006357Y041031D01*
X006288Y041054D01*
X006220Y041064D01*
X006220Y040345D01*
X006140Y040345D01*
X006140Y041064D01*
X006072Y041054D01*
X006003Y041031D01*
X005939Y040998D01*
X005880Y040956D01*
X005829Y040905D01*
X005787Y040846D01*
X005754Y040782D01*
X005731Y040713D01*
X005720Y040641D01*
X005720Y040345D01*
X006140Y040345D01*
X006140Y040265D01*
X005720Y040265D01*
X005720Y039969D01*
X005731Y039897D01*
X005754Y039828D01*
X005787Y039764D01*
X005829Y039705D01*
X005880Y039654D01*
X005939Y039612D01*
X005821Y039717D02*
X005640Y039717D01*
X005662Y039835D02*
X005752Y039835D01*
X005722Y039954D02*
X005690Y039954D01*
X005690Y040072D02*
X005720Y040072D01*
X005720Y040191D02*
X005690Y040191D01*
X005690Y040309D02*
X006140Y040309D01*
X006220Y040309D02*
X006670Y040309D01*
X006640Y040265D02*
X006220Y040265D01*
X006220Y039546D01*
X006288Y039556D01*
X006357Y039579D01*
X006421Y039612D01*
X006480Y039654D01*
X006531Y039705D01*
X006573Y039764D01*
X006606Y039828D01*
X006629Y039897D01*
X006640Y039969D01*
X006640Y040265D01*
X006640Y040191D02*
X006670Y040191D01*
X006670Y040072D02*
X006640Y040072D01*
X006638Y039954D02*
X006670Y039954D01*
X006698Y039835D02*
X006608Y039835D01*
X006539Y039717D02*
X006720Y039717D01*
X006720Y039598D02*
X006395Y039598D01*
X006220Y039598D02*
X006140Y039598D01*
X006140Y039717D02*
X006220Y039717D01*
X006220Y039835D02*
X006140Y039835D01*
X006140Y039954D02*
X006220Y039954D01*
X006220Y040072D02*
X006140Y040072D01*
X006140Y040191D02*
X006220Y040191D01*
X006220Y040428D02*
X006140Y040428D01*
X006140Y040546D02*
X006220Y040546D01*
X006220Y040665D02*
X006140Y040665D01*
X006140Y040783D02*
X006220Y040783D01*
X006220Y040902D02*
X006140Y040902D01*
X006140Y041020D02*
X006220Y041020D01*
X006379Y041020D02*
X006874Y041020D01*
X006755Y040902D02*
X006533Y040902D01*
X006606Y040783D02*
X006702Y040783D01*
X006670Y040665D02*
X006636Y040665D01*
X006640Y040546D02*
X006670Y040546D01*
X006670Y040428D02*
X006640Y040428D01*
X005981Y041020D02*
X005486Y041020D01*
X005605Y040902D02*
X005827Y040902D01*
X005754Y040783D02*
X005658Y040783D01*
X005690Y040665D02*
X005724Y040665D01*
X005720Y040546D02*
X005690Y040546D01*
X005690Y040428D02*
X005720Y040428D01*
X004874Y041020D02*
X000640Y041020D01*
X000640Y040902D02*
X004755Y040902D01*
X004702Y040783D02*
X000640Y040783D01*
X000640Y040665D02*
X004670Y040665D01*
X004670Y040546D02*
X000640Y040546D01*
X000640Y040428D02*
X004670Y040428D01*
X004670Y040309D02*
X000640Y040309D01*
X000640Y040191D02*
X004670Y040191D01*
X004670Y040072D02*
X000640Y040072D01*
X000640Y039954D02*
X004670Y039954D01*
X004698Y039835D02*
X000640Y039835D01*
X000640Y039717D02*
X004720Y039717D01*
X004720Y039598D02*
X000640Y039598D01*
X000640Y039480D02*
X004720Y039480D01*
X004720Y039361D02*
X000640Y039361D01*
X000640Y039243D02*
X004720Y039243D01*
X004720Y039124D02*
X000640Y039124D01*
X000640Y039006D02*
X004720Y039006D01*
X004720Y038887D02*
X000640Y038887D01*
X000640Y038769D02*
X004720Y038769D01*
X004720Y038650D02*
X000640Y038650D01*
X000640Y038532D02*
X004720Y038532D01*
X004720Y038413D02*
X000640Y038413D01*
X000640Y038295D02*
X004720Y038295D01*
X004720Y038176D02*
X000640Y038176D01*
X000640Y038058D02*
X004720Y038058D01*
X004720Y037939D02*
X000640Y037939D01*
X000640Y037821D02*
X004720Y037821D01*
X004720Y037702D02*
X000640Y037702D01*
X000640Y037584D02*
X004720Y037584D01*
X004720Y037465D02*
X000640Y037465D01*
X000640Y037347D02*
X004720Y037347D01*
X004720Y037228D02*
X000640Y037228D01*
X000640Y037110D02*
X004720Y037110D01*
X004720Y036991D02*
X000640Y036991D01*
X000640Y036873D02*
X004720Y036873D01*
X004720Y036754D02*
X000640Y036754D01*
X000640Y036636D02*
X004720Y036636D01*
X004720Y036517D02*
X000640Y036517D01*
X000640Y036399D02*
X004720Y036399D01*
X004720Y036280D02*
X000640Y036280D01*
X000640Y036162D02*
X004720Y036162D01*
X004720Y036043D02*
X000640Y036043D01*
X000640Y035925D02*
X004720Y035925D01*
X004720Y035806D02*
X000640Y035806D01*
X000640Y035688D02*
X004720Y035688D01*
X004720Y035569D02*
X000640Y035569D01*
X000640Y035451D02*
X004720Y035451D01*
X004720Y035332D02*
X000640Y035332D01*
X000640Y035214D02*
X004720Y035214D01*
X004720Y035095D02*
X000640Y035095D01*
X000640Y034977D02*
X004720Y034977D01*
X004720Y034858D02*
X000640Y034858D01*
X000640Y034740D02*
X004720Y034740D01*
X004720Y034621D02*
X000640Y034621D01*
X000640Y034503D02*
X004720Y034503D01*
X004720Y034384D02*
X000640Y034384D01*
X000640Y034266D02*
X004720Y034266D01*
X004720Y034147D02*
X000640Y034147D01*
X000640Y034029D02*
X004720Y034029D01*
X004720Y033910D02*
X000640Y033910D01*
X000640Y033792D02*
X004720Y033792D01*
X004720Y033673D02*
X000640Y033673D01*
X000640Y033555D02*
X004720Y033555D01*
X004720Y033436D02*
X000640Y033436D01*
X000640Y033318D02*
X004720Y033318D01*
X004720Y033199D02*
X000640Y033199D01*
X000640Y033081D02*
X004720Y033081D01*
X004720Y032962D02*
X000640Y032962D01*
X000640Y032844D02*
X004720Y032844D01*
X004720Y032725D02*
X000640Y032725D01*
X000640Y032607D02*
X004720Y032607D01*
X004720Y032488D02*
X000640Y032488D01*
X000640Y032370D02*
X004720Y032370D01*
X004720Y032251D02*
X000640Y032251D01*
X000640Y032133D02*
X004720Y032133D01*
X004720Y032014D02*
X000640Y032014D01*
X000640Y031896D02*
X004720Y031896D01*
X004720Y031777D02*
X000640Y031777D01*
X000640Y031659D02*
X004720Y031659D01*
X004720Y031540D02*
X000640Y031540D01*
X000640Y031422D02*
X004720Y031422D01*
X004720Y031303D02*
X000640Y031303D01*
X000640Y031185D02*
X004720Y031185D01*
X004720Y031066D02*
X000640Y031066D01*
X000640Y030948D02*
X004720Y030948D01*
X004720Y030829D02*
X000640Y030829D01*
X000640Y030711D02*
X004720Y030711D01*
X004720Y030592D02*
X000640Y030592D01*
X000640Y030474D02*
X004720Y030474D01*
X004720Y030355D02*
X000640Y030355D01*
X000640Y030237D02*
X004720Y030237D01*
X004720Y030118D02*
X000640Y030118D01*
X000640Y030000D02*
X004720Y030000D01*
X004720Y029881D02*
X000640Y029881D01*
X000640Y029763D02*
X004720Y029763D01*
X004720Y029644D02*
X000640Y029644D01*
X000640Y029526D02*
X004720Y029526D01*
X004720Y029407D02*
X000640Y029407D01*
X000640Y029289D02*
X004720Y029289D01*
X004720Y029170D02*
X000640Y029170D01*
X000640Y029052D02*
X004720Y029052D01*
X004720Y028933D02*
X000640Y028933D01*
X000640Y028815D02*
X004720Y028815D01*
X004720Y028696D02*
X000640Y028696D01*
X000640Y028578D02*
X004720Y028578D01*
X004720Y028459D02*
X000640Y028459D01*
X000640Y028341D02*
X004720Y028341D01*
X004720Y028222D02*
X000640Y028222D01*
X000640Y028104D02*
X004720Y028104D01*
X004720Y027985D02*
X000640Y027985D01*
X000640Y027867D02*
X004720Y027867D01*
X004720Y027748D02*
X000640Y027748D01*
X000640Y027630D02*
X004720Y027630D01*
X004720Y027511D02*
X000640Y027511D01*
X000640Y027393D02*
X004720Y027393D01*
X004720Y027274D02*
X000640Y027274D01*
X000640Y027156D02*
X004720Y027156D01*
X004720Y027037D02*
X000640Y027037D01*
X000640Y026919D02*
X004720Y026919D01*
X004720Y026800D02*
X000640Y026800D01*
X000640Y026682D02*
X004720Y026682D01*
X004720Y026563D02*
X000640Y026563D01*
X000640Y026445D02*
X004720Y026445D01*
X004720Y026326D02*
X000640Y026326D01*
X000640Y026208D02*
X004720Y026208D01*
X004720Y026089D02*
X000640Y026089D01*
X000640Y025971D02*
X004720Y025971D01*
X004720Y025852D02*
X000640Y025852D01*
X000640Y025734D02*
X004720Y025734D01*
X004720Y025615D02*
X000640Y025615D01*
X000640Y025497D02*
X004720Y025497D01*
X004720Y025378D02*
X000640Y025378D01*
X000640Y025260D02*
X004720Y025260D01*
X004720Y025141D02*
X000640Y025141D01*
X000640Y025023D02*
X004720Y025023D01*
X004720Y024904D02*
X000640Y024904D01*
X000640Y024786D02*
X004720Y024786D01*
X004720Y024667D02*
X000640Y024667D01*
X000640Y024549D02*
X004720Y024549D01*
X004720Y024430D02*
X000640Y024430D01*
X000640Y024312D02*
X004720Y024312D01*
X004720Y024193D02*
X000640Y024193D01*
X000640Y024075D02*
X004720Y024075D01*
X004720Y023956D02*
X000640Y023956D01*
X000640Y023838D02*
X004720Y023838D01*
X004720Y023719D02*
X000640Y023719D01*
X000640Y023601D02*
X004720Y023601D01*
X004720Y023482D02*
X000640Y023482D01*
X000640Y023364D02*
X004720Y023364D01*
X004720Y023245D02*
X000640Y023245D01*
X000640Y023127D02*
X004720Y023127D01*
X004720Y023008D02*
X000640Y023008D01*
X000640Y022890D02*
X004720Y022890D01*
X004720Y022771D02*
X000640Y022771D01*
X000640Y022653D02*
X004720Y022653D01*
X004720Y022534D02*
X000640Y022534D01*
X000640Y022416D02*
X004720Y022416D01*
X004720Y022297D02*
X000640Y022297D01*
X000640Y022179D02*
X004720Y022179D01*
X004720Y022060D02*
X000640Y022060D01*
X000640Y021942D02*
X004720Y021942D01*
X004720Y021823D02*
X000640Y021823D01*
X000640Y021705D02*
X004720Y021705D01*
X004720Y021586D02*
X000640Y021586D01*
X000640Y021468D02*
X004720Y021468D01*
X004720Y021349D02*
X000640Y021349D01*
X000640Y021231D02*
X004720Y021231D01*
X004720Y021112D02*
X000640Y021112D01*
X000640Y020994D02*
X004720Y020994D01*
X004720Y020875D02*
X000640Y020875D01*
X000640Y020757D02*
X004720Y020757D01*
X004720Y020638D02*
X000640Y020638D01*
X000640Y020520D02*
X004720Y020520D01*
X004720Y020401D02*
X000640Y020401D01*
X000640Y020283D02*
X004720Y020283D01*
X004720Y020164D02*
X000640Y020164D01*
X000640Y020046D02*
X004720Y020046D01*
X004720Y019927D02*
X000640Y019927D01*
X000640Y019809D02*
X004720Y019809D01*
X004720Y019690D02*
X000640Y019690D01*
X000640Y019572D02*
X004720Y019572D01*
X004720Y019453D02*
X000640Y019453D01*
X000640Y019335D02*
X004720Y019335D01*
X004720Y019216D02*
X000640Y019216D01*
X000640Y019098D02*
X004720Y019098D01*
X004720Y018979D02*
X000640Y018979D01*
X000640Y018861D02*
X004720Y018861D01*
X004720Y018742D02*
X000640Y018742D01*
X000640Y018624D02*
X004720Y018624D01*
X004720Y018505D02*
X000640Y018505D01*
X000640Y018387D02*
X004720Y018387D01*
X004720Y018268D02*
X000640Y018268D01*
X000640Y018150D02*
X004720Y018150D01*
X004720Y018031D02*
X000640Y018031D01*
X000640Y017913D02*
X004720Y017913D01*
X004720Y017794D02*
X000640Y017794D01*
X000640Y017676D02*
X004720Y017676D01*
X004720Y017557D02*
X000640Y017557D01*
X000640Y017439D02*
X004720Y017439D01*
X004720Y017320D02*
X000640Y017320D01*
X000640Y017202D02*
X004720Y017202D01*
X004720Y017083D02*
X000640Y017083D01*
X000640Y016965D02*
X004720Y016965D01*
X004720Y016846D02*
X000640Y016846D01*
X000640Y016728D02*
X004720Y016728D01*
X004720Y016609D02*
X000640Y016609D01*
X000640Y016491D02*
X004720Y016491D01*
X004720Y016372D02*
X000640Y016372D01*
X000640Y016254D02*
X004720Y016254D01*
X004720Y016135D02*
X000640Y016135D01*
X000640Y016017D02*
X004720Y016017D01*
X004720Y015898D02*
X000640Y015898D01*
X000640Y015780D02*
X004720Y015780D01*
X004720Y015661D02*
X000640Y015661D01*
X000640Y015543D02*
X004720Y015543D01*
X004720Y015424D02*
X000640Y015424D01*
X000640Y015306D02*
X004720Y015306D01*
X004720Y015187D02*
X000640Y015187D01*
X000640Y015069D02*
X004720Y015069D01*
X004720Y014950D02*
X000640Y014950D01*
X000640Y014832D02*
X004720Y014832D01*
X004720Y014713D02*
X000640Y014713D01*
X000640Y014595D02*
X004720Y014595D01*
X004720Y014476D02*
X000640Y014476D01*
X000640Y014358D02*
X004720Y014358D01*
X004720Y014239D02*
X000640Y014239D01*
X000640Y014121D02*
X004720Y014121D01*
X004720Y014002D02*
X000640Y014002D01*
X000640Y013884D02*
X004720Y013884D01*
X004720Y013765D02*
X000640Y013765D01*
X000640Y013647D02*
X004720Y013647D01*
X004720Y013528D02*
X000640Y013528D01*
X000640Y013410D02*
X004720Y013410D01*
X004720Y013291D02*
X000640Y013291D01*
X000640Y013173D02*
X004720Y013173D01*
X004720Y013054D02*
X000640Y013054D01*
X000640Y012936D02*
X004720Y012936D01*
X004720Y012817D02*
X000640Y012817D01*
X000640Y012699D02*
X004720Y012699D01*
X004720Y012580D02*
X000640Y012580D01*
X000640Y012462D02*
X004720Y012462D01*
X004720Y012343D02*
X000640Y012343D01*
X000640Y012225D02*
X004720Y012225D01*
X004720Y012106D02*
X000640Y012106D01*
X000640Y011988D02*
X004720Y011988D01*
X004720Y011869D02*
X000640Y011869D01*
X000640Y011751D02*
X004720Y011751D01*
X004720Y011632D02*
X000640Y011632D01*
X000640Y011514D02*
X004720Y011514D01*
X004720Y011395D02*
X000640Y011395D01*
X000640Y011277D02*
X004720Y011277D01*
X004720Y011158D02*
X000640Y011158D01*
X000640Y011040D02*
X004720Y011040D01*
X004720Y010921D02*
X000640Y010921D01*
X000640Y010803D02*
X004720Y010803D01*
X004720Y010684D02*
X000640Y010684D01*
X000640Y010566D02*
X004720Y010566D01*
X004720Y010447D02*
X000640Y010447D01*
X000640Y010329D02*
X004720Y010329D01*
X004720Y010210D02*
X000640Y010210D01*
X000640Y010092D02*
X004720Y010092D01*
X004720Y009973D02*
X000640Y009973D01*
X000640Y009855D02*
X004720Y009855D01*
X004720Y009736D02*
X000640Y009736D01*
X000640Y009618D02*
X004720Y009618D01*
X004720Y009499D02*
X000640Y009499D01*
X000640Y009381D02*
X004720Y009381D01*
X004720Y009262D02*
X000640Y009262D01*
X000640Y009144D02*
X004720Y009144D01*
X004720Y009025D02*
X000640Y009025D01*
X000640Y008907D02*
X004720Y008907D01*
X004720Y008788D02*
X000640Y008788D01*
X000640Y008670D02*
X004720Y008670D01*
X004720Y008551D02*
X000640Y008551D01*
X000640Y008433D02*
X004720Y008433D01*
X004720Y008314D02*
X000640Y008314D01*
X000640Y008196D02*
X004720Y008196D01*
X004720Y008077D02*
X000640Y008077D01*
X000640Y007959D02*
X004720Y007959D01*
X004720Y007840D02*
X000640Y007840D01*
X000640Y007722D02*
X004720Y007722D01*
X004720Y007603D02*
X000640Y007603D01*
X000640Y007485D02*
X004720Y007485D01*
X004720Y007366D02*
X000640Y007366D01*
X000640Y007248D02*
X004720Y007248D01*
X004720Y007129D02*
X000640Y007129D01*
X000640Y007011D02*
X004720Y007011D01*
X004720Y006892D02*
X000640Y006892D01*
X000640Y006774D02*
X004720Y006774D01*
X004720Y006655D02*
X000640Y006655D01*
X000640Y006537D02*
X004720Y006537D01*
X004720Y006418D02*
X000640Y006418D01*
X000640Y006300D02*
X004720Y006300D01*
X004720Y006181D02*
X000640Y006181D01*
X000640Y006063D02*
X004720Y006063D01*
X004720Y005944D02*
X000640Y005944D01*
X000640Y005826D02*
X004720Y005826D01*
X004720Y005707D02*
X000640Y005707D01*
X000640Y005589D02*
X004720Y005589D01*
X004720Y005470D02*
X000640Y005470D01*
X000640Y005352D02*
X004720Y005352D01*
X004720Y005233D02*
X000640Y005233D01*
X000640Y005115D02*
X004720Y005115D01*
X004720Y004996D02*
X000640Y004996D01*
X000640Y004878D02*
X004720Y004878D01*
X004720Y004759D02*
X000640Y004759D01*
X000640Y004641D02*
X004720Y004641D01*
X004720Y004522D02*
X000640Y004522D01*
X000640Y004404D02*
X004720Y004404D01*
X004720Y004285D02*
X000640Y004285D01*
X000640Y004167D02*
X004720Y004167D01*
X004720Y004048D02*
X000640Y004048D01*
X000640Y003930D02*
X004720Y003930D01*
X004720Y003811D02*
X000640Y003811D01*
X000640Y003693D02*
X004720Y003693D01*
X004180Y003574D02*
X000640Y003574D01*
X007658Y040783D02*
X007702Y040783D01*
X007755Y040902D02*
X007605Y040902D01*
X007486Y041020D02*
X007874Y041020D01*
X008486Y041020D02*
X008874Y041020D01*
X008755Y040902D02*
X008605Y040902D01*
X008658Y040783D02*
X008702Y040783D01*
X009486Y041020D02*
X009874Y041020D01*
X009755Y040902D02*
X009605Y040902D01*
X009658Y040783D02*
X009702Y040783D01*
X010486Y041020D02*
X010874Y041020D01*
X010755Y040902D02*
X010605Y040902D01*
X010658Y040783D02*
X010702Y040783D01*
X011486Y041020D02*
X011874Y041020D01*
X011755Y040902D02*
X011605Y040902D01*
X011658Y040783D02*
X011702Y040783D01*
X012486Y041020D02*
X012874Y041020D01*
X012755Y040902D02*
X012605Y040902D01*
X012658Y040783D02*
X012702Y040783D01*
X013486Y041020D02*
X013874Y041020D01*
X013755Y040902D02*
X013605Y040902D01*
X013658Y040783D02*
X013702Y040783D01*
X014486Y041020D02*
X014874Y041020D01*
X014755Y040902D02*
X014605Y040902D01*
X014658Y040783D02*
X014702Y040783D01*
X015486Y041020D02*
X015874Y041020D01*
X015755Y040902D02*
X015605Y040902D01*
X015658Y040783D02*
X015702Y040783D01*
X016486Y041020D02*
X016874Y041020D01*
X016755Y040902D02*
X016605Y040902D01*
X016658Y040783D02*
X016702Y040783D01*
X017486Y041020D02*
X017874Y041020D01*
X017755Y040902D02*
X017605Y040902D01*
X017658Y040783D02*
X017702Y040783D01*
X018486Y041020D02*
X018874Y041020D01*
X018755Y040902D02*
X018605Y040902D01*
X018658Y040783D02*
X018702Y040783D01*
X019486Y041020D02*
X019874Y041020D01*
X019755Y040902D02*
X019605Y040902D01*
X019658Y040783D02*
X019702Y040783D01*
X020486Y041020D02*
X020874Y041020D01*
X020755Y040902D02*
X020605Y040902D01*
X020658Y040783D02*
X020702Y040783D01*
X021486Y041020D02*
X021874Y041020D01*
X021755Y040902D02*
X021605Y040902D01*
X021658Y040783D02*
X021702Y040783D01*
X022486Y041020D02*
X022874Y041020D01*
X022755Y040902D02*
X022605Y040902D01*
X022658Y040783D02*
X022702Y040783D01*
X023486Y041020D02*
X023874Y041020D01*
X023755Y040902D02*
X023605Y040902D01*
X023658Y040783D02*
X023702Y040783D01*
X024486Y041020D02*
X024874Y041020D01*
X024755Y040902D02*
X024605Y040902D01*
X024658Y040783D02*
X024702Y040783D01*
X025486Y041020D02*
X025874Y041020D01*
X025755Y040902D02*
X025605Y040902D01*
X025658Y040783D02*
X025702Y040783D01*
X026486Y041020D02*
X026874Y041020D01*
X026755Y040902D02*
X026605Y040902D01*
X026658Y040783D02*
X026702Y040783D01*
X027486Y041020D02*
X027874Y041020D01*
X027755Y040902D02*
X027605Y040902D01*
X027658Y040783D02*
X027702Y040783D01*
X028486Y041020D02*
X028874Y041020D01*
X028755Y040902D02*
X028605Y040902D01*
X028658Y040783D02*
X028702Y040783D01*
X029486Y041020D02*
X029874Y041020D01*
X029755Y040902D02*
X029605Y040902D01*
X029658Y040783D02*
X029702Y040783D01*
X030486Y041020D02*
X030874Y041020D01*
X030755Y040902D02*
X030605Y040902D01*
X030658Y040783D02*
X030702Y040783D01*
X031486Y041020D02*
X031874Y041020D01*
X031755Y040902D02*
X031605Y040902D01*
X031658Y040783D02*
X031702Y040783D01*
X032486Y041020D02*
X032874Y041020D01*
X032755Y040902D02*
X032605Y040902D01*
X032658Y040783D02*
X032702Y040783D01*
X033486Y041020D02*
X033874Y041020D01*
X033755Y040902D02*
X033605Y040902D01*
X033658Y040783D02*
X033702Y040783D01*
X034486Y041020D02*
X034981Y041020D01*
X034827Y040902D02*
X034605Y040902D01*
X034658Y040783D02*
X034754Y040783D01*
X034724Y040665D02*
X034690Y040665D01*
X034690Y040546D02*
X034720Y040546D01*
X034720Y040428D02*
X034690Y040428D01*
D14*
X008180Y040305D02*
X008180Y001915D01*
X007180Y001915D02*
X007180Y040305D01*
X005180Y040305D02*
X005180Y001915D01*
X006180Y001915D02*
X006180Y004100D01*
X035180Y004100D02*
X035180Y001915D01*
D15*
X006180Y004100D03*
X006180Y036600D03*
D16*
X009180Y040305D02*
X009180Y001915D01*
X010180Y001915D02*
X010180Y040305D01*
X011180Y040305D02*
X011180Y001915D01*
X012180Y001915D02*
X012180Y040305D01*
X013180Y040305D02*
X013180Y001915D01*
X014180Y001915D02*
X014180Y040305D01*
X015180Y040305D02*
X015180Y001915D01*
X016180Y001915D02*
X016180Y040305D01*
X017180Y040305D02*
X017180Y001915D01*
X018180Y001915D02*
X018180Y040305D01*
X019180Y040305D02*
X019180Y001915D01*
X020180Y001915D02*
X020180Y040305D01*
X021180Y040305D02*
X021180Y001915D01*
X022180Y001915D02*
X022180Y040305D01*
X023180Y040305D02*
X023180Y001915D01*
X024180Y001915D02*
X024180Y040305D01*
X025180Y040305D02*
X025180Y001915D01*
X026180Y001915D02*
X026180Y040305D01*
X027180Y040305D02*
X027180Y001915D01*
X028180Y001915D02*
X028180Y040305D01*
X029180Y040305D02*
X029180Y001915D01*
X030180Y001915D02*
X030180Y040305D01*
X031180Y040305D02*
X031180Y001915D01*
X032180Y001915D02*
X032180Y040305D01*
X033180Y040305D02*
X033180Y001915D01*
X034180Y001915D02*
X034180Y040305D01*
M02*
