G75*
G70*
%OFA0B0*%
%FSLAX24Y24*%
%IPPOS*%
%LPD*%
%AMOC8*
5,1,8,0,0,1.08239X$1,22.5*
%
%ADD10R,0.0650X0.2350*%
%ADD11R,0.0650X0.1500*%
%ADD12C,0.2500*%
%ADD13C,0.0120*%
%ADD14C,0.0600*%
%ADD15C,0.0600*%
%ADD16C,0.0240*%
D10*
X005180Y001915D03*
X006180Y001915D03*
X007180Y001915D03*
X008180Y001915D03*
X009180Y001915D03*
X010180Y001915D03*
X011180Y001915D03*
X012180Y001915D03*
X013180Y001915D03*
X014180Y001915D03*
X015180Y001915D03*
X016180Y001915D03*
X017180Y001915D03*
X018180Y001915D03*
X019180Y001915D03*
X020180Y001915D03*
X021180Y001915D03*
X022180Y001915D03*
X023180Y001915D03*
X024180Y001915D03*
X025180Y001915D03*
X026180Y001915D03*
X027180Y001915D03*
X028180Y001915D03*
X029180Y001915D03*
X030180Y001915D03*
X031180Y001915D03*
X032180Y001915D03*
X033180Y001915D03*
X034180Y001915D03*
X035180Y001915D03*
D11*
X035180Y041850D03*
X034180Y041850D03*
X033180Y041850D03*
X032180Y041850D03*
X031180Y041850D03*
X030180Y041850D03*
X029180Y041850D03*
X028180Y041850D03*
X027180Y041850D03*
X026180Y041850D03*
X025180Y041850D03*
X024180Y041850D03*
X023180Y041850D03*
X022180Y041850D03*
X021180Y041850D03*
X020180Y041850D03*
X019180Y041850D03*
X018180Y041850D03*
X017180Y041850D03*
X016180Y041850D03*
X015180Y041850D03*
X014180Y041850D03*
X013180Y041850D03*
X012180Y041850D03*
X011180Y041850D03*
X010180Y041850D03*
X009180Y041850D03*
X008180Y041850D03*
X007180Y041850D03*
X006180Y041850D03*
X005180Y041850D03*
D12*
X002180Y041100D03*
X002180Y005100D03*
X038180Y005100D03*
X038180Y041100D03*
D13*
X000640Y042640D02*
X000640Y003560D01*
X004180Y003560D01*
X004180Y003600D01*
X004620Y003600D01*
X004620Y040600D01*
X004180Y040600D01*
X004180Y042640D01*
X000640Y042640D01*
X000640Y042561D02*
X004180Y042561D01*
X004180Y042442D02*
X000640Y042442D01*
X000640Y042324D02*
X004180Y042324D01*
X004180Y042205D02*
X000640Y042205D01*
X000640Y042087D02*
X004180Y042087D01*
X004180Y041968D02*
X000640Y041968D01*
X000640Y041850D02*
X004180Y041850D01*
X004180Y041731D02*
X000640Y041731D01*
X000640Y041613D02*
X004180Y041613D01*
X004180Y041494D02*
X000640Y041494D01*
X000640Y041376D02*
X004180Y041376D01*
X004180Y041257D02*
X000640Y041257D01*
X000640Y041139D02*
X004180Y041139D01*
X004180Y041020D02*
X000640Y041020D01*
X000640Y040902D02*
X004180Y040902D01*
X004180Y040783D02*
X000640Y040783D01*
X000640Y040665D02*
X004180Y040665D01*
X004620Y040546D02*
X000640Y040546D01*
X000640Y040428D02*
X004620Y040428D01*
X004620Y040309D02*
X000640Y040309D01*
X000640Y040191D02*
X004620Y040191D01*
X004620Y040072D02*
X000640Y040072D01*
X000640Y039954D02*
X004620Y039954D01*
X004620Y039835D02*
X000640Y039835D01*
X000640Y039717D02*
X004620Y039717D01*
X004620Y039598D02*
X000640Y039598D01*
X000640Y039480D02*
X004620Y039480D01*
X004620Y039361D02*
X000640Y039361D01*
X000640Y039243D02*
X004620Y039243D01*
X004620Y039124D02*
X000640Y039124D01*
X000640Y039006D02*
X004620Y039006D01*
X004620Y038887D02*
X000640Y038887D01*
X000640Y038769D02*
X004620Y038769D01*
X004620Y038650D02*
X000640Y038650D01*
X000640Y038532D02*
X004620Y038532D01*
X004620Y038413D02*
X000640Y038413D01*
X000640Y038295D02*
X004620Y038295D01*
X004620Y038176D02*
X000640Y038176D01*
X000640Y038058D02*
X004620Y038058D01*
X004620Y037939D02*
X000640Y037939D01*
X000640Y037821D02*
X004620Y037821D01*
X004620Y037702D02*
X000640Y037702D01*
X000640Y037584D02*
X004620Y037584D01*
X004620Y037465D02*
X000640Y037465D01*
X000640Y037347D02*
X004620Y037347D01*
X004620Y037228D02*
X000640Y037228D01*
X000640Y037110D02*
X004620Y037110D01*
X004620Y036991D02*
X000640Y036991D01*
X000640Y036873D02*
X004620Y036873D01*
X004620Y036754D02*
X000640Y036754D01*
X000640Y036636D02*
X004620Y036636D01*
X004620Y036517D02*
X000640Y036517D01*
X000640Y036399D02*
X004620Y036399D01*
X004620Y036280D02*
X000640Y036280D01*
X000640Y036162D02*
X004620Y036162D01*
X004620Y036043D02*
X000640Y036043D01*
X000640Y035925D02*
X004620Y035925D01*
X004620Y035806D02*
X000640Y035806D01*
X000640Y035688D02*
X004620Y035688D01*
X004620Y035569D02*
X000640Y035569D01*
X000640Y035451D02*
X004620Y035451D01*
X004620Y035332D02*
X000640Y035332D01*
X000640Y035214D02*
X004620Y035214D01*
X004620Y035095D02*
X000640Y035095D01*
X000640Y034977D02*
X004620Y034977D01*
X004620Y034858D02*
X000640Y034858D01*
X000640Y034740D02*
X004620Y034740D01*
X004620Y034621D02*
X000640Y034621D01*
X000640Y034503D02*
X004620Y034503D01*
X004620Y034384D02*
X000640Y034384D01*
X000640Y034266D02*
X004620Y034266D01*
X004620Y034147D02*
X000640Y034147D01*
X000640Y034029D02*
X004620Y034029D01*
X004620Y033910D02*
X000640Y033910D01*
X000640Y033792D02*
X004620Y033792D01*
X004620Y033673D02*
X000640Y033673D01*
X000640Y033555D02*
X004620Y033555D01*
X004620Y033436D02*
X000640Y033436D01*
X000640Y033318D02*
X004620Y033318D01*
X004620Y033199D02*
X000640Y033199D01*
X000640Y033081D02*
X004620Y033081D01*
X004620Y032962D02*
X000640Y032962D01*
X000640Y032844D02*
X004620Y032844D01*
X004620Y032725D02*
X000640Y032725D01*
X000640Y032607D02*
X004620Y032607D01*
X004620Y032488D02*
X000640Y032488D01*
X000640Y032370D02*
X004620Y032370D01*
X004620Y032251D02*
X000640Y032251D01*
X000640Y032133D02*
X004620Y032133D01*
X004620Y032014D02*
X000640Y032014D01*
X000640Y031896D02*
X004620Y031896D01*
X004620Y031777D02*
X000640Y031777D01*
X000640Y031659D02*
X004620Y031659D01*
X004620Y031540D02*
X000640Y031540D01*
X000640Y031422D02*
X004620Y031422D01*
X004620Y031303D02*
X000640Y031303D01*
X000640Y031185D02*
X004620Y031185D01*
X004620Y031066D02*
X000640Y031066D01*
X000640Y030948D02*
X004620Y030948D01*
X004620Y030829D02*
X000640Y030829D01*
X000640Y030711D02*
X004620Y030711D01*
X004620Y030592D02*
X000640Y030592D01*
X000640Y030474D02*
X004620Y030474D01*
X004620Y030355D02*
X000640Y030355D01*
X000640Y030237D02*
X004620Y030237D01*
X004620Y030118D02*
X000640Y030118D01*
X000640Y030000D02*
X004620Y030000D01*
X004620Y029881D02*
X000640Y029881D01*
X000640Y029763D02*
X004620Y029763D01*
X004620Y029644D02*
X000640Y029644D01*
X000640Y029526D02*
X004620Y029526D01*
X004620Y029407D02*
X000640Y029407D01*
X000640Y029289D02*
X004620Y029289D01*
X004620Y029170D02*
X000640Y029170D01*
X000640Y029052D02*
X004620Y029052D01*
X004620Y028933D02*
X000640Y028933D01*
X000640Y028815D02*
X004620Y028815D01*
X004620Y028696D02*
X000640Y028696D01*
X000640Y028578D02*
X004620Y028578D01*
X004620Y028459D02*
X000640Y028459D01*
X000640Y028341D02*
X004620Y028341D01*
X004620Y028222D02*
X000640Y028222D01*
X000640Y028104D02*
X004620Y028104D01*
X004620Y027985D02*
X000640Y027985D01*
X000640Y027867D02*
X004620Y027867D01*
X004620Y027748D02*
X000640Y027748D01*
X000640Y027630D02*
X004620Y027630D01*
X004620Y027511D02*
X000640Y027511D01*
X000640Y027393D02*
X004620Y027393D01*
X004620Y027274D02*
X000640Y027274D01*
X000640Y027156D02*
X004620Y027156D01*
X004620Y027037D02*
X000640Y027037D01*
X000640Y026919D02*
X004620Y026919D01*
X004620Y026800D02*
X000640Y026800D01*
X000640Y026682D02*
X004620Y026682D01*
X004620Y026563D02*
X000640Y026563D01*
X000640Y026445D02*
X004620Y026445D01*
X004620Y026326D02*
X000640Y026326D01*
X000640Y026208D02*
X004620Y026208D01*
X004620Y026089D02*
X000640Y026089D01*
X000640Y025971D02*
X004620Y025971D01*
X004620Y025852D02*
X000640Y025852D01*
X000640Y025734D02*
X004620Y025734D01*
X004620Y025615D02*
X000640Y025615D01*
X000640Y025497D02*
X004620Y025497D01*
X004620Y025378D02*
X000640Y025378D01*
X000640Y025260D02*
X004620Y025260D01*
X004620Y025141D02*
X000640Y025141D01*
X000640Y025023D02*
X004620Y025023D01*
X004620Y024904D02*
X000640Y024904D01*
X000640Y024786D02*
X004620Y024786D01*
X004620Y024667D02*
X000640Y024667D01*
X000640Y024549D02*
X004620Y024549D01*
X004620Y024430D02*
X000640Y024430D01*
X000640Y024312D02*
X004620Y024312D01*
X004620Y024193D02*
X000640Y024193D01*
X000640Y024075D02*
X004620Y024075D01*
X004620Y023956D02*
X000640Y023956D01*
X000640Y023838D02*
X004620Y023838D01*
X004620Y023719D02*
X000640Y023719D01*
X000640Y023601D02*
X004620Y023601D01*
X004620Y023482D02*
X000640Y023482D01*
X000640Y023364D02*
X004620Y023364D01*
X004620Y023245D02*
X000640Y023245D01*
X000640Y023127D02*
X004620Y023127D01*
X004620Y023008D02*
X000640Y023008D01*
X000640Y022890D02*
X004620Y022890D01*
X004620Y022771D02*
X000640Y022771D01*
X000640Y022653D02*
X004620Y022653D01*
X004620Y022534D02*
X000640Y022534D01*
X000640Y022416D02*
X004620Y022416D01*
X004620Y022297D02*
X000640Y022297D01*
X000640Y022179D02*
X004620Y022179D01*
X004620Y022060D02*
X000640Y022060D01*
X000640Y021942D02*
X004620Y021942D01*
X004620Y021823D02*
X000640Y021823D01*
X000640Y021705D02*
X004620Y021705D01*
X004620Y021586D02*
X000640Y021586D01*
X000640Y021468D02*
X004620Y021468D01*
X004620Y021349D02*
X000640Y021349D01*
X000640Y021231D02*
X004620Y021231D01*
X004620Y021112D02*
X000640Y021112D01*
X000640Y020994D02*
X004620Y020994D01*
X004620Y020875D02*
X000640Y020875D01*
X000640Y020757D02*
X004620Y020757D01*
X004620Y020638D02*
X000640Y020638D01*
X000640Y020520D02*
X004620Y020520D01*
X004620Y020401D02*
X000640Y020401D01*
X000640Y020283D02*
X004620Y020283D01*
X004620Y020164D02*
X000640Y020164D01*
X000640Y020046D02*
X004620Y020046D01*
X004620Y019927D02*
X000640Y019927D01*
X000640Y019809D02*
X004620Y019809D01*
X004620Y019690D02*
X000640Y019690D01*
X000640Y019572D02*
X004620Y019572D01*
X004620Y019453D02*
X000640Y019453D01*
X000640Y019335D02*
X004620Y019335D01*
X004620Y019216D02*
X000640Y019216D01*
X000640Y019098D02*
X004620Y019098D01*
X004620Y018979D02*
X000640Y018979D01*
X000640Y018861D02*
X004620Y018861D01*
X004620Y018742D02*
X000640Y018742D01*
X000640Y018624D02*
X004620Y018624D01*
X004620Y018505D02*
X000640Y018505D01*
X000640Y018387D02*
X004620Y018387D01*
X004620Y018268D02*
X000640Y018268D01*
X000640Y018150D02*
X004620Y018150D01*
X004620Y018031D02*
X000640Y018031D01*
X000640Y017913D02*
X004620Y017913D01*
X004620Y017794D02*
X000640Y017794D01*
X000640Y017676D02*
X004620Y017676D01*
X004620Y017557D02*
X000640Y017557D01*
X000640Y017439D02*
X004620Y017439D01*
X004620Y017320D02*
X000640Y017320D01*
X000640Y017202D02*
X004620Y017202D01*
X004620Y017083D02*
X000640Y017083D01*
X000640Y016965D02*
X004620Y016965D01*
X004620Y016846D02*
X000640Y016846D01*
X000640Y016728D02*
X004620Y016728D01*
X004620Y016609D02*
X000640Y016609D01*
X000640Y016491D02*
X004620Y016491D01*
X004620Y016372D02*
X000640Y016372D01*
X000640Y016254D02*
X004620Y016254D01*
X004620Y016135D02*
X000640Y016135D01*
X000640Y016017D02*
X004620Y016017D01*
X004620Y015898D02*
X000640Y015898D01*
X000640Y015780D02*
X004620Y015780D01*
X004620Y015661D02*
X000640Y015661D01*
X000640Y015543D02*
X004620Y015543D01*
X004620Y015424D02*
X000640Y015424D01*
X000640Y015306D02*
X004620Y015306D01*
X004620Y015187D02*
X000640Y015187D01*
X000640Y015069D02*
X004620Y015069D01*
X004620Y014950D02*
X000640Y014950D01*
X000640Y014832D02*
X004620Y014832D01*
X004620Y014713D02*
X000640Y014713D01*
X000640Y014595D02*
X004620Y014595D01*
X004620Y014476D02*
X000640Y014476D01*
X000640Y014358D02*
X004620Y014358D01*
X004620Y014239D02*
X000640Y014239D01*
X000640Y014121D02*
X004620Y014121D01*
X004620Y014002D02*
X000640Y014002D01*
X000640Y013884D02*
X004620Y013884D01*
X004620Y013765D02*
X000640Y013765D01*
X000640Y013647D02*
X004620Y013647D01*
X004620Y013528D02*
X000640Y013528D01*
X000640Y013410D02*
X004620Y013410D01*
X004620Y013291D02*
X000640Y013291D01*
X000640Y013173D02*
X004620Y013173D01*
X004620Y013054D02*
X000640Y013054D01*
X000640Y012936D02*
X004620Y012936D01*
X004620Y012817D02*
X000640Y012817D01*
X000640Y012699D02*
X004620Y012699D01*
X004620Y012580D02*
X000640Y012580D01*
X000640Y012462D02*
X004620Y012462D01*
X004620Y012343D02*
X000640Y012343D01*
X000640Y012225D02*
X004620Y012225D01*
X004620Y012106D02*
X000640Y012106D01*
X000640Y011988D02*
X004620Y011988D01*
X004620Y011869D02*
X000640Y011869D01*
X000640Y011751D02*
X004620Y011751D01*
X004620Y011632D02*
X000640Y011632D01*
X000640Y011514D02*
X004620Y011514D01*
X004620Y011395D02*
X000640Y011395D01*
X000640Y011277D02*
X004620Y011277D01*
X004620Y011158D02*
X000640Y011158D01*
X000640Y011040D02*
X004620Y011040D01*
X004620Y010921D02*
X000640Y010921D01*
X000640Y010803D02*
X004620Y010803D01*
X004620Y010684D02*
X000640Y010684D01*
X000640Y010566D02*
X004620Y010566D01*
X004620Y010447D02*
X000640Y010447D01*
X000640Y010329D02*
X004620Y010329D01*
X004620Y010210D02*
X000640Y010210D01*
X000640Y010092D02*
X004620Y010092D01*
X004620Y009973D02*
X000640Y009973D01*
X000640Y009855D02*
X004620Y009855D01*
X004620Y009736D02*
X000640Y009736D01*
X000640Y009618D02*
X004620Y009618D01*
X004620Y009499D02*
X000640Y009499D01*
X000640Y009381D02*
X004620Y009381D01*
X004620Y009262D02*
X000640Y009262D01*
X000640Y009144D02*
X004620Y009144D01*
X004620Y009025D02*
X000640Y009025D01*
X000640Y008907D02*
X004620Y008907D01*
X004620Y008788D02*
X000640Y008788D01*
X000640Y008670D02*
X004620Y008670D01*
X004620Y008551D02*
X000640Y008551D01*
X000640Y008433D02*
X004620Y008433D01*
X004620Y008314D02*
X000640Y008314D01*
X000640Y008196D02*
X004620Y008196D01*
X004620Y008077D02*
X000640Y008077D01*
X000640Y007959D02*
X004620Y007959D01*
X004620Y007840D02*
X000640Y007840D01*
X000640Y007722D02*
X004620Y007722D01*
X004620Y007603D02*
X000640Y007603D01*
X000640Y007485D02*
X004620Y007485D01*
X004620Y007366D02*
X000640Y007366D01*
X000640Y007248D02*
X004620Y007248D01*
X004620Y007129D02*
X000640Y007129D01*
X000640Y007011D02*
X004620Y007011D01*
X004620Y006892D02*
X000640Y006892D01*
X000640Y006774D02*
X004620Y006774D01*
X004620Y006655D02*
X000640Y006655D01*
X000640Y006537D02*
X004620Y006537D01*
X004620Y006418D02*
X000640Y006418D01*
X000640Y006300D02*
X004620Y006300D01*
X004620Y006181D02*
X000640Y006181D01*
X000640Y006063D02*
X004620Y006063D01*
X004620Y005944D02*
X000640Y005944D01*
X000640Y005826D02*
X004620Y005826D01*
X004620Y005707D02*
X000640Y005707D01*
X000640Y005589D02*
X004620Y005589D01*
X004620Y005470D02*
X000640Y005470D01*
X000640Y005352D02*
X004620Y005352D01*
X004620Y005233D02*
X000640Y005233D01*
X000640Y005115D02*
X004620Y005115D01*
X004620Y004996D02*
X000640Y004996D01*
X000640Y004878D02*
X004620Y004878D01*
X004620Y004759D02*
X000640Y004759D01*
X000640Y004641D02*
X004620Y004641D01*
X004620Y004522D02*
X000640Y004522D01*
X000640Y004404D02*
X004620Y004404D01*
X004620Y004285D02*
X000640Y004285D01*
X000640Y004167D02*
X004620Y004167D01*
X004620Y004048D02*
X000640Y004048D01*
X000640Y003930D02*
X004620Y003930D01*
X004620Y003811D02*
X000640Y003811D01*
X000640Y003693D02*
X004620Y003693D01*
X004180Y003574D02*
X000640Y003574D01*
X005740Y003600D02*
X006620Y003600D01*
X006620Y040600D01*
X005740Y040600D01*
X005740Y003600D01*
X005740Y003693D02*
X006620Y003693D01*
X006620Y003811D02*
X005740Y003811D01*
X005740Y003930D02*
X006620Y003930D01*
X006620Y004048D02*
X005740Y004048D01*
X005740Y004167D02*
X006620Y004167D01*
X006620Y004285D02*
X005740Y004285D01*
X005740Y004404D02*
X006620Y004404D01*
X006620Y004522D02*
X005740Y004522D01*
X005740Y004641D02*
X006620Y004641D01*
X006620Y004759D02*
X005740Y004759D01*
X005740Y004878D02*
X006620Y004878D01*
X006620Y004996D02*
X005740Y004996D01*
X005740Y005115D02*
X006620Y005115D01*
X006620Y005233D02*
X005740Y005233D01*
X005740Y005352D02*
X006620Y005352D01*
X006620Y005470D02*
X005740Y005470D01*
X005740Y005589D02*
X006620Y005589D01*
X006620Y005707D02*
X005740Y005707D01*
X005740Y005826D02*
X006620Y005826D01*
X006620Y005944D02*
X005740Y005944D01*
X005740Y006063D02*
X006620Y006063D01*
X006620Y006181D02*
X005740Y006181D01*
X005740Y006300D02*
X006620Y006300D01*
X006620Y006418D02*
X005740Y006418D01*
X005740Y006537D02*
X006620Y006537D01*
X006620Y006655D02*
X005740Y006655D01*
X005740Y006774D02*
X006620Y006774D01*
X006620Y006892D02*
X005740Y006892D01*
X005740Y007011D02*
X006620Y007011D01*
X006620Y007129D02*
X005740Y007129D01*
X005740Y007248D02*
X006620Y007248D01*
X006620Y007366D02*
X005740Y007366D01*
X005740Y007485D02*
X006620Y007485D01*
X006620Y007603D02*
X005740Y007603D01*
X005740Y007722D02*
X006620Y007722D01*
X006620Y007840D02*
X005740Y007840D01*
X005740Y007959D02*
X006620Y007959D01*
X006620Y008077D02*
X005740Y008077D01*
X005740Y008196D02*
X006620Y008196D01*
X006620Y008314D02*
X005740Y008314D01*
X005740Y008433D02*
X006620Y008433D01*
X006620Y008551D02*
X005740Y008551D01*
X005740Y008670D02*
X006620Y008670D01*
X006620Y008788D02*
X005740Y008788D01*
X005740Y008907D02*
X006620Y008907D01*
X006620Y009025D02*
X005740Y009025D01*
X005740Y009144D02*
X006620Y009144D01*
X006620Y009262D02*
X005740Y009262D01*
X005740Y009381D02*
X006620Y009381D01*
X006620Y009499D02*
X005740Y009499D01*
X005740Y009618D02*
X006620Y009618D01*
X006620Y009736D02*
X005740Y009736D01*
X005740Y009855D02*
X006620Y009855D01*
X006620Y009973D02*
X005740Y009973D01*
X005740Y010092D02*
X006620Y010092D01*
X006620Y010210D02*
X005740Y010210D01*
X005740Y010329D02*
X006620Y010329D01*
X006620Y010447D02*
X005740Y010447D01*
X005740Y010566D02*
X006620Y010566D01*
X006620Y010684D02*
X005740Y010684D01*
X005740Y010803D02*
X006620Y010803D01*
X006620Y010921D02*
X005740Y010921D01*
X005740Y011040D02*
X006620Y011040D01*
X006620Y011158D02*
X005740Y011158D01*
X005740Y011277D02*
X006620Y011277D01*
X006620Y011395D02*
X005740Y011395D01*
X005740Y011514D02*
X006620Y011514D01*
X006620Y011632D02*
X005740Y011632D01*
X005740Y011751D02*
X006620Y011751D01*
X006620Y011869D02*
X005740Y011869D01*
X005740Y011988D02*
X006620Y011988D01*
X006620Y012106D02*
X005740Y012106D01*
X005740Y012225D02*
X006620Y012225D01*
X006620Y012343D02*
X005740Y012343D01*
X005740Y012462D02*
X006620Y012462D01*
X006620Y012580D02*
X005740Y012580D01*
X005740Y012699D02*
X006620Y012699D01*
X006620Y012817D02*
X005740Y012817D01*
X005740Y012936D02*
X006620Y012936D01*
X006620Y013054D02*
X005740Y013054D01*
X005740Y013173D02*
X006620Y013173D01*
X006620Y013291D02*
X005740Y013291D01*
X005740Y013410D02*
X006620Y013410D01*
X006620Y013528D02*
X005740Y013528D01*
X005740Y013647D02*
X006620Y013647D01*
X006620Y013765D02*
X005740Y013765D01*
X005740Y013884D02*
X006620Y013884D01*
X006620Y014002D02*
X005740Y014002D01*
X005740Y014121D02*
X006620Y014121D01*
X006620Y014239D02*
X005740Y014239D01*
X005740Y014358D02*
X006620Y014358D01*
X006620Y014476D02*
X005740Y014476D01*
X005740Y014595D02*
X006620Y014595D01*
X006620Y014713D02*
X005740Y014713D01*
X005740Y014832D02*
X006620Y014832D01*
X006620Y014950D02*
X005740Y014950D01*
X005740Y015069D02*
X006620Y015069D01*
X006620Y015187D02*
X005740Y015187D01*
X005740Y015306D02*
X006620Y015306D01*
X006620Y015424D02*
X005740Y015424D01*
X005740Y015543D02*
X006620Y015543D01*
X006620Y015661D02*
X005740Y015661D01*
X005740Y015780D02*
X006620Y015780D01*
X006620Y015898D02*
X005740Y015898D01*
X005740Y016017D02*
X006620Y016017D01*
X006620Y016135D02*
X005740Y016135D01*
X005740Y016254D02*
X006620Y016254D01*
X006620Y016372D02*
X005740Y016372D01*
X005740Y016491D02*
X006620Y016491D01*
X006620Y016609D02*
X005740Y016609D01*
X005740Y016728D02*
X006620Y016728D01*
X006620Y016846D02*
X005740Y016846D01*
X005740Y016965D02*
X006620Y016965D01*
X006620Y017083D02*
X005740Y017083D01*
X005740Y017202D02*
X006620Y017202D01*
X006620Y017320D02*
X005740Y017320D01*
X005740Y017439D02*
X006620Y017439D01*
X006620Y017557D02*
X005740Y017557D01*
X005740Y017676D02*
X006620Y017676D01*
X006620Y017794D02*
X005740Y017794D01*
X005740Y017913D02*
X006620Y017913D01*
X006620Y018031D02*
X005740Y018031D01*
X005740Y018150D02*
X006620Y018150D01*
X006620Y018268D02*
X005740Y018268D01*
X005740Y018387D02*
X006620Y018387D01*
X006620Y018505D02*
X005740Y018505D01*
X005740Y018624D02*
X006620Y018624D01*
X006620Y018742D02*
X005740Y018742D01*
X005740Y018861D02*
X006620Y018861D01*
X006620Y018979D02*
X005740Y018979D01*
X005740Y019098D02*
X006620Y019098D01*
X006620Y019216D02*
X005740Y019216D01*
X005740Y019335D02*
X006620Y019335D01*
X006620Y019453D02*
X005740Y019453D01*
X005740Y019572D02*
X006620Y019572D01*
X006620Y019690D02*
X005740Y019690D01*
X005740Y019809D02*
X006620Y019809D01*
X006620Y019927D02*
X005740Y019927D01*
X005740Y020046D02*
X006620Y020046D01*
X006620Y020164D02*
X005740Y020164D01*
X005740Y020283D02*
X006620Y020283D01*
X006620Y020401D02*
X005740Y020401D01*
X005740Y020520D02*
X006620Y020520D01*
X006620Y020638D02*
X005740Y020638D01*
X005740Y020757D02*
X006620Y020757D01*
X006620Y020875D02*
X005740Y020875D01*
X005740Y020994D02*
X006620Y020994D01*
X006620Y021112D02*
X005740Y021112D01*
X005740Y021231D02*
X006620Y021231D01*
X006620Y021349D02*
X005740Y021349D01*
X005740Y021468D02*
X006620Y021468D01*
X006620Y021586D02*
X005740Y021586D01*
X005740Y021705D02*
X006620Y021705D01*
X006620Y021823D02*
X005740Y021823D01*
X005740Y021942D02*
X006620Y021942D01*
X006620Y022060D02*
X005740Y022060D01*
X005740Y022179D02*
X006620Y022179D01*
X006620Y022297D02*
X005740Y022297D01*
X005740Y022416D02*
X006620Y022416D01*
X006620Y022534D02*
X005740Y022534D01*
X005740Y022653D02*
X006620Y022653D01*
X006620Y022771D02*
X005740Y022771D01*
X005740Y022890D02*
X006620Y022890D01*
X006620Y023008D02*
X005740Y023008D01*
X005740Y023127D02*
X006620Y023127D01*
X006620Y023245D02*
X005740Y023245D01*
X005740Y023364D02*
X006620Y023364D01*
X006620Y023482D02*
X005740Y023482D01*
X005740Y023601D02*
X006620Y023601D01*
X006620Y023719D02*
X005740Y023719D01*
X005740Y023838D02*
X006620Y023838D01*
X006620Y023956D02*
X005740Y023956D01*
X005740Y024075D02*
X006620Y024075D01*
X006620Y024193D02*
X005740Y024193D01*
X005740Y024312D02*
X006620Y024312D01*
X006620Y024430D02*
X005740Y024430D01*
X005740Y024549D02*
X006620Y024549D01*
X006620Y024667D02*
X005740Y024667D01*
X005740Y024786D02*
X006620Y024786D01*
X006620Y024904D02*
X005740Y024904D01*
X005740Y025023D02*
X006620Y025023D01*
X006620Y025141D02*
X005740Y025141D01*
X005740Y025260D02*
X006620Y025260D01*
X006620Y025378D02*
X005740Y025378D01*
X005740Y025497D02*
X006620Y025497D01*
X006620Y025615D02*
X005740Y025615D01*
X005740Y025734D02*
X006620Y025734D01*
X006620Y025852D02*
X005740Y025852D01*
X005740Y025971D02*
X006620Y025971D01*
X006620Y026089D02*
X005740Y026089D01*
X005740Y026208D02*
X006620Y026208D01*
X006620Y026326D02*
X005740Y026326D01*
X005740Y026445D02*
X006620Y026445D01*
X006620Y026563D02*
X005740Y026563D01*
X005740Y026682D02*
X006620Y026682D01*
X006620Y026800D02*
X005740Y026800D01*
X005740Y026919D02*
X006620Y026919D01*
X006620Y027037D02*
X005740Y027037D01*
X005740Y027156D02*
X006620Y027156D01*
X006620Y027274D02*
X005740Y027274D01*
X005740Y027393D02*
X006620Y027393D01*
X006620Y027511D02*
X005740Y027511D01*
X005740Y027630D02*
X006620Y027630D01*
X006620Y027748D02*
X005740Y027748D01*
X005740Y027867D02*
X006620Y027867D01*
X006620Y027985D02*
X005740Y027985D01*
X005740Y028104D02*
X006620Y028104D01*
X006620Y028222D02*
X005740Y028222D01*
X005740Y028341D02*
X006620Y028341D01*
X006620Y028459D02*
X005740Y028459D01*
X005740Y028578D02*
X006620Y028578D01*
X006620Y028696D02*
X005740Y028696D01*
X005740Y028815D02*
X006620Y028815D01*
X006620Y028933D02*
X005740Y028933D01*
X005740Y029052D02*
X006620Y029052D01*
X006620Y029170D02*
X005740Y029170D01*
X005740Y029289D02*
X006620Y029289D01*
X006620Y029407D02*
X005740Y029407D01*
X005740Y029526D02*
X006620Y029526D01*
X006620Y029644D02*
X005740Y029644D01*
X005740Y029763D02*
X006620Y029763D01*
X006620Y029881D02*
X005740Y029881D01*
X005740Y030000D02*
X006620Y030000D01*
X006620Y030118D02*
X005740Y030118D01*
X005740Y030237D02*
X006620Y030237D01*
X006620Y030355D02*
X005740Y030355D01*
X005740Y030474D02*
X006620Y030474D01*
X006620Y030592D02*
X005740Y030592D01*
X005740Y030711D02*
X006620Y030711D01*
X006620Y030829D02*
X005740Y030829D01*
X005740Y030948D02*
X006620Y030948D01*
X006620Y031066D02*
X005740Y031066D01*
X005740Y031185D02*
X006620Y031185D01*
X006620Y031303D02*
X005740Y031303D01*
X005740Y031422D02*
X006620Y031422D01*
X006620Y031540D02*
X005740Y031540D01*
X005740Y031659D02*
X006620Y031659D01*
X006620Y031777D02*
X005740Y031777D01*
X005740Y031896D02*
X006620Y031896D01*
X006620Y032014D02*
X005740Y032014D01*
X005740Y032133D02*
X006620Y032133D01*
X006620Y032251D02*
X005740Y032251D01*
X005740Y032370D02*
X006620Y032370D01*
X006620Y032488D02*
X005740Y032488D01*
X005740Y032607D02*
X006620Y032607D01*
X006620Y032725D02*
X005740Y032725D01*
X005740Y032844D02*
X006620Y032844D01*
X006620Y032962D02*
X005740Y032962D01*
X005740Y033081D02*
X006620Y033081D01*
X006620Y033199D02*
X005740Y033199D01*
X005740Y033318D02*
X006620Y033318D01*
X006620Y033436D02*
X005740Y033436D01*
X005740Y033555D02*
X006620Y033555D01*
X006620Y033673D02*
X005740Y033673D01*
X005740Y033792D02*
X006620Y033792D01*
X006620Y033910D02*
X005740Y033910D01*
X005740Y034029D02*
X006620Y034029D01*
X006620Y034147D02*
X005740Y034147D01*
X005740Y034266D02*
X006620Y034266D01*
X006620Y034384D02*
X005740Y034384D01*
X005740Y034503D02*
X006620Y034503D01*
X006620Y034621D02*
X005740Y034621D01*
X005740Y034740D02*
X006620Y034740D01*
X006620Y034858D02*
X005740Y034858D01*
X005740Y034977D02*
X006620Y034977D01*
X006620Y035095D02*
X005740Y035095D01*
X005740Y035214D02*
X006620Y035214D01*
X006620Y035332D02*
X005740Y035332D01*
X005740Y035451D02*
X006620Y035451D01*
X006620Y035569D02*
X005740Y035569D01*
X005740Y035688D02*
X006620Y035688D01*
X006620Y035806D02*
X005740Y035806D01*
X005740Y035925D02*
X006620Y035925D01*
X006620Y036043D02*
X005740Y036043D01*
X005740Y036162D02*
X006620Y036162D01*
X006620Y036280D02*
X005740Y036280D01*
X005740Y036399D02*
X006620Y036399D01*
X006620Y036517D02*
X005740Y036517D01*
X005740Y036636D02*
X006620Y036636D01*
X006620Y036754D02*
X005740Y036754D01*
X005740Y036873D02*
X006620Y036873D01*
X006620Y036991D02*
X005740Y036991D01*
X005740Y037110D02*
X006620Y037110D01*
X006620Y037228D02*
X005740Y037228D01*
X005740Y037347D02*
X006620Y037347D01*
X006620Y037465D02*
X005740Y037465D01*
X005740Y037584D02*
X006620Y037584D01*
X006620Y037702D02*
X005740Y037702D01*
X005740Y037821D02*
X006620Y037821D01*
X006620Y037939D02*
X005740Y037939D01*
X005740Y038058D02*
X006620Y038058D01*
X006620Y038176D02*
X005740Y038176D01*
X005740Y038295D02*
X006620Y038295D01*
X006620Y038413D02*
X005740Y038413D01*
X005740Y038532D02*
X006620Y038532D01*
X006620Y038650D02*
X005740Y038650D01*
X005740Y038769D02*
X006620Y038769D01*
X006620Y038887D02*
X005740Y038887D01*
X005740Y039006D02*
X006620Y039006D01*
X006620Y039124D02*
X005740Y039124D01*
X005740Y039243D02*
X006620Y039243D01*
X006620Y039361D02*
X005740Y039361D01*
X005740Y039480D02*
X006620Y039480D01*
X006620Y039598D02*
X005740Y039598D01*
X005740Y039717D02*
X006620Y039717D01*
X006620Y039835D02*
X005740Y039835D01*
X005740Y039954D02*
X006620Y039954D01*
X006620Y040072D02*
X005740Y040072D01*
X005740Y040191D02*
X006620Y040191D01*
X006620Y040309D02*
X005740Y040309D01*
X005740Y040428D02*
X006620Y040428D01*
X006620Y040546D02*
X005740Y040546D01*
X034560Y040546D02*
X039720Y040546D01*
X039720Y040428D02*
X034560Y040428D01*
X034560Y040309D02*
X039720Y040309D01*
X039720Y040191D02*
X034560Y040191D01*
X034560Y040072D02*
X039720Y040072D01*
X039720Y039954D02*
X034560Y039954D01*
X034560Y039835D02*
X039720Y039835D01*
X039720Y039717D02*
X034560Y039717D01*
X034560Y039598D02*
X039720Y039598D01*
X039720Y039480D02*
X034560Y039480D01*
X034560Y039361D02*
X039720Y039361D01*
X039720Y039243D02*
X034560Y039243D01*
X034560Y039124D02*
X039720Y039124D01*
X039720Y039006D02*
X034560Y039006D01*
X034560Y038887D02*
X039720Y038887D01*
X039720Y038769D02*
X034560Y038769D01*
X034560Y038650D02*
X039720Y038650D01*
X039720Y038532D02*
X034560Y038532D01*
X034560Y038413D02*
X039720Y038413D01*
X039720Y038295D02*
X034560Y038295D01*
X034560Y038176D02*
X039720Y038176D01*
X039720Y038058D02*
X034560Y038058D01*
X034560Y037939D02*
X039720Y037939D01*
X039720Y037821D02*
X034560Y037821D01*
X034560Y037702D02*
X039720Y037702D01*
X039720Y037584D02*
X034560Y037584D01*
X034560Y037465D02*
X039720Y037465D01*
X039720Y037347D02*
X034560Y037347D01*
X034560Y037228D02*
X039720Y037228D01*
X039720Y037110D02*
X034560Y037110D01*
X034560Y036991D02*
X039720Y036991D01*
X039720Y036873D02*
X034560Y036873D01*
X034560Y036754D02*
X039720Y036754D01*
X039720Y036636D02*
X034560Y036636D01*
X034560Y036517D02*
X039720Y036517D01*
X039720Y036399D02*
X034560Y036399D01*
X034560Y036280D02*
X039720Y036280D01*
X039720Y036162D02*
X034560Y036162D01*
X034560Y036043D02*
X039720Y036043D01*
X039720Y035925D02*
X034560Y035925D01*
X034560Y035806D02*
X039720Y035806D01*
X039720Y035688D02*
X034560Y035688D01*
X034560Y035569D02*
X039720Y035569D01*
X039720Y035451D02*
X034560Y035451D01*
X034560Y035332D02*
X039720Y035332D01*
X039720Y035214D02*
X034560Y035214D01*
X034560Y035095D02*
X039720Y035095D01*
X039720Y034977D02*
X034560Y034977D01*
X034560Y034858D02*
X039720Y034858D01*
X039720Y034740D02*
X034560Y034740D01*
X034560Y034621D02*
X039720Y034621D01*
X039720Y034503D02*
X034560Y034503D01*
X034560Y034384D02*
X039720Y034384D01*
X039720Y034266D02*
X034560Y034266D01*
X034560Y034147D02*
X039720Y034147D01*
X039720Y034029D02*
X034560Y034029D01*
X034560Y033910D02*
X039720Y033910D01*
X039720Y033792D02*
X034560Y033792D01*
X034560Y033673D02*
X039720Y033673D01*
X039720Y033555D02*
X034560Y033555D01*
X034560Y033436D02*
X039720Y033436D01*
X039720Y033318D02*
X034560Y033318D01*
X034560Y033199D02*
X039720Y033199D01*
X039720Y033081D02*
X034560Y033081D01*
X034560Y032962D02*
X039720Y032962D01*
X039720Y032844D02*
X034560Y032844D01*
X034560Y032725D02*
X039720Y032725D01*
X039720Y032607D02*
X034560Y032607D01*
X034560Y032488D02*
X039720Y032488D01*
X039720Y032370D02*
X034560Y032370D01*
X034560Y032251D02*
X039720Y032251D01*
X039720Y032133D02*
X034560Y032133D01*
X034560Y032014D02*
X039720Y032014D01*
X039720Y031896D02*
X034560Y031896D01*
X034560Y031777D02*
X039720Y031777D01*
X039720Y031659D02*
X034560Y031659D01*
X034560Y031540D02*
X039720Y031540D01*
X039720Y031422D02*
X034560Y031422D01*
X034560Y031303D02*
X039720Y031303D01*
X039720Y031185D02*
X034560Y031185D01*
X034560Y031066D02*
X039720Y031066D01*
X039720Y030948D02*
X034560Y030948D01*
X034560Y030829D02*
X039720Y030829D01*
X039720Y030711D02*
X034560Y030711D01*
X034560Y030592D02*
X039720Y030592D01*
X039720Y030474D02*
X034560Y030474D01*
X034560Y030355D02*
X039720Y030355D01*
X039720Y030237D02*
X034560Y030237D01*
X034560Y030118D02*
X039720Y030118D01*
X039720Y030000D02*
X034560Y030000D01*
X034560Y029881D02*
X039720Y029881D01*
X039720Y029763D02*
X034560Y029763D01*
X034560Y029644D02*
X039720Y029644D01*
X039720Y029526D02*
X034560Y029526D01*
X034560Y029407D02*
X039720Y029407D01*
X039720Y029289D02*
X034560Y029289D01*
X034560Y029170D02*
X039720Y029170D01*
X039720Y029052D02*
X034560Y029052D01*
X034560Y028933D02*
X039720Y028933D01*
X039720Y028815D02*
X034560Y028815D01*
X034560Y028696D02*
X039720Y028696D01*
X039720Y028578D02*
X034560Y028578D01*
X034560Y028459D02*
X039720Y028459D01*
X039720Y028341D02*
X034560Y028341D01*
X034560Y028222D02*
X039720Y028222D01*
X039720Y028104D02*
X034560Y028104D01*
X034560Y027985D02*
X039720Y027985D01*
X039720Y027867D02*
X034560Y027867D01*
X034560Y027748D02*
X039720Y027748D01*
X039720Y027630D02*
X034560Y027630D01*
X034560Y027511D02*
X039720Y027511D01*
X039720Y027393D02*
X034560Y027393D01*
X034560Y027274D02*
X039720Y027274D01*
X039720Y027156D02*
X034560Y027156D01*
X034560Y027037D02*
X039720Y027037D01*
X039720Y026919D02*
X034560Y026919D01*
X034560Y026800D02*
X039720Y026800D01*
X039720Y026682D02*
X034560Y026682D01*
X034560Y026563D02*
X039720Y026563D01*
X039720Y026445D02*
X034560Y026445D01*
X034560Y026326D02*
X039720Y026326D01*
X039720Y026208D02*
X034560Y026208D01*
X034560Y026089D02*
X039720Y026089D01*
X039720Y025971D02*
X034560Y025971D01*
X034560Y025852D02*
X039720Y025852D01*
X039720Y025734D02*
X034560Y025734D01*
X034560Y025615D02*
X039720Y025615D01*
X039720Y025497D02*
X034560Y025497D01*
X034560Y025378D02*
X039720Y025378D01*
X039720Y025260D02*
X034560Y025260D01*
X034560Y025141D02*
X039720Y025141D01*
X039720Y025023D02*
X034560Y025023D01*
X034560Y024904D02*
X039720Y024904D01*
X039720Y024786D02*
X034560Y024786D01*
X034560Y024667D02*
X039720Y024667D01*
X039720Y024549D02*
X034560Y024549D01*
X034560Y024430D02*
X039720Y024430D01*
X039720Y024312D02*
X034560Y024312D01*
X034560Y024193D02*
X039720Y024193D01*
X039720Y024075D02*
X034560Y024075D01*
X034560Y023956D02*
X039720Y023956D01*
X039720Y023838D02*
X034560Y023838D01*
X034560Y023719D02*
X039720Y023719D01*
X039720Y023601D02*
X034560Y023601D01*
X034560Y023482D02*
X039720Y023482D01*
X039720Y023364D02*
X034560Y023364D01*
X034560Y023245D02*
X039720Y023245D01*
X039720Y023127D02*
X034560Y023127D01*
X034560Y023008D02*
X039720Y023008D01*
X039720Y022890D02*
X034560Y022890D01*
X034560Y022771D02*
X039720Y022771D01*
X039720Y022653D02*
X034560Y022653D01*
X034560Y022534D02*
X039720Y022534D01*
X039720Y022416D02*
X034560Y022416D01*
X034560Y022297D02*
X039720Y022297D01*
X039720Y022179D02*
X034560Y022179D01*
X034560Y022060D02*
X039720Y022060D01*
X039720Y021942D02*
X034560Y021942D01*
X034560Y021823D02*
X039720Y021823D01*
X039720Y021705D02*
X034560Y021705D01*
X034560Y021586D02*
X039720Y021586D01*
X039720Y021468D02*
X034560Y021468D01*
X034560Y021349D02*
X039720Y021349D01*
X039720Y021231D02*
X034560Y021231D01*
X034560Y021112D02*
X039720Y021112D01*
X039720Y020994D02*
X034560Y020994D01*
X034560Y020875D02*
X039720Y020875D01*
X039720Y020757D02*
X034560Y020757D01*
X034560Y020638D02*
X039720Y020638D01*
X039720Y020520D02*
X034560Y020520D01*
X034560Y020401D02*
X039720Y020401D01*
X039720Y020283D02*
X034560Y020283D01*
X034560Y020164D02*
X039720Y020164D01*
X039720Y020046D02*
X034560Y020046D01*
X034560Y019927D02*
X039720Y019927D01*
X039720Y019809D02*
X034560Y019809D01*
X034560Y019690D02*
X039720Y019690D01*
X039720Y019572D02*
X034560Y019572D01*
X034560Y019453D02*
X039720Y019453D01*
X039720Y019335D02*
X034560Y019335D01*
X034560Y019216D02*
X039720Y019216D01*
X039720Y019098D02*
X034560Y019098D01*
X034560Y018979D02*
X039720Y018979D01*
X039720Y018861D02*
X034560Y018861D01*
X034560Y018742D02*
X039720Y018742D01*
X039720Y018624D02*
X034560Y018624D01*
X034560Y018505D02*
X039720Y018505D01*
X039720Y018387D02*
X034560Y018387D01*
X034560Y018268D02*
X039720Y018268D01*
X039720Y018150D02*
X034560Y018150D01*
X034560Y018031D02*
X039720Y018031D01*
X039720Y017913D02*
X034560Y017913D01*
X034560Y017794D02*
X039720Y017794D01*
X039720Y017676D02*
X034560Y017676D01*
X034560Y017557D02*
X039720Y017557D01*
X039720Y017439D02*
X034560Y017439D01*
X034560Y017320D02*
X039720Y017320D01*
X039720Y017202D02*
X034560Y017202D01*
X034560Y017083D02*
X039720Y017083D01*
X039720Y016965D02*
X034560Y016965D01*
X034560Y016846D02*
X039720Y016846D01*
X039720Y016728D02*
X034560Y016728D01*
X034560Y016609D02*
X039720Y016609D01*
X039720Y016491D02*
X034560Y016491D01*
X034560Y016372D02*
X039720Y016372D01*
X039720Y016254D02*
X034560Y016254D01*
X034560Y016135D02*
X039720Y016135D01*
X039720Y016017D02*
X034560Y016017D01*
X034560Y015898D02*
X039720Y015898D01*
X039720Y015780D02*
X034560Y015780D01*
X034560Y015661D02*
X039720Y015661D01*
X039720Y015543D02*
X034560Y015543D01*
X034560Y015424D02*
X039720Y015424D01*
X039720Y015306D02*
X034560Y015306D01*
X034560Y015187D02*
X039720Y015187D01*
X039720Y015069D02*
X034560Y015069D01*
X034560Y014950D02*
X039720Y014950D01*
X039720Y014832D02*
X034560Y014832D01*
X034560Y014713D02*
X039720Y014713D01*
X039720Y014595D02*
X034560Y014595D01*
X034560Y014476D02*
X039720Y014476D01*
X039720Y014358D02*
X034560Y014358D01*
X034560Y014239D02*
X039720Y014239D01*
X039720Y014121D02*
X034560Y014121D01*
X034560Y014002D02*
X039720Y014002D01*
X039720Y013884D02*
X034560Y013884D01*
X034560Y013765D02*
X039720Y013765D01*
X039720Y013647D02*
X034560Y013647D01*
X034560Y013528D02*
X039720Y013528D01*
X039720Y013410D02*
X034560Y013410D01*
X034560Y013291D02*
X039720Y013291D01*
X039720Y013173D02*
X034560Y013173D01*
X034560Y013054D02*
X039720Y013054D01*
X039720Y012936D02*
X034560Y012936D01*
X034560Y012817D02*
X039720Y012817D01*
X039720Y012699D02*
X034560Y012699D01*
X034560Y012580D02*
X039720Y012580D01*
X039720Y012462D02*
X034560Y012462D01*
X034560Y012343D02*
X039720Y012343D01*
X039720Y012225D02*
X034560Y012225D01*
X034560Y012106D02*
X039720Y012106D01*
X039720Y011988D02*
X034560Y011988D01*
X034560Y011869D02*
X039720Y011869D01*
X039720Y011751D02*
X034560Y011751D01*
X034560Y011632D02*
X039720Y011632D01*
X039720Y011514D02*
X034560Y011514D01*
X034560Y011395D02*
X039720Y011395D01*
X039720Y011277D02*
X034560Y011277D01*
X034560Y011158D02*
X039720Y011158D01*
X039720Y011040D02*
X034560Y011040D01*
X034560Y010921D02*
X039720Y010921D01*
X039720Y010803D02*
X034560Y010803D01*
X034560Y010684D02*
X039720Y010684D01*
X039720Y010566D02*
X034560Y010566D01*
X034560Y010447D02*
X039720Y010447D01*
X039720Y010329D02*
X034560Y010329D01*
X034560Y010210D02*
X039720Y010210D01*
X039720Y010092D02*
X034560Y010092D01*
X034560Y009973D02*
X039720Y009973D01*
X039720Y009855D02*
X034560Y009855D01*
X034560Y009736D02*
X039720Y009736D01*
X039720Y009618D02*
X034560Y009618D01*
X034560Y009499D02*
X039720Y009499D01*
X039720Y009381D02*
X034560Y009381D01*
X034560Y009262D02*
X039720Y009262D01*
X039720Y009144D02*
X034560Y009144D01*
X034560Y009025D02*
X039720Y009025D01*
X039720Y008907D02*
X034560Y008907D01*
X034560Y008788D02*
X039720Y008788D01*
X039720Y008670D02*
X034560Y008670D01*
X034560Y008551D02*
X039720Y008551D01*
X039720Y008433D02*
X034560Y008433D01*
X034560Y008314D02*
X039720Y008314D01*
X039720Y008196D02*
X034560Y008196D01*
X034560Y008077D02*
X039720Y008077D01*
X039720Y007959D02*
X034560Y007959D01*
X034560Y007840D02*
X039720Y007840D01*
X039720Y007722D02*
X034560Y007722D01*
X034560Y007603D02*
X039720Y007603D01*
X039720Y007485D02*
X034560Y007485D01*
X034560Y007366D02*
X039720Y007366D01*
X039720Y007248D02*
X034560Y007248D01*
X034560Y007129D02*
X039720Y007129D01*
X039720Y007011D02*
X034560Y007011D01*
X034560Y006892D02*
X039720Y006892D01*
X039720Y006774D02*
X034560Y006774D01*
X034560Y006655D02*
X039720Y006655D01*
X039720Y006537D02*
X034560Y006537D01*
X034560Y006418D02*
X039720Y006418D01*
X039720Y006300D02*
X034560Y006300D01*
X034560Y006181D02*
X039720Y006181D01*
X039720Y006063D02*
X034560Y006063D01*
X034560Y005944D02*
X039720Y005944D01*
X039720Y005826D02*
X034560Y005826D01*
X034560Y005707D02*
X039720Y005707D01*
X039720Y005589D02*
X034560Y005589D01*
X034560Y005470D02*
X039720Y005470D01*
X039720Y005352D02*
X034560Y005352D01*
X034560Y005233D02*
X039720Y005233D01*
X039720Y005115D02*
X034560Y005115D01*
X034560Y004996D02*
X039720Y004996D01*
X039720Y004878D02*
X034560Y004878D01*
X034560Y004759D02*
X039720Y004759D01*
X039720Y004641D02*
X034560Y004641D01*
X034560Y004522D02*
X039720Y004522D01*
X039720Y004404D02*
X034560Y004404D01*
X034560Y004285D02*
X039720Y004285D01*
X039720Y004167D02*
X034560Y004167D01*
X034560Y004048D02*
X039720Y004048D01*
X039720Y003930D02*
X034560Y003930D01*
X034560Y003811D02*
X039720Y003811D01*
X039720Y003693D02*
X034560Y003693D01*
X034560Y003600D02*
X034560Y040600D01*
X036180Y040600D01*
X036180Y042640D01*
X039720Y042640D01*
X039720Y003560D01*
X036180Y003560D01*
X036180Y003600D01*
X034560Y003600D01*
X036180Y003574D02*
X039720Y003574D01*
X039720Y040665D02*
X036180Y040665D01*
X036180Y040783D02*
X039720Y040783D01*
X039720Y040902D02*
X036180Y040902D01*
X036180Y041020D02*
X039720Y041020D01*
X039720Y041139D02*
X036180Y041139D01*
X036180Y041257D02*
X039720Y041257D01*
X039720Y041376D02*
X036180Y041376D01*
X036180Y041494D02*
X039720Y041494D01*
X039720Y041613D02*
X036180Y041613D01*
X036180Y041731D02*
X039720Y041731D01*
X039720Y041850D02*
X036180Y041850D01*
X036180Y041968D02*
X039720Y041968D01*
X039720Y042087D02*
X036180Y042087D01*
X036180Y042205D02*
X039720Y042205D01*
X039720Y042324D02*
X036180Y042324D01*
X036180Y042442D02*
X039720Y042442D01*
X039720Y042561D02*
X036180Y042561D01*
D14*
X035180Y041850D02*
X035180Y040100D01*
X008180Y041850D02*
X008180Y001915D01*
X007180Y001915D02*
X007180Y041850D01*
X006180Y041850D02*
X006180Y040100D01*
X005180Y041850D02*
X005180Y001915D01*
X006180Y001915D02*
X006180Y004100D01*
X035180Y004100D02*
X035180Y001915D01*
D15*
X006180Y004100D03*
X006180Y040100D03*
D16*
X009180Y041850D02*
X009180Y001915D01*
X010180Y001915D02*
X010180Y041850D01*
X011180Y041850D02*
X011180Y001915D01*
X012180Y001915D02*
X012180Y041850D01*
X013180Y041850D02*
X013180Y001915D01*
X014180Y001915D02*
X014180Y041850D01*
X015180Y041850D02*
X015180Y001915D01*
X016180Y001915D02*
X016180Y041850D01*
X017180Y041850D02*
X017180Y001915D01*
X018180Y001915D02*
X018180Y041850D01*
X019180Y041850D02*
X019180Y001915D01*
X020180Y001915D02*
X020180Y041850D01*
X021180Y041850D02*
X021180Y001915D01*
X022180Y001915D02*
X022180Y041850D01*
X023180Y041850D02*
X023180Y001915D01*
X024180Y001915D02*
X024180Y041850D01*
X025180Y041850D02*
X025180Y001915D01*
X026180Y001915D02*
X026180Y041850D01*
X027180Y041850D02*
X027180Y001915D01*
X028180Y001915D02*
X028180Y041850D01*
X029180Y041850D02*
X029180Y001915D01*
X030180Y001915D02*
X030180Y041850D01*
X031180Y041850D02*
X031180Y001915D01*
X032180Y001915D02*
X032180Y041850D01*
X033180Y041850D02*
X033180Y001915D01*
X034180Y001915D02*
X034180Y041850D01*
M02*
