G75*
G70*
%OFA0B0*%
%FSLAX24Y24*%
%IPPOS*%
%LPD*%
%AMOC8*
5,1,8,0,0,1.08239X$1,22.5*
%
%ADD10C,0.0080*%
%ADD11C,0.0050*%
%ADD12C,0.0040*%
D10*
X000845Y017890D02*
X001265Y018170D01*
X001265Y018350D02*
X000845Y018350D01*
X000985Y018491D01*
X000845Y018631D01*
X001265Y018631D01*
X001265Y018811D02*
X001265Y018951D01*
X001265Y018881D02*
X000845Y018881D01*
X000845Y018811D02*
X000845Y018951D01*
X000915Y019118D02*
X001195Y019118D01*
X001265Y019188D01*
X001265Y019328D01*
X001195Y019398D01*
X001265Y019578D02*
X000845Y019578D01*
X000845Y019788D01*
X000915Y019858D01*
X001055Y019858D01*
X001125Y019788D01*
X001125Y019578D01*
X001125Y019718D02*
X001265Y019858D01*
X001195Y020038D02*
X001265Y020109D01*
X001265Y020249D01*
X001195Y020319D01*
X000915Y020319D01*
X000845Y020249D01*
X000845Y020109D01*
X000915Y020038D01*
X001195Y020038D01*
X001595Y020152D02*
X001805Y019942D01*
X001805Y020222D01*
X002015Y020152D02*
X001595Y020152D01*
X001665Y020402D02*
X001595Y020472D01*
X001595Y020613D01*
X001665Y020683D01*
X001735Y020683D01*
X001805Y020613D01*
X001875Y020683D01*
X001945Y020683D01*
X002015Y020613D01*
X002015Y020472D01*
X001945Y020402D01*
X001805Y020542D02*
X001805Y020613D01*
X001265Y020959D02*
X001265Y021240D01*
X001265Y021420D02*
X000845Y021700D01*
X000845Y021880D02*
X000845Y022160D01*
X000845Y022020D02*
X001265Y022020D01*
X001265Y021700D02*
X000845Y021420D01*
X000845Y021240D02*
X000845Y020959D01*
X001265Y020959D01*
X001055Y020959D02*
X001055Y021099D01*
X001055Y020779D02*
X001055Y020499D01*
X001665Y019762D02*
X001595Y019692D01*
X001595Y019552D01*
X001665Y019482D01*
X001735Y019482D01*
X001805Y019552D01*
X001805Y019762D01*
X001945Y019762D02*
X001665Y019762D01*
X001945Y019762D02*
X002015Y019692D01*
X002015Y019552D01*
X001945Y019482D01*
X002015Y019301D02*
X002015Y019021D01*
X002015Y019161D02*
X001595Y019161D01*
X001735Y019021D01*
X002015Y018381D02*
X002015Y018100D01*
X002015Y018241D02*
X001595Y018241D01*
X001735Y018100D01*
X001875Y017920D02*
X001595Y017920D01*
X001875Y017920D02*
X002015Y017780D01*
X001875Y017640D01*
X001595Y017640D01*
X001265Y017890D02*
X000845Y018170D01*
X000915Y019118D02*
X000845Y019188D01*
X000845Y019328D01*
X000915Y019398D01*
D11*
X004680Y004600D02*
X005180Y003600D01*
X005680Y004600D01*
X004680Y004600D01*
X004702Y004555D02*
X005658Y004555D01*
X005633Y004507D02*
X004727Y004507D01*
X004751Y004458D02*
X005609Y004458D01*
X005585Y004410D02*
X004775Y004410D01*
X004799Y004361D02*
X005561Y004361D01*
X005536Y004313D02*
X004824Y004313D01*
X004848Y004264D02*
X005512Y004264D01*
X005488Y004216D02*
X004872Y004216D01*
X004896Y004167D02*
X005464Y004167D01*
X005439Y004119D02*
X004921Y004119D01*
X004945Y004070D02*
X005415Y004070D01*
X005391Y004022D02*
X004969Y004022D01*
X004993Y003973D02*
X005367Y003973D01*
X005342Y003925D02*
X005018Y003925D01*
X005042Y003876D02*
X005318Y003876D01*
X005294Y003828D02*
X005066Y003828D01*
X005090Y003779D02*
X005270Y003779D01*
X005245Y003731D02*
X005115Y003731D01*
X005139Y003682D02*
X005221Y003682D01*
X005197Y003634D02*
X005163Y003634D01*
X004680Y039600D02*
X005180Y040600D01*
X005680Y039600D01*
X004680Y039600D01*
X004690Y039621D02*
X005670Y039621D01*
X005645Y039669D02*
X004715Y039669D01*
X004739Y039718D02*
X005621Y039718D01*
X005597Y039766D02*
X004763Y039766D01*
X004787Y039815D02*
X005573Y039815D01*
X005548Y039863D02*
X004812Y039863D01*
X004836Y039912D02*
X005524Y039912D01*
X005500Y039960D02*
X004860Y039960D01*
X004884Y040009D02*
X005476Y040009D01*
X005451Y040057D02*
X004909Y040057D01*
X004933Y040106D02*
X005427Y040106D01*
X005403Y040154D02*
X004957Y040154D01*
X004981Y040203D02*
X005379Y040203D01*
X005354Y040251D02*
X005006Y040251D01*
X005030Y040300D02*
X005330Y040300D01*
X005306Y040348D02*
X005054Y040348D01*
X005078Y040397D02*
X005282Y040397D01*
X005257Y040445D02*
X005103Y040445D01*
X005127Y040494D02*
X005233Y040494D01*
X005209Y040542D02*
X005151Y040542D01*
X005175Y040591D02*
X005185Y040591D01*
X039205Y012989D02*
X039205Y012839D01*
X039280Y012764D01*
X039355Y012764D01*
X039430Y012839D01*
X039430Y013064D01*
X039580Y013064D02*
X039280Y013064D01*
X039205Y012989D01*
X039580Y013064D02*
X039655Y012989D01*
X039655Y012839D01*
X039580Y012764D01*
X039655Y012603D02*
X039655Y012303D01*
X039655Y012453D02*
X039205Y012453D01*
X039355Y012303D01*
X039280Y012143D02*
X039580Y011843D01*
X039655Y011918D01*
X039655Y012068D01*
X039580Y012143D01*
X039280Y012143D01*
X039205Y012068D01*
X039205Y011918D01*
X039280Y011843D01*
X039580Y011843D01*
X039655Y011683D02*
X039655Y011382D01*
X039355Y011683D01*
X039280Y011683D01*
X039205Y011608D01*
X039205Y011457D01*
X039280Y011382D01*
X039280Y010762D02*
X039430Y010762D01*
X039505Y010687D01*
X039505Y010462D01*
X039505Y010612D02*
X039655Y010762D01*
X039655Y010462D02*
X039205Y010462D01*
X039205Y010687D01*
X039280Y010762D01*
X039205Y010305D02*
X039205Y010155D01*
X039205Y010230D02*
X039655Y010230D01*
X039655Y010155D02*
X039655Y010305D01*
X039655Y009995D02*
X039655Y009694D01*
X039205Y009694D01*
X039205Y009995D01*
X039430Y009844D02*
X039430Y009694D01*
X039655Y009534D02*
X039205Y009534D01*
X039205Y009234D02*
X039655Y009234D01*
X039505Y009384D01*
X039655Y009534D01*
X039580Y008613D02*
X039505Y008613D01*
X039430Y008538D01*
X039430Y008388D01*
X039355Y008313D01*
X039280Y008313D01*
X039205Y008388D01*
X039205Y008538D01*
X039280Y008613D01*
X039580Y008613D02*
X039655Y008538D01*
X039655Y008388D01*
X039580Y008313D01*
X039655Y008156D02*
X039655Y008006D01*
X039655Y008081D02*
X039205Y008081D01*
X039205Y008006D02*
X039205Y008156D01*
X039280Y007846D02*
X039430Y007846D01*
X039505Y007771D01*
X039505Y007546D01*
X039505Y007696D02*
X039655Y007846D01*
X039655Y007546D02*
X039205Y007546D01*
X039205Y007771D01*
X039280Y007846D01*
X039205Y007386D02*
X039655Y007386D01*
X039430Y007386D02*
X039430Y007085D01*
X039580Y006925D02*
X039655Y006850D01*
X039655Y006700D01*
X039580Y006625D01*
X039280Y006625D01*
X039205Y006700D01*
X039205Y006850D01*
X039280Y006925D01*
X039205Y007085D02*
X039655Y007085D01*
D12*
X004507Y004120D02*
X004200Y004120D01*
X004353Y004120D02*
X004353Y004580D01*
X004200Y004427D01*
X004200Y040120D02*
X004507Y040120D01*
X004353Y040120D02*
X004353Y040580D01*
X004200Y040427D01*
X035700Y040350D02*
X035930Y040350D01*
X036007Y040273D01*
X036007Y040197D01*
X035930Y040120D01*
X035777Y040120D01*
X035700Y040197D01*
X035700Y040350D01*
X035853Y040504D01*
X036007Y040580D01*
X036160Y040427D02*
X036314Y040580D01*
X036314Y040120D01*
X036467Y040120D02*
X036160Y040120D01*
X036007Y004580D02*
X035853Y004504D01*
X035700Y004350D01*
X035930Y004350D01*
X036007Y004273D01*
X036007Y004197D01*
X035930Y004120D01*
X035777Y004120D01*
X035700Y004197D01*
X035700Y004350D01*
X036160Y004427D02*
X036314Y004580D01*
X036314Y004120D01*
X036467Y004120D02*
X036160Y004120D01*
M02*
