G75*
G70*
%OFA0B0*%
%FSLAX24Y24*%
%IPPOS*%
%LPD*%
%AMOC8*
5,1,8,0,0,1.08239X$1,22.5*
%
%ADD10C,0.0100*%
%ADD11C,0.0600*%
%ADD12C,0.0560*%
D10*
X000938Y001592D02*
X000845Y001686D01*
X000845Y001872D01*
X000938Y001966D01*
X001312Y001966D01*
X001405Y001872D01*
X001405Y001686D01*
X001312Y001592D01*
X000938Y001592D01*
X000938Y002200D02*
X001125Y002200D01*
X001218Y002293D01*
X001218Y002574D01*
X001405Y002574D02*
X000845Y002574D01*
X000845Y002293D01*
X000938Y002200D01*
X001218Y002387D02*
X001405Y002200D01*
X001312Y002808D02*
X001405Y002901D01*
X001405Y003088D01*
X001312Y003181D01*
X000938Y003181D01*
X000845Y003088D01*
X000845Y002901D01*
X000938Y002808D01*
X000845Y003400D02*
X000845Y003586D01*
X000845Y003493D02*
X001405Y003493D01*
X001405Y003586D02*
X001405Y003400D01*
X001405Y003821D02*
X000845Y003821D01*
X001031Y004007D01*
X000845Y004194D01*
X001405Y004194D01*
X001405Y004428D02*
X000845Y004802D01*
X000845Y004428D02*
X001405Y004802D01*
X018845Y004202D02*
X018845Y004015D01*
X018938Y003922D01*
X019031Y003922D01*
X019405Y004295D01*
X019405Y003922D01*
X019312Y003688D02*
X018938Y003688D01*
X018845Y003594D01*
X018845Y003407D01*
X018938Y003314D01*
X019312Y003688D01*
X019405Y003594D01*
X019405Y003407D01*
X019312Y003314D01*
X018938Y003314D01*
X019031Y003080D02*
X018845Y002893D01*
X019405Y002893D01*
X019405Y003080D02*
X019405Y002706D01*
X019312Y002472D02*
X019218Y002472D01*
X019125Y002379D01*
X019125Y002192D01*
X019218Y002099D01*
X019312Y002099D01*
X019405Y002192D01*
X019405Y002379D01*
X019312Y002472D01*
X019125Y002379D02*
X019031Y002472D01*
X018938Y002472D01*
X018845Y002379D01*
X018845Y002192D01*
X018938Y002099D01*
X019031Y002099D01*
X019125Y002192D01*
X018845Y004202D02*
X018938Y004295D01*
D11*
X002125Y000630D03*
X003125Y000630D03*
X004125Y000630D03*
X005125Y000630D03*
X006125Y000630D03*
X007125Y000630D03*
X008125Y000630D03*
X009125Y000630D03*
X010125Y000630D03*
X011125Y000630D03*
X012125Y000630D03*
X013125Y000630D03*
X014125Y000630D03*
X015125Y000630D03*
X016125Y000630D03*
X017125Y000630D03*
X018125Y000630D03*
X018125Y002630D03*
X017125Y002630D03*
X016125Y002630D03*
X015125Y002630D03*
X014125Y002630D03*
X013125Y002630D03*
X012125Y002630D03*
X011125Y002630D03*
X010125Y002630D03*
X009125Y002630D03*
X008125Y002630D03*
X007125Y002630D03*
X006125Y002630D03*
X005125Y002630D03*
X004125Y002630D03*
X003125Y002630D03*
X002125Y002630D03*
X002125Y003630D03*
X003125Y003630D03*
X004125Y003630D03*
X005125Y003630D03*
X006125Y003630D03*
X007125Y003630D03*
X008125Y003630D03*
X009125Y003630D03*
X010125Y003630D03*
X011125Y003630D03*
X012125Y003630D03*
X013125Y003630D03*
X014125Y003630D03*
X015125Y003630D03*
X016125Y003630D03*
X017125Y003630D03*
X018125Y003630D03*
X018125Y005630D03*
X017125Y005630D03*
X016125Y005630D03*
X015125Y005630D03*
X014125Y005630D03*
X013125Y005630D03*
X012125Y005630D03*
X011125Y005630D03*
X010125Y005630D03*
X009125Y005630D03*
X008125Y005630D03*
X007125Y005630D03*
X006125Y005630D03*
X005125Y005630D03*
X004125Y005630D03*
X003125Y005630D03*
X002125Y005630D03*
D12*
X002125Y003630D01*
X003125Y003630D02*
X003125Y005630D01*
X004125Y005630D02*
X004125Y003630D01*
X005125Y003630D02*
X005125Y005630D01*
X006125Y005630D02*
X006125Y003630D01*
X007125Y003630D02*
X007125Y005630D01*
X008125Y005630D02*
X008125Y003630D01*
X009125Y003630D02*
X009125Y005630D01*
X010125Y005630D02*
X010125Y003630D01*
X011125Y003630D02*
X011125Y005630D01*
X012125Y005630D02*
X012125Y003630D01*
X013125Y003630D02*
X013125Y005630D01*
X014125Y005630D02*
X014125Y003630D01*
X015125Y003630D02*
X015125Y005630D01*
X016125Y005630D02*
X016125Y003630D01*
X017125Y003630D02*
X017125Y005630D01*
X018125Y005630D02*
X018125Y003630D01*
X018125Y002630D02*
X018125Y000630D01*
X017125Y000630D02*
X017125Y002630D01*
X016125Y002630D02*
X016125Y000630D01*
X015125Y000630D02*
X015125Y002630D01*
X014125Y002630D02*
X014125Y000630D01*
X013125Y000630D02*
X013125Y002630D01*
X012125Y002630D02*
X012125Y000630D01*
X011125Y000630D02*
X011125Y002630D01*
X010125Y002630D02*
X010125Y000630D01*
X009125Y000630D02*
X009125Y002630D01*
X008125Y002630D02*
X008125Y000630D01*
X007125Y000630D02*
X007125Y002630D01*
X006125Y002630D02*
X006125Y000630D01*
X005125Y000630D02*
X005125Y002630D01*
X004125Y002630D02*
X004125Y000630D01*
X003125Y000630D02*
X003125Y002630D01*
X002125Y002630D02*
X002125Y000630D01*
M02*
