%
M48
M72
T01C0.0400
%
T01
X2125Y630
X3125Y630
X4125Y630
X5125Y630
X6125Y630
X7125Y630
X8125Y630
X9125Y630
X10125Y630
X11125Y630
X12125Y630
X13125Y630
X14125Y630
X15125Y630
X16125Y630
X17125Y630
X18125Y630
X18125Y2630
X17125Y2630
X16125Y2630
X15125Y2630
X14125Y2630
X13125Y2630
X12125Y2630
X11125Y2630
X10125Y2630
X9125Y2630
X8125Y2630
X7125Y2630
X6125Y2630
X5125Y2630
X4125Y2630
X3125Y2630
X2125Y2630
X2125Y3630
X3125Y3630
X4125Y3630
X5125Y3630
X6125Y3630
X7125Y3630
X8125Y3630
X9125Y3630
X10125Y3630
X11125Y3630
X12125Y3630
X13125Y3630
X14125Y3630
X15125Y3630
X16125Y3630
X17125Y3630
X18125Y3630
X18125Y5630
X17125Y5630
X16125Y5630
X15125Y5630
X14125Y5630
X13125Y5630
X12125Y5630
X11125Y5630
X10125Y5630
X9125Y5630
X8125Y5630
X7125Y5630
X6125Y5630
X5125Y5630
X4125Y5630
X3125Y5630
X2125Y5630
M30
