G75*
G70*
%OFA0B0*%
%FSLAX24Y24*%
%IPPOS*%
%LPD*%
%AMOC8*
5,1,8,0,0,1.08239X$1,22.5*
%
%ADD10C,0.0680*%
D10*
X002125Y000630D03*
X003125Y000630D03*
X004125Y000630D03*
X005125Y000630D03*
X006125Y000630D03*
X007125Y000630D03*
X008125Y000630D03*
X009125Y000630D03*
X010125Y000630D03*
X011125Y000630D03*
X012125Y000630D03*
X013125Y000630D03*
X014125Y000630D03*
X015125Y000630D03*
X016125Y000630D03*
X017125Y000630D03*
X018125Y000630D03*
X018125Y002630D03*
X017125Y002630D03*
X016125Y002630D03*
X015125Y002630D03*
X014125Y002630D03*
X013125Y002630D03*
X012125Y002630D03*
X011125Y002630D03*
X010125Y002630D03*
X009125Y002630D03*
X008125Y002630D03*
X007125Y002630D03*
X006125Y002630D03*
X005125Y002630D03*
X004125Y002630D03*
X003125Y002630D03*
X002125Y002630D03*
X002125Y003630D03*
X003125Y003630D03*
X004125Y003630D03*
X005125Y003630D03*
X006125Y003630D03*
X007125Y003630D03*
X008125Y003630D03*
X009125Y003630D03*
X010125Y003630D03*
X011125Y003630D03*
X012125Y003630D03*
X013125Y003630D03*
X014125Y003630D03*
X015125Y003630D03*
X016125Y003630D03*
X017125Y003630D03*
X018125Y003630D03*
X018125Y005630D03*
X017125Y005630D03*
X016125Y005630D03*
X015125Y005630D03*
X014125Y005630D03*
X013125Y005630D03*
X012125Y005630D03*
X011125Y005630D03*
X010125Y005630D03*
X009125Y005630D03*
X008125Y005630D03*
X007125Y005630D03*
X006125Y005630D03*
X005125Y005630D03*
X004125Y005630D03*
X003125Y005630D03*
X002125Y005630D03*
M02*
