G75*
G70*
%OFA0B0*%
%FSLAX24Y24*%
%IPPOS*%
%LPD*%
%AMOC8*
5,1,8,0,0,1.08239X$1,22.5*
%
%ADD10C,0.0680*%
%ADD11R,3.2000X0.3000*%
%ADD12C,0.2580*%
D10*
X002160Y012100D03*
X003160Y012100D03*
X004160Y012100D03*
X005160Y012100D03*
X006160Y012100D03*
X007160Y012100D03*
X008160Y012100D03*
X009160Y012100D03*
X010160Y012100D03*
X011160Y012100D03*
X012160Y012100D03*
X013160Y012100D03*
X014160Y012100D03*
X015160Y012100D03*
X016160Y012100D03*
X017160Y012100D03*
X018160Y012100D03*
X018160Y013100D03*
X017160Y013100D03*
X016160Y013100D03*
X015160Y013100D03*
X014160Y013100D03*
X013160Y013100D03*
X012160Y013100D03*
X011160Y013100D03*
X010160Y013100D03*
X009160Y013100D03*
X008160Y013100D03*
X007160Y013100D03*
X006160Y013100D03*
X005160Y013100D03*
X004160Y013100D03*
X003160Y013100D03*
X002160Y013100D03*
X022160Y013100D03*
X023160Y013100D03*
X024160Y013100D03*
X025160Y013100D03*
X026160Y013100D03*
X027160Y013100D03*
X028160Y013100D03*
X029160Y013100D03*
X030160Y013100D03*
X031160Y013100D03*
X032160Y013100D03*
X033160Y013100D03*
X034160Y013100D03*
X035160Y013100D03*
X036160Y013100D03*
X037160Y013100D03*
X038160Y013100D03*
X038160Y012100D03*
X037160Y012100D03*
X036160Y012100D03*
X035160Y012100D03*
X034160Y012100D03*
X033160Y012100D03*
X032160Y012100D03*
X031160Y012100D03*
X030160Y012100D03*
X029160Y012100D03*
X028160Y012100D03*
X027160Y012100D03*
X026160Y012100D03*
X025160Y012100D03*
X024160Y012100D03*
X023160Y012100D03*
X022160Y012100D03*
D11*
X020160Y001600D03*
D12*
X002160Y005100D03*
X038160Y005100D03*
M02*
