%
M48
M72
T01C0.0236
T02C0.0400
T03C0.1600
%
T01
X6160Y3600
X7160Y3600
X7785Y3850
X7160Y3975
X6910Y4225
X6160Y3975
X5910Y4225
X3910Y3850
X9660Y3850
X10660Y3850
X11660Y3850
X12660Y3850
X13660Y3850
X14660Y3850
X15660Y3850
X16660Y3850
X17660Y3850
X18660Y3850
X19660Y3850
X20660Y3850
X21660Y3850
X22160Y4225
X22660Y3850
X23660Y3850
X24660Y3850
X25160Y4600
X24660Y5100
X24160Y5600
X23660Y5600
X23160Y5100
X22660Y4600
X26660Y3850
X27660Y3850
X28660Y3850
X29660Y3850
X30660Y3850
X31660Y3850
X32660Y3850
X33660Y3850
X34660Y3850
X35660Y3850
X36035Y3850
X35660Y4850
X35910Y5350
X36160Y5850
X36410Y6350
X36660Y6850
X37160Y7350
X37660Y7850
X38160Y8350
X35160Y8725
X34660Y8475
X34160Y8225
X33660Y7975
X33160Y7725
X32660Y7475
X32160Y7225
X31660Y6975
X31160Y6725
X30160Y6475
X26160Y9100
X25660Y9100
X25160Y9100
X24660Y9100
X24160Y9100
X23660Y9100
X23160Y9100
X22660Y9100
X21160Y8975
X20660Y8975
X19160Y8975
X18160Y8475
X17660Y8225
X17160Y7975
X16660Y7725
X16160Y7475
X15660Y7225
X15160Y6975
X14660Y6725
X14160Y6475
X13660Y6225
X14660Y4975
X15160Y4975
X4910Y8600
X3910Y7600
X4160Y7350
X1160Y11100
X2660Y14100
X22660Y14100
X29660Y14100
X36660Y14100
X39160Y11100
X32160Y9350
T02
X32160Y12100
X31160Y12100
X30160Y12100
X29160Y12100
X28160Y12100
X27160Y12100
X26160Y12100
X25160Y12100
X24160Y12100
X23160Y12100
X22160Y12100
X22160Y13100
X23160Y13100
X24160Y13100
X25160Y13100
X26160Y13100
X27160Y13100
X28160Y13100
X29160Y13100
X30160Y13100
X31160Y13100
X32160Y13100
X33160Y13100
X34160Y13100
X35160Y13100
X36160Y13100
X37160Y13100
X38160Y13100
X38160Y12100
X37160Y12100
X36160Y12100
X35160Y12100
X34160Y12100
X33160Y12100
X18160Y12100
X17160Y12100
X16160Y12100
X15160Y12100
X14160Y12100
X13160Y12100
X12160Y12100
X11160Y12100
X10160Y12100
X9160Y12100
X8160Y12100
X7160Y12100
X6160Y12100
X5160Y12100
X4160Y12100
X3160Y12100
X2160Y12100
X2160Y13100
X3160Y13100
X4160Y13100
X5160Y13100
X6160Y13100
X7160Y13100
X8160Y13100
X9160Y13100
X10160Y13100
X11160Y13100
X12160Y13100
X13160Y13100
X14160Y13100
X15160Y13100
X16160Y13100
X17160Y13100
X18160Y13100
T03
X2160Y5100
X38160Y5100
M30
