G75*
G70*
%OFA0B0*%
%FSLAX24Y24*%
%IPPOS*%
%LPD*%
%AMOC8*
5,1,8,0,0,1.08239X$1,22.5*
%
%ADD10C,0.0050*%
%ADD11C,0.0040*%
D10*
X032446Y013950D02*
X032521Y013875D01*
X032671Y013875D01*
X032746Y013950D01*
X032746Y014025D01*
X032671Y014100D01*
X032521Y014100D01*
X032446Y014025D01*
X032446Y013950D01*
X032521Y014100D02*
X032446Y014175D01*
X032446Y014250D01*
X032521Y014325D01*
X032671Y014325D01*
X032746Y014250D01*
X032746Y014175D01*
X032671Y014100D01*
X033057Y014325D02*
X033057Y013875D01*
X033207Y013875D02*
X032907Y013875D01*
X033367Y013950D02*
X033442Y013875D01*
X033592Y013875D01*
X033667Y013950D01*
X033367Y014250D01*
X033367Y013950D01*
X033207Y014175D02*
X033057Y014325D01*
X033367Y014250D02*
X033442Y014325D01*
X033592Y014325D01*
X033667Y014250D01*
X033667Y013950D01*
X033827Y013875D02*
X034128Y013875D01*
X033827Y014175D01*
X033827Y014250D01*
X033902Y014325D01*
X034053Y014325D01*
X034128Y014250D01*
X034748Y014250D02*
X034748Y014100D01*
X034823Y014025D01*
X035048Y014025D01*
X034898Y014025D02*
X034748Y013875D01*
X035048Y013875D02*
X035048Y014325D01*
X034823Y014325D01*
X034748Y014250D01*
X035205Y014325D02*
X035355Y014325D01*
X035280Y014325D02*
X035280Y013875D01*
X035355Y013875D02*
X035205Y013875D01*
X035515Y013875D02*
X035816Y013875D01*
X035816Y014325D01*
X035515Y014325D01*
X035666Y014100D02*
X035816Y014100D01*
X035976Y013875D02*
X036126Y014025D01*
X036276Y013875D01*
X036276Y014325D01*
X035976Y014325D02*
X035976Y013875D01*
X036897Y013950D02*
X036972Y013875D01*
X037122Y013875D01*
X037197Y013950D01*
X037122Y014100D02*
X036972Y014100D01*
X036897Y014025D01*
X036897Y013950D01*
X037122Y014100D02*
X037197Y014175D01*
X037197Y014250D01*
X037122Y014325D01*
X036972Y014325D01*
X036897Y014250D01*
X037354Y014325D02*
X037504Y014325D01*
X037429Y014325D02*
X037429Y013875D01*
X037504Y013875D02*
X037354Y013875D01*
X037664Y013875D02*
X037814Y014025D01*
X037739Y014025D02*
X037964Y014025D01*
X037964Y013875D02*
X037964Y014325D01*
X037739Y014325D01*
X037664Y014250D01*
X037664Y014100D01*
X037739Y014025D01*
X038124Y014100D02*
X038425Y014100D01*
X038585Y013950D02*
X038660Y013875D01*
X038810Y013875D01*
X038885Y013950D01*
X038885Y014250D01*
X038810Y014325D01*
X038660Y014325D01*
X038585Y014250D01*
X038425Y014325D02*
X038425Y013875D01*
X038124Y013875D02*
X038124Y014325D01*
D11*
X004640Y004120D02*
X004333Y004120D01*
X004640Y004120D02*
X004333Y004427D01*
X004333Y004504D01*
X004410Y004580D01*
X004563Y004580D01*
X004640Y004504D01*
X035373Y004504D02*
X035449Y004580D01*
X035603Y004580D01*
X035680Y004504D01*
X035833Y004580D02*
X035987Y004504D01*
X036140Y004350D01*
X035910Y004350D01*
X035833Y004273D01*
X035833Y004197D01*
X035910Y004120D01*
X036063Y004120D01*
X036140Y004197D01*
X036140Y004350D01*
X035680Y004120D02*
X035373Y004120D01*
X035680Y004120D02*
X035373Y004427D01*
X035373Y004504D01*
M02*
