G75*
G70*
%OFA0B0*%
%FSLAX24Y24*%
%IPPOS*%
%LPD*%
%AMOC8*
5,1,8,0,0,1.08239X$1,22.5*
%
%ADD10C,0.0060*%
%ADD11C,0.0070*%
%ADD12C,0.0080*%
%ADD13C,0.0100*%
%ADD14C,0.0050*%
%ADD15C,0.0040*%
D10*
X005051Y006769D02*
X005746Y007399D01*
X005378Y008050D01*
X005786Y008050D01*
X006008Y007644D01*
X006449Y008050D01*
X006837Y008050D01*
X006138Y007409D01*
X006510Y006769D01*
X006098Y006769D01*
X006510Y006769D01*
X006476Y006828D02*
X006066Y006828D01*
X006034Y006886D02*
X006442Y006886D01*
X006408Y006945D02*
X006002Y006945D01*
X005970Y007003D02*
X006374Y007003D01*
X006340Y007062D02*
X005938Y007062D01*
X005906Y007120D02*
X006306Y007120D01*
X006272Y007179D02*
X005503Y007179D01*
X005567Y007237D02*
X006238Y007237D01*
X006204Y007296D02*
X005632Y007296D01*
X005696Y007354D02*
X006170Y007354D01*
X006142Y007413D02*
X005739Y007413D01*
X005706Y007471D02*
X006205Y007471D01*
X006269Y007530D02*
X005672Y007530D01*
X005639Y007588D02*
X006333Y007588D01*
X006397Y007647D02*
X006011Y007647D01*
X006007Y007647D02*
X005606Y007647D01*
X005573Y007705D02*
X005975Y007705D01*
X005943Y007764D02*
X005540Y007764D01*
X005507Y007822D02*
X005911Y007822D01*
X005879Y007881D02*
X005474Y007881D01*
X005441Y007939D02*
X005847Y007939D01*
X005815Y007998D02*
X005408Y007998D01*
X006074Y007705D02*
X006461Y007705D01*
X006525Y007764D02*
X006138Y007764D01*
X006202Y007822D02*
X006588Y007822D01*
X006652Y007881D02*
X006265Y007881D01*
X006329Y007939D02*
X006716Y007939D01*
X006780Y007998D02*
X006392Y007998D01*
X007013Y007822D02*
X008940Y007822D01*
X008940Y007811D02*
X008929Y007737D01*
X008677Y006769D01*
X008678Y006769D02*
X008332Y006769D01*
X008597Y007779D01*
X008147Y007779D01*
X007886Y006769D01*
X007536Y006769D01*
X007801Y007779D01*
X007351Y007779D01*
X007090Y006769D01*
X006741Y006769D01*
X007090Y006769D01*
X007105Y006828D02*
X006756Y006828D01*
X006771Y006886D02*
X007121Y006886D01*
X007136Y006945D02*
X006786Y006945D01*
X006801Y007003D02*
X007151Y007003D01*
X007166Y007062D02*
X006816Y007062D01*
X006831Y007120D02*
X007181Y007120D01*
X007196Y007179D02*
X006846Y007179D01*
X006862Y007237D02*
X007211Y007237D01*
X007226Y007296D02*
X006877Y007296D01*
X006892Y007354D02*
X007242Y007354D01*
X007257Y007413D02*
X006907Y007413D01*
X006922Y007471D02*
X007272Y007471D01*
X007287Y007530D02*
X006937Y007530D01*
X006952Y007588D02*
X007302Y007588D01*
X007317Y007647D02*
X006967Y007647D01*
X006982Y007705D02*
X007332Y007705D01*
X007348Y007764D02*
X006998Y007764D01*
X007028Y007881D02*
X008940Y007881D01*
X008940Y007885D02*
X008940Y007811D01*
X008933Y007764D02*
X008593Y007764D01*
X008578Y007705D02*
X008920Y007705D01*
X008905Y007647D02*
X008562Y007647D01*
X008547Y007588D02*
X008890Y007588D01*
X008875Y007530D02*
X008532Y007530D01*
X008516Y007471D02*
X008860Y007471D01*
X008845Y007413D02*
X008501Y007413D01*
X008486Y007354D02*
X008829Y007354D01*
X008814Y007296D02*
X008470Y007296D01*
X008455Y007237D02*
X008799Y007237D01*
X008784Y007179D02*
X008439Y007179D01*
X008424Y007120D02*
X008769Y007120D01*
X008753Y007062D02*
X008409Y007062D01*
X008393Y007003D02*
X008738Y007003D01*
X008723Y006945D02*
X008378Y006945D01*
X008363Y006886D02*
X008708Y006886D01*
X008693Y006828D02*
X008347Y006828D01*
X008332Y006769D02*
X008677Y006769D01*
X008929Y006769D02*
X009260Y008050D01*
X009605Y008050D01*
X009274Y006769D01*
X008929Y006769D01*
X009274Y006769D01*
X009289Y006828D02*
X008944Y006828D01*
X008959Y006886D02*
X009304Y006886D01*
X009320Y006945D02*
X008974Y006945D01*
X008989Y007003D02*
X009335Y007003D01*
X009350Y007062D02*
X009004Y007062D01*
X009019Y007120D02*
X009365Y007120D01*
X009380Y007179D02*
X009034Y007179D01*
X009050Y007237D02*
X009395Y007237D01*
X009410Y007296D02*
X009065Y007296D01*
X009080Y007354D02*
X009425Y007354D01*
X009440Y007413D02*
X009095Y007413D01*
X009110Y007471D02*
X009456Y007471D01*
X009471Y007530D02*
X009125Y007530D01*
X009140Y007588D02*
X009486Y007588D01*
X009501Y007647D02*
X009155Y007647D01*
X009170Y007705D02*
X009516Y007705D01*
X009531Y007764D02*
X009185Y007764D01*
X009201Y007822D02*
X009546Y007822D01*
X009561Y007881D02*
X009216Y007881D01*
X009231Y007939D02*
X009576Y007939D01*
X009592Y007998D02*
X009246Y007998D01*
X008932Y007927D02*
X008915Y007966D01*
X008890Y008000D01*
X008862Y008023D01*
X008829Y008040D01*
X008794Y008049D01*
X008758Y008050D01*
X007072Y008050D01*
X006741Y006769D01*
X006098Y006769D02*
X005876Y007175D01*
X005439Y006769D01*
X005051Y006769D01*
X005439Y006769D01*
X005502Y006828D02*
X005116Y006828D01*
X005180Y006886D02*
X005565Y006886D01*
X005628Y006945D02*
X005245Y006945D01*
X005309Y007003D02*
X005691Y007003D01*
X005754Y007062D02*
X005374Y007062D01*
X005438Y007120D02*
X005817Y007120D01*
X007536Y006769D02*
X007886Y006769D01*
X007901Y006828D02*
X007552Y006828D01*
X007567Y006886D02*
X007916Y006886D01*
X007931Y006945D02*
X007582Y006945D01*
X007598Y007003D02*
X007946Y007003D01*
X007962Y007062D02*
X007613Y007062D01*
X007628Y007120D02*
X007977Y007120D01*
X007992Y007179D02*
X007644Y007179D01*
X007659Y007237D02*
X008007Y007237D01*
X008022Y007296D02*
X007675Y007296D01*
X007690Y007354D02*
X008037Y007354D01*
X008052Y007413D02*
X007705Y007413D01*
X007721Y007471D02*
X008067Y007471D01*
X008083Y007530D02*
X007736Y007530D01*
X007751Y007588D02*
X008098Y007588D01*
X008113Y007647D02*
X007767Y007647D01*
X007782Y007705D02*
X008128Y007705D01*
X008143Y007764D02*
X007797Y007764D01*
X007043Y007939D02*
X008926Y007939D01*
X008932Y007927D02*
X008940Y007885D01*
X008891Y007998D02*
X007058Y007998D01*
X009662Y007296D02*
X010012Y007296D01*
X010027Y007354D02*
X009677Y007354D01*
X009692Y007413D02*
X010042Y007413D01*
X010057Y007471D02*
X009707Y007471D01*
X009722Y007530D02*
X010072Y007530D01*
X010087Y007588D02*
X009737Y007588D01*
X009751Y007647D02*
X010102Y007647D01*
X010117Y007705D02*
X009766Y007705D01*
X009770Y007721D02*
X009793Y007788D01*
X009825Y007850D01*
X009866Y007908D01*
X009915Y007959D01*
X009959Y007997D01*
X010009Y008026D01*
X010064Y008046D01*
X010092Y008050D01*
X010119Y008050D01*
X011380Y008050D01*
X011314Y007779D01*
X010136Y007779D01*
X009947Y007040D01*
X011118Y007040D01*
X011053Y006769D01*
X009753Y006769D01*
X009758Y006769D02*
X009729Y006771D01*
X009701Y006780D01*
X009676Y006794D01*
X009653Y006813D01*
X009626Y006850D01*
X009607Y006892D01*
X009597Y006937D01*
X009595Y006989D01*
X009601Y007040D01*
X009613Y007101D01*
X009770Y007721D01*
X009785Y007764D02*
X010132Y007764D01*
X009847Y007881D02*
X011339Y007881D01*
X011353Y007939D02*
X009896Y007939D01*
X009960Y007998D02*
X011367Y007998D01*
X011324Y007822D02*
X009811Y007822D01*
X009647Y007237D02*
X009997Y007237D01*
X009982Y007179D02*
X009632Y007179D01*
X009617Y007120D02*
X009967Y007120D01*
X009952Y007062D02*
X009605Y007062D01*
X009597Y007003D02*
X011109Y007003D01*
X011095Y006945D02*
X009597Y006945D01*
X009610Y006886D02*
X011081Y006886D01*
X011067Y006828D02*
X009643Y006828D01*
X009758Y006769D02*
X011053Y006769D01*
X011300Y006769D02*
X011635Y008050D01*
X012878Y008050D01*
X012916Y008047D01*
X012953Y008037D01*
X012987Y008020D01*
X013018Y007997D01*
X013043Y007969D01*
X013064Y007938D01*
X013078Y007904D01*
X013086Y007868D01*
X013085Y007803D01*
X013074Y007739D01*
X013031Y007578D01*
X013019Y007539D01*
X013000Y007503D01*
X012944Y007420D01*
X012876Y007346D01*
X012818Y007301D01*
X012753Y007268D01*
X012685Y007252D01*
X012616Y007244D01*
X012788Y006769D01*
X012787Y006769D02*
X012442Y006769D01*
X012270Y007248D01*
X011770Y007248D01*
X011645Y006769D01*
X011300Y006769D01*
X011645Y006769D01*
X011661Y006828D02*
X011315Y006828D01*
X011330Y006886D02*
X011676Y006886D01*
X011691Y006945D02*
X011346Y006945D01*
X011361Y007003D02*
X011706Y007003D01*
X011722Y007062D02*
X011376Y007062D01*
X011392Y007120D02*
X011737Y007120D01*
X011752Y007179D02*
X011407Y007179D01*
X011422Y007237D02*
X011767Y007237D01*
X011437Y007296D02*
X012807Y007296D01*
X012884Y007354D02*
X011453Y007354D01*
X011468Y007413D02*
X012938Y007413D01*
X012979Y007471D02*
X011483Y007471D01*
X011499Y007530D02*
X011849Y007530D01*
X011842Y007500D02*
X012672Y007500D01*
X012740Y007779D01*
X011910Y007779D01*
X011635Y008050D01*
X011910Y007779D01*
X011842Y007500D01*
X011864Y007588D02*
X011514Y007588D01*
X011529Y007647D02*
X011878Y007647D01*
X011892Y007705D02*
X011544Y007705D01*
X011560Y007764D02*
X011907Y007764D01*
X011866Y007822D02*
X013086Y007822D01*
X013083Y007881D02*
X011807Y007881D01*
X011590Y007881D01*
X011606Y007939D02*
X011747Y007939D01*
X013063Y007939D01*
X013017Y007998D02*
X011688Y007998D01*
X011621Y007998D01*
X011575Y007822D02*
X011866Y007822D01*
X012694Y007588D02*
X013034Y007588D01*
X013050Y007647D02*
X012708Y007647D01*
X012722Y007705D02*
X013065Y007705D01*
X013079Y007764D02*
X012737Y007764D01*
X012679Y007530D02*
X013014Y007530D01*
X013259Y007471D02*
X013604Y007471D01*
X013619Y007530D02*
X013274Y007530D01*
X013290Y007588D02*
X013635Y007588D01*
X013650Y007647D02*
X013306Y007647D01*
X013321Y007705D02*
X013666Y007705D01*
X013681Y007764D02*
X013341Y007764D01*
X013355Y007799D02*
X013325Y007721D01*
X013158Y007092D01*
X013150Y007053D01*
X013146Y006959D01*
X013152Y006915D01*
X013166Y006873D01*
X013176Y006847D01*
X013193Y006824D01*
X013213Y006804D01*
X013237Y006788D01*
X013263Y006776D01*
X013291Y006771D01*
X013319Y006769D01*
X014333Y006769D01*
X014374Y006770D01*
X014414Y006778D01*
X014453Y006795D01*
X014488Y006817D01*
X014537Y006856D01*
X014580Y006901D01*
X014623Y006957D01*
X014657Y007019D01*
X014681Y007086D01*
X014853Y007745D01*
X014861Y007799D01*
X014861Y007854D01*
X014856Y007899D01*
X014843Y007943D01*
X014825Y007977D01*
X014800Y008007D01*
X014768Y008029D01*
X014732Y008044D01*
X014694Y008050D01*
X013705Y008050D01*
X013685Y007779D01*
X013705Y008050D01*
X013662Y008050D01*
X013608Y008042D01*
X013556Y008024D01*
X013509Y007996D01*
X013447Y007938D01*
X013396Y007871D01*
X013355Y007799D01*
X013368Y007822D02*
X013688Y007822D01*
X014861Y007822D01*
X014858Y007881D02*
X013693Y007881D01*
X013403Y007881D01*
X013448Y007939D02*
X013697Y007939D01*
X014844Y007939D01*
X014808Y007998D02*
X013701Y007998D01*
X013511Y007998D01*
X013685Y007779D02*
X014517Y007779D01*
X014322Y007040D01*
X013490Y007040D01*
X013685Y007779D01*
X013588Y007413D02*
X013243Y007413D01*
X013228Y007354D02*
X013573Y007354D01*
X013557Y007296D02*
X013212Y007296D01*
X013197Y007237D02*
X013542Y007237D01*
X013526Y007179D02*
X013181Y007179D01*
X013165Y007120D02*
X013511Y007120D01*
X013495Y007062D02*
X013152Y007062D01*
X013148Y007003D02*
X014648Y007003D01*
X014672Y007062D02*
X014327Y007062D01*
X014343Y007120D02*
X014690Y007120D01*
X014705Y007179D02*
X014358Y007179D01*
X014374Y007237D02*
X014721Y007237D01*
X014736Y007296D02*
X014389Y007296D01*
X014405Y007354D02*
X014751Y007354D01*
X014766Y007413D02*
X014420Y007413D01*
X014436Y007471D02*
X014782Y007471D01*
X014797Y007530D02*
X014451Y007530D01*
X014467Y007588D02*
X014812Y007588D01*
X014827Y007647D02*
X014482Y007647D01*
X014498Y007705D02*
X014842Y007705D01*
X014856Y007764D02*
X014513Y007764D01*
X012661Y007120D02*
X012316Y007120D01*
X012295Y007179D02*
X012640Y007179D01*
X012619Y007237D02*
X012274Y007237D01*
X012337Y007062D02*
X012682Y007062D01*
X012703Y007003D02*
X012358Y007003D01*
X012379Y006945D02*
X012724Y006945D01*
X012745Y006886D02*
X012400Y006886D01*
X012421Y006828D02*
X012766Y006828D01*
X012788Y006769D02*
X012442Y006769D01*
X013148Y006945D02*
X014613Y006945D01*
X014566Y006886D02*
X013161Y006886D01*
X013190Y006828D02*
X014501Y006828D01*
X014346Y006769D02*
X013312Y006769D01*
X020315Y010437D02*
X020372Y010380D01*
X020428Y010380D01*
X020485Y010437D01*
X020485Y010720D01*
X020428Y010720D02*
X020542Y010720D01*
X020683Y010664D02*
X020740Y010720D01*
X020853Y010720D01*
X020910Y010664D01*
X020910Y010607D01*
X020683Y010380D01*
X020910Y010380D01*
X001035Y010380D02*
X000808Y010380D01*
X000922Y010380D02*
X000922Y010720D01*
X000808Y010607D01*
X000667Y010720D02*
X000553Y010720D01*
X000610Y010720D02*
X000610Y010437D01*
X000553Y010380D01*
X000497Y010380D01*
X000440Y010437D01*
D11*
X025468Y005941D02*
X025889Y005310D01*
X026113Y005310D02*
X026113Y005941D01*
X026323Y005730D01*
X026533Y005941D01*
X026533Y005310D01*
X026757Y005310D02*
X026968Y005310D01*
X026862Y005310D02*
X026862Y005941D01*
X026757Y005941D02*
X026968Y005941D01*
X027187Y005835D02*
X027187Y005415D01*
X027292Y005310D01*
X027502Y005310D01*
X027607Y005415D01*
X027832Y005310D02*
X027832Y005941D01*
X028147Y005941D01*
X028252Y005835D01*
X028252Y005625D01*
X028147Y005520D01*
X027832Y005520D01*
X028042Y005520D02*
X028252Y005310D01*
X028476Y005415D02*
X028581Y005310D01*
X028791Y005310D01*
X028897Y005415D01*
X028897Y005835D01*
X028791Y005941D01*
X028581Y005941D01*
X028476Y005835D01*
X028476Y005415D01*
X028359Y004891D02*
X028359Y004470D01*
X028149Y004260D01*
X027939Y004470D01*
X027939Y004891D01*
X028584Y004680D02*
X028794Y004891D01*
X028794Y004260D01*
X028584Y004260D02*
X029004Y004260D01*
X029873Y004260D02*
X030293Y004260D01*
X030083Y004260D02*
X030083Y004891D01*
X029873Y004680D01*
X030517Y004680D02*
X030622Y004575D01*
X030833Y004575D01*
X030938Y004470D01*
X030938Y004365D01*
X030833Y004260D01*
X030622Y004260D01*
X030517Y004365D01*
X030517Y004470D01*
X030622Y004575D01*
X030517Y004680D02*
X030517Y004785D01*
X030622Y004891D01*
X030833Y004891D01*
X030938Y004785D01*
X030938Y004680D01*
X030833Y004575D01*
X031162Y004365D02*
X031582Y004785D01*
X031582Y004365D01*
X031477Y004260D01*
X031267Y004260D01*
X031162Y004365D01*
X031162Y004785D01*
X031267Y004891D01*
X031477Y004891D01*
X031582Y004785D01*
X031806Y004785D02*
X031911Y004891D01*
X032122Y004891D01*
X032227Y004785D01*
X032227Y004680D01*
X031806Y004260D01*
X032227Y004260D01*
X032119Y005310D02*
X032119Y005730D01*
X031909Y005941D01*
X031699Y005730D01*
X031699Y005310D01*
X031475Y005310D02*
X031054Y005310D01*
X031054Y005941D01*
X031475Y005941D01*
X031265Y005625D02*
X031054Y005625D01*
X030830Y005625D02*
X030725Y005520D01*
X030410Y005520D01*
X030620Y005520D02*
X030830Y005310D01*
X030410Y005310D02*
X030410Y005941D01*
X030725Y005941D01*
X030830Y005835D01*
X030830Y005625D01*
X030186Y005520D02*
X030186Y005415D01*
X030081Y005310D01*
X029765Y005310D01*
X029765Y005941D01*
X030081Y005941D01*
X030186Y005835D01*
X030186Y005730D01*
X030081Y005625D01*
X029765Y005625D01*
X030081Y005625D02*
X030186Y005520D01*
X031699Y005625D02*
X032119Y005625D01*
X032343Y005520D02*
X032764Y005941D01*
X032988Y005835D02*
X032988Y005415D01*
X033093Y005310D01*
X033303Y005310D01*
X033408Y005415D01*
X033408Y005835D01*
X033303Y005941D01*
X033093Y005941D01*
X032988Y005835D01*
X032343Y005941D02*
X032343Y005310D01*
X032449Y005625D02*
X032764Y005310D01*
X033633Y005415D02*
X033738Y005310D01*
X033948Y005310D01*
X034053Y005415D01*
X034053Y005941D01*
X034277Y005941D02*
X034697Y005941D01*
X034487Y005941D02*
X034487Y005310D01*
X033633Y005415D02*
X033633Y005941D01*
X027607Y005835D02*
X027502Y005941D01*
X027292Y005941D01*
X027187Y005835D01*
X025889Y005941D02*
X025468Y005310D01*
D12*
X025457Y009890D02*
X025457Y010304D01*
X025250Y010511D01*
X025044Y010304D01*
X025044Y009890D01*
X025688Y009890D02*
X025998Y009890D01*
X026102Y009993D01*
X026102Y010407D01*
X025998Y010511D01*
X025688Y010511D01*
X025688Y009890D01*
X025457Y010200D02*
X025044Y010200D01*
X026333Y009890D02*
X026643Y009890D01*
X026746Y009993D01*
X026746Y010407D01*
X026643Y010511D01*
X026333Y010511D01*
X026333Y009890D01*
X026977Y009890D02*
X026977Y010511D01*
X027288Y010511D01*
X027391Y010407D01*
X027391Y010200D01*
X027288Y010097D01*
X026977Y010097D01*
X027184Y010097D02*
X027391Y009890D01*
X027622Y009890D02*
X028035Y009890D01*
X028266Y009993D02*
X028370Y009890D01*
X028577Y009890D01*
X028680Y009993D01*
X028680Y010097D01*
X028577Y010200D01*
X028370Y010200D01*
X028266Y010304D01*
X028266Y010407D01*
X028370Y010511D01*
X028577Y010511D01*
X028680Y010407D01*
X028911Y010407D02*
X028911Y010304D01*
X029014Y010200D01*
X029221Y010200D01*
X029325Y010097D01*
X029325Y009993D01*
X029221Y009890D01*
X029014Y009890D01*
X028911Y009993D01*
X029555Y009890D02*
X029969Y010511D01*
X030200Y010511D02*
X030510Y010511D01*
X030614Y010407D01*
X030614Y009993D01*
X030510Y009890D01*
X030200Y009890D01*
X030200Y010511D01*
X030845Y010304D02*
X031051Y010511D01*
X031258Y010304D01*
X031258Y009890D01*
X030845Y009890D02*
X030845Y010304D01*
X030845Y010200D02*
X031258Y010200D01*
X031489Y010511D02*
X031903Y010511D01*
X031696Y010511D02*
X031696Y009890D01*
X032134Y009890D02*
X032134Y010304D01*
X032340Y010511D01*
X032547Y010304D01*
X032547Y009890D01*
X032547Y010200D02*
X032134Y010200D01*
X033423Y010200D02*
X033733Y010200D01*
X033836Y010097D01*
X033836Y009993D01*
X033733Y009890D01*
X033423Y009890D01*
X033423Y010511D01*
X033733Y010511D01*
X033836Y010407D01*
X033836Y010304D01*
X033733Y010200D01*
X034067Y009993D02*
X034171Y009890D01*
X034378Y009890D01*
X034481Y009993D01*
X034481Y010511D01*
X034712Y010407D02*
X034712Y010304D01*
X034815Y010200D01*
X035022Y010200D01*
X035126Y010097D01*
X035126Y009993D01*
X035022Y009890D01*
X034815Y009890D01*
X034712Y009993D01*
X034067Y009993D02*
X034067Y010511D01*
X034712Y010407D02*
X034815Y010511D01*
X035022Y010511D01*
X035126Y010407D01*
X029325Y010407D02*
X029221Y010511D01*
X029014Y010511D01*
X028911Y010407D01*
X028035Y010511D02*
X027622Y010511D01*
X027622Y009890D01*
X027622Y010200D02*
X027829Y010200D01*
X018885Y010097D02*
X018885Y009993D01*
X018782Y009890D01*
X018575Y009890D01*
X018472Y009993D01*
X018575Y010200D02*
X018782Y010200D01*
X018885Y010097D01*
X018575Y010200D02*
X018472Y010304D01*
X018472Y010407D01*
X018575Y010511D01*
X018782Y010511D01*
X018885Y010407D01*
X017827Y010511D02*
X017827Y009890D01*
X018241Y009890D01*
X017596Y009890D02*
X017596Y010304D01*
X017389Y010511D01*
X017183Y010304D01*
X017183Y009890D01*
X016952Y009890D02*
X016952Y010511D01*
X016538Y010511D02*
X016952Y009890D01*
X016538Y009890D02*
X016538Y010511D01*
X016307Y010407D02*
X016204Y010511D01*
X015997Y010511D01*
X015894Y010407D01*
X015894Y009993D01*
X015997Y009890D01*
X016204Y009890D01*
X016307Y009993D01*
X016307Y010200D01*
X016100Y010200D01*
X015671Y009890D02*
X015464Y009890D01*
X015567Y009890D02*
X015567Y010511D01*
X015464Y010511D02*
X015671Y010511D01*
X015233Y010407D02*
X015130Y010511D01*
X014923Y010511D01*
X014819Y010407D01*
X014819Y010304D01*
X014923Y010200D01*
X015130Y010200D01*
X015233Y010097D01*
X015233Y009993D01*
X015130Y009890D01*
X014923Y009890D01*
X014819Y009993D01*
X013944Y009890D02*
X013530Y009890D01*
X013530Y010511D01*
X013299Y010407D02*
X013196Y010511D01*
X012989Y010511D01*
X012886Y010407D01*
X012886Y009993D01*
X012989Y009890D01*
X013196Y009890D01*
X013299Y009993D01*
X013299Y010407D01*
X012655Y010407D02*
X012655Y010200D01*
X012551Y010097D01*
X012241Y010097D01*
X012448Y010097D02*
X012655Y009890D01*
X012241Y009890D02*
X012241Y010511D01*
X012551Y010511D01*
X012655Y010407D01*
X012010Y010511D02*
X011597Y010511D01*
X011803Y010511D02*
X011803Y009890D01*
X011366Y009890D02*
X011366Y010511D01*
X010952Y010511D02*
X011366Y009890D01*
X010952Y009890D02*
X010952Y010511D01*
X010721Y010407D02*
X010618Y010511D01*
X010411Y010511D01*
X010307Y010407D01*
X010307Y009993D01*
X010411Y009890D01*
X010618Y009890D01*
X010721Y009993D01*
X010721Y010407D01*
X010077Y010407D02*
X009973Y010511D01*
X009766Y010511D01*
X009663Y010407D01*
X009663Y009993D01*
X009766Y009890D01*
X009973Y009890D01*
X010077Y009993D01*
X009432Y010511D02*
X009018Y009890D01*
X008581Y009890D02*
X008581Y010200D01*
X008787Y010407D01*
X008787Y010511D01*
X008581Y010200D02*
X008374Y010407D01*
X008374Y010511D01*
X007729Y010511D02*
X007729Y009890D01*
X008143Y009890D01*
X007498Y010200D02*
X007395Y010097D01*
X007085Y010097D01*
X006854Y010200D02*
X006750Y010097D01*
X006440Y010097D01*
X006209Y009993D02*
X006209Y010511D01*
X006440Y010511D02*
X006750Y010511D01*
X006854Y010407D01*
X006854Y010200D01*
X006209Y009993D02*
X006106Y009890D01*
X005899Y009890D01*
X005796Y009993D01*
X005796Y010511D01*
X005565Y010407D02*
X005461Y010511D01*
X005254Y010511D01*
X005151Y010407D01*
X005151Y010304D01*
X005254Y010200D01*
X005461Y010200D01*
X005565Y010097D01*
X005565Y009993D01*
X005461Y009890D01*
X005254Y009890D01*
X005151Y009993D01*
X004276Y009890D02*
X004069Y010097D01*
X004172Y010097D02*
X003862Y010097D01*
X004172Y010097D02*
X004276Y010200D01*
X004276Y010407D01*
X004172Y010511D01*
X003862Y010511D01*
X003862Y009890D01*
X003631Y009890D02*
X003217Y009890D01*
X003217Y010511D01*
X003631Y010511D01*
X003424Y010200D02*
X003217Y010200D01*
X002986Y009890D02*
X002780Y010097D01*
X002573Y009890D01*
X002573Y010511D01*
X002342Y010407D02*
X002239Y010511D01*
X002032Y010511D01*
X001928Y010407D01*
X001928Y009993D01*
X002032Y009890D01*
X002239Y009890D01*
X002342Y009993D01*
X002342Y010407D01*
X001697Y010407D02*
X001697Y010200D01*
X001594Y010097D01*
X001284Y010097D01*
X001284Y009890D02*
X001284Y010511D01*
X001594Y010511D01*
X001697Y010407D01*
X002986Y010511D02*
X002986Y009890D01*
X006440Y009890D02*
X006440Y010511D01*
X007085Y010511D02*
X007395Y010511D01*
X007498Y010407D01*
X007498Y010200D01*
X007085Y009890D02*
X007085Y010511D01*
X017183Y010200D02*
X017596Y010200D01*
D13*
X020410Y009600D02*
X020910Y009600D01*
X020660Y010100D01*
X020410Y009600D01*
X020437Y009655D02*
X020883Y009655D01*
X020833Y009753D02*
X020487Y009753D01*
X020536Y009852D02*
X020784Y009852D01*
X020735Y009950D02*
X020585Y009950D01*
X020634Y010049D02*
X020686Y010049D01*
X029285Y011100D02*
X029285Y011350D01*
X031035Y011350D01*
X031035Y011100D01*
X029285Y011100D01*
X011035Y011100D02*
X009285Y011100D01*
X009285Y011350D01*
X011035Y011350D01*
X011035Y011100D01*
X000910Y009600D02*
X000660Y010100D01*
X000410Y009600D01*
X000910Y009600D01*
X000883Y009655D02*
X000437Y009655D01*
X000487Y009753D02*
X000833Y009753D01*
X000784Y009852D02*
X000536Y009852D01*
X000585Y009950D02*
X000735Y009950D01*
X000686Y010049D02*
X000634Y010049D01*
D14*
X004660Y004600D02*
X005160Y003600D01*
X005660Y004600D01*
X004660Y004600D01*
X004679Y004562D02*
X005641Y004562D01*
X005617Y004514D02*
X004703Y004514D01*
X004727Y004465D02*
X005593Y004465D01*
X005568Y004417D02*
X004752Y004417D01*
X004776Y004368D02*
X005544Y004368D01*
X005520Y004320D02*
X004800Y004320D01*
X004824Y004271D02*
X005496Y004271D01*
X005471Y004223D02*
X004849Y004223D01*
X004873Y004174D02*
X005447Y004174D01*
X005423Y004126D02*
X004897Y004126D01*
X004921Y004077D02*
X005399Y004077D01*
X005374Y004029D02*
X004946Y004029D01*
X004970Y003980D02*
X005350Y003980D01*
X005326Y003932D02*
X004994Y003932D01*
X005018Y003883D02*
X005302Y003883D01*
X005277Y003835D02*
X005043Y003835D01*
X005067Y003786D02*
X005253Y003786D01*
X005229Y003738D02*
X005091Y003738D01*
X005115Y003689D02*
X005205Y003689D01*
X005180Y003641D02*
X005140Y003641D01*
X000160Y010868D02*
X000160Y014332D01*
X020160Y014332D01*
X020160Y010868D01*
X040160Y010868D01*
X040160Y014332D01*
X020160Y014332D01*
X020160Y010868D01*
X000160Y010868D01*
D15*
X004333Y004580D02*
X004333Y004120D01*
X004180Y004120D02*
X004487Y004120D01*
X004180Y004427D02*
X004333Y004580D01*
X035680Y004350D02*
X035680Y004197D01*
X035757Y004120D01*
X035910Y004120D01*
X035987Y004197D01*
X035987Y004273D01*
X035910Y004350D01*
X035680Y004350D01*
X035833Y004504D01*
X035987Y004580D01*
X036140Y004427D02*
X036294Y004580D01*
X036294Y004120D01*
X036447Y004120D02*
X036140Y004120D01*
M02*
