G75*
G70*
%OFA0B0*%
%FSLAX24Y24*%
%IPPOS*%
%LPD*%
%AMOC8*
5,1,8,0,0,1.08239X$1,22.5*
%
%ADD10C,0.0000*%
%ADD11C,0.0600*%
%ADD12R,0.0650X0.2350*%
%ADD13C,0.0396*%
%ADD14C,0.0100*%
%ADD15C,0.0120*%
%ADD16C,0.2500*%
%ADD17C,0.0500*%
%ADD18C,0.0160*%
D10*
X004230Y000420D02*
X004230Y003100D01*
X004160Y003100D01*
X000160Y003100D01*
X000160Y015100D01*
X040160Y015100D01*
X040160Y003100D01*
X036160Y003100D01*
X036090Y003100D01*
X036090Y000420D01*
X035770Y000100D01*
X004550Y000100D01*
X004230Y000420D01*
D11*
X004160Y012100D03*
X005160Y012100D03*
X006160Y012100D03*
X007160Y012100D03*
X008160Y012100D03*
X009160Y012100D03*
X010160Y012100D03*
X011160Y012100D03*
X012160Y012100D03*
X013160Y012100D03*
X014160Y012100D03*
X015160Y012100D03*
X016160Y012100D03*
X017160Y012100D03*
X018160Y012100D03*
X018160Y013100D03*
X017160Y013100D03*
X016160Y013100D03*
X015160Y013100D03*
X014160Y013100D03*
X013160Y013100D03*
X012160Y013100D03*
X011160Y013100D03*
X010160Y013100D03*
X009160Y013100D03*
X008160Y013100D03*
X007160Y013100D03*
X006160Y013100D03*
X005160Y013100D03*
X004160Y013100D03*
X003160Y013100D03*
X002160Y013100D03*
X002160Y012100D03*
X003160Y012100D03*
X022160Y012100D03*
X023160Y012100D03*
X024160Y012100D03*
X025160Y012100D03*
X026160Y012100D03*
X027160Y012100D03*
X028160Y012100D03*
X029160Y012100D03*
X030160Y012100D03*
X031160Y012100D03*
X032160Y012100D03*
X033160Y012100D03*
X034160Y012100D03*
X035160Y012100D03*
X036160Y012100D03*
X037160Y012100D03*
X038160Y012100D03*
X038160Y013100D03*
X037160Y013100D03*
X036160Y013100D03*
X035160Y013100D03*
X034160Y013100D03*
X033160Y013100D03*
X032160Y013100D03*
X031160Y013100D03*
X030160Y013100D03*
X029160Y013100D03*
X028160Y013100D03*
X027160Y013100D03*
X026160Y013100D03*
X025160Y013100D03*
X024160Y013100D03*
X023160Y013100D03*
X022160Y013100D03*
D12*
X022160Y001915D03*
X021160Y001915D03*
X020160Y001915D03*
X019160Y001915D03*
X018160Y001915D03*
X017160Y001915D03*
X016160Y001915D03*
X015160Y001915D03*
X014160Y001915D03*
X013160Y001915D03*
X012160Y001915D03*
X011160Y001915D03*
X010160Y001915D03*
X009160Y001915D03*
X008160Y001915D03*
X007160Y001915D03*
X006160Y001915D03*
X005160Y001915D03*
X023160Y001915D03*
X024160Y001915D03*
X025160Y001915D03*
X026160Y001915D03*
X027160Y001915D03*
X028160Y001915D03*
X029160Y001915D03*
X030160Y001915D03*
X031160Y001915D03*
X032160Y001915D03*
X033160Y001915D03*
X034160Y001915D03*
X035160Y001915D03*
D13*
X034660Y003850D03*
X033660Y003850D03*
X032660Y003850D03*
X031660Y003850D03*
X030660Y003850D03*
X029660Y003850D03*
X028660Y003850D03*
X027660Y003850D03*
X026660Y003850D03*
X025160Y004600D03*
X024660Y005100D03*
X024160Y005600D03*
X023660Y005600D03*
X023160Y005100D03*
X022660Y004600D03*
X022160Y004225D03*
X021660Y003850D03*
X020660Y003850D03*
X019660Y003850D03*
X018660Y003850D03*
X017660Y003850D03*
X016660Y003850D03*
X015660Y003850D03*
X014660Y003850D03*
X013660Y003850D03*
X012660Y003850D03*
X011660Y003850D03*
X010660Y003850D03*
X009660Y003850D03*
X007785Y003850D03*
X007160Y003975D03*
X006910Y004225D03*
X006160Y003975D03*
X005910Y004225D03*
X006160Y003600D03*
X007160Y003600D03*
X003910Y003850D03*
X004160Y007350D03*
X003910Y007600D03*
X004910Y008600D03*
X001160Y011100D03*
X002660Y014100D03*
X017660Y008225D03*
X017160Y007975D03*
X016660Y007725D03*
X016160Y007475D03*
X015660Y007225D03*
X015160Y006975D03*
X014660Y006725D03*
X014160Y006475D03*
X013660Y006225D03*
X014660Y004975D03*
X015160Y004975D03*
X022660Y003850D03*
X023660Y003850D03*
X024660Y003850D03*
X030160Y006475D03*
X031160Y006725D03*
X031660Y006975D03*
X032160Y007225D03*
X032660Y007475D03*
X033160Y007725D03*
X033660Y007975D03*
X034160Y008225D03*
X034660Y008475D03*
X035160Y008725D03*
X037660Y007850D03*
X037160Y007350D03*
X036660Y006850D03*
X036410Y006350D03*
X036160Y005850D03*
X035910Y005350D03*
X035660Y004850D03*
X035660Y003850D03*
X036035Y003850D03*
X038160Y008350D03*
X032160Y009350D03*
X026160Y009100D03*
X025660Y009100D03*
X025160Y009100D03*
X024660Y009100D03*
X024160Y009100D03*
X023660Y009100D03*
X023160Y009100D03*
X022660Y009100D03*
X021160Y008975D03*
X020660Y008975D03*
X019160Y008975D03*
X018160Y008475D03*
X022660Y014100D03*
X029660Y014100D03*
X036660Y014100D03*
X039160Y011100D03*
D14*
X038160Y012100D02*
X038160Y008350D01*
X037660Y007850D02*
X037660Y012600D01*
X038160Y013100D01*
X037160Y013100D02*
X036660Y012600D01*
X036660Y006850D01*
X036160Y006600D02*
X036410Y006350D01*
X036160Y006600D02*
X036160Y007725D01*
X036410Y007975D01*
X036410Y011350D01*
X036160Y011600D01*
X036160Y012100D01*
X035160Y012100D02*
X035160Y011600D01*
X035910Y010850D01*
X035910Y008225D01*
X035660Y007975D01*
X035660Y005600D01*
X035910Y005350D01*
X035410Y005100D02*
X035410Y008100D01*
X035660Y008350D01*
X035660Y010600D01*
X034660Y011600D01*
X034660Y012600D01*
X035160Y013100D01*
X035660Y012600D02*
X036160Y013100D01*
X035660Y012600D02*
X035660Y011600D01*
X036160Y011100D01*
X036160Y008100D01*
X035910Y007850D01*
X035910Y006100D01*
X036160Y005850D01*
X035410Y005100D02*
X035660Y004850D01*
X034660Y003850D02*
X034660Y008475D01*
X034160Y008225D02*
X034160Y001915D01*
X033160Y001915D02*
X033160Y007725D01*
X032660Y007475D02*
X032660Y003850D01*
X033660Y003850D02*
X033660Y007975D01*
X032160Y007225D02*
X032160Y001915D01*
X031160Y001915D02*
X031160Y006725D01*
X031660Y006975D02*
X031660Y003850D01*
X030660Y003850D02*
X030660Y007850D01*
X032160Y009350D01*
X029660Y010100D02*
X029660Y012600D01*
X030160Y013100D01*
X029160Y013100D02*
X028660Y012600D01*
X028660Y009600D01*
X027160Y008100D01*
X027160Y001915D01*
X028160Y001915D02*
X028160Y008100D01*
X030660Y010600D01*
X030660Y012600D01*
X031160Y013100D01*
X031660Y012600D02*
X032160Y013100D01*
X031660Y012600D02*
X031660Y011100D01*
X028660Y008100D01*
X028660Y003850D01*
X029660Y003850D02*
X029660Y007600D01*
X033660Y011600D01*
X033660Y012600D01*
X034160Y013100D01*
X033160Y013100D02*
X032660Y012600D01*
X032660Y011600D01*
X029160Y008100D01*
X029160Y001915D01*
X030160Y001915D02*
X030160Y006475D01*
X027660Y008100D02*
X029660Y010100D01*
X027660Y009100D02*
X027660Y012600D01*
X028160Y013100D01*
X027160Y013100D02*
X026660Y012600D01*
X026660Y008600D01*
X026160Y008100D01*
X026160Y001915D01*
X025160Y001915D02*
X025160Y004600D01*
X024660Y005100D02*
X024660Y003850D01*
X023660Y003850D02*
X023660Y005600D01*
X024160Y005600D02*
X024160Y001915D01*
X023160Y001915D02*
X023160Y005100D01*
X022660Y004600D02*
X022660Y003850D01*
X022160Y004225D02*
X022160Y001915D01*
X021160Y001915D02*
X021160Y004100D01*
X021410Y004350D01*
X021410Y004850D01*
X025660Y009100D01*
X025160Y009100D02*
X021160Y005100D01*
X021160Y004600D01*
X020660Y004100D01*
X020660Y003850D01*
X020160Y004100D02*
X020910Y004850D01*
X020910Y005225D01*
X024410Y008725D01*
X024410Y008850D01*
X024660Y009100D01*
X024160Y009100D02*
X024160Y008850D01*
X020660Y005350D01*
X020660Y005100D01*
X019660Y004100D01*
X019660Y003850D01*
X019160Y004100D02*
X020410Y005350D01*
X020410Y005475D01*
X023660Y008725D01*
X023660Y009100D01*
X023160Y009100D02*
X023160Y008600D01*
X018660Y004100D01*
X018660Y003850D01*
X018160Y004100D02*
X018535Y004475D01*
X018660Y004475D01*
X022660Y008475D01*
X022660Y009100D01*
X022285Y009225D02*
X022660Y009600D01*
X024160Y009600D01*
X026160Y011600D01*
X026160Y012100D01*
X025160Y012100D02*
X025160Y011600D01*
X023410Y009850D01*
X022535Y009850D01*
X022035Y009350D01*
X022035Y008600D01*
X018410Y004975D01*
X018035Y004975D01*
X017160Y004100D01*
X017160Y001915D01*
X016160Y001915D02*
X016160Y004100D01*
X017535Y005475D01*
X018160Y005475D01*
X021535Y008850D01*
X021535Y009600D01*
X023160Y011225D01*
X023160Y012100D01*
X024160Y012100D02*
X024160Y011600D01*
X022660Y010100D01*
X022410Y010100D01*
X021785Y009475D01*
X021785Y008725D01*
X018285Y005225D01*
X017785Y005225D01*
X016660Y004100D01*
X016660Y003850D01*
X017660Y003850D02*
X017660Y004100D01*
X018285Y004725D01*
X018535Y004725D01*
X022285Y008475D01*
X022285Y009225D01*
X021160Y008975D02*
X020910Y008725D01*
X020910Y008600D01*
X018035Y005725D01*
X017285Y005725D01*
X015660Y004100D01*
X015660Y003850D01*
X015160Y004100D02*
X017035Y005975D01*
X017910Y005975D01*
X020660Y008725D01*
X020660Y008975D01*
X018160Y008475D02*
X018160Y012100D01*
X017660Y012600D02*
X017660Y008225D01*
X017160Y007975D02*
X017160Y012100D01*
X016160Y012100D02*
X016160Y007475D01*
X016660Y007725D02*
X016660Y012600D01*
X016160Y013100D01*
X017160Y013100D02*
X017660Y012600D01*
X015660Y012600D02*
X015660Y007225D01*
X015160Y006975D02*
X015160Y012100D01*
X014160Y012100D02*
X014160Y006475D01*
X013660Y006225D02*
X013660Y012600D01*
X013160Y013100D01*
X012660Y012600D02*
X012160Y013100D01*
X011660Y012600D02*
X011160Y013100D01*
X010660Y012600D02*
X010160Y013100D01*
X009660Y012600D02*
X009660Y005600D01*
X011160Y004100D01*
X011160Y001915D01*
X010160Y001915D02*
X010160Y004100D01*
X008660Y005600D01*
X008660Y012600D01*
X008160Y013100D01*
X007660Y013350D02*
X007910Y013600D01*
X020660Y013600D01*
X021660Y012600D01*
X023660Y012600D01*
X024160Y013100D01*
X015660Y012600D02*
X015160Y013100D01*
X014660Y012600D02*
X014160Y013100D01*
X014660Y012600D02*
X014660Y006725D01*
X013160Y005600D02*
X013160Y012100D01*
X012160Y012100D02*
X012160Y005600D01*
X013660Y004100D01*
X013660Y003850D01*
X013160Y004100D02*
X011660Y005600D01*
X011660Y012600D01*
X010660Y012600D02*
X010660Y005600D01*
X012160Y004100D01*
X012160Y001915D01*
X013160Y001915D02*
X013160Y004100D01*
X012660Y004100D02*
X012660Y003850D01*
X012660Y004100D02*
X011160Y005600D01*
X011160Y012100D01*
X010160Y012100D02*
X010160Y005600D01*
X011660Y004100D01*
X011660Y003850D01*
X010660Y003850D02*
X010660Y004100D01*
X009160Y005600D01*
X009160Y012100D01*
X008160Y012100D02*
X008160Y005600D01*
X009660Y004100D01*
X009660Y003850D01*
X009160Y004100D02*
X007660Y005600D01*
X007660Y013350D01*
X009160Y013100D02*
X009660Y012600D01*
X012660Y012600D02*
X012660Y005600D01*
X014160Y004100D01*
X014160Y001915D01*
X015160Y001915D02*
X015160Y004100D01*
X014660Y004100D02*
X014660Y003850D01*
X014660Y004100D02*
X013160Y005600D01*
X009160Y004100D02*
X009160Y001915D01*
X018160Y001915D02*
X018160Y004100D01*
X019160Y004100D02*
X019160Y001915D01*
X020160Y001915D02*
X020160Y004100D01*
X021660Y003850D02*
X021660Y004600D01*
X026160Y009100D01*
X026660Y008100D02*
X027660Y009100D01*
X027660Y008100D02*
X027660Y003850D01*
X026660Y003850D02*
X026660Y008100D01*
X035160Y008725D02*
X035160Y001915D01*
X037160Y007350D02*
X037160Y012100D01*
D15*
X038312Y012600D02*
X038455Y012659D01*
X038601Y012805D01*
X038680Y012997D01*
X038680Y013203D01*
X038601Y013395D01*
X038455Y013541D01*
X038263Y013620D01*
X038057Y013620D01*
X037865Y013541D01*
X037719Y013395D01*
X037660Y013252D01*
X037601Y013395D01*
X037455Y013541D01*
X037263Y013620D01*
X037057Y013620D01*
X036865Y013541D01*
X036719Y013395D01*
X036660Y013252D01*
X036601Y013395D01*
X036455Y013541D01*
X036263Y013620D01*
X036057Y013620D01*
X035865Y013541D01*
X035719Y013395D01*
X035660Y013252D01*
X035601Y013395D01*
X035455Y013541D01*
X035263Y013620D01*
X035057Y013620D01*
X034865Y013541D01*
X034719Y013395D01*
X034660Y013252D01*
X034601Y013395D01*
X034455Y013541D01*
X034263Y013620D01*
X034057Y013620D01*
X033865Y013541D01*
X033719Y013395D01*
X033660Y013252D01*
X033601Y013395D01*
X033455Y013541D01*
X033263Y013620D01*
X033057Y013620D01*
X032865Y013541D01*
X032719Y013395D01*
X032660Y013252D01*
X032601Y013395D01*
X032455Y013541D01*
X032263Y013620D01*
X032057Y013620D01*
X031865Y013541D01*
X031719Y013395D01*
X031660Y013252D01*
X031601Y013395D01*
X031455Y013541D01*
X031263Y013620D01*
X031057Y013620D01*
X030865Y013541D01*
X030719Y013395D01*
X030660Y013252D01*
X030601Y013395D01*
X030455Y013541D01*
X030263Y013620D01*
X030057Y013620D01*
X029865Y013541D01*
X029719Y013395D01*
X029660Y013252D01*
X029601Y013395D01*
X029455Y013541D01*
X029263Y013620D01*
X029057Y013620D01*
X028865Y013541D01*
X028719Y013395D01*
X028660Y013252D01*
X028601Y013395D01*
X028455Y013541D01*
X028263Y013620D01*
X028057Y013620D01*
X027865Y013541D01*
X027719Y013395D01*
X027660Y013252D01*
X027601Y013395D01*
X027455Y013541D01*
X027263Y013620D01*
X027057Y013620D01*
X026865Y013541D01*
X026719Y013395D01*
X026660Y013252D01*
X026601Y013395D01*
X026455Y013541D01*
X026263Y013620D01*
X026057Y013620D01*
X025865Y013541D01*
X025719Y013395D01*
X025660Y013252D01*
X025601Y013395D01*
X025455Y013541D01*
X025263Y013620D01*
X025057Y013620D01*
X024865Y013541D01*
X024719Y013395D01*
X024660Y013252D01*
X024601Y013395D01*
X024455Y013541D01*
X024263Y013620D01*
X024057Y013620D01*
X023865Y013541D01*
X023719Y013395D01*
X023660Y013252D01*
X023601Y013395D01*
X023455Y013541D01*
X023263Y013620D01*
X023057Y013620D01*
X022865Y013541D01*
X022719Y013395D01*
X022660Y013252D01*
X022601Y013395D01*
X022455Y013541D01*
X022334Y013591D01*
X021558Y014366D01*
X021426Y014498D01*
X021253Y014570D01*
X006692Y014570D01*
X006519Y014498D01*
X005894Y013873D01*
X005762Y013741D01*
X005691Y013570D01*
X005384Y013570D01*
X005263Y013620D01*
X005057Y013620D01*
X004865Y013541D01*
X004719Y013395D01*
X004640Y013203D01*
X004640Y012997D01*
X004719Y012805D01*
X004865Y012659D01*
X005057Y012580D01*
X005263Y012580D01*
X005384Y012630D01*
X005690Y012630D01*
X005690Y012324D01*
X005640Y012203D01*
X005640Y011997D01*
X005690Y011876D01*
X005690Y004882D01*
X005762Y004709D01*
X006512Y003959D01*
X006690Y003780D01*
X006690Y003350D01*
X005630Y003350D01*
X005630Y003693D01*
X005558Y003866D01*
X004630Y004795D01*
X004630Y006193D01*
X004558Y006366D01*
X004029Y006895D01*
X004067Y006880D01*
X004253Y006880D01*
X004426Y006952D01*
X004558Y007084D01*
X004630Y007257D01*
X004630Y007443D01*
X004558Y007616D01*
X004176Y007998D01*
X003630Y008545D01*
X003630Y011876D01*
X003680Y011997D01*
X003680Y012203D01*
X003630Y012324D01*
X003630Y012876D01*
X003680Y012997D01*
X003680Y013203D01*
X003601Y013395D01*
X003455Y013541D01*
X003263Y013620D01*
X003057Y013620D01*
X002865Y013541D01*
X002719Y013395D01*
X002660Y013252D01*
X002601Y013395D01*
X002455Y013541D01*
X002263Y013620D01*
X002057Y013620D01*
X001865Y013541D01*
X001719Y013395D01*
X001640Y013203D01*
X001640Y012997D01*
X001690Y012876D01*
X001690Y012324D01*
X001640Y012203D01*
X001640Y011997D01*
X001690Y011876D01*
X001690Y008007D01*
X001762Y007834D01*
X001894Y007702D01*
X003690Y005905D01*
X003690Y004507D01*
X003762Y004334D01*
X003894Y004202D01*
X004690Y003405D01*
X004690Y003350D01*
X004624Y003350D01*
X004620Y003361D01*
X004491Y003490D01*
X004321Y003560D01*
X000620Y003560D01*
X000620Y014640D01*
X039700Y014640D01*
X039700Y003560D01*
X035998Y003560D01*
X035829Y003490D01*
X035700Y003361D01*
X035696Y003350D01*
X035430Y003350D01*
X035430Y004493D01*
X035577Y004432D01*
X035743Y004432D01*
X035897Y004496D01*
X036014Y004613D01*
X036078Y004767D01*
X036078Y004933D01*
X036066Y004962D01*
X036147Y004996D01*
X036264Y005113D01*
X036328Y005267D01*
X036328Y005433D01*
X036316Y005462D01*
X036397Y005496D01*
X036514Y005613D01*
X036578Y005767D01*
X036578Y005933D01*
X036566Y005962D01*
X036647Y005996D01*
X036764Y006113D01*
X036828Y006267D01*
X036828Y006433D01*
X036816Y006462D01*
X036897Y006496D01*
X037014Y006613D01*
X037078Y006767D01*
X037078Y006932D01*
X037243Y006932D01*
X037397Y006996D01*
X037514Y007113D01*
X037578Y007267D01*
X037578Y007432D01*
X037743Y007432D01*
X037897Y007496D01*
X038014Y007613D01*
X038078Y007767D01*
X038078Y007932D01*
X038243Y007932D01*
X038397Y007996D01*
X038514Y008113D01*
X038578Y008267D01*
X038578Y008433D01*
X038514Y008587D01*
X038430Y008671D01*
X038430Y011649D01*
X038455Y011659D01*
X038601Y011805D01*
X038680Y011997D01*
X038680Y012203D01*
X038601Y012395D01*
X038455Y012541D01*
X038312Y012600D01*
X038450Y012543D02*
X039700Y012543D01*
X039700Y012661D02*
X038456Y012661D01*
X038575Y012780D02*
X039700Y012780D01*
X039700Y012898D02*
X038639Y012898D01*
X038680Y013017D02*
X039700Y013017D01*
X039700Y013135D02*
X038680Y013135D01*
X038659Y013254D02*
X039700Y013254D01*
X039700Y013372D02*
X038610Y013372D01*
X038505Y013491D02*
X039700Y013491D01*
X039700Y013609D02*
X038290Y013609D01*
X038030Y013609D02*
X037290Y013609D01*
X037505Y013491D02*
X037815Y013491D01*
X037710Y013372D02*
X037610Y013372D01*
X037659Y013254D02*
X037661Y013254D01*
X036815Y013491D02*
X036505Y013491D01*
X036610Y013372D02*
X036710Y013372D01*
X036661Y013254D02*
X036659Y013254D01*
X035815Y013491D02*
X035505Y013491D01*
X035610Y013372D02*
X035710Y013372D01*
X035661Y013254D02*
X035659Y013254D01*
X034815Y013491D02*
X034505Y013491D01*
X034610Y013372D02*
X034710Y013372D01*
X034661Y013254D02*
X034659Y013254D01*
X033815Y013491D02*
X033505Y013491D01*
X033610Y013372D02*
X033710Y013372D01*
X033661Y013254D02*
X033659Y013254D01*
X032815Y013491D02*
X032505Y013491D01*
X032610Y013372D02*
X032710Y013372D01*
X032661Y013254D02*
X032659Y013254D01*
X031815Y013491D02*
X031505Y013491D01*
X031610Y013372D02*
X031710Y013372D01*
X031661Y013254D02*
X031659Y013254D01*
X030815Y013491D02*
X030505Y013491D01*
X030610Y013372D02*
X030710Y013372D01*
X030661Y013254D02*
X030659Y013254D01*
X030290Y013609D02*
X031030Y013609D01*
X031290Y013609D02*
X032030Y013609D01*
X032290Y013609D02*
X033030Y013609D01*
X033290Y013609D02*
X034030Y013609D01*
X034290Y013609D02*
X035030Y013609D01*
X035290Y013609D02*
X036030Y013609D01*
X036290Y013609D02*
X037030Y013609D01*
X039700Y013728D02*
X022197Y013728D01*
X022079Y013846D02*
X039700Y013846D01*
X039700Y013965D02*
X021960Y013965D01*
X021842Y014083D02*
X039700Y014083D01*
X039700Y014202D02*
X021723Y014202D01*
X021605Y014320D02*
X039700Y014320D01*
X039700Y014439D02*
X021486Y014439D01*
X021285Y014557D02*
X039700Y014557D01*
X039700Y012424D02*
X038571Y012424D01*
X038638Y012306D02*
X039700Y012306D01*
X039700Y012187D02*
X038680Y012187D01*
X038680Y012069D02*
X039700Y012069D01*
X039700Y011950D02*
X038661Y011950D01*
X038612Y011832D02*
X039700Y011832D01*
X039700Y011713D02*
X038508Y011713D01*
X038430Y011595D02*
X039700Y011595D01*
X039700Y011476D02*
X038430Y011476D01*
X038430Y011358D02*
X039700Y011358D01*
X039700Y011239D02*
X038430Y011239D01*
X038430Y011121D02*
X039700Y011121D01*
X039700Y011002D02*
X038430Y011002D01*
X038430Y010884D02*
X039700Y010884D01*
X039700Y010765D02*
X038430Y010765D01*
X038430Y010647D02*
X039700Y010647D01*
X039700Y010528D02*
X038430Y010528D01*
X038430Y010410D02*
X039700Y010410D01*
X039700Y010291D02*
X038430Y010291D01*
X038430Y010173D02*
X039700Y010173D01*
X039700Y010054D02*
X038430Y010054D01*
X038430Y009936D02*
X039700Y009936D01*
X039700Y009817D02*
X038430Y009817D01*
X038430Y009699D02*
X039700Y009699D01*
X039700Y009580D02*
X038430Y009580D01*
X038430Y009462D02*
X039700Y009462D01*
X039700Y009343D02*
X038430Y009343D01*
X038430Y009225D02*
X039700Y009225D01*
X039700Y009106D02*
X038430Y009106D01*
X038430Y008988D02*
X039700Y008988D01*
X039700Y008869D02*
X038430Y008869D01*
X038430Y008751D02*
X039700Y008751D01*
X039700Y008632D02*
X038469Y008632D01*
X038545Y008514D02*
X039700Y008514D01*
X039700Y008395D02*
X038578Y008395D01*
X038578Y008277D02*
X039700Y008277D01*
X039700Y008158D02*
X038533Y008158D01*
X038441Y008040D02*
X039700Y008040D01*
X039700Y007921D02*
X038078Y007921D01*
X038078Y007803D02*
X039700Y007803D01*
X039700Y007684D02*
X038044Y007684D01*
X037967Y007566D02*
X039700Y007566D01*
X039700Y007447D02*
X037780Y007447D01*
X037578Y007329D02*
X039700Y007329D01*
X039700Y007210D02*
X037555Y007210D01*
X037493Y007092D02*
X039700Y007092D01*
X039700Y006973D02*
X037342Y006973D01*
X037078Y006855D02*
X039700Y006855D01*
X039700Y006736D02*
X037065Y006736D01*
X037016Y006618D02*
X039700Y006618D01*
X039700Y006499D02*
X036900Y006499D01*
X036828Y006381D02*
X039700Y006381D01*
X039700Y006262D02*
X036826Y006262D01*
X036777Y006144D02*
X039700Y006144D01*
X039700Y006025D02*
X036676Y006025D01*
X036578Y005907D02*
X039700Y005907D01*
X039700Y005788D02*
X036578Y005788D01*
X036538Y005670D02*
X039700Y005670D01*
X039700Y005551D02*
X036452Y005551D01*
X036328Y005433D02*
X039700Y005433D01*
X039700Y005314D02*
X036328Y005314D01*
X036299Y005196D02*
X039700Y005196D01*
X039700Y005077D02*
X036228Y005077D01*
X036068Y004959D02*
X039700Y004959D01*
X039700Y004840D02*
X036078Y004840D01*
X036059Y004722D02*
X039700Y004722D01*
X039700Y004603D02*
X036004Y004603D01*
X035870Y004485D02*
X039700Y004485D01*
X039700Y004366D02*
X035430Y004366D01*
X035430Y004248D02*
X039700Y004248D01*
X039700Y004129D02*
X035430Y004129D01*
X035430Y004011D02*
X039700Y004011D01*
X039700Y003892D02*
X035430Y003892D01*
X035430Y003774D02*
X039700Y003774D01*
X039700Y003655D02*
X035430Y003655D01*
X035430Y003537D02*
X035942Y003537D01*
X035757Y003418D02*
X035430Y003418D01*
X035430Y004485D02*
X035450Y004485D01*
X022890Y011337D02*
X021306Y009753D01*
X021265Y009654D01*
X021265Y009384D01*
X021243Y009393D01*
X021077Y009393D01*
X020923Y009329D01*
X020910Y009316D01*
X020897Y009329D01*
X020743Y009393D01*
X020577Y009393D01*
X020423Y009329D01*
X020306Y009212D01*
X020242Y009058D01*
X020242Y008892D01*
X020301Y008748D01*
X017798Y006245D01*
X016981Y006245D01*
X016882Y006204D01*
X016806Y006128D01*
X014931Y004253D01*
X014910Y004202D01*
X014889Y004253D01*
X013430Y005712D01*
X013430Y005868D01*
X013577Y005807D01*
X013743Y005807D01*
X013897Y005871D01*
X014014Y005988D01*
X014048Y006069D01*
X014077Y006057D01*
X014243Y006057D01*
X014397Y006121D01*
X014514Y006238D01*
X014548Y006319D01*
X014577Y006307D01*
X014743Y006307D01*
X014897Y006371D01*
X015014Y006488D01*
X015048Y006569D01*
X015077Y006557D01*
X015243Y006557D01*
X015397Y006621D01*
X015514Y006738D01*
X015548Y006819D01*
X015577Y006807D01*
X015743Y006807D01*
X015897Y006871D01*
X016014Y006988D01*
X016048Y007069D01*
X016077Y007057D01*
X016243Y007057D01*
X016397Y007121D01*
X016514Y007238D01*
X016548Y007319D01*
X016577Y007307D01*
X016743Y007307D01*
X016897Y007371D01*
X017014Y007488D01*
X017048Y007569D01*
X017077Y007557D01*
X017243Y007557D01*
X017397Y007621D01*
X017514Y007738D01*
X017548Y007819D01*
X017577Y007807D01*
X017743Y007807D01*
X017897Y007871D01*
X018014Y007988D01*
X018048Y008069D01*
X018077Y008057D01*
X018243Y008057D01*
X018397Y008121D01*
X018514Y008238D01*
X018578Y008392D01*
X018578Y008558D01*
X018514Y008712D01*
X018430Y008796D01*
X018430Y011649D01*
X018455Y011659D01*
X018601Y011805D01*
X018680Y011997D01*
X018680Y012203D01*
X018601Y012395D01*
X018455Y012541D01*
X018263Y012620D01*
X018057Y012620D01*
X017930Y012568D01*
X017930Y012654D01*
X017903Y012718D01*
X017919Y012707D01*
X017983Y012674D01*
X018052Y012651D01*
X018120Y012641D01*
X018120Y013060D01*
X017701Y013060D01*
X017711Y012992D01*
X017734Y012923D01*
X017750Y012892D01*
X017670Y012972D01*
X017680Y012997D01*
X017680Y013203D01*
X017628Y013330D01*
X017761Y013330D01*
X017734Y013277D01*
X017711Y013208D01*
X017701Y013140D01*
X018120Y013140D01*
X018120Y013060D01*
X018200Y013060D01*
X018200Y013140D01*
X018619Y013140D01*
X018609Y013208D01*
X018586Y013277D01*
X018559Y013330D01*
X020548Y013330D01*
X021431Y012447D01*
X021507Y012371D01*
X021606Y012330D01*
X021761Y012330D01*
X021734Y012277D01*
X021711Y012208D01*
X021701Y012140D01*
X022120Y012140D01*
X022120Y012060D01*
X022200Y012060D01*
X022200Y012140D01*
X022619Y012140D01*
X022609Y012208D01*
X022586Y012277D01*
X022559Y012330D01*
X022692Y012330D01*
X022640Y012203D01*
X022640Y011997D01*
X022719Y011805D01*
X022865Y011659D01*
X022890Y011649D01*
X022890Y011337D01*
X022890Y011358D02*
X018430Y011358D01*
X018430Y011476D02*
X022890Y011476D01*
X022890Y011595D02*
X018430Y011595D01*
X018508Y011713D02*
X021910Y011713D01*
X021919Y011707D02*
X021983Y011674D01*
X022052Y011651D01*
X022120Y011641D01*
X022120Y012060D01*
X021701Y012060D01*
X021711Y011992D01*
X021734Y011923D01*
X021767Y011859D01*
X021809Y011800D01*
X021860Y011749D01*
X021919Y011707D01*
X021786Y011832D02*
X018612Y011832D01*
X018661Y011950D02*
X021725Y011950D01*
X021708Y012187D02*
X018680Y012187D01*
X018680Y012069D02*
X022120Y012069D01*
X022200Y012069D02*
X022640Y012069D01*
X022619Y012060D02*
X022200Y012060D01*
X022200Y011641D01*
X022268Y011651D01*
X022337Y011674D01*
X022401Y011707D01*
X022460Y011749D01*
X022511Y011800D01*
X022553Y011859D01*
X022586Y011923D01*
X022609Y011992D01*
X022619Y012060D01*
X022595Y011950D02*
X022659Y011950D01*
X022708Y011832D02*
X022534Y011832D01*
X022410Y011713D02*
X022812Y011713D01*
X022200Y011713D02*
X022120Y011713D01*
X022120Y011832D02*
X022200Y011832D01*
X022200Y011950D02*
X022120Y011950D01*
X021748Y012306D02*
X018638Y012306D01*
X018571Y012424D02*
X021454Y012424D01*
X021336Y012543D02*
X018450Y012543D01*
X018401Y012707D02*
X018460Y012749D01*
X018511Y012800D01*
X018553Y012859D01*
X018586Y012923D01*
X018609Y012992D01*
X018619Y013060D01*
X018200Y013060D01*
X018200Y012641D01*
X018268Y012651D01*
X018337Y012674D01*
X018401Y012707D01*
X018298Y012661D02*
X021217Y012661D01*
X021099Y012780D02*
X018490Y012780D01*
X018573Y012898D02*
X020980Y012898D01*
X020862Y013017D02*
X018613Y013017D01*
X018594Y013254D02*
X020625Y013254D01*
X020743Y013135D02*
X018200Y013135D01*
X018120Y013135D02*
X017680Y013135D01*
X017680Y013017D02*
X017707Y013017D01*
X017744Y012898D02*
X017747Y012898D01*
X018120Y012898D02*
X018200Y012898D01*
X018200Y012780D02*
X018120Y012780D01*
X018120Y012661D02*
X018200Y012661D01*
X018022Y012661D02*
X017927Y012661D01*
X018120Y013017D02*
X018200Y013017D01*
X017726Y013254D02*
X017659Y013254D01*
X022316Y013609D02*
X023030Y013609D01*
X022815Y013491D02*
X022505Y013491D01*
X022610Y013372D02*
X022710Y013372D01*
X022661Y013254D02*
X022659Y013254D01*
X023505Y013491D02*
X023815Y013491D01*
X023710Y013372D02*
X023610Y013372D01*
X023659Y013254D02*
X023661Y013254D01*
X024505Y013491D02*
X024815Y013491D01*
X024710Y013372D02*
X024610Y013372D01*
X024659Y013254D02*
X024661Y013254D01*
X025505Y013491D02*
X025815Y013491D01*
X025710Y013372D02*
X025610Y013372D01*
X025659Y013254D02*
X025661Y013254D01*
X026505Y013491D02*
X026815Y013491D01*
X026710Y013372D02*
X026610Y013372D01*
X026659Y013254D02*
X026661Y013254D01*
X027505Y013491D02*
X027815Y013491D01*
X027710Y013372D02*
X027610Y013372D01*
X027659Y013254D02*
X027661Y013254D01*
X028505Y013491D02*
X028815Y013491D01*
X028710Y013372D02*
X028610Y013372D01*
X028659Y013254D02*
X028661Y013254D01*
X029505Y013491D02*
X029815Y013491D01*
X029710Y013372D02*
X029610Y013372D01*
X029659Y013254D02*
X029661Y013254D01*
X030030Y013609D02*
X029290Y013609D01*
X029030Y013609D02*
X028290Y013609D01*
X028030Y013609D02*
X027290Y013609D01*
X027030Y013609D02*
X026290Y013609D01*
X026030Y013609D02*
X025290Y013609D01*
X025030Y013609D02*
X024290Y013609D01*
X024030Y013609D02*
X023290Y013609D01*
X022682Y012306D02*
X022572Y012306D01*
X022612Y012187D02*
X022640Y012187D01*
X022792Y011239D02*
X018430Y011239D01*
X018430Y011121D02*
X022674Y011121D01*
X022555Y011002D02*
X018430Y011002D01*
X018430Y010884D02*
X022437Y010884D01*
X022318Y010765D02*
X018430Y010765D01*
X018430Y010647D02*
X022200Y010647D01*
X022081Y010528D02*
X018430Y010528D01*
X018430Y010410D02*
X021963Y010410D01*
X021844Y010291D02*
X018430Y010291D01*
X018430Y010173D02*
X021726Y010173D01*
X021607Y010054D02*
X018430Y010054D01*
X018430Y009936D02*
X021489Y009936D01*
X021370Y009817D02*
X018430Y009817D01*
X018430Y009699D02*
X021284Y009699D01*
X021265Y009580D02*
X018430Y009580D01*
X018430Y009462D02*
X021265Y009462D01*
X020956Y009343D02*
X020864Y009343D01*
X020456Y009343D02*
X018430Y009343D01*
X018430Y009225D02*
X020318Y009225D01*
X020262Y009106D02*
X018430Y009106D01*
X018430Y008988D02*
X020242Y008988D01*
X020251Y008869D02*
X018430Y008869D01*
X018476Y008751D02*
X020300Y008751D01*
X020185Y008632D02*
X018548Y008632D01*
X018578Y008514D02*
X020067Y008514D01*
X019948Y008395D02*
X018578Y008395D01*
X018530Y008277D02*
X019830Y008277D01*
X019711Y008158D02*
X018434Y008158D01*
X018036Y008040D02*
X019593Y008040D01*
X019474Y007921D02*
X017947Y007921D01*
X017541Y007803D02*
X019356Y007803D01*
X019237Y007684D02*
X017460Y007684D01*
X017264Y007566D02*
X019119Y007566D01*
X019000Y007447D02*
X016973Y007447D01*
X017046Y007566D02*
X017056Y007566D01*
X016795Y007329D02*
X018882Y007329D01*
X018763Y007210D02*
X016486Y007210D01*
X016327Y007092D02*
X018645Y007092D01*
X018526Y006973D02*
X015999Y006973D01*
X015858Y006855D02*
X018408Y006855D01*
X018289Y006736D02*
X015512Y006736D01*
X015390Y006618D02*
X018171Y006618D01*
X018052Y006499D02*
X015019Y006499D01*
X014907Y006381D02*
X017934Y006381D01*
X017815Y006262D02*
X014524Y006262D01*
X014420Y006144D02*
X016822Y006144D01*
X016703Y006025D02*
X014030Y006025D01*
X013933Y005907D02*
X016585Y005907D01*
X016466Y005788D02*
X013430Y005788D01*
X013472Y005670D02*
X016348Y005670D01*
X016229Y005551D02*
X013591Y005551D01*
X013709Y005433D02*
X016111Y005433D01*
X015992Y005314D02*
X013828Y005314D01*
X013946Y005196D02*
X015874Y005196D01*
X015755Y005077D02*
X014065Y005077D01*
X014183Y004959D02*
X015637Y004959D01*
X015518Y004840D02*
X014302Y004840D01*
X014420Y004722D02*
X015400Y004722D01*
X015281Y004603D02*
X014539Y004603D01*
X014657Y004485D02*
X015163Y004485D01*
X015044Y004366D02*
X014776Y004366D01*
X014891Y004248D02*
X014929Y004248D01*
X006690Y003774D02*
X005597Y003774D01*
X005630Y003655D02*
X006690Y003655D01*
X006690Y003537D02*
X005630Y003537D01*
X005630Y003418D02*
X006690Y003418D01*
X006578Y003892D02*
X005533Y003892D01*
X005414Y004011D02*
X006460Y004011D01*
X006341Y004129D02*
X005296Y004129D01*
X005177Y004248D02*
X006223Y004248D01*
X006104Y004366D02*
X005059Y004366D01*
X004940Y004485D02*
X005986Y004485D01*
X005867Y004603D02*
X004822Y004603D01*
X004703Y004722D02*
X005756Y004722D01*
X005707Y004840D02*
X004630Y004840D01*
X004630Y004959D02*
X005690Y004959D01*
X005690Y005077D02*
X004630Y005077D01*
X004630Y005196D02*
X005690Y005196D01*
X005690Y005314D02*
X004630Y005314D01*
X004630Y005433D02*
X005690Y005433D01*
X005690Y005551D02*
X004630Y005551D01*
X004630Y005670D02*
X005690Y005670D01*
X005690Y005788D02*
X004630Y005788D01*
X004630Y005907D02*
X005690Y005907D01*
X005690Y006025D02*
X004630Y006025D01*
X004630Y006144D02*
X005690Y006144D01*
X005690Y006262D02*
X004602Y006262D01*
X004544Y006381D02*
X005690Y006381D01*
X005690Y006499D02*
X004426Y006499D01*
X004307Y006618D02*
X005690Y006618D01*
X005690Y006736D02*
X004189Y006736D01*
X004070Y006855D02*
X005690Y006855D01*
X005690Y006973D02*
X004448Y006973D01*
X004562Y007092D02*
X005690Y007092D01*
X005690Y007210D02*
X004611Y007210D01*
X004630Y007329D02*
X005690Y007329D01*
X005690Y007447D02*
X004629Y007447D01*
X004579Y007566D02*
X005690Y007566D01*
X005690Y007684D02*
X004491Y007684D01*
X004372Y007803D02*
X005690Y007803D01*
X005690Y007921D02*
X004254Y007921D01*
X004135Y008040D02*
X005690Y008040D01*
X005690Y008158D02*
X004017Y008158D01*
X003898Y008277D02*
X005690Y008277D01*
X005690Y008395D02*
X003780Y008395D01*
X003661Y008514D02*
X005690Y008514D01*
X005690Y008632D02*
X003630Y008632D01*
X003630Y008751D02*
X005690Y008751D01*
X005690Y008869D02*
X003630Y008869D01*
X003630Y008988D02*
X005690Y008988D01*
X005690Y009106D02*
X003630Y009106D01*
X003630Y009225D02*
X005690Y009225D01*
X005690Y009343D02*
X003630Y009343D01*
X003630Y009462D02*
X005690Y009462D01*
X005690Y009580D02*
X003630Y009580D01*
X003630Y009699D02*
X005690Y009699D01*
X005690Y009817D02*
X003630Y009817D01*
X003630Y009936D02*
X005690Y009936D01*
X005690Y010054D02*
X003630Y010054D01*
X003630Y010173D02*
X005690Y010173D01*
X005690Y010291D02*
X003630Y010291D01*
X003630Y010410D02*
X005690Y010410D01*
X005690Y010528D02*
X003630Y010528D01*
X003630Y010647D02*
X005690Y010647D01*
X005690Y010765D02*
X003630Y010765D01*
X003630Y010884D02*
X005690Y010884D01*
X005690Y011002D02*
X003630Y011002D01*
X003630Y011121D02*
X005690Y011121D01*
X005690Y011239D02*
X003630Y011239D01*
X003630Y011358D02*
X005690Y011358D01*
X005690Y011476D02*
X003630Y011476D01*
X003630Y011595D02*
X005690Y011595D01*
X005690Y011713D02*
X005410Y011713D01*
X005401Y011707D02*
X005460Y011749D01*
X005511Y011800D01*
X005553Y011859D01*
X005586Y011923D01*
X005609Y011992D01*
X005619Y012060D01*
X005200Y012060D01*
X005200Y012140D01*
X005619Y012140D01*
X005609Y012208D01*
X005586Y012277D01*
X005553Y012341D01*
X005511Y012400D01*
X005460Y012451D01*
X005401Y012493D01*
X005337Y012526D01*
X005268Y012549D01*
X005200Y012559D01*
X005200Y012140D01*
X005120Y012140D01*
X005120Y012559D01*
X005052Y012549D01*
X004983Y012526D01*
X004919Y012493D01*
X004860Y012451D01*
X004809Y012400D01*
X004767Y012341D01*
X004734Y012277D01*
X004711Y012208D01*
X004701Y012140D01*
X005120Y012140D01*
X005120Y012060D01*
X005200Y012060D01*
X005200Y011641D01*
X005268Y011651D01*
X005337Y011674D01*
X005401Y011707D01*
X005534Y011832D02*
X005690Y011832D01*
X005659Y011950D02*
X005595Y011950D01*
X005640Y012069D02*
X005200Y012069D01*
X005120Y012069D02*
X004200Y012069D01*
X004200Y012060D02*
X004200Y012140D01*
X004619Y012140D01*
X004609Y012208D01*
X004586Y012277D01*
X004553Y012341D01*
X004511Y012400D01*
X004460Y012451D01*
X004401Y012493D01*
X004337Y012526D01*
X004268Y012549D01*
X004200Y012559D01*
X004200Y012140D01*
X004120Y012140D01*
X004120Y012559D01*
X004052Y012549D01*
X003983Y012526D01*
X003919Y012493D01*
X003860Y012451D01*
X003809Y012400D01*
X003767Y012341D01*
X003734Y012277D01*
X003711Y012208D01*
X003701Y012140D01*
X004120Y012140D01*
X004120Y012060D01*
X004200Y012060D01*
X004619Y012060D01*
X004609Y011992D01*
X004586Y011923D01*
X004553Y011859D01*
X004511Y011800D01*
X004460Y011749D01*
X004401Y011707D01*
X004337Y011674D01*
X004268Y011651D01*
X004200Y011641D01*
X004200Y012060D01*
X004120Y012060D02*
X004120Y011641D01*
X004052Y011651D01*
X003983Y011674D01*
X003919Y011707D01*
X003860Y011749D01*
X003809Y011800D01*
X003767Y011859D01*
X003734Y011923D01*
X003711Y011992D01*
X003701Y012060D01*
X004120Y012060D01*
X004120Y012069D02*
X003680Y012069D01*
X003680Y012187D02*
X003708Y012187D01*
X003748Y012306D02*
X003638Y012306D01*
X003630Y012424D02*
X003833Y012424D01*
X004033Y012543D02*
X003630Y012543D01*
X003630Y012661D02*
X004022Y012661D01*
X004052Y012651D02*
X003983Y012674D01*
X003919Y012707D01*
X003860Y012749D01*
X003809Y012800D01*
X003767Y012859D01*
X003734Y012923D01*
X003711Y012992D01*
X003701Y013060D01*
X004120Y013060D01*
X004200Y013060D01*
X004200Y013140D01*
X004619Y013140D01*
X004609Y013208D01*
X004586Y013277D01*
X004553Y013341D01*
X004511Y013400D01*
X004460Y013451D01*
X004401Y013493D01*
X004337Y013526D01*
X004268Y013549D01*
X004200Y013559D01*
X004200Y013140D01*
X004120Y013140D01*
X004120Y013559D01*
X004052Y013549D01*
X003983Y013526D01*
X003919Y013493D01*
X003860Y013451D01*
X003809Y013400D01*
X003767Y013341D01*
X003734Y013277D01*
X003711Y013208D01*
X003701Y013140D01*
X004120Y013140D01*
X004120Y013060D01*
X004120Y012641D01*
X004052Y012651D01*
X004120Y012661D02*
X004200Y012661D01*
X004200Y012641D02*
X004268Y012651D01*
X004337Y012674D01*
X004401Y012707D01*
X004460Y012749D01*
X004511Y012800D01*
X004553Y012859D01*
X004586Y012923D01*
X004609Y012992D01*
X004619Y013060D01*
X004200Y013060D01*
X004200Y012641D01*
X004200Y012543D02*
X004120Y012543D01*
X004120Y012424D02*
X004200Y012424D01*
X004200Y012306D02*
X004120Y012306D01*
X004120Y012187D02*
X004200Y012187D01*
X004200Y011950D02*
X004120Y011950D01*
X004120Y011832D02*
X004200Y011832D01*
X004200Y011713D02*
X004120Y011713D01*
X003910Y011713D02*
X003630Y011713D01*
X003630Y011832D02*
X003786Y011832D01*
X003725Y011950D02*
X003661Y011950D01*
X004410Y011713D02*
X004910Y011713D01*
X004919Y011707D02*
X004983Y011674D01*
X005052Y011651D01*
X005120Y011641D01*
X005120Y012060D01*
X004701Y012060D01*
X004711Y011992D01*
X004734Y011923D01*
X004767Y011859D01*
X004809Y011800D01*
X004860Y011749D01*
X004919Y011707D01*
X004786Y011832D02*
X004534Y011832D01*
X004595Y011950D02*
X004725Y011950D01*
X004708Y012187D02*
X004612Y012187D01*
X004572Y012306D02*
X004748Y012306D01*
X004833Y012424D02*
X004487Y012424D01*
X004287Y012543D02*
X005033Y012543D01*
X005120Y012543D02*
X005200Y012543D01*
X005287Y012543D02*
X005690Y012543D01*
X005690Y012424D02*
X005487Y012424D01*
X005572Y012306D02*
X005682Y012306D01*
X005640Y012187D02*
X005612Y012187D01*
X005200Y012187D02*
X005120Y012187D01*
X005120Y012306D02*
X005200Y012306D01*
X005200Y012424D02*
X005120Y012424D01*
X004864Y012661D02*
X004298Y012661D01*
X004200Y012780D02*
X004120Y012780D01*
X004120Y012898D02*
X004200Y012898D01*
X004200Y013017D02*
X004120Y013017D01*
X004120Y013135D02*
X003680Y013135D01*
X003680Y013017D02*
X003707Y013017D01*
X003747Y012898D02*
X003639Y012898D01*
X003630Y012780D02*
X003830Y012780D01*
X004490Y012780D02*
X004745Y012780D01*
X004681Y012898D02*
X004573Y012898D01*
X004613Y013017D02*
X004640Y013017D01*
X004640Y013135D02*
X004200Y013135D01*
X004200Y013254D02*
X004120Y013254D01*
X004120Y013372D02*
X004200Y013372D01*
X004200Y013491D02*
X004120Y013491D01*
X003915Y013491D02*
X003505Y013491D01*
X003610Y013372D02*
X003789Y013372D01*
X003726Y013254D02*
X003659Y013254D01*
X004405Y013491D02*
X004815Y013491D01*
X004710Y013372D02*
X004531Y013372D01*
X004594Y013254D02*
X004661Y013254D01*
X005030Y013609D02*
X003290Y013609D01*
X003030Y013609D02*
X002290Y013609D01*
X002505Y013491D02*
X002815Y013491D01*
X002710Y013372D02*
X002610Y013372D01*
X002659Y013254D02*
X002661Y013254D01*
X001815Y013491D02*
X000620Y013491D01*
X000620Y013609D02*
X002030Y013609D01*
X001710Y013372D02*
X000620Y013372D01*
X000620Y013254D02*
X001661Y013254D01*
X001640Y013135D02*
X000620Y013135D01*
X000620Y013017D02*
X001640Y013017D01*
X001681Y012898D02*
X000620Y012898D01*
X000620Y012780D02*
X001690Y012780D01*
X001690Y012661D02*
X000620Y012661D01*
X000620Y012543D02*
X001690Y012543D01*
X001690Y012424D02*
X000620Y012424D01*
X000620Y012306D02*
X001682Y012306D01*
X001640Y012187D02*
X000620Y012187D01*
X000620Y012069D02*
X001640Y012069D01*
X001659Y011950D02*
X000620Y011950D01*
X000620Y011832D02*
X001690Y011832D01*
X001690Y011713D02*
X000620Y011713D01*
X000620Y011595D02*
X001690Y011595D01*
X001690Y011476D02*
X000620Y011476D01*
X000620Y011358D02*
X001690Y011358D01*
X001690Y011239D02*
X000620Y011239D01*
X000620Y011121D02*
X001690Y011121D01*
X001690Y011002D02*
X000620Y011002D01*
X000620Y010884D02*
X001690Y010884D01*
X001690Y010765D02*
X000620Y010765D01*
X000620Y010647D02*
X001690Y010647D01*
X001690Y010528D02*
X000620Y010528D01*
X000620Y010410D02*
X001690Y010410D01*
X001690Y010291D02*
X000620Y010291D01*
X000620Y010173D02*
X001690Y010173D01*
X001690Y010054D02*
X000620Y010054D01*
X000620Y009936D02*
X001690Y009936D01*
X001690Y009817D02*
X000620Y009817D01*
X000620Y009699D02*
X001690Y009699D01*
X001690Y009580D02*
X000620Y009580D01*
X000620Y009462D02*
X001690Y009462D01*
X001690Y009343D02*
X000620Y009343D01*
X000620Y009225D02*
X001690Y009225D01*
X001690Y009106D02*
X000620Y009106D01*
X000620Y008988D02*
X001690Y008988D01*
X001690Y008869D02*
X000620Y008869D01*
X000620Y008751D02*
X001690Y008751D01*
X001690Y008632D02*
X000620Y008632D01*
X000620Y008514D02*
X001690Y008514D01*
X001690Y008395D02*
X000620Y008395D01*
X000620Y008277D02*
X001690Y008277D01*
X001690Y008158D02*
X000620Y008158D01*
X000620Y008040D02*
X001690Y008040D01*
X001725Y007921D02*
X000620Y007921D01*
X000620Y007803D02*
X001793Y007803D01*
X001911Y007684D02*
X000620Y007684D01*
X000620Y007566D02*
X002030Y007566D01*
X002148Y007447D02*
X000620Y007447D01*
X000620Y007329D02*
X002267Y007329D01*
X002385Y007210D02*
X000620Y007210D01*
X000620Y007092D02*
X002504Y007092D01*
X002622Y006973D02*
X000620Y006973D01*
X000620Y006855D02*
X002741Y006855D01*
X002859Y006736D02*
X000620Y006736D01*
X000620Y006618D02*
X002978Y006618D01*
X003096Y006499D02*
X000620Y006499D01*
X000620Y006381D02*
X003215Y006381D01*
X003333Y006262D02*
X000620Y006262D01*
X000620Y006144D02*
X003452Y006144D01*
X003570Y006025D02*
X000620Y006025D01*
X000620Y005907D02*
X003689Y005907D01*
X003690Y005788D02*
X000620Y005788D01*
X000620Y005670D02*
X003690Y005670D01*
X003690Y005551D02*
X000620Y005551D01*
X000620Y005433D02*
X003690Y005433D01*
X003690Y005314D02*
X000620Y005314D01*
X000620Y005196D02*
X003690Y005196D01*
X003690Y005077D02*
X000620Y005077D01*
X000620Y004959D02*
X003690Y004959D01*
X003690Y004840D02*
X000620Y004840D01*
X000620Y004722D02*
X003690Y004722D01*
X003690Y004603D02*
X000620Y004603D01*
X000620Y004485D02*
X003699Y004485D01*
X003748Y004366D02*
X000620Y004366D01*
X000620Y004248D02*
X003848Y004248D01*
X003966Y004129D02*
X000620Y004129D01*
X000620Y004011D02*
X004085Y004011D01*
X004203Y003892D02*
X000620Y003892D01*
X000620Y003774D02*
X004322Y003774D01*
X004440Y003655D02*
X000620Y003655D01*
X004378Y003537D02*
X004559Y003537D01*
X004563Y003418D02*
X004677Y003418D01*
X005120Y011713D02*
X005200Y011713D01*
X005200Y011832D02*
X005120Y011832D01*
X005120Y011950D02*
X005200Y011950D01*
X005290Y013609D02*
X005707Y013609D01*
X005756Y013728D02*
X000620Y013728D01*
X000620Y013846D02*
X005866Y013846D01*
X005985Y013965D02*
X000620Y013965D01*
X000620Y014083D02*
X006103Y014083D01*
X006222Y014202D02*
X000620Y014202D01*
X000620Y014320D02*
X006340Y014320D01*
X006459Y014439D02*
X000620Y014439D01*
X000620Y014557D02*
X006660Y014557D01*
D16*
X002160Y005100D03*
X038160Y005100D03*
D17*
X022160Y013100D02*
X021160Y014100D01*
X006785Y014100D01*
X006160Y013475D01*
X006160Y013100D01*
X005160Y013100D01*
X006160Y013100D02*
X006160Y012100D01*
X006160Y004975D01*
X006910Y004225D01*
X007160Y003975D01*
X007160Y003600D01*
X007160Y001915D01*
X006160Y001915D02*
X006160Y003600D01*
X006160Y003975D01*
X005910Y004225D01*
X005160Y003600D02*
X004160Y004600D01*
X004160Y006100D01*
X002160Y008100D01*
X002160Y012100D01*
X002160Y013100D01*
X003160Y013100D02*
X003160Y012100D01*
X003160Y008350D01*
X003910Y007600D01*
X004160Y007350D01*
X005160Y003600D02*
X005160Y001915D01*
D18*
X008160Y001915D02*
X008160Y003475D01*
X008285Y003600D01*
X008285Y004225D01*
X007160Y005350D01*
X007160Y012100D01*
X006660Y012600D02*
X007160Y013100D01*
X006660Y012600D02*
X006660Y005225D01*
X007785Y004100D01*
X007785Y003850D01*
M02*
